<?xml version="1.0" encoding="UTF-8" standalone="no"?>
<!-- This is a Stata 18.0 generated SVG file (http://www.stata.com) -->

<svg version="1.1" width="5.500in" height="4.000in" viewBox="0 0 3960 2880" xmlns="http://www.w3.org/2000/svg" xmlns:xlink="http://www.w3.org/1999/xlink">
	<desc>Stata Graph - Graph</desc>
	<rect x="0" y="0" width="3960" height="2880" style="fill:#FFFFFF;stroke:none"/>
	<rect x="0.00" y="0.00" width="3959.88" height="2880.00" style="fill:#FFFFFF"/>
	<rect x="2.88" y="2.88" width="3954.12" height="2874.24" style="fill:none;stroke:#FFFFFF;stroke-width:5.76"/>
	<rect x="348.64" y="103.74" width="3507.50" height="2427.61" style="fill:none;stroke:#000000;stroke-width:5.76"/>
	<line x1="2102.39" y1="2534.23" x2="2102.39" y2="2476.69" style="stroke:#6E8E84;stroke-width:4.32"/>
	<line x1="2102.39" y1="2447.85" x2="2102.39" y2="2390.31" style="stroke:#6E8E84;stroke-width:4.32"/>
	<line x1="2102.39" y1="2361.47" x2="2102.39" y2="2303.93" style="stroke:#6E8E84;stroke-width:4.32"/>
	<line x1="2102.39" y1="2275.09" x2="2102.39" y2="2217.55" style="stroke:#6E8E84;stroke-width:4.32"/>
	<line x1="2102.39" y1="2188.71" x2="2102.39" y2="2131.17" style="stroke:#6E8E84;stroke-width:4.32"/>
	<line x1="2102.39" y1="2102.33" x2="2102.39" y2="2044.66" style="stroke:#6E8E84;stroke-width:4.32"/>
	<line x1="2102.39" y1="2015.95" x2="2102.39" y2="1958.28" style="stroke:#6E8E84;stroke-width:4.32"/>
	<line x1="2102.39" y1="1929.57" x2="2102.39" y2="1871.90" style="stroke:#6E8E84;stroke-width:4.32"/>
	<line x1="2102.39" y1="1843.07" x2="2102.39" y2="1785.52" style="stroke:#6E8E84;stroke-width:4.32"/>
	<line x1="2102.39" y1="1756.69" x2="2102.39" y2="1699.14" style="stroke:#6E8E84;stroke-width:4.32"/>
	<line x1="2102.39" y1="1670.31" x2="2102.39" y2="1612.76" style="stroke:#6E8E84;stroke-width:4.32"/>
	<line x1="2102.39" y1="1583.93" x2="2102.39" y2="1526.38" style="stroke:#6E8E84;stroke-width:4.32"/>
	<line x1="2102.39" y1="1497.55" x2="2102.39" y2="1440.00" style="stroke:#6E8E84;stroke-width:4.32"/>
	<line x1="2102.39" y1="1411.17" x2="2102.39" y2="1353.62" style="stroke:#6E8E84;stroke-width:4.32"/>
	<line x1="2102.39" y1="1324.79" x2="2102.39" y2="1267.24" style="stroke:#6E8E84;stroke-width:4.32"/>
	<line x1="2102.39" y1="1238.40" x2="2102.39" y2="1180.86" style="stroke:#6E8E84;stroke-width:4.32"/>
	<line x1="2102.39" y1="1152.02" x2="2102.39" y2="1094.36" style="stroke:#6E8E84;stroke-width:4.32"/>
	<line x1="2102.39" y1="1065.64" x2="2102.39" y2="1007.98" style="stroke:#6E8E84;stroke-width:4.32"/>
	<line x1="2102.39" y1="979.14" x2="2102.39" y2="921.60" style="stroke:#6E8E84;stroke-width:4.32"/>
	<line x1="2102.39" y1="892.76" x2="2102.39" y2="835.21" style="stroke:#6E8E84;stroke-width:4.32"/>
	<line x1="2102.39" y1="806.38" x2="2102.39" y2="748.83" style="stroke:#6E8E84;stroke-width:4.32"/>
	<line x1="2102.39" y1="720.00" x2="2102.39" y2="662.45" style="stroke:#6E8E84;stroke-width:4.32"/>
	<line x1="2102.39" y1="633.62" x2="2102.39" y2="576.07" style="stroke:#6E8E84;stroke-width:4.32"/>
	<line x1="2102.39" y1="547.24" x2="2102.39" y2="489.69" style="stroke:#6E8E84;stroke-width:4.32"/>
	<line x1="2102.39" y1="460.86" x2="2102.39" y2="403.31" style="stroke:#6E8E84;stroke-width:4.32"/>
	<line x1="2102.39" y1="374.48" x2="2102.39" y2="316.93" style="stroke:#6E8E84;stroke-width:4.32"/>
	<line x1="2102.39" y1="288.10" x2="2102.39" y2="230.55" style="stroke:#6E8E84;stroke-width:4.32"/>
	<line x1="2102.39" y1="201.72" x2="2102.39" y2="144.05" style="stroke:#6E8E84;stroke-width:4.32"/>
	<line x1="2102.39" y1="115.34" x2="2102.39" y2="100.86" style="stroke:#6E8E84;stroke-width:4.32"/>
	<line x1="345.76" y1="1086.81" x2="3859.02" y2="1086.81" style="stroke:#658397;stroke-width:8.64"/>
	<line x1="596.72" y1="1435.42" x2="596.72" y2="1377.88" style="stroke:#606060;stroke-width:8.64"/>
	<line x1="596.72" y1="1349.04" x2="596.72" y2="1291.50" style="stroke:#606060;stroke-width:8.64"/>
	<line x1="596.72" y1="1262.66" x2="596.72" y2="1204.99" style="stroke:#606060;stroke-width:8.64"/>
	<line x1="596.72" y1="1176.28" x2="596.72" y2="1118.61" style="stroke:#606060;stroke-width:8.64"/>
	<line x1="596.72" y1="1089.90" x2="596.72" y2="1032.23" style="stroke:#606060;stroke-width:8.64"/>
	<line x1="596.72" y1="1003.40" x2="596.72" y2="945.85" style="stroke:#606060;stroke-width:8.64"/>
	<line x1="596.72" y1="917.02" x2="596.72" y2="859.47" style="stroke:#606060;stroke-width:8.64"/>
	<line x1="596.72" y1="830.64" x2="596.72" y2="773.09" style="stroke:#606060;stroke-width:8.64"/>
	<line x1="596.72" y1="744.26" x2="596.72" y2="686.71" style="stroke:#606060;stroke-width:8.64"/>
	<line x1="596.72" y1="657.88" x2="596.72" y2="600.33" style="stroke:#606060;stroke-width:8.64"/>
	<line x1="596.72" y1="571.50" x2="596.72" y2="513.95" style="stroke:#606060;stroke-width:8.64"/>
	<line x1="596.72" y1="485.12" x2="596.72" y2="474.84" style="stroke:#606060;stroke-width:8.64"/>
	<line x1="574.70" y1="474.84" x2="618.75" y2="474.84" style="stroke:#606060;stroke-width:8.64"/>
	<line x1="574.70" y1="1435.42" x2="618.75" y2="1435.42" style="stroke:#606060;stroke-width:8.64"/>
	<line x1="1098.65" y1="1511.16" x2="1098.65" y2="1453.61" style="stroke:#606060;stroke-width:8.64"/>
	<line x1="1098.65" y1="1424.78" x2="1098.65" y2="1367.23" style="stroke:#606060;stroke-width:8.64"/>
	<line x1="1098.65" y1="1338.40" x2="1098.65" y2="1280.73" style="stroke:#606060;stroke-width:8.64"/>
	<line x1="1098.65" y1="1252.02" x2="1098.65" y2="1194.35" style="stroke:#606060;stroke-width:8.64"/>
	<line x1="1098.65" y1="1165.51" x2="1098.65" y2="1107.97" style="stroke:#606060;stroke-width:8.64"/>
	<line x1="1098.65" y1="1079.13" x2="1098.65" y2="1021.59" style="stroke:#606060;stroke-width:8.64"/>
	<line x1="1098.65" y1="992.75" x2="1098.65" y2="935.21" style="stroke:#606060;stroke-width:8.64"/>
	<line x1="1098.65" y1="906.37" x2="1098.65" y2="848.83" style="stroke:#606060;stroke-width:8.64"/>
	<line x1="1098.65" y1="819.99" x2="1098.65" y2="762.45" style="stroke:#606060;stroke-width:8.64"/>
	<line x1="1098.65" y1="733.61" x2="1098.65" y2="676.07" style="stroke:#606060;stroke-width:8.64"/>
	<line x1="1098.65" y1="647.23" x2="1098.65" y2="589.69" style="stroke:#606060;stroke-width:8.64"/>
	<line x1="1076.63" y1="568.03" x2="1120.68" y2="568.03" style="stroke:#606060;stroke-width:8.64"/>
	<line x1="1076.63" y1="1511.16" x2="1120.68" y2="1511.16" style="stroke:#606060;stroke-width:8.64"/>
	<line x1="1600.46" y1="1744.93" x2="1600.46" y2="1687.38" style="stroke:#606060;stroke-width:8.64"/>
	<line x1="1600.46" y1="1658.55" x2="1600.46" y2="1600.88" style="stroke:#606060;stroke-width:8.64"/>
	<line x1="1600.46" y1="1572.17" x2="1600.46" y2="1514.50" style="stroke:#606060;stroke-width:8.64"/>
	<line x1="1600.46" y1="1485.79" x2="1600.46" y2="1428.12" style="stroke:#606060;stroke-width:8.64"/>
	<line x1="1600.46" y1="1399.28" x2="1600.46" y2="1341.74" style="stroke:#606060;stroke-width:8.64"/>
	<line x1="1600.46" y1="1312.90" x2="1600.46" y2="1255.36" style="stroke:#606060;stroke-width:8.64"/>
	<line x1="1600.46" y1="1226.52" x2="1600.46" y2="1168.98" style="stroke:#606060;stroke-width:8.64"/>
	<line x1="1600.46" y1="1140.14" x2="1600.46" y2="1082.60" style="stroke:#606060;stroke-width:8.64"/>
	<line x1="1600.46" y1="1053.76" x2="1600.46" y2="996.22" style="stroke:#606060;stroke-width:8.64"/>
	<line x1="1600.46" y1="967.38" x2="1600.46" y2="909.84" style="stroke:#606060;stroke-width:8.64"/>
	<line x1="1600.46" y1="881.00" x2="1600.46" y2="823.46" style="stroke:#606060;stroke-width:8.64"/>
	<line x1="1600.46" y1="794.62" x2="1600.46" y2="786.70" style="stroke:#606060;stroke-width:8.64"/>
	<line x1="1578.43" y1="786.70" x2="1622.49" y2="786.70" style="stroke:#606060;stroke-width:8.64"/>
	<line x1="1578.43" y1="1744.93" x2="1622.49" y2="1744.93" style="stroke:#606060;stroke-width:8.64"/>
	<line x1="2102.39" y1="1355.10" x2="2102.39" y2="1297.56" style="stroke:#606060;stroke-width:8.64"/>
	<line x1="2102.39" y1="1268.72" x2="2102.39" y2="1211.18" style="stroke:#606060;stroke-width:8.64"/>
	<line x1="2102.39" y1="1182.34" x2="2102.39" y2="1124.80" style="stroke:#606060;stroke-width:8.64"/>
	<line x1="2102.39" y1="1095.96" x2="2102.39" y2="1038.42" style="stroke:#606060;stroke-width:8.64"/>
	<line x1="2102.39" y1="1009.58" x2="2102.39" y2="951.91" style="stroke:#606060;stroke-width:8.64"/>
	<line x1="2102.39" y1="923.20" x2="2102.39" y2="865.53" style="stroke:#606060;stroke-width:8.64"/>
	<line x1="2102.39" y1="836.70" x2="2102.39" y2="779.15" style="stroke:#606060;stroke-width:8.64"/>
	<line x1="2102.39" y1="750.32" x2="2102.39" y2="692.77" style="stroke:#606060;stroke-width:8.64"/>
	<line x1="2102.39" y1="663.94" x2="2102.39" y2="606.39" style="stroke:#606060;stroke-width:8.64"/>
	<line x1="2102.39" y1="577.56" x2="2102.39" y2="520.01" style="stroke:#606060;stroke-width:8.64"/>
	<line x1="2102.39" y1="491.18" x2="2102.39" y2="433.63" style="stroke:#606060;stroke-width:8.64"/>
	<line x1="2080.36" y1="407.15" x2="2124.42" y2="407.15" style="stroke:#606060;stroke-width:8.64"/>
	<line x1="2080.36" y1="1355.10" x2="2124.42" y2="1355.10" style="stroke:#606060;stroke-width:8.64"/>
	<line x1="2604.32" y1="1657.56" x2="2604.32" y2="1600.01" style="stroke:#606060;stroke-width:8.64"/>
	<line x1="2604.32" y1="1571.18" x2="2604.32" y2="1513.63" style="stroke:#606060;stroke-width:8.64"/>
	<line x1="2604.32" y1="1484.80" x2="2604.32" y2="1427.13" style="stroke:#606060;stroke-width:8.64"/>
	<line x1="2604.32" y1="1398.42" x2="2604.32" y2="1340.75" style="stroke:#606060;stroke-width:8.64"/>
	<line x1="2604.32" y1="1311.91" x2="2604.32" y2="1254.37" style="stroke:#606060;stroke-width:8.64"/>
	<line x1="2604.32" y1="1225.53" x2="2604.32" y2="1167.99" style="stroke:#606060;stroke-width:8.64"/>
	<line x1="2604.32" y1="1139.15" x2="2604.32" y2="1081.61" style="stroke:#606060;stroke-width:8.64"/>
	<line x1="2604.32" y1="1052.77" x2="2604.32" y2="995.23" style="stroke:#606060;stroke-width:8.64"/>
	<line x1="2604.32" y1="966.39" x2="2604.32" y2="908.85" style="stroke:#606060;stroke-width:8.64"/>
	<line x1="2604.32" y1="880.01" x2="2604.32" y2="822.47" style="stroke:#606060;stroke-width:8.64"/>
	<line x1="2604.32" y1="793.63" x2="2604.32" y2="736.09" style="stroke:#606060;stroke-width:8.64"/>
	<line x1="2604.32" y1="707.25" x2="2604.32" y2="671.98" style="stroke:#606060;stroke-width:8.64"/>
	<line x1="2582.29" y1="671.98" x2="2626.35" y2="671.98" style="stroke:#606060;stroke-width:8.64"/>
	<line x1="2582.29" y1="1657.56" x2="2626.35" y2="1657.56" style="stroke:#606060;stroke-width:8.64"/>
	<line x1="3106.25" y1="2434.61" x2="3106.25" y2="2377.06" style="stroke:#606060;stroke-width:8.64"/>
	<line x1="3106.25" y1="2348.23" x2="3106.25" y2="2290.68" style="stroke:#606060;stroke-width:8.64"/>
	<line x1="3106.25" y1="2261.85" x2="3106.25" y2="2204.30" style="stroke:#606060;stroke-width:8.64"/>
	<line x1="3106.25" y1="2175.47" x2="3106.25" y2="2117.92" style="stroke:#606060;stroke-width:8.64"/>
	<line x1="3106.25" y1="2089.09" x2="3106.25" y2="2031.54" style="stroke:#606060;stroke-width:8.64"/>
	<line x1="3106.25" y1="2002.71" x2="3106.25" y2="1945.16" style="stroke:#606060;stroke-width:8.64"/>
	<line x1="3106.25" y1="1916.33" x2="3106.25" y2="1858.66" style="stroke:#606060;stroke-width:8.64"/>
	<line x1="3106.25" y1="1829.95" x2="3106.25" y2="1772.28" style="stroke:#606060;stroke-width:8.64"/>
	<line x1="3106.25" y1="1743.44" x2="3106.25" y2="1685.90" style="stroke:#606060;stroke-width:8.64"/>
	<line x1="3106.25" y1="1657.06" x2="3106.25" y2="1599.52" style="stroke:#606060;stroke-width:8.64"/>
	<line x1="3106.25" y1="1570.68" x2="3106.25" y2="1513.14" style="stroke:#606060;stroke-width:8.64"/>
	<line x1="3106.25" y1="1484.30" x2="3106.25" y2="1437.52" style="stroke:#606060;stroke-width:8.64"/>
	<line x1="3084.22" y1="1437.52" x2="3128.28" y2="1437.52" style="stroke:#606060;stroke-width:8.64"/>
	<line x1="3084.22" y1="2434.61" x2="3128.28" y2="2434.61" style="stroke:#606060;stroke-width:8.64"/>
	<line x1="3608.18" y1="2372.86" x2="3608.18" y2="2315.31" style="stroke:#606060;stroke-width:8.64"/>
	<line x1="3608.18" y1="2286.48" x2="3608.18" y2="2228.93" style="stroke:#606060;stroke-width:8.64"/>
	<line x1="3608.18" y1="2200.10" x2="3608.18" y2="2142.55" style="stroke:#606060;stroke-width:8.64"/>
	<line x1="3608.18" y1="2113.72" x2="3608.18" y2="2056.17" style="stroke:#606060;stroke-width:8.64"/>
	<line x1="3608.18" y1="2027.34" x2="3608.18" y2="1969.67" style="stroke:#606060;stroke-width:8.64"/>
	<line x1="3608.18" y1="1940.96" x2="3608.18" y2="1883.29" style="stroke:#606060;stroke-width:8.64"/>
	<line x1="3608.18" y1="1854.45" x2="3608.18" y2="1796.91" style="stroke:#606060;stroke-width:8.64"/>
	<line x1="3608.18" y1="1768.07" x2="3608.18" y2="1710.53" style="stroke:#606060;stroke-width:8.64"/>
	<line x1="3608.18" y1="1681.69" x2="3608.18" y2="1624.15" style="stroke:#606060;stroke-width:8.64"/>
	<line x1="3608.18" y1="1595.31" x2="3608.18" y2="1537.77" style="stroke:#606060;stroke-width:8.64"/>
	<line x1="3608.18" y1="1508.93" x2="3608.18" y2="1451.39" style="stroke:#606060;stroke-width:8.64"/>
	<line x1="3608.18" y1="1422.55" x2="3608.18" y2="1365.01" style="stroke:#606060;stroke-width:8.64"/>
	<line x1="3608.18" y1="1336.17" x2="3608.18" y2="1316.74" style="stroke:#606060;stroke-width:8.64"/>
	<line x1="3586.15" y1="1316.74" x2="3630.21" y2="1316.74" style="stroke:#606060;stroke-width:8.64"/>
	<line x1="3586.15" y1="2372.86" x2="3630.21" y2="2372.86" style="stroke:#606060;stroke-width:8.64"/>
	<circle cx="596.60" cy="955.13" r="22.03" style="fill:none;stroke:#606060;stroke-width:8.64"/>
	<circle cx="1098.53" cy="1039.66" r="22.03" style="fill:none;stroke:#606060;stroke-width:8.64"/>
	<circle cx="1600.46" cy="1265.88" r="22.03" style="fill:none;stroke:#606060;stroke-width:8.64"/>
	<circle cx="2102.39" cy="881.13" r="22.03" style="fill:none;stroke:#606060;stroke-width:8.64"/>
	<circle cx="2604.32" cy="1164.77" r="22.03" style="fill:none;stroke:#606060;stroke-width:8.64"/>
	<circle cx="3106.13" cy="1936.13" r="22.03" style="fill:none;stroke:#606060;stroke-width:8.64"/>
	<circle cx="3608.06" cy="1844.80" r="22.03" style="fill:none;stroke:#606060;stroke-width:8.64"/>
	<path d=" M596.60 955.13 L1098.53 1039.66 L1600.46 1265.88 L2102.39 881.13 L2604.32 1164.77 L3106.13 1936.13 L3608.06 1844.80" stroke-linejoin="round" style="fill:none;stroke:#808080;stroke-width:8.64"/>
	<line x1="345.76" y1="2534.23" x2="345.76" y2="100.86" style="stroke:#000000;stroke-width:5.76"/>
	<line x1="345.76" y1="2470.87" x2="305.79" y2="2470.87" style="stroke:#000000;stroke-width:5.76"/>
	<text x="263.18" y="2470.87" style="font-family:'Helvetica';font-size:74.99px;fill:#000000" transform="rotate(-90 263.18,2470.87)" text-anchor="middle">-.03</text>
	<line x1="345.76" y1="2009.52" x2="305.79" y2="2009.52" style="stroke:#000000;stroke-width:5.76"/>
	<text x="263.18" y="2009.52" style="font-family:'Helvetica';font-size:74.99px;fill:#000000" transform="rotate(-90 263.18,2009.52)" text-anchor="middle">-.02</text>
	<line x1="345.76" y1="1548.16" x2="305.79" y2="1548.16" style="stroke:#000000;stroke-width:5.76"/>
	<text x="263.18" y="1548.16" style="font-family:'Helvetica';font-size:74.99px;fill:#000000" transform="rotate(-90 263.18,1548.16)" text-anchor="middle">-.01</text>
	<line x1="345.76" y1="1086.81" x2="305.79" y2="1086.81" style="stroke:#000000;stroke-width:5.76"/>
	<text x="263.18" y="1086.81" style="font-family:'Helvetica';font-size:74.99px;fill:#000000" transform="rotate(-90 263.18,1086.81)" text-anchor="middle">0</text>
	<line x1="345.76" y1="625.45" x2="305.79" y2="625.45" style="stroke:#000000;stroke-width:5.76"/>
	<text x="263.18" y="625.45" style="font-family:'Helvetica';font-size:74.99px;fill:#000000" transform="rotate(-90 263.18,625.45)" text-anchor="middle">.01</text>
	<line x1="345.76" y1="164.22" x2="305.79" y2="164.22" style="stroke:#000000;stroke-width:5.76"/>
	<text x="263.18" y="164.22" style="font-family:'Helvetica';font-size:74.99px;fill:#000000" transform="rotate(-90 263.18,164.22)" text-anchor="middle">.02</text>
	<text x="176.68" y="1317.48" style="font-family:'Helvetica';font-size:79.94px;fill:#000000" transform="rotate(-90 176.68,1317.48)" text-anchor="middle">Policy Dynamic Effects</text>
	<line x1="345.76" y1="2534.23" x2="3859.02" y2="2534.23" style="stroke:#000000;stroke-width:5.76"/>
	<line x1="596.72" y1="2534.23" x2="596.72" y2="2574.20" style="stroke:#000000;stroke-width:5.76"/>
	<text x="596.72" y="2646.69" style="font-family:'Helvetica';font-size:74.99px;fill:#000000" text-anchor="middle">pre_4</text>
	<line x1="1098.65" y1="2534.23" x2="1098.65" y2="2574.20" style="stroke:#000000;stroke-width:5.76"/>
	<text x="1098.65" y="2646.69" style="font-family:'Helvetica';font-size:74.99px;fill:#000000" text-anchor="middle">pre_3</text>
	<line x1="1600.46" y1="2534.23" x2="1600.46" y2="2574.20" style="stroke:#000000;stroke-width:5.76"/>
	<text x="1600.46" y="2646.69" style="font-family:'Helvetica';font-size:74.99px;fill:#000000" text-anchor="middle">pre_2</text>
	<line x1="2102.39" y1="2534.23" x2="2102.39" y2="2574.20" style="stroke:#000000;stroke-width:5.76"/>
	<text x="2102.39" y="2646.69" style="font-family:'Helvetica';font-size:74.99px;fill:#000000" text-anchor="middle">current</text>
	<line x1="2604.32" y1="2534.23" x2="2604.32" y2="2574.20" style="stroke:#000000;stroke-width:5.76"/>
	<text x="2604.32" y="2646.69" style="font-family:'Helvetica';font-size:74.99px;fill:#000000" text-anchor="middle">post_1</text>
	<line x1="3106.25" y1="2534.23" x2="3106.25" y2="2574.20" style="stroke:#000000;stroke-width:5.76"/>
	<text x="3106.25" y="2646.69" style="font-family:'Helvetica';font-size:74.99px;fill:#000000" text-anchor="middle">post_2</text>
	<line x1="3608.18" y1="2534.23" x2="3608.18" y2="2574.20" style="stroke:#000000;stroke-width:5.76"/>
	<text x="3608.18" y="2646.69" style="font-family:'Helvetica';font-size:74.99px;fill:#000000" text-anchor="middle">post_3</text>
	<text x="2102.39" y="2735.17" style="font-family:'Helvetica';font-size:79.94px;fill:#000000" text-anchor="middle">Code_ratio</text>
</svg>
