<?xml version="1.0" encoding="UTF-8" standalone="no"?>
<!-- This is a Stata 18.0 generated SVG file (http://www.stata.com) -->

<svg version="1.1" width="5.500in" height="4.000in" viewBox="0 0 3960 2880" xmlns="http://www.w3.org/2000/svg" xmlns:xlink="http://www.w3.org/1999/xlink">
	<desc>Stata Graph - Graph</desc>
	<rect x="0" y="0" width="3960" height="2880" style="fill:#FFFFFF;stroke:none"/>
	<rect x="0.00" y="0.00" width="3959.88" height="2880.00" style="fill:#FFFFFF"/>
	<rect x="2.88" y="2.88" width="3954.12" height="2874.24" style="fill:none;stroke:#FFFFFF;stroke-width:5.76"/>
	<rect x="348.64" y="103.74" width="3507.50" height="2427.61" style="fill:none;stroke:#000000;stroke-width:5.76"/>
	<line x1="2102.39" y1="2534.23" x2="2102.39" y2="2476.69" style="stroke:#6E8E84;stroke-width:4.32"/>
	<line x1="2102.39" y1="2447.85" x2="2102.39" y2="2390.31" style="stroke:#6E8E84;stroke-width:4.32"/>
	<line x1="2102.39" y1="2361.47" x2="2102.39" y2="2303.93" style="stroke:#6E8E84;stroke-width:4.32"/>
	<line x1="2102.39" y1="2275.09" x2="2102.39" y2="2217.55" style="stroke:#6E8E84;stroke-width:4.32"/>
	<line x1="2102.39" y1="2188.71" x2="2102.39" y2="2131.17" style="stroke:#6E8E84;stroke-width:4.32"/>
	<line x1="2102.39" y1="2102.33" x2="2102.39" y2="2044.66" style="stroke:#6E8E84;stroke-width:4.32"/>
	<line x1="2102.39" y1="2015.95" x2="2102.39" y2="1958.28" style="stroke:#6E8E84;stroke-width:4.32"/>
	<line x1="2102.39" y1="1929.57" x2="2102.39" y2="1871.90" style="stroke:#6E8E84;stroke-width:4.32"/>
	<line x1="2102.39" y1="1843.07" x2="2102.39" y2="1785.52" style="stroke:#6E8E84;stroke-width:4.32"/>
	<line x1="2102.39" y1="1756.69" x2="2102.39" y2="1699.14" style="stroke:#6E8E84;stroke-width:4.32"/>
	<line x1="2102.39" y1="1670.31" x2="2102.39" y2="1612.76" style="stroke:#6E8E84;stroke-width:4.32"/>
	<line x1="2102.39" y1="1583.93" x2="2102.39" y2="1526.38" style="stroke:#6E8E84;stroke-width:4.32"/>
	<line x1="2102.39" y1="1497.55" x2="2102.39" y2="1440.00" style="stroke:#6E8E84;stroke-width:4.32"/>
	<line x1="2102.39" y1="1411.17" x2="2102.39" y2="1353.62" style="stroke:#6E8E84;stroke-width:4.32"/>
	<line x1="2102.39" y1="1324.79" x2="2102.39" y2="1267.24" style="stroke:#6E8E84;stroke-width:4.32"/>
	<line x1="2102.39" y1="1238.40" x2="2102.39" y2="1180.86" style="stroke:#6E8E84;stroke-width:4.32"/>
	<line x1="2102.39" y1="1152.02" x2="2102.39" y2="1094.36" style="stroke:#6E8E84;stroke-width:4.32"/>
	<line x1="2102.39" y1="1065.64" x2="2102.39" y2="1007.98" style="stroke:#6E8E84;stroke-width:4.32"/>
	<line x1="2102.39" y1="979.14" x2="2102.39" y2="921.60" style="stroke:#6E8E84;stroke-width:4.32"/>
	<line x1="2102.39" y1="892.76" x2="2102.39" y2="835.21" style="stroke:#6E8E84;stroke-width:4.32"/>
	<line x1="2102.39" y1="806.38" x2="2102.39" y2="748.83" style="stroke:#6E8E84;stroke-width:4.32"/>
	<line x1="2102.39" y1="720.00" x2="2102.39" y2="662.45" style="stroke:#6E8E84;stroke-width:4.32"/>
	<line x1="2102.39" y1="633.62" x2="2102.39" y2="576.07" style="stroke:#6E8E84;stroke-width:4.32"/>
	<line x1="2102.39" y1="547.24" x2="2102.39" y2="489.69" style="stroke:#6E8E84;stroke-width:4.32"/>
	<line x1="2102.39" y1="460.86" x2="2102.39" y2="403.31" style="stroke:#6E8E84;stroke-width:4.32"/>
	<line x1="2102.39" y1="374.48" x2="2102.39" y2="316.93" style="stroke:#6E8E84;stroke-width:4.32"/>
	<line x1="2102.39" y1="288.10" x2="2102.39" y2="230.55" style="stroke:#6E8E84;stroke-width:4.32"/>
	<line x1="2102.39" y1="201.72" x2="2102.39" y2="144.05" style="stroke:#6E8E84;stroke-width:4.32"/>
	<line x1="2102.39" y1="115.34" x2="2102.39" y2="100.86" style="stroke:#6E8E84;stroke-width:4.32"/>
	<line x1="345.76" y1="1701.99" x2="3859.02" y2="1701.99" style="stroke:#658397;stroke-width:8.64"/>
	<line x1="596.72" y1="2015.83" x2="596.72" y2="1958.28" style="stroke:#606060;stroke-width:8.64"/>
	<line x1="596.72" y1="1929.45" x2="596.72" y2="1871.90" style="stroke:#606060;stroke-width:8.64"/>
	<line x1="596.72" y1="1843.07" x2="596.72" y2="1785.52" style="stroke:#606060;stroke-width:8.64"/>
	<line x1="596.72" y1="1756.69" x2="596.72" y2="1699.14" style="stroke:#606060;stroke-width:8.64"/>
	<line x1="596.72" y1="1670.31" x2="596.72" y2="1612.76" style="stroke:#606060;stroke-width:8.64"/>
	<line x1="596.72" y1="1583.93" x2="596.72" y2="1526.26" style="stroke:#606060;stroke-width:8.64"/>
	<line x1="596.72" y1="1497.55" x2="596.72" y2="1439.88" style="stroke:#606060;stroke-width:8.64"/>
	<line x1="596.72" y1="1411.04" x2="596.72" y2="1353.50" style="stroke:#606060;stroke-width:8.64"/>
	<line x1="596.72" y1="1324.66" x2="596.72" y2="1267.12" style="stroke:#606060;stroke-width:8.64"/>
	<line x1="596.72" y1="1238.28" x2="596.72" y2="1180.74" style="stroke:#606060;stroke-width:8.64"/>
	<line x1="596.72" y1="1151.90" x2="596.72" y2="1119.60" style="stroke:#606060;stroke-width:8.64"/>
	<line x1="574.70" y1="1119.60" x2="618.75" y2="1119.60" style="stroke:#606060;stroke-width:8.64"/>
	<line x1="574.70" y1="2015.83" x2="618.75" y2="2015.83" style="stroke:#606060;stroke-width:8.64"/>
	<line x1="1098.65" y1="1874.99" x2="1098.65" y2="1817.45" style="stroke:#606060;stroke-width:8.64"/>
	<line x1="1098.65" y1="1788.61" x2="1098.65" y2="1731.07" style="stroke:#606060;stroke-width:8.64"/>
	<line x1="1098.65" y1="1702.23" x2="1098.65" y2="1644.57" style="stroke:#606060;stroke-width:8.64"/>
	<line x1="1098.65" y1="1615.85" x2="1098.65" y2="1558.18" style="stroke:#606060;stroke-width:8.64"/>
	<line x1="1098.65" y1="1529.47" x2="1098.65" y2="1471.80" style="stroke:#606060;stroke-width:8.64"/>
	<line x1="1098.65" y1="1442.97" x2="1098.65" y2="1385.42" style="stroke:#606060;stroke-width:8.64"/>
	<line x1="1098.65" y1="1356.59" x2="1098.65" y2="1299.04" style="stroke:#606060;stroke-width:8.64"/>
	<line x1="1098.65" y1="1270.21" x2="1098.65" y2="1212.66" style="stroke:#606060;stroke-width:8.64"/>
	<line x1="1098.65" y1="1183.83" x2="1098.65" y2="1126.28" style="stroke:#606060;stroke-width:8.64"/>
	<line x1="1098.65" y1="1097.45" x2="1098.65" y2="1059.70" style="stroke:#606060;stroke-width:8.64"/>
	<line x1="1076.63" y1="1059.70" x2="1120.68" y2="1059.70" style="stroke:#606060;stroke-width:8.64"/>
	<line x1="1076.63" y1="1874.99" x2="1120.68" y2="1874.99" style="stroke:#606060;stroke-width:8.64"/>
	<line x1="1600.46" y1="2457.26" x2="1600.46" y2="2399.71" style="stroke:#606060;stroke-width:8.64"/>
	<line x1="1600.46" y1="2370.88" x2="1600.46" y2="2313.33" style="stroke:#606060;stroke-width:8.64"/>
	<line x1="1600.46" y1="2284.50" x2="1600.46" y2="2226.83" style="stroke:#606060;stroke-width:8.64"/>
	<line x1="1600.46" y1="2198.12" x2="1600.46" y2="2140.45" style="stroke:#606060;stroke-width:8.64"/>
	<line x1="1600.46" y1="2111.74" x2="1600.46" y2="2054.07" style="stroke:#606060;stroke-width:8.64"/>
	<line x1="1600.46" y1="2025.23" x2="1600.46" y2="1967.69" style="stroke:#606060;stroke-width:8.64"/>
	<line x1="1600.46" y1="1938.85" x2="1600.46" y2="1881.31" style="stroke:#606060;stroke-width:8.64"/>
	<line x1="1600.46" y1="1852.47" x2="1600.46" y2="1794.93" style="stroke:#606060;stroke-width:8.64"/>
	<line x1="1600.46" y1="1766.09" x2="1600.46" y2="1708.55" style="stroke:#606060;stroke-width:8.64"/>
	<line x1="1578.43" y1="1684.29" x2="1622.49" y2="1684.29" style="stroke:#606060;stroke-width:8.64"/>
	<line x1="1578.43" y1="2457.26" x2="1622.49" y2="2457.26" style="stroke:#606060;stroke-width:8.64"/>
	<line x1="2102.39" y1="1976.84" x2="2102.39" y2="1919.30" style="stroke:#606060;stroke-width:8.64"/>
	<line x1="2102.39" y1="1890.46" x2="2102.39" y2="1832.92" style="stroke:#606060;stroke-width:8.64"/>
	<line x1="2102.39" y1="1804.08" x2="2102.39" y2="1746.54" style="stroke:#606060;stroke-width:8.64"/>
	<line x1="2102.39" y1="1717.70" x2="2102.39" y2="1660.16" style="stroke:#606060;stroke-width:8.64"/>
	<line x1="2102.39" y1="1631.32" x2="2102.39" y2="1573.65" style="stroke:#606060;stroke-width:8.64"/>
	<line x1="2102.39" y1="1544.94" x2="2102.39" y2="1487.27" style="stroke:#606060;stroke-width:8.64"/>
	<line x1="2102.39" y1="1458.44" x2="2102.39" y2="1400.89" style="stroke:#606060;stroke-width:8.64"/>
	<line x1="2102.39" y1="1372.06" x2="2102.39" y2="1314.51" style="stroke:#606060;stroke-width:8.64"/>
	<line x1="2102.39" y1="1285.68" x2="2102.39" y2="1228.13" style="stroke:#606060;stroke-width:8.64"/>
	<line x1="2080.36" y1="1210.93" x2="2124.42" y2="1210.93" style="stroke:#606060;stroke-width:8.64"/>
	<line x1="2080.36" y1="1976.84" x2="2124.42" y2="1976.84" style="stroke:#606060;stroke-width:8.64"/>
	<line x1="2604.32" y1="1543.33" x2="2604.32" y2="1485.79" style="stroke:#606060;stroke-width:8.64"/>
	<line x1="2604.32" y1="1456.95" x2="2604.32" y2="1399.28" style="stroke:#606060;stroke-width:8.64"/>
	<line x1="2604.32" y1="1370.57" x2="2604.32" y2="1312.90" style="stroke:#606060;stroke-width:8.64"/>
	<line x1="2604.32" y1="1284.07" x2="2604.32" y2="1226.52" style="stroke:#606060;stroke-width:8.64"/>
	<line x1="2604.32" y1="1197.69" x2="2604.32" y2="1140.14" style="stroke:#606060;stroke-width:8.64"/>
	<line x1="2604.32" y1="1111.31" x2="2604.32" y2="1053.76" style="stroke:#606060;stroke-width:8.64"/>
	<line x1="2604.32" y1="1024.93" x2="2604.32" y2="967.38" style="stroke:#606060;stroke-width:8.64"/>
	<line x1="2604.32" y1="938.55" x2="2604.32" y2="881.00" style="stroke:#606060;stroke-width:8.64"/>
	<line x1="2604.32" y1="852.17" x2="2604.32" y2="794.62" style="stroke:#606060;stroke-width:8.64"/>
	<line x1="2604.32" y1="765.79" x2="2604.32" y2="754.03" style="stroke:#606060;stroke-width:8.64"/>
	<line x1="2582.29" y1="754.03" x2="2626.35" y2="754.03" style="stroke:#606060;stroke-width:8.64"/>
	<line x1="2582.29" y1="1543.33" x2="2626.35" y2="1543.33" style="stroke:#606060;stroke-width:8.64"/>
	<line x1="3106.25" y1="1016.39" x2="3106.25" y2="958.84" style="stroke:#606060;stroke-width:8.64"/>
	<line x1="3106.25" y1="930.01" x2="3106.25" y2="872.34" style="stroke:#606060;stroke-width:8.64"/>
	<line x1="3106.25" y1="843.63" x2="3106.25" y2="785.96" style="stroke:#606060;stroke-width:8.64"/>
	<line x1="3106.25" y1="757.25" x2="3106.25" y2="699.58" style="stroke:#606060;stroke-width:8.64"/>
	<line x1="3106.25" y1="670.75" x2="3106.25" y2="613.20" style="stroke:#606060;stroke-width:8.64"/>
	<line x1="3106.25" y1="584.37" x2="3106.25" y2="526.82" style="stroke:#606060;stroke-width:8.64"/>
	<line x1="3106.25" y1="497.99" x2="3106.25" y2="440.44" style="stroke:#606060;stroke-width:8.64"/>
	<line x1="3106.25" y1="411.61" x2="3106.25" y2="354.06" style="stroke:#606060;stroke-width:8.64"/>
	<line x1="3106.25" y1="325.23" x2="3106.25" y2="267.68" style="stroke:#606060;stroke-width:8.64"/>
	<line x1="3106.25" y1="238.84" x2="3106.25" y2="197.88" style="stroke:#606060;stroke-width:8.64"/>
	<line x1="3084.22" y1="197.88" x2="3128.28" y2="197.88" style="stroke:#606060;stroke-width:8.64"/>
	<line x1="3084.22" y1="1016.39" x2="3128.28" y2="1016.39" style="stroke:#606060;stroke-width:8.64"/>
	<line x1="3608.18" y1="1076.78" x2="3608.18" y2="1019.24" style="stroke:#606060;stroke-width:8.64"/>
	<line x1="3608.18" y1="990.40" x2="3608.18" y2="932.86" style="stroke:#606060;stroke-width:8.64"/>
	<line x1="3608.18" y1="904.02" x2="3608.18" y2="846.48" style="stroke:#606060;stroke-width:8.64"/>
	<line x1="3608.18" y1="817.64" x2="3608.18" y2="760.10" style="stroke:#606060;stroke-width:8.64"/>
	<line x1="3608.18" y1="731.26" x2="3608.18" y2="673.72" style="stroke:#606060;stroke-width:8.64"/>
	<line x1="3608.18" y1="644.88" x2="3608.18" y2="587.21" style="stroke:#606060;stroke-width:8.64"/>
	<line x1="3608.18" y1="558.50" x2="3608.18" y2="500.83" style="stroke:#606060;stroke-width:8.64"/>
	<line x1="3608.18" y1="472.12" x2="3608.18" y2="414.45" style="stroke:#606060;stroke-width:8.64"/>
	<line x1="3608.18" y1="385.62" x2="3608.18" y2="328.07" style="stroke:#606060;stroke-width:8.64"/>
	<line x1="3608.18" y1="299.24" x2="3608.18" y2="266.57" style="stroke:#606060;stroke-width:8.64"/>
	<line x1="3586.15" y1="266.57" x2="3630.21" y2="266.57" style="stroke:#606060;stroke-width:8.64"/>
	<line x1="3586.15" y1="1076.78" x2="3630.21" y2="1076.78" style="stroke:#606060;stroke-width:8.64"/>
	<circle cx="596.60" cy="1567.84" r="22.03" style="fill:none;stroke:#606060;stroke-width:8.64"/>
	<circle cx="1098.53" cy="1467.47" r="22.03" style="fill:none;stroke:#606060;stroke-width:8.64"/>
	<circle cx="1600.46" cy="2070.90" r="22.03" style="fill:none;stroke:#606060;stroke-width:8.64"/>
	<circle cx="2102.39" cy="1593.95" r="22.03" style="fill:none;stroke:#606060;stroke-width:8.64"/>
	<circle cx="2604.32" cy="1148.81" r="22.03" style="fill:none;stroke:#606060;stroke-width:8.64"/>
	<circle cx="3106.13" cy="607.14" r="22.03" style="fill:none;stroke:#606060;stroke-width:8.64"/>
	<circle cx="3608.06" cy="671.74" r="22.03" style="fill:none;stroke:#606060;stroke-width:8.64"/>
	<path d=" M596.60 1567.84 L1098.53 1467.47 L1600.46 2070.90 L2102.39 1593.95 L2604.32 1148.81 L3106.13 607.14 L3608.06 671.74" stroke-linejoin="round" style="fill:none;stroke:#808080;stroke-width:8.64"/>
	<line x1="345.76" y1="2534.23" x2="345.76" y2="100.86" style="stroke:#000000;stroke-width:5.76"/>
	<line x1="345.76" y1="2470.87" x2="305.79" y2="2470.87" style="stroke:#000000;stroke-width:5.76"/>
	<text x="263.18" y="2470.87" style="font-family:'Helvetica';font-size:74.99px;fill:#000000" transform="rotate(-90 263.18,2470.87)" text-anchor="middle">-.02</text>
	<line x1="345.76" y1="1701.99" x2="305.79" y2="1701.99" style="stroke:#000000;stroke-width:5.76"/>
	<text x="263.18" y="1701.99" style="font-family:'Helvetica';font-size:74.99px;fill:#000000" transform="rotate(-90 263.18,1701.99)" text-anchor="middle">0</text>
	<line x1="345.76" y1="933.10" x2="305.79" y2="933.10" style="stroke:#000000;stroke-width:5.76"/>
	<text x="263.18" y="933.10" style="font-family:'Helvetica';font-size:74.99px;fill:#000000" transform="rotate(-90 263.18,933.10)" text-anchor="middle">.02</text>
	<line x1="345.76" y1="164.22" x2="305.79" y2="164.22" style="stroke:#000000;stroke-width:5.76"/>
	<text x="263.18" y="164.22" style="font-family:'Helvetica';font-size:74.99px;fill:#000000" transform="rotate(-90 263.18,164.22)" text-anchor="middle">.04</text>
	<text x="176.68" y="1317.48" style="font-family:'Helvetica';font-size:79.94px;fill:#000000" transform="rotate(-90 176.68,1317.48)" text-anchor="middle">Policy Dynamic Effects</text>
	<line x1="345.76" y1="2534.23" x2="3859.02" y2="2534.23" style="stroke:#000000;stroke-width:5.76"/>
	<line x1="596.72" y1="2534.23" x2="596.72" y2="2574.20" style="stroke:#000000;stroke-width:5.76"/>
	<text x="596.72" y="2646.69" style="font-family:'Helvetica';font-size:74.99px;fill:#000000" text-anchor="middle">pre_4</text>
	<line x1="1098.65" y1="2534.23" x2="1098.65" y2="2574.20" style="stroke:#000000;stroke-width:5.76"/>
	<text x="1098.65" y="2646.69" style="font-family:'Helvetica';font-size:74.99px;fill:#000000" text-anchor="middle">pre_3</text>
	<line x1="1600.46" y1="2534.23" x2="1600.46" y2="2574.20" style="stroke:#000000;stroke-width:5.76"/>
	<text x="1600.46" y="2646.69" style="font-family:'Helvetica';font-size:74.99px;fill:#000000" text-anchor="middle">pre_2</text>
	<line x1="2102.39" y1="2534.23" x2="2102.39" y2="2574.20" style="stroke:#000000;stroke-width:5.76"/>
	<text x="2102.39" y="2646.69" style="font-family:'Helvetica';font-size:74.99px;fill:#000000" text-anchor="middle">current</text>
	<line x1="2604.32" y1="2534.23" x2="2604.32" y2="2574.20" style="stroke:#000000;stroke-width:5.76"/>
	<text x="2604.32" y="2646.69" style="font-family:'Helvetica';font-size:74.99px;fill:#000000" text-anchor="middle">post_1</text>
	<line x1="3106.25" y1="2534.23" x2="3106.25" y2="2574.20" style="stroke:#000000;stroke-width:5.76"/>
	<text x="3106.25" y="2646.69" style="font-family:'Helvetica';font-size:74.99px;fill:#000000" text-anchor="middle">post_2</text>
	<line x1="3608.18" y1="2534.23" x2="3608.18" y2="2574.20" style="stroke:#000000;stroke-width:5.76"/>
	<text x="3608.18" y="2646.69" style="font-family:'Helvetica';font-size:74.99px;fill:#000000" text-anchor="middle">post_3</text>
	<text x="2102.39" y="2735.17" style="fill:#000000" text-anchor="middle">
		<tspan style="font-family:'Helvetica';font-size:79.94px">Avg_rating</tspan>
		<tspan dy="11.42px" style="font-family:'Helvetica';font-size:46.61px">it</tspan>
	</text>
</svg>
