<?xml version="1.0" encoding="UTF-8" standalone="no"?>
<!-- This is a Stata 18.0 generated SVG file (http://www.stata.com) -->

<svg version="1.1" width="5.500in" height="4.000in" viewBox="0 0 3960 2880" xmlns="http://www.w3.org/2000/svg" xmlns:xlink="http://www.w3.org/1999/xlink">
	<desc>Stata Graph - Graph</desc>
	<rect x="0" y="0" width="3960" height="2880" style="fill:#FFFFFF;stroke:none"/>
	<rect x="0.00" y="0.00" width="3959.88" height="2880.00" style="fill:#FFFFFF"/>
	<rect x="2.88" y="2.88" width="3954.12" height="2874.24" style="fill:none;stroke:#FFFFFF;stroke-width:5.76"/>
	<rect x="348.64" y="103.74" width="3507.50" height="2427.61" style="fill:none;stroke:#000000;stroke-width:5.76"/>
	<line x1="2102.39" y1="2534.23" x2="2102.39" y2="2476.69" style="stroke:#6E8E84;stroke-width:4.32"/>
	<line x1="2102.39" y1="2447.85" x2="2102.39" y2="2390.31" style="stroke:#6E8E84;stroke-width:4.32"/>
	<line x1="2102.39" y1="2361.47" x2="2102.39" y2="2303.93" style="stroke:#6E8E84;stroke-width:4.32"/>
	<line x1="2102.39" y1="2275.09" x2="2102.39" y2="2217.55" style="stroke:#6E8E84;stroke-width:4.32"/>
	<line x1="2102.39" y1="2188.71" x2="2102.39" y2="2131.17" style="stroke:#6E8E84;stroke-width:4.32"/>
	<line x1="2102.39" y1="2102.33" x2="2102.39" y2="2044.66" style="stroke:#6E8E84;stroke-width:4.32"/>
	<line x1="2102.39" y1="2015.95" x2="2102.39" y2="1958.28" style="stroke:#6E8E84;stroke-width:4.32"/>
	<line x1="2102.39" y1="1929.57" x2="2102.39" y2="1871.90" style="stroke:#6E8E84;stroke-width:4.32"/>
	<line x1="2102.39" y1="1843.07" x2="2102.39" y2="1785.52" style="stroke:#6E8E84;stroke-width:4.32"/>
	<line x1="2102.39" y1="1756.69" x2="2102.39" y2="1699.14" style="stroke:#6E8E84;stroke-width:4.32"/>
	<line x1="2102.39" y1="1670.31" x2="2102.39" y2="1612.76" style="stroke:#6E8E84;stroke-width:4.32"/>
	<line x1="2102.39" y1="1583.93" x2="2102.39" y2="1526.38" style="stroke:#6E8E84;stroke-width:4.32"/>
	<line x1="2102.39" y1="1497.55" x2="2102.39" y2="1440.00" style="stroke:#6E8E84;stroke-width:4.32"/>
	<line x1="2102.39" y1="1411.17" x2="2102.39" y2="1353.62" style="stroke:#6E8E84;stroke-width:4.32"/>
	<line x1="2102.39" y1="1324.79" x2="2102.39" y2="1267.24" style="stroke:#6E8E84;stroke-width:4.32"/>
	<line x1="2102.39" y1="1238.40" x2="2102.39" y2="1180.86" style="stroke:#6E8E84;stroke-width:4.32"/>
	<line x1="2102.39" y1="1152.02" x2="2102.39" y2="1094.36" style="stroke:#6E8E84;stroke-width:4.32"/>
	<line x1="2102.39" y1="1065.64" x2="2102.39" y2="1007.98" style="stroke:#6E8E84;stroke-width:4.32"/>
	<line x1="2102.39" y1="979.14" x2="2102.39" y2="921.60" style="stroke:#6E8E84;stroke-width:4.32"/>
	<line x1="2102.39" y1="892.76" x2="2102.39" y2="835.21" style="stroke:#6E8E84;stroke-width:4.32"/>
	<line x1="2102.39" y1="806.38" x2="2102.39" y2="748.83" style="stroke:#6E8E84;stroke-width:4.32"/>
	<line x1="2102.39" y1="720.00" x2="2102.39" y2="662.45" style="stroke:#6E8E84;stroke-width:4.32"/>
	<line x1="2102.39" y1="633.62" x2="2102.39" y2="576.07" style="stroke:#6E8E84;stroke-width:4.32"/>
	<line x1="2102.39" y1="547.24" x2="2102.39" y2="489.69" style="stroke:#6E8E84;stroke-width:4.32"/>
	<line x1="2102.39" y1="460.86" x2="2102.39" y2="403.31" style="stroke:#6E8E84;stroke-width:4.32"/>
	<line x1="2102.39" y1="374.48" x2="2102.39" y2="316.93" style="stroke:#6E8E84;stroke-width:4.32"/>
	<line x1="2102.39" y1="288.10" x2="2102.39" y2="230.55" style="stroke:#6E8E84;stroke-width:4.32"/>
	<line x1="2102.39" y1="201.72" x2="2102.39" y2="144.05" style="stroke:#6E8E84;stroke-width:4.32"/>
	<line x1="2102.39" y1="115.34" x2="2102.39" y2="100.86" style="stroke:#6E8E84;stroke-width:4.32"/>
	<line x1="345.76" y1="1831.43" x2="3859.02" y2="1831.43" style="stroke:#658397;stroke-width:8.64"/>
	<line x1="596.72" y1="2470.87" x2="596.72" y2="2413.32" style="stroke:#606060;stroke-width:8.64"/>
	<line x1="596.72" y1="2384.49" x2="596.72" y2="2326.94" style="stroke:#606060;stroke-width:8.64"/>
	<line x1="596.72" y1="2298.11" x2="596.72" y2="2240.56" style="stroke:#606060;stroke-width:8.64"/>
	<line x1="596.72" y1="2211.73" x2="596.72" y2="2154.18" style="stroke:#606060;stroke-width:8.64"/>
	<line x1="596.72" y1="2125.35" x2="596.72" y2="2067.80" style="stroke:#606060;stroke-width:8.64"/>
	<line x1="596.72" y1="2038.97" x2="596.72" y2="1981.30" style="stroke:#606060;stroke-width:8.64"/>
	<line x1="596.72" y1="1952.59" x2="596.72" y2="1894.92" style="stroke:#606060;stroke-width:8.64"/>
	<line x1="596.72" y1="1866.21" x2="596.72" y2="1808.54" style="stroke:#606060;stroke-width:8.64"/>
	<line x1="596.72" y1="1779.70" x2="596.72" y2="1722.16" style="stroke:#606060;stroke-width:8.64"/>
	<line x1="596.72" y1="1693.32" x2="596.72" y2="1635.78" style="stroke:#606060;stroke-width:8.64"/>
	<line x1="596.72" y1="1606.94" x2="596.72" y2="1549.40" style="stroke:#606060;stroke-width:8.64"/>
	<line x1="596.72" y1="1520.56" x2="596.72" y2="1463.02" style="stroke:#606060;stroke-width:8.64"/>
	<line x1="596.72" y1="1434.18" x2="596.72" y2="1376.64" style="stroke:#606060;stroke-width:8.64"/>
	<line x1="574.70" y1="1375.03" x2="618.75" y2="1375.03" style="stroke:#606060;stroke-width:8.64"/>
	<line x1="574.70" y1="2470.87" x2="618.75" y2="2470.87" style="stroke:#606060;stroke-width:8.64"/>
	<line x1="1098.65" y1="2440.80" x2="1098.65" y2="2383.25" style="stroke:#606060;stroke-width:8.64"/>
	<line x1="1098.65" y1="2354.42" x2="1098.65" y2="2296.87" style="stroke:#606060;stroke-width:8.64"/>
	<line x1="1098.65" y1="2268.04" x2="1098.65" y2="2210.49" style="stroke:#606060;stroke-width:8.64"/>
	<line x1="1098.65" y1="2181.66" x2="1098.65" y2="2123.99" style="stroke:#606060;stroke-width:8.64"/>
	<line x1="1098.65" y1="2095.28" x2="1098.65" y2="2037.61" style="stroke:#606060;stroke-width:8.64"/>
	<line x1="1098.65" y1="2008.77" x2="1098.65" y2="1951.23" style="stroke:#606060;stroke-width:8.64"/>
	<line x1="1098.65" y1="1922.39" x2="1098.65" y2="1864.85" style="stroke:#606060;stroke-width:8.64"/>
	<line x1="1098.65" y1="1836.01" x2="1098.65" y2="1778.47" style="stroke:#606060;stroke-width:8.64"/>
	<line x1="1098.65" y1="1749.63" x2="1098.65" y2="1692.09" style="stroke:#606060;stroke-width:8.64"/>
	<line x1="1098.65" y1="1663.25" x2="1098.65" y2="1605.71" style="stroke:#606060;stroke-width:8.64"/>
	<line x1="1098.65" y1="1576.87" x2="1098.65" y2="1519.33" style="stroke:#606060;stroke-width:8.64"/>
	<line x1="1098.65" y1="1490.49" x2="1098.65" y2="1432.95" style="stroke:#606060;stroke-width:8.64"/>
	<line x1="1098.65" y1="1404.11" x2="1098.65" y2="1346.57" style="stroke:#606060;stroke-width:8.64"/>
	<line x1="1076.63" y1="1327.63" x2="1120.68" y2="1327.63" style="stroke:#606060;stroke-width:8.64"/>
	<line x1="1076.63" y1="2440.80" x2="1120.68" y2="2440.80" style="stroke:#606060;stroke-width:8.64"/>
	<line x1="1600.46" y1="2236.36" x2="1600.46" y2="2178.81" style="stroke:#606060;stroke-width:8.64"/>
	<line x1="1600.46" y1="2149.98" x2="1600.46" y2="2092.31" style="stroke:#606060;stroke-width:8.64"/>
	<line x1="1600.46" y1="2063.60" x2="1600.46" y2="2005.93" style="stroke:#606060;stroke-width:8.64"/>
	<line x1="1600.46" y1="1977.09" x2="1600.46" y2="1919.55" style="stroke:#606060;stroke-width:8.64"/>
	<line x1="1600.46" y1="1890.71" x2="1600.46" y2="1833.17" style="stroke:#606060;stroke-width:8.64"/>
	<line x1="1600.46" y1="1804.33" x2="1600.46" y2="1746.79" style="stroke:#606060;stroke-width:8.64"/>
	<line x1="1600.46" y1="1717.95" x2="1600.46" y2="1660.41" style="stroke:#606060;stroke-width:8.64"/>
	<line x1="1600.46" y1="1631.57" x2="1600.46" y2="1574.03" style="stroke:#606060;stroke-width:8.64"/>
	<line x1="1600.46" y1="1545.19" x2="1600.46" y2="1487.65" style="stroke:#606060;stroke-width:8.64"/>
	<line x1="1600.46" y1="1458.81" x2="1600.46" y2="1401.27" style="stroke:#606060;stroke-width:8.64"/>
	<line x1="1600.46" y1="1372.43" x2="1600.46" y2="1314.88" style="stroke:#606060;stroke-width:8.64"/>
	<line x1="1600.46" y1="1286.05" x2="1600.46" y2="1228.50" style="stroke:#606060;stroke-width:8.64"/>
	<line x1="1600.46" y1="1199.67" x2="1600.46" y2="1142.00" style="stroke:#606060;stroke-width:8.64"/>
	<line x1="1578.43" y1="1137.79" x2="1622.49" y2="1137.79" style="stroke:#606060;stroke-width:8.64"/>
	<line x1="1578.43" y1="2236.36" x2="1622.49" y2="2236.36" style="stroke:#606060;stroke-width:8.64"/>
	<line x1="2102.39" y1="1769.19" x2="2102.39" y2="1711.64" style="stroke:#606060;stroke-width:8.64"/>
	<line x1="2102.39" y1="1682.81" x2="2102.39" y2="1625.14" style="stroke:#606060;stroke-width:8.64"/>
	<line x1="2102.39" y1="1596.42" x2="2102.39" y2="1538.76" style="stroke:#606060;stroke-width:8.64"/>
	<line x1="2102.39" y1="1509.92" x2="2102.39" y2="1452.38" style="stroke:#606060;stroke-width:8.64"/>
	<line x1="2102.39" y1="1423.54" x2="2102.39" y2="1366.00" style="stroke:#606060;stroke-width:8.64"/>
	<line x1="2102.39" y1="1337.16" x2="2102.39" y2="1279.61" style="stroke:#606060;stroke-width:8.64"/>
	<line x1="2102.39" y1="1250.78" x2="2102.39" y2="1193.23" style="stroke:#606060;stroke-width:8.64"/>
	<line x1="2102.39" y1="1164.40" x2="2102.39" y2="1106.85" style="stroke:#606060;stroke-width:8.64"/>
	<line x1="2102.39" y1="1078.02" x2="2102.39" y2="1020.47" style="stroke:#606060;stroke-width:8.64"/>
	<line x1="2102.39" y1="991.64" x2="2102.39" y2="934.09" style="stroke:#606060;stroke-width:8.64"/>
	<line x1="2102.39" y1="905.26" x2="2102.39" y2="847.71" style="stroke:#606060;stroke-width:8.64"/>
	<line x1="2102.39" y1="818.88" x2="2102.39" y2="761.33" style="stroke:#606060;stroke-width:8.64"/>
	<line x1="2102.39" y1="732.50" x2="2102.39" y2="674.83" style="stroke:#606060;stroke-width:8.64"/>
	<line x1="2102.39" y1="646.12" x2="2102.39" y2="629.66" style="stroke:#606060;stroke-width:8.64"/>
	<line x1="2080.36" y1="629.66" x2="2124.42" y2="629.66" style="stroke:#606060;stroke-width:8.64"/>
	<line x1="2080.36" y1="1769.19" x2="2124.42" y2="1769.19" style="stroke:#606060;stroke-width:8.64"/>
	<line x1="2604.32" y1="1726.86" x2="2604.32" y2="1669.32" style="stroke:#606060;stroke-width:8.64"/>
	<line x1="2604.32" y1="1640.48" x2="2604.32" y2="1582.94" style="stroke:#606060;stroke-width:8.64"/>
	<line x1="2604.32" y1="1554.10" x2="2604.32" y2="1496.56" style="stroke:#606060;stroke-width:8.64"/>
	<line x1="2604.32" y1="1467.72" x2="2604.32" y2="1410.18" style="stroke:#606060;stroke-width:8.64"/>
	<line x1="2604.32" y1="1381.34" x2="2604.32" y2="1323.67" style="stroke:#606060;stroke-width:8.64"/>
	<line x1="2604.32" y1="1294.96" x2="2604.32" y2="1237.29" style="stroke:#606060;stroke-width:8.64"/>
	<line x1="2604.32" y1="1208.58" x2="2604.32" y2="1150.91" style="stroke:#606060;stroke-width:8.64"/>
	<line x1="2604.32" y1="1122.08" x2="2604.32" y2="1064.53" style="stroke:#606060;stroke-width:8.64"/>
	<line x1="2604.32" y1="1035.70" x2="2604.32" y2="978.15" style="stroke:#606060;stroke-width:8.64"/>
	<line x1="2604.32" y1="949.32" x2="2604.32" y2="891.77" style="stroke:#606060;stroke-width:8.64"/>
	<line x1="2604.32" y1="862.94" x2="2604.32" y2="805.39" style="stroke:#606060;stroke-width:8.64"/>
	<line x1="2604.32" y1="776.56" x2="2604.32" y2="719.01" style="stroke:#606060;stroke-width:8.64"/>
	<line x1="2604.32" y1="690.18" x2="2604.32" y2="632.63" style="stroke:#606060;stroke-width:8.64"/>
	<line x1="2604.32" y1="603.80" x2="2604.32" y2="561.35" style="stroke:#606060;stroke-width:8.64"/>
	<line x1="2582.29" y1="561.35" x2="2626.35" y2="561.35" style="stroke:#606060;stroke-width:8.64"/>
	<line x1="2582.29" y1="1726.86" x2="2626.35" y2="1726.86" style="stroke:#606060;stroke-width:8.64"/>
	<line x1="3106.25" y1="1358.07" x2="3106.25" y2="1300.53" style="stroke:#606060;stroke-width:8.64"/>
	<line x1="3106.25" y1="1271.69" x2="3106.25" y2="1214.15" style="stroke:#606060;stroke-width:8.64"/>
	<line x1="3106.25" y1="1185.31" x2="3106.25" y2="1127.77" style="stroke:#606060;stroke-width:8.64"/>
	<line x1="3106.25" y1="1098.93" x2="3106.25" y2="1041.39" style="stroke:#606060;stroke-width:8.64"/>
	<line x1="3106.25" y1="1012.55" x2="3106.25" y2="955.01" style="stroke:#606060;stroke-width:8.64"/>
	<line x1="3106.25" y1="926.17" x2="3106.25" y2="868.50" style="stroke:#606060;stroke-width:8.64"/>
	<line x1="3106.25" y1="839.79" x2="3106.25" y2="782.12" style="stroke:#606060;stroke-width:8.64"/>
	<line x1="3106.25" y1="753.41" x2="3106.25" y2="695.74" style="stroke:#606060;stroke-width:8.64"/>
	<line x1="3106.25" y1="666.91" x2="3106.25" y2="609.36" style="stroke:#606060;stroke-width:8.64"/>
	<line x1="3106.25" y1="580.53" x2="3106.25" y2="522.98" style="stroke:#606060;stroke-width:8.64"/>
	<line x1="3106.25" y1="494.15" x2="3106.25" y2="436.60" style="stroke:#606060;stroke-width:8.64"/>
	<line x1="3106.25" y1="407.77" x2="3106.25" y2="350.22" style="stroke:#606060;stroke-width:8.64"/>
	<line x1="3106.25" y1="321.39" x2="3106.25" y2="263.84" style="stroke:#606060;stroke-width:8.64"/>
	<line x1="3106.25" y1="235.01" x2="3106.25" y2="177.46" style="stroke:#606060;stroke-width:8.64"/>
	<line x1="3084.22" y1="164.22" x2="3128.28" y2="164.22" style="stroke:#606060;stroke-width:8.64"/>
	<line x1="3084.22" y1="1358.07" x2="3128.28" y2="1358.07" style="stroke:#606060;stroke-width:8.64"/>
	<line x1="3608.18" y1="1403.99" x2="3608.18" y2="1346.44" style="stroke:#606060;stroke-width:8.64"/>
	<line x1="3608.18" y1="1317.61" x2="3608.18" y2="1260.06" style="stroke:#606060;stroke-width:8.64"/>
	<line x1="3608.18" y1="1231.23" x2="3608.18" y2="1173.56" style="stroke:#606060;stroke-width:8.64"/>
	<line x1="3608.18" y1="1144.85" x2="3608.18" y2="1087.18" style="stroke:#606060;stroke-width:8.64"/>
	<line x1="3608.18" y1="1058.34" x2="3608.18" y2="1000.80" style="stroke:#606060;stroke-width:8.64"/>
	<line x1="3608.18" y1="971.96" x2="3608.18" y2="914.42" style="stroke:#606060;stroke-width:8.64"/>
	<line x1="3608.18" y1="885.58" x2="3608.18" y2="828.04" style="stroke:#606060;stroke-width:8.64"/>
	<line x1="3608.18" y1="799.20" x2="3608.18" y2="741.66" style="stroke:#606060;stroke-width:8.64"/>
	<line x1="3608.18" y1="712.82" x2="3608.18" y2="655.28" style="stroke:#606060;stroke-width:8.64"/>
	<line x1="3608.18" y1="626.44" x2="3608.18" y2="568.90" style="stroke:#606060;stroke-width:8.64"/>
	<line x1="3608.18" y1="540.06" x2="3608.18" y2="482.52" style="stroke:#606060;stroke-width:8.64"/>
	<line x1="3608.18" y1="453.68" x2="3608.18" y2="396.14" style="stroke:#606060;stroke-width:8.64"/>
	<line x1="3608.18" y1="367.30" x2="3608.18" y2="309.76" style="stroke:#606060;stroke-width:8.64"/>
	<line x1="3608.18" y1="280.92" x2="3608.18" y2="223.25" style="stroke:#606060;stroke-width:8.64"/>
	<line x1="3608.18" y1="194.54" x2="3608.18" y2="172.51" style="stroke:#606060;stroke-width:8.64"/>
	<line x1="3586.15" y1="172.51" x2="3630.21" y2="172.51" style="stroke:#606060;stroke-width:8.64"/>
	<line x1="3586.15" y1="1403.99" x2="3630.21" y2="1403.99" style="stroke:#606060;stroke-width:8.64"/>
	<circle cx="596.60" cy="1923.01" r="22.03" style="fill:none;stroke:#606060;stroke-width:8.64"/>
	<circle cx="1098.53" cy="1884.28" r="22.03" style="fill:none;stroke:#606060;stroke-width:8.64"/>
	<circle cx="1600.46" cy="1687.14" r="22.03" style="fill:none;stroke:#606060;stroke-width:8.64"/>
	<circle cx="2102.39" cy="1199.42" r="22.03" style="fill:none;stroke:#606060;stroke-width:8.64"/>
	<circle cx="2604.32" cy="1144.10" r="22.03" style="fill:none;stroke:#606060;stroke-width:8.64"/>
	<circle cx="3106.13" cy="761.21" r="22.03" style="fill:none;stroke:#606060;stroke-width:8.64"/>
	<circle cx="3608.06" cy="788.31" r="22.03" style="fill:none;stroke:#606060;stroke-width:8.64"/>
	<path d=" M596.60 1923.01 L1098.53 1884.28 L1600.46 1687.14 L2102.39 1199.42 L2604.32 1144.10 L3106.13 761.21 L3608.06 788.31" stroke-linejoin="round" style="fill:none;stroke:#808080;stroke-width:8.64"/>
	<line x1="345.76" y1="2534.23" x2="345.76" y2="100.86" style="stroke:#000000;stroke-width:5.76"/>
	<line x1="345.76" y1="2383.99" x2="305.79" y2="2383.99" style="stroke:#000000;stroke-width:5.76"/>
	<text x="263.18" y="2383.99" style="font-family:'Helvetica';font-size:74.99px;fill:#000000" transform="rotate(-90 263.18,2383.99)" text-anchor="middle">-.2</text>
	<line x1="345.76" y1="1831.43" x2="305.79" y2="1831.43" style="stroke:#000000;stroke-width:5.76"/>
	<text x="263.18" y="1831.43" style="font-family:'Helvetica';font-size:74.99px;fill:#000000" transform="rotate(-90 263.18,1831.43)" text-anchor="middle">0</text>
	<line x1="345.76" y1="1278.75" x2="305.79" y2="1278.75" style="stroke:#000000;stroke-width:5.76"/>
	<text x="263.18" y="1278.75" style="font-family:'Helvetica';font-size:74.99px;fill:#000000" transform="rotate(-90 263.18,1278.75)" text-anchor="middle">.2</text>
	<line x1="345.76" y1="726.19" x2="305.79" y2="726.19" style="stroke:#000000;stroke-width:5.76"/>
	<text x="263.18" y="726.19" style="font-family:'Helvetica';font-size:74.99px;fill:#000000" transform="rotate(-90 263.18,726.19)" text-anchor="middle">.4</text>
	<line x1="345.76" y1="173.50" x2="305.79" y2="173.50" style="stroke:#000000;stroke-width:5.76"/>
	<text x="263.18" y="173.50" style="font-family:'Helvetica';font-size:74.99px;fill:#000000" transform="rotate(-90 263.18,173.50)" text-anchor="middle">.6</text>
	<text x="176.68" y="1317.48" style="font-family:'Helvetica';font-size:79.94px;fill:#000000" transform="rotate(-90 176.68,1317.48)" text-anchor="middle">Policy Dynamic Effects</text>
	<line x1="345.76" y1="2534.23" x2="3859.02" y2="2534.23" style="stroke:#000000;stroke-width:5.76"/>
	<line x1="596.72" y1="2534.23" x2="596.72" y2="2574.20" style="stroke:#000000;stroke-width:5.76"/>
	<text x="596.72" y="2646.69" style="font-family:'Helvetica';font-size:74.99px;fill:#000000" text-anchor="middle">pre_4</text>
	<line x1="1098.65" y1="2534.23" x2="1098.65" y2="2574.20" style="stroke:#000000;stroke-width:5.76"/>
	<text x="1098.65" y="2646.69" style="font-family:'Helvetica';font-size:74.99px;fill:#000000" text-anchor="middle">pre_3</text>
	<line x1="1600.46" y1="2534.23" x2="1600.46" y2="2574.20" style="stroke:#000000;stroke-width:5.76"/>
	<text x="1600.46" y="2646.69" style="font-family:'Helvetica';font-size:74.99px;fill:#000000" text-anchor="middle">pre_2</text>
	<line x1="2102.39" y1="2534.23" x2="2102.39" y2="2574.20" style="stroke:#000000;stroke-width:5.76"/>
	<text x="2102.39" y="2646.69" style="font-family:'Helvetica';font-size:74.99px;fill:#000000" text-anchor="middle">current</text>
	<line x1="2604.32" y1="2534.23" x2="2604.32" y2="2574.20" style="stroke:#000000;stroke-width:5.76"/>
	<text x="2604.32" y="2646.69" style="font-family:'Helvetica';font-size:74.99px;fill:#000000" text-anchor="middle">post_1</text>
	<line x1="3106.25" y1="2534.23" x2="3106.25" y2="2574.20" style="stroke:#000000;stroke-width:5.76"/>
	<text x="3106.25" y="2646.69" style="font-family:'Helvetica';font-size:74.99px;fill:#000000" text-anchor="middle">post_2</text>
	<line x1="3608.18" y1="2534.23" x2="3608.18" y2="2574.20" style="stroke:#000000;stroke-width:5.76"/>
	<text x="3608.18" y="2646.69" style="font-family:'Helvetica';font-size:74.99px;fill:#000000" text-anchor="middle">post_3</text>
	<text x="2102.39" y="2735.17" style="font-family:'Helvetica';font-size:79.94px;fill:#000000" text-anchor="middle">Readability</text>
</svg>
