<?xml version="1.0" encoding="UTF-8" standalone="no"?>
<!-- This is a Stata 18.0 generated SVG file (http://www.stata.com) -->

<svg version="1.1" width="7.500in" height="4.500in" viewBox="0 0 5400 3240" xmlns="http://www.w3.org/2000/svg" xmlns:xlink="http://www.w3.org/1999/xlink">
	<desc>Stata Graph - Graph</desc>
	<rect x="0" y="0" width="5400" height="3240" style="fill:#FFFFFF;stroke:none"/>
	<rect x="0.00" y="0.00" width="5400.00" height="3240.00" style="fill:#FFFFFF"/>
	<rect x="3.24" y="3.24" width="5393.52" height="3233.52" style="fill:none;stroke:#FFFFFF;stroke-width:6.48"/>
	<rect x="71.21" y="71.21" width="2628.79" height="1548.79" style="fill:#FFFFFF"/>
	<rect x="73.64" y="73.64" width="2623.93" height="1543.93" style="fill:none;stroke:#FFFFFF;stroke-width:4.86"/>
	<rect x="365.41" y="158.69" width="2247.11" height="1167.11" style="fill:none;stroke:#000000;stroke-width:4.86"/>
	<line x1="1489.05" y1="1328.23" x2="1489.05" y2="1263.43" style="stroke:#6E8E84;stroke-width:3.65"/>
	<line x1="1489.05" y1="1231.03" x2="1489.05" y2="1166.23" style="stroke:#6E8E84;stroke-width:3.65"/>
	<line x1="1489.05" y1="1133.83" x2="1489.05" y2="1069.03" style="stroke:#6E8E84;stroke-width:3.65"/>
	<line x1="1489.05" y1="1036.63" x2="1489.05" y2="971.83" style="stroke:#6E8E84;stroke-width:3.65"/>
	<line x1="1489.05" y1="939.43" x2="1489.05" y2="874.63" style="stroke:#6E8E84;stroke-width:3.65"/>
	<line x1="1489.05" y1="842.23" x2="1489.05" y2="777.43" style="stroke:#6E8E84;stroke-width:3.65"/>
	<line x1="1489.05" y1="745.03" x2="1489.05" y2="680.23" style="stroke:#6E8E84;stroke-width:3.65"/>
	<line x1="1489.05" y1="647.83" x2="1489.05" y2="583.03" style="stroke:#6E8E84;stroke-width:3.65"/>
	<line x1="1489.05" y1="550.63" x2="1489.05" y2="485.83" style="stroke:#6E8E84;stroke-width:3.65"/>
	<line x1="1489.05" y1="453.43" x2="1489.05" y2="388.63" style="stroke:#6E8E84;stroke-width:3.65"/>
	<line x1="1489.05" y1="356.23" x2="1489.05" y2="291.43" style="stroke:#6E8E84;stroke-width:3.65"/>
	<line x1="1489.05" y1="259.03" x2="1489.05" y2="194.23" style="stroke:#6E8E84;stroke-width:3.65"/>
	<line x1="1489.05" y1="161.83" x2="1489.05" y2="156.26" style="stroke:#6E8E84;stroke-width:3.65"/>
	<line x1="362.98" y1="919.86" x2="2614.95" y2="919.86" style="stroke:#658397;stroke-width:7.29"/>
	<line x1="523.80" y1="1064.64" x2="523.80" y2="999.84" style="stroke:#606060;stroke-width:7.29"/>
	<line x1="523.80" y1="967.44" x2="523.80" y2="902.64" style="stroke:#606060;stroke-width:7.29"/>
	<line x1="523.80" y1="870.24" x2="523.80" y2="805.44" style="stroke:#606060;stroke-width:7.29"/>
	<line x1="523.80" y1="773.04" x2="523.80" y2="708.24" style="stroke:#606060;stroke-width:7.29"/>
	<line x1="523.80" y1="675.84" x2="523.80" y2="650.87" style="stroke:#606060;stroke-width:7.29"/>
	<line x1="505.24" y1="650.87" x2="542.36" y2="650.87" style="stroke:#606060;stroke-width:7.29"/>
	<line x1="505.24" y1="1064.64" x2="542.36" y2="1064.64" style="stroke:#606060;stroke-width:7.29"/>
	<line x1="845.61" y1="999.68" x2="845.61" y2="934.88" style="stroke:#606060;stroke-width:7.29"/>
	<line x1="845.61" y1="902.47" x2="845.61" y2="837.68" style="stroke:#606060;stroke-width:7.29"/>
	<line x1="845.61" y1="805.28" x2="845.61" y2="740.47" style="stroke:#606060;stroke-width:7.29"/>
	<line x1="845.61" y1="708.07" x2="845.61" y2="643.28" style="stroke:#606060;stroke-width:7.29"/>
	<line x1="827.04" y1="623.19" x2="864.17" y2="623.19" style="stroke:#606060;stroke-width:7.29"/>
	<line x1="827.04" y1="999.68" x2="864.17" y2="999.68" style="stroke:#606060;stroke-width:7.29"/>
	<line x1="1167.24" y1="1268.49" x2="1167.24" y2="1203.69" style="stroke:#606060;stroke-width:7.29"/>
	<line x1="1167.24" y1="1171.29" x2="1167.24" y2="1106.49" style="stroke:#606060;stroke-width:7.29"/>
	<line x1="1167.24" y1="1074.09" x2="1167.24" y2="1009.29" style="stroke:#606060;stroke-width:7.29"/>
	<line x1="1167.24" y1="976.89" x2="1167.24" y2="912.09" style="stroke:#606060;stroke-width:7.29"/>
	<line x1="1148.68" y1="911.59" x2="1185.81" y2="911.59" style="stroke:#606060;stroke-width:7.29"/>
	<line x1="1148.68" y1="1268.49" x2="1185.81" y2="1268.49" style="stroke:#606060;stroke-width:7.29"/>
	<line x1="1489.05" y1="1046.76" x2="1489.05" y2="981.96" style="stroke:#606060;stroke-width:7.29"/>
	<line x1="1489.05" y1="949.56" x2="1489.05" y2="884.76" style="stroke:#606060;stroke-width:7.29"/>
	<line x1="1489.05" y1="852.36" x2="1489.05" y2="787.56" style="stroke:#606060;stroke-width:7.29"/>
	<line x1="1489.05" y1="755.16" x2="1489.05" y2="693.06" style="stroke:#606060;stroke-width:7.29"/>
	<line x1="1470.49" y1="693.06" x2="1507.61" y2="693.06" style="stroke:#606060;stroke-width:7.29"/>
	<line x1="1470.49" y1="1046.76" x2="1507.61" y2="1046.76" style="stroke:#606060;stroke-width:7.29"/>
	<line x1="1810.69" y1="846.62" x2="1810.69" y2="781.82" style="stroke:#606060;stroke-width:7.29"/>
	<line x1="1810.69" y1="749.42" x2="1810.69" y2="684.62" style="stroke:#606060;stroke-width:7.29"/>
	<line x1="1810.69" y1="652.22" x2="1810.69" y2="587.42" style="stroke:#606060;stroke-width:7.29"/>
	<line x1="1810.69" y1="555.02" x2="1810.69" y2="490.22" style="stroke:#606060;stroke-width:7.29"/>
	<line x1="1792.13" y1="482.12" x2="1829.25" y2="482.12" style="stroke:#606060;stroke-width:7.29"/>
	<line x1="1792.13" y1="846.62" x2="1829.25" y2="846.62" style="stroke:#606060;stroke-width:7.29"/>
	<line x1="2132.32" y1="603.28" x2="2132.32" y2="538.48" style="stroke:#606060;stroke-width:7.29"/>
	<line x1="2132.32" y1="506.08" x2="2132.32" y2="441.28" style="stroke:#606060;stroke-width:7.29"/>
	<line x1="2132.32" y1="408.88" x2="2132.32" y2="344.08" style="stroke:#606060;stroke-width:7.29"/>
	<line x1="2132.32" y1="311.68" x2="2132.32" y2="246.88" style="stroke:#606060;stroke-width:7.29"/>
	<line x1="2113.76" y1="225.28" x2="2150.89" y2="225.28" style="stroke:#606060;stroke-width:7.29"/>
	<line x1="2113.76" y1="603.28" x2="2150.89" y2="603.28" style="stroke:#606060;stroke-width:7.29"/>
	<line x1="2454.13" y1="631.13" x2="2454.13" y2="566.32" style="stroke:#606060;stroke-width:7.29"/>
	<line x1="2454.13" y1="533.93" x2="2454.13" y2="469.13" style="stroke:#606060;stroke-width:7.29"/>
	<line x1="2454.13" y1="436.72" x2="2454.13" y2="371.93" style="stroke:#606060;stroke-width:7.29"/>
	<line x1="2454.13" y1="339.53" x2="2454.13" y2="274.72" style="stroke:#606060;stroke-width:7.29"/>
	<line x1="2435.57" y1="257.01" x2="2472.69" y2="257.01" style="stroke:#606060;stroke-width:7.29"/>
	<line x1="2435.57" y1="631.13" x2="2472.69" y2="631.13" style="stroke:#606060;stroke-width:7.29"/>
	<circle cx="523.80" cy="857.93" r="18.56" style="fill:none;stroke:#606060;stroke-width:7.29"/>
	<circle cx="845.44" cy="811.52" r="18.56" style="fill:none;stroke:#606060;stroke-width:7.29"/>
	<circle cx="1167.24" cy="1090.13" r="18.56" style="fill:none;stroke:#606060;stroke-width:7.29"/>
	<circle cx="1488.88" cy="870.07" r="18.56" style="fill:none;stroke:#606060;stroke-width:7.29"/>
	<circle cx="1810.69" cy="664.37" r="18.56" style="fill:none;stroke:#606060;stroke-width:7.29"/>
	<circle cx="2132.32" cy="414.45" r="18.56" style="fill:none;stroke:#606060;stroke-width:7.29"/>
	<circle cx="2453.96" cy="444.15" r="18.56" style="fill:none;stroke:#606060;stroke-width:7.29"/>
	<path d=" M523.80 857.93 L845.44 811.52 L1167.24 1090.13 L1488.88 870.07 L1810.69 664.37 L2132.32 414.45 L2453.96 444.15" stroke-linejoin="round" style="fill:none;stroke:#808080;stroke-width:7.29"/>
	<line x1="362.98" y1="1328.23" x2="362.98" y2="156.26" style="stroke:#000000;stroke-width:4.86"/>
	<line x1="362.98" y1="1274.74" x2="329.23" y2="1274.74" style="stroke:#000000;stroke-width:4.86"/>
	<text x="293.29" y="1274.74" style="font-family:'Helvetica';font-size:63.28px;fill:#000000" transform="rotate(-90 293.29,1274.74)" text-anchor="middle">-.02</text>
	<line x1="362.98" y1="919.86" x2="329.23" y2="919.86" style="stroke:#000000;stroke-width:4.86"/>
	<text x="293.29" y="919.86" style="font-family:'Helvetica';font-size:63.28px;fill:#000000" transform="rotate(-90 293.29,919.86)" text-anchor="middle">0</text>
	<line x1="362.98" y1="564.81" x2="329.23" y2="564.81" style="stroke:#000000;stroke-width:4.86"/>
	<text x="293.29" y="564.81" style="font-family:'Helvetica';font-size:63.28px;fill:#000000" transform="rotate(-90 293.29,564.81)" text-anchor="middle">.02</text>
	<line x1="362.98" y1="209.76" x2="329.23" y2="209.76" style="stroke:#000000;stroke-width:4.86"/>
	<text x="293.29" y="209.76" style="font-family:'Helvetica';font-size:63.28px;fill:#000000" transform="rotate(-90 293.29,209.76)" text-anchor="middle">.04</text>
	<text x="220.30" y="742.33" style="font-family:'Helvetica';font-size:67.50px;fill:#000000" transform="rotate(-90 220.30,742.33)" text-anchor="middle">Policy Dynamic Effects</text>
	<line x1="362.98" y1="1328.23" x2="2614.95" y2="1328.23" style="stroke:#000000;stroke-width:4.86"/>
	<line x1="523.80" y1="1328.23" x2="523.80" y2="1361.98" style="stroke:#000000;stroke-width:4.86"/>
	<text x="523.80" y="1423.07" style="font-family:'Helvetica';font-size:63.28px;fill:#000000" text-anchor="middle">pre_4</text>
	<line x1="845.61" y1="1328.23" x2="845.61" y2="1361.98" style="stroke:#000000;stroke-width:4.86"/>
	<text x="845.61" y="1423.07" style="font-family:'Helvetica';font-size:63.28px;fill:#000000" text-anchor="middle">pre_3</text>
	<line x1="1167.24" y1="1328.23" x2="1167.24" y2="1361.98" style="stroke:#000000;stroke-width:4.86"/>
	<text x="1167.24" y="1423.07" style="font-family:'Helvetica';font-size:63.28px;fill:#000000" text-anchor="middle">pre_2</text>
	<line x1="1489.05" y1="1328.23" x2="1489.05" y2="1361.98" style="stroke:#000000;stroke-width:4.86"/>
	<text x="1489.05" y="1423.07" style="font-family:'Helvetica';font-size:63.28px;fill:#000000" text-anchor="middle">current</text>
	<line x1="1810.69" y1="1328.23" x2="1810.69" y2="1361.98" style="stroke:#000000;stroke-width:4.86"/>
	<text x="1810.69" y="1423.07" style="font-family:'Helvetica';font-size:63.28px;fill:#000000" text-anchor="middle">post_1</text>
	<line x1="2132.32" y1="1328.23" x2="2132.32" y2="1361.98" style="stroke:#000000;stroke-width:4.86"/>
	<text x="2132.32" y="1423.07" style="font-family:'Helvetica';font-size:63.28px;fill:#000000" text-anchor="middle">post_2</text>
	<line x1="2454.13" y1="1328.23" x2="2454.13" y2="1361.98" style="stroke:#000000;stroke-width:4.86"/>
	<text x="2454.13" y="1423.07" style="font-family:'Helvetica';font-size:63.28px;fill:#000000" text-anchor="middle">post_3</text>
	<text x="1489.05" y="1497.74" style="fill:#000000" text-anchor="middle">
		<tspan style="font-family:'Helvetica';font-size:67.50px">Avg_rating</tspan>
		<tspan dy="9.64px" style="font-family:'Helvetica';font-size:39.35px">it</tspan>
	</text>
	<rect x="2700.00" y="71.21" width="2628.79" height="1548.79" style="fill:#FFFFFF"/>
	<rect x="2702.43" y="73.64" width="2623.93" height="1543.93" style="fill:none;stroke:#FFFFFF;stroke-width:4.86"/>
	<rect x="2994.20" y="158.69" width="2247.11" height="1167.11" style="fill:none;stroke:#000000;stroke-width:4.86"/>
	<line x1="4117.67" y1="1328.23" x2="4117.67" y2="1263.43" style="stroke:#6E8E84;stroke-width:3.65"/>
	<line x1="4117.67" y1="1231.03" x2="4117.67" y2="1166.23" style="stroke:#6E8E84;stroke-width:3.65"/>
	<line x1="4117.67" y1="1133.83" x2="4117.67" y2="1069.03" style="stroke:#6E8E84;stroke-width:3.65"/>
	<line x1="4117.67" y1="1036.63" x2="4117.67" y2="971.83" style="stroke:#6E8E84;stroke-width:3.65"/>
	<line x1="4117.67" y1="939.43" x2="4117.67" y2="874.63" style="stroke:#6E8E84;stroke-width:3.65"/>
	<line x1="4117.67" y1="842.23" x2="4117.67" y2="777.43" style="stroke:#6E8E84;stroke-width:3.65"/>
	<line x1="4117.67" y1="745.03" x2="4117.67" y2="680.23" style="stroke:#6E8E84;stroke-width:3.65"/>
	<line x1="4117.67" y1="647.83" x2="4117.67" y2="583.03" style="stroke:#6E8E84;stroke-width:3.65"/>
	<line x1="4117.67" y1="550.63" x2="4117.67" y2="485.83" style="stroke:#6E8E84;stroke-width:3.65"/>
	<line x1="4117.67" y1="453.43" x2="4117.67" y2="388.63" style="stroke:#6E8E84;stroke-width:3.65"/>
	<line x1="4117.67" y1="356.23" x2="4117.67" y2="291.43" style="stroke:#6E8E84;stroke-width:3.65"/>
	<line x1="4117.67" y1="259.03" x2="4117.67" y2="194.23" style="stroke:#6E8E84;stroke-width:3.65"/>
	<line x1="4117.67" y1="161.83" x2="4117.67" y2="156.26" style="stroke:#6E8E84;stroke-width:3.65"/>
	<line x1="2991.77" y1="940.61" x2="5243.74" y2="940.61" style="stroke:#658397;stroke-width:7.29"/>
	<line x1="3152.59" y1="1270.01" x2="3152.59" y2="1205.21" style="stroke:#606060;stroke-width:7.29"/>
	<line x1="3152.59" y1="1172.81" x2="3152.59" y2="1108.01" style="stroke:#606060;stroke-width:7.29"/>
	<line x1="3152.59" y1="1075.61" x2="3152.59" y2="1010.81" style="stroke:#606060;stroke-width:7.29"/>
	<line x1="3152.59" y1="978.41" x2="3152.59" y2="913.61" style="stroke:#606060;stroke-width:7.29"/>
	<line x1="3152.59" y1="881.21" x2="3152.59" y2="816.41" style="stroke:#606060;stroke-width:7.29"/>
	<line x1="3134.03" y1="791.44" x2="3171.15" y2="791.44" style="stroke:#606060;stroke-width:7.29"/>
	<line x1="3134.03" y1="1270.01" x2="3171.15" y2="1270.01" style="stroke:#606060;stroke-width:7.29"/>
	<line x1="3474.23" y1="1140.58" x2="3474.23" y2="1075.78" style="stroke:#606060;stroke-width:7.29"/>
	<line x1="3474.23" y1="1043.38" x2="3474.23" y2="978.58" style="stroke:#606060;stroke-width:7.29"/>
	<line x1="3474.23" y1="946.18" x2="3474.23" y2="881.38" style="stroke:#606060;stroke-width:7.29"/>
	<line x1="3474.23" y1="848.98" x2="3474.23" y2="784.18" style="stroke:#606060;stroke-width:7.29"/>
	<line x1="3474.23" y1="751.78" x2="3474.23" y2="686.98" style="stroke:#606060;stroke-width:7.29"/>
	<line x1="3455.66" y1="656.94" x2="3492.79" y2="656.94" style="stroke:#606060;stroke-width:7.29"/>
	<line x1="3455.66" y1="1140.58" x2="3492.79" y2="1140.58" style="stroke:#606060;stroke-width:7.29"/>
	<line x1="3796.03" y1="1132.48" x2="3796.03" y2="1067.68" style="stroke:#606060;stroke-width:7.29"/>
	<line x1="3796.03" y1="1035.28" x2="3796.03" y2="970.48" style="stroke:#606060;stroke-width:7.29"/>
	<line x1="3796.03" y1="938.08" x2="3796.03" y2="873.28" style="stroke:#606060;stroke-width:7.29"/>
	<line x1="3796.03" y1="840.88" x2="3796.03" y2="776.08" style="stroke:#606060;stroke-width:7.29"/>
	<line x1="3796.03" y1="743.68" x2="3796.03" y2="678.88" style="stroke:#606060;stroke-width:7.29"/>
	<line x1="3777.47" y1="652.39" x2="3814.59" y2="652.39" style="stroke:#606060;stroke-width:7.29"/>
	<line x1="3777.47" y1="1132.48" x2="3814.59" y2="1132.48" style="stroke:#606060;stroke-width:7.29"/>
	<line x1="4117.67" y1="802.74" x2="4117.67" y2="737.94" style="stroke:#606060;stroke-width:7.29"/>
	<line x1="4117.67" y1="705.54" x2="4117.67" y2="640.74" style="stroke:#606060;stroke-width:7.29"/>
	<line x1="4117.67" y1="608.34" x2="4117.67" y2="543.54" style="stroke:#606060;stroke-width:7.29"/>
	<line x1="4117.67" y1="511.14" x2="4117.67" y2="446.34" style="stroke:#606060;stroke-width:7.29"/>
	<line x1="4117.67" y1="413.94" x2="4117.67" y2="349.14" style="stroke:#606060;stroke-width:7.29"/>
	<line x1="4099.11" y1="318.43" x2="4136.23" y2="318.43" style="stroke:#606060;stroke-width:7.29"/>
	<line x1="4099.11" y1="802.74" x2="4136.23" y2="802.74" style="stroke:#606060;stroke-width:7.29"/>
	<line x1="4439.48" y1="1005.75" x2="4439.48" y2="940.95" style="stroke:#606060;stroke-width:7.29"/>
	<line x1="4439.48" y1="908.55" x2="4439.48" y2="843.75" style="stroke:#606060;stroke-width:7.29"/>
	<line x1="4439.48" y1="811.35" x2="4439.48" y2="746.55" style="stroke:#606060;stroke-width:7.29"/>
	<line x1="4439.48" y1="714.15" x2="4439.48" y2="649.35" style="stroke:#606060;stroke-width:7.29"/>
	<line x1="4439.48" y1="616.95" x2="4439.48" y2="552.15" style="stroke:#606060;stroke-width:7.29"/>
	<line x1="4439.48" y1="519.75" x2="4439.48" y2="505.74" style="stroke:#606060;stroke-width:7.29"/>
	<line x1="4420.91" y1="505.74" x2="4458.04" y2="505.74" style="stroke:#606060;stroke-width:7.29"/>
	<line x1="4420.91" y1="1005.75" x2="4458.04" y2="1005.75" style="stroke:#606060;stroke-width:7.29"/>
	<line x1="4761.11" y1="721.07" x2="4761.11" y2="656.27" style="stroke:#606060;stroke-width:7.29"/>
	<line x1="4761.11" y1="623.87" x2="4761.11" y2="559.07" style="stroke:#606060;stroke-width:7.29"/>
	<line x1="4761.11" y1="526.67" x2="4761.11" y2="461.87" style="stroke:#606060;stroke-width:7.29"/>
	<line x1="4761.11" y1="429.47" x2="4761.11" y2="364.67" style="stroke:#606060;stroke-width:7.29"/>
	<line x1="4761.11" y1="332.27" x2="4761.11" y2="267.47" style="stroke:#606060;stroke-width:7.29"/>
	<line x1="4761.11" y1="235.07" x2="4761.11" y2="209.76" style="stroke:#606060;stroke-width:7.29"/>
	<line x1="4742.55" y1="209.76" x2="4779.68" y2="209.76" style="stroke:#606060;stroke-width:7.29"/>
	<line x1="4742.55" y1="721.07" x2="4779.68" y2="721.07" style="stroke:#606060;stroke-width:7.29"/>
	<line x1="5082.75" y1="812.70" x2="5082.75" y2="747.90" style="stroke:#606060;stroke-width:7.29"/>
	<line x1="5082.75" y1="715.50" x2="5082.75" y2="650.70" style="stroke:#606060;stroke-width:7.29"/>
	<line x1="5082.75" y1="618.30" x2="5082.75" y2="553.50" style="stroke:#606060;stroke-width:7.29"/>
	<line x1="5082.75" y1="521.10" x2="5082.75" y2="456.30" style="stroke:#606060;stroke-width:7.29"/>
	<line x1="5082.75" y1="423.90" x2="5082.75" y2="359.10" style="stroke:#606060;stroke-width:7.29"/>
	<line x1="5082.75" y1="326.70" x2="5082.75" y2="295.99" style="stroke:#606060;stroke-width:7.29"/>
	<line x1="5064.19" y1="295.99" x2="5101.31" y2="295.99" style="stroke:#606060;stroke-width:7.29"/>
	<line x1="5064.19" y1="812.70" x2="5101.31" y2="812.70" style="stroke:#606060;stroke-width:7.29"/>
	<circle cx="3152.59" cy="1030.72" r="18.56" style="fill:none;stroke:#606060;stroke-width:7.29"/>
	<circle cx="3474.23" cy="898.93" r="18.56" style="fill:none;stroke:#606060;stroke-width:7.29"/>
	<circle cx="3795.86" cy="892.52" r="18.56" style="fill:none;stroke:#606060;stroke-width:7.29"/>
	<circle cx="4117.67" cy="560.76" r="18.56" style="fill:none;stroke:#606060;stroke-width:7.29"/>
	<circle cx="4439.31" cy="755.83" r="18.56" style="fill:none;stroke:#606060;stroke-width:7.29"/>
	<circle cx="4761.11" cy="465.41" r="18.56" style="fill:none;stroke:#606060;stroke-width:7.29"/>
	<circle cx="5082.75" cy="554.51" r="18.56" style="fill:none;stroke:#606060;stroke-width:7.29"/>
	<path d=" M3152.59 1030.72 L3474.23 898.93 L3795.86 892.52 L4117.67 560.76 L4439.31 755.83 L4761.11 465.41 L5082.75 554.51" stroke-linejoin="round" style="fill:none;stroke:#808080;stroke-width:7.29"/>
	<line x1="2991.77" y1="1328.23" x2="2991.77" y2="156.26" style="stroke:#000000;stroke-width:4.86"/>
	<line x1="2991.77" y1="1274.74" x2="2958.02" y2="1274.74" style="stroke:#000000;stroke-width:4.86"/>
	<text x="2922.08" y="1274.74" style="font-family:'Helvetica';font-size:63.28px;fill:#000000" transform="rotate(-90 2922.08,1274.74)" text-anchor="middle">-.05</text>
	<line x1="2991.77" y1="940.61" x2="2958.02" y2="940.61" style="stroke:#000000;stroke-width:4.86"/>
	<text x="2922.08" y="940.61" style="font-family:'Helvetica';font-size:63.28px;fill:#000000" transform="rotate(-90 2922.08,940.61)" text-anchor="middle">0</text>
	<line x1="2991.77" y1="606.49" x2="2958.02" y2="606.49" style="stroke:#000000;stroke-width:4.86"/>
	<text x="2922.08" y="606.49" style="font-family:'Helvetica';font-size:63.28px;fill:#000000" transform="rotate(-90 2922.08,606.49)" text-anchor="middle">.05</text>
	<line x1="2991.77" y1="272.36" x2="2958.02" y2="272.36" style="stroke:#000000;stroke-width:4.86"/>
	<text x="2922.08" y="272.36" style="font-family:'Helvetica';font-size:63.28px;fill:#000000" transform="rotate(-90 2922.08,272.36)" text-anchor="middle">.1</text>
	<text x="2849.09" y="742.33" style="font-family:'Helvetica';font-size:67.50px;fill:#000000" transform="rotate(-90 2849.09,742.33)" text-anchor="middle">Policy Dynamic Effects</text>
	<line x1="2991.77" y1="1328.23" x2="5243.74" y2="1328.23" style="stroke:#000000;stroke-width:4.86"/>
	<line x1="3152.59" y1="1328.23" x2="3152.59" y2="1361.98" style="stroke:#000000;stroke-width:4.86"/>
	<text x="3152.59" y="1423.07" style="font-family:'Helvetica';font-size:63.28px;fill:#000000" text-anchor="middle">pre_4</text>
	<line x1="3474.23" y1="1328.23" x2="3474.23" y2="1361.98" style="stroke:#000000;stroke-width:4.86"/>
	<text x="3474.23" y="1423.07" style="font-family:'Helvetica';font-size:63.28px;fill:#000000" text-anchor="middle">pre_3</text>
	<line x1="3796.03" y1="1328.23" x2="3796.03" y2="1361.98" style="stroke:#000000;stroke-width:4.86"/>
	<text x="3796.03" y="1423.07" style="font-family:'Helvetica';font-size:63.28px;fill:#000000" text-anchor="middle">pre_2</text>
	<line x1="4117.67" y1="1328.23" x2="4117.67" y2="1361.98" style="stroke:#000000;stroke-width:4.86"/>
	<text x="4117.67" y="1423.07" style="font-family:'Helvetica';font-size:63.28px;fill:#000000" text-anchor="middle">current</text>
	<line x1="4439.48" y1="1328.23" x2="4439.48" y2="1361.98" style="stroke:#000000;stroke-width:4.86"/>
	<text x="4439.48" y="1423.07" style="font-family:'Helvetica';font-size:63.28px;fill:#000000" text-anchor="middle">post_1</text>
	<line x1="4761.11" y1="1328.23" x2="4761.11" y2="1361.98" style="stroke:#000000;stroke-width:4.86"/>
	<text x="4761.11" y="1423.07" style="font-family:'Helvetica';font-size:63.28px;fill:#000000" text-anchor="middle">post_2</text>
	<line x1="5082.75" y1="1328.23" x2="5082.75" y2="1361.98" style="stroke:#000000;stroke-width:4.86"/>
	<text x="5082.75" y="1423.07" style="font-family:'Helvetica';font-size:63.28px;fill:#000000" text-anchor="middle">post_3</text>
	<text x="4117.67" y="1497.74" style="font-family:'Helvetica';font-size:67.50px;fill:#000000" text-anchor="middle">Concrete</text>
	<rect x="71.21" y="1620.00" width="2628.79" height="1548.79" style="fill:#FFFFFF"/>
	<rect x="73.64" y="1622.43" width="2623.93" height="1543.93" style="fill:none;stroke:#FFFFFF;stroke-width:4.86"/>
	<rect x="365.41" y="1707.48" width="2247.11" height="1167.11" style="fill:none;stroke:#000000;stroke-width:4.86"/>
	<line x1="1489.05" y1="2877.02" x2="1489.05" y2="2812.22" style="stroke:#6E8E84;stroke-width:3.65"/>
	<line x1="1489.05" y1="2779.82" x2="1489.05" y2="2715.02" style="stroke:#6E8E84;stroke-width:3.65"/>
	<line x1="1489.05" y1="2682.62" x2="1489.05" y2="2617.82" style="stroke:#6E8E84;stroke-width:3.65"/>
	<line x1="1489.05" y1="2585.42" x2="1489.05" y2="2520.62" style="stroke:#6E8E84;stroke-width:3.65"/>
	<line x1="1489.05" y1="2488.22" x2="1489.05" y2="2423.42" style="stroke:#6E8E84;stroke-width:3.65"/>
	<line x1="1489.05" y1="2391.02" x2="1489.05" y2="2326.22" style="stroke:#6E8E84;stroke-width:3.65"/>
	<line x1="1489.05" y1="2293.82" x2="1489.05" y2="2229.02" style="stroke:#6E8E84;stroke-width:3.65"/>
	<line x1="1489.05" y1="2196.62" x2="1489.05" y2="2131.82" style="stroke:#6E8E84;stroke-width:3.65"/>
	<line x1="1489.05" y1="2099.42" x2="1489.05" y2="2034.62" style="stroke:#6E8E84;stroke-width:3.65"/>
	<line x1="1489.05" y1="2002.22" x2="1489.05" y2="1937.42" style="stroke:#6E8E84;stroke-width:3.65"/>
	<line x1="1489.05" y1="1905.02" x2="1489.05" y2="1840.22" style="stroke:#6E8E84;stroke-width:3.65"/>
	<line x1="1489.05" y1="1807.82" x2="1489.05" y2="1743.02" style="stroke:#6E8E84;stroke-width:3.65"/>
	<line x1="1489.05" y1="1710.62" x2="1489.05" y2="1705.05" style="stroke:#6E8E84;stroke-width:3.65"/>
	<line x1="362.98" y1="2528.21" x2="2614.95" y2="2528.21" style="stroke:#658397;stroke-width:7.29"/>
	<line x1="523.80" y1="2823.53" x2="523.80" y2="2758.73" style="stroke:#606060;stroke-width:7.29"/>
	<line x1="523.80" y1="2726.33" x2="523.80" y2="2661.53" style="stroke:#606060;stroke-width:7.29"/>
	<line x1="523.80" y1="2629.13" x2="523.80" y2="2564.32" style="stroke:#606060;stroke-width:7.29"/>
	<line x1="523.80" y1="2531.93" x2="523.80" y2="2467.13" style="stroke:#606060;stroke-width:7.29"/>
	<line x1="523.80" y1="2434.73" x2="523.80" y2="2369.93" style="stroke:#606060;stroke-width:7.29"/>
	<line x1="523.80" y1="2337.53" x2="523.80" y2="2317.61" style="stroke:#606060;stroke-width:7.29"/>
	<line x1="505.24" y1="2317.61" x2="542.36" y2="2317.61" style="stroke:#606060;stroke-width:7.29"/>
	<line x1="505.24" y1="2823.53" x2="542.36" y2="2823.53" style="stroke:#606060;stroke-width:7.29"/>
	<line x1="845.61" y1="2809.69" x2="845.61" y2="2744.89" style="stroke:#606060;stroke-width:7.29"/>
	<line x1="845.61" y1="2712.49" x2="845.61" y2="2647.69" style="stroke:#606060;stroke-width:7.29"/>
	<line x1="845.61" y1="2615.29" x2="845.61" y2="2550.49" style="stroke:#606060;stroke-width:7.29"/>
	<line x1="845.61" y1="2518.09" x2="845.61" y2="2453.29" style="stroke:#606060;stroke-width:7.29"/>
	<line x1="845.61" y1="2420.89" x2="845.61" y2="2356.09" style="stroke:#606060;stroke-width:7.29"/>
	<line x1="845.61" y1="2323.69" x2="845.61" y2="2295.68" style="stroke:#606060;stroke-width:7.29"/>
	<line x1="827.04" y1="2295.68" x2="864.17" y2="2295.68" style="stroke:#606060;stroke-width:7.29"/>
	<line x1="827.04" y1="2809.69" x2="864.17" y2="2809.69" style="stroke:#606060;stroke-width:7.29"/>
	<line x1="1167.24" y1="2715.19" x2="1167.24" y2="2650.39" style="stroke:#606060;stroke-width:7.29"/>
	<line x1="1167.24" y1="2617.99" x2="1167.24" y2="2553.19" style="stroke:#606060;stroke-width:7.29"/>
	<line x1="1167.24" y1="2520.79" x2="1167.24" y2="2455.99" style="stroke:#606060;stroke-width:7.29"/>
	<line x1="1167.24" y1="2423.59" x2="1167.24" y2="2358.79" style="stroke:#606060;stroke-width:7.29"/>
	<line x1="1167.24" y1="2326.39" x2="1167.24" y2="2261.59" style="stroke:#606060;stroke-width:7.29"/>
	<line x1="1167.24" y1="2229.19" x2="1167.24" y2="2208.09" style="stroke:#606060;stroke-width:7.29"/>
	<line x1="1148.68" y1="2208.09" x2="1185.81" y2="2208.09" style="stroke:#606060;stroke-width:7.29"/>
	<line x1="1148.68" y1="2715.19" x2="1185.81" y2="2715.19" style="stroke:#606060;stroke-width:7.29"/>
	<line x1="1489.05" y1="2499.53" x2="1489.05" y2="2434.73" style="stroke:#606060;stroke-width:7.29"/>
	<line x1="1489.05" y1="2402.32" x2="1489.05" y2="2337.53" style="stroke:#606060;stroke-width:7.29"/>
	<line x1="1489.05" y1="2305.13" x2="1489.05" y2="2240.32" style="stroke:#606060;stroke-width:7.29"/>
	<line x1="1489.05" y1="2207.93" x2="1489.05" y2="2143.13" style="stroke:#606060;stroke-width:7.29"/>
	<line x1="1489.05" y1="2110.73" x2="1489.05" y2="2045.93" style="stroke:#606060;stroke-width:7.29"/>
	<line x1="1489.05" y1="2013.53" x2="1489.05" y2="1973.36" style="stroke:#606060;stroke-width:7.29"/>
	<line x1="1470.49" y1="1973.36" x2="1507.61" y2="1973.36" style="stroke:#606060;stroke-width:7.29"/>
	<line x1="1470.49" y1="2499.53" x2="1507.61" y2="2499.53" style="stroke:#606060;stroke-width:7.29"/>
	<line x1="1810.69" y1="2479.95" x2="1810.69" y2="2415.15" style="stroke:#606060;stroke-width:7.29"/>
	<line x1="1810.69" y1="2382.75" x2="1810.69" y2="2317.95" style="stroke:#606060;stroke-width:7.29"/>
	<line x1="1810.69" y1="2285.55" x2="1810.69" y2="2220.75" style="stroke:#606060;stroke-width:7.29"/>
	<line x1="1810.69" y1="2188.35" x2="1810.69" y2="2123.55" style="stroke:#606060;stroke-width:7.29"/>
	<line x1="1810.69" y1="2091.15" x2="1810.69" y2="2026.35" style="stroke:#606060;stroke-width:7.29"/>
	<line x1="1810.69" y1="1993.95" x2="1810.69" y2="1941.98" style="stroke:#606060;stroke-width:7.29"/>
	<line x1="1792.13" y1="1941.98" x2="1829.25" y2="1941.98" style="stroke:#606060;stroke-width:7.29"/>
	<line x1="1792.13" y1="2479.95" x2="1829.25" y2="2479.95" style="stroke:#606060;stroke-width:7.29"/>
	<line x1="2132.32" y1="2309.68" x2="2132.32" y2="2244.88" style="stroke:#606060;stroke-width:7.29"/>
	<line x1="2132.32" y1="2212.48" x2="2132.32" y2="2147.68" style="stroke:#606060;stroke-width:7.29"/>
	<line x1="2132.32" y1="2115.28" x2="2132.32" y2="2050.48" style="stroke:#606060;stroke-width:7.29"/>
	<line x1="2132.32" y1="2018.08" x2="2132.32" y2="1953.28" style="stroke:#606060;stroke-width:7.29"/>
	<line x1="2132.32" y1="1920.88" x2="2132.32" y2="1856.08" style="stroke:#606060;stroke-width:7.29"/>
	<line x1="2132.32" y1="1823.68" x2="2132.32" y2="1758.88" style="stroke:#606060;stroke-width:7.29"/>
	<line x1="2113.76" y1="1758.54" x2="2150.89" y2="1758.54" style="stroke:#606060;stroke-width:7.29"/>
	<line x1="2113.76" y1="2309.68" x2="2150.89" y2="2309.68" style="stroke:#606060;stroke-width:7.29"/>
	<line x1="2454.13" y1="2330.94" x2="2454.13" y2="2266.14" style="stroke:#606060;stroke-width:7.29"/>
	<line x1="2454.13" y1="2233.74" x2="2454.13" y2="2168.94" style="stroke:#606060;stroke-width:7.29"/>
	<line x1="2454.13" y1="2136.54" x2="2454.13" y2="2071.74" style="stroke:#606060;stroke-width:7.29"/>
	<line x1="2454.13" y1="2039.34" x2="2454.13" y2="1974.54" style="stroke:#606060;stroke-width:7.29"/>
	<line x1="2454.13" y1="1942.14" x2="2454.13" y2="1877.34" style="stroke:#606060;stroke-width:7.29"/>
	<line x1="2454.13" y1="1844.94" x2="2454.13" y2="1780.14" style="stroke:#606060;stroke-width:7.29"/>
	<line x1="2435.57" y1="1762.43" x2="2472.69" y2="1762.43" style="stroke:#606060;stroke-width:7.29"/>
	<line x1="2435.57" y1="2330.94" x2="2472.69" y2="2330.94" style="stroke:#606060;stroke-width:7.29"/>
	<circle cx="523.80" cy="2570.57" r="18.56" style="fill:none;stroke:#606060;stroke-width:7.29"/>
	<circle cx="845.44" cy="2552.68" r="18.56" style="fill:none;stroke:#606060;stroke-width:7.29"/>
	<circle cx="1167.24" cy="2461.73" r="18.56" style="fill:none;stroke:#606060;stroke-width:7.29"/>
	<circle cx="1488.88" cy="2236.61" r="18.56" style="fill:none;stroke:#606060;stroke-width:7.29"/>
	<circle cx="1810.69" cy="2210.96" r="18.56" style="fill:none;stroke:#606060;stroke-width:7.29"/>
	<circle cx="2132.32" cy="2034.11" r="18.56" style="fill:none;stroke:#606060;stroke-width:7.29"/>
	<circle cx="2453.96" cy="2046.77" r="18.56" style="fill:none;stroke:#606060;stroke-width:7.29"/>
	<path d=" M523.80 2570.57 L845.44 2552.68 L1167.24 2461.73 L1488.88 2236.61 L1810.69 2210.96 L2132.32 2034.11 L2453.96 2046.77" stroke-linejoin="round" style="fill:none;stroke:#808080;stroke-width:7.29"/>
	<line x1="362.98" y1="2877.02" x2="362.98" y2="1705.05" style="stroke:#000000;stroke-width:4.86"/>
	<line x1="362.98" y1="2783.36" x2="329.23" y2="2783.36" style="stroke:#000000;stroke-width:4.86"/>
	<text x="293.29" y="2783.36" style="font-family:'Helvetica';font-size:63.28px;fill:#000000" transform="rotate(-90 293.29,2783.36)" text-anchor="middle">-.2</text>
	<line x1="362.98" y1="2528.21" x2="329.23" y2="2528.21" style="stroke:#000000;stroke-width:4.86"/>
	<text x="293.29" y="2528.21" style="font-family:'Helvetica';font-size:63.28px;fill:#000000" transform="rotate(-90 293.29,2528.21)" text-anchor="middle">0</text>
	<line x1="362.98" y1="2273.06" x2="329.23" y2="2273.06" style="stroke:#000000;stroke-width:4.86"/>
	<text x="293.29" y="2273.06" style="font-family:'Helvetica';font-size:63.28px;fill:#000000" transform="rotate(-90 293.29,2273.06)" text-anchor="middle">.2</text>
	<line x1="362.98" y1="2017.91" x2="329.23" y2="2017.91" style="stroke:#000000;stroke-width:4.86"/>
	<text x="293.29" y="2017.91" style="font-family:'Helvetica';font-size:63.28px;fill:#000000" transform="rotate(-90 293.29,2017.91)" text-anchor="middle">.4</text>
	<line x1="362.98" y1="1762.76" x2="329.23" y2="1762.76" style="stroke:#000000;stroke-width:4.86"/>
	<text x="293.29" y="1762.76" style="font-family:'Helvetica';font-size:63.28px;fill:#000000" transform="rotate(-90 293.29,1762.76)" text-anchor="middle">.6</text>
	<text x="220.30" y="2290.95" style="font-family:'Helvetica';font-size:67.50px;fill:#000000" transform="rotate(-90 220.30,2290.95)" text-anchor="middle">Policy Dynamic Effects</text>
	<line x1="362.98" y1="2877.02" x2="2614.95" y2="2877.02" style="stroke:#000000;stroke-width:4.86"/>
	<line x1="523.80" y1="2877.02" x2="523.80" y2="2910.77" style="stroke:#000000;stroke-width:4.86"/>
	<text x="523.80" y="2971.86" style="font-family:'Helvetica';font-size:63.28px;fill:#000000" text-anchor="middle">pre_4</text>
	<line x1="845.61" y1="2877.02" x2="845.61" y2="2910.77" style="stroke:#000000;stroke-width:4.86"/>
	<text x="845.61" y="2971.86" style="font-family:'Helvetica';font-size:63.28px;fill:#000000" text-anchor="middle">pre_3</text>
	<line x1="1167.24" y1="2877.02" x2="1167.24" y2="2910.77" style="stroke:#000000;stroke-width:4.86"/>
	<text x="1167.24" y="2971.86" style="font-family:'Helvetica';font-size:63.28px;fill:#000000" text-anchor="middle">pre_2</text>
	<line x1="1489.05" y1="2877.02" x2="1489.05" y2="2910.77" style="stroke:#000000;stroke-width:4.86"/>
	<text x="1489.05" y="2971.86" style="font-family:'Helvetica';font-size:63.28px;fill:#000000" text-anchor="middle">current</text>
	<line x1="1810.69" y1="2877.02" x2="1810.69" y2="2910.77" style="stroke:#000000;stroke-width:4.86"/>
	<text x="1810.69" y="2971.86" style="font-family:'Helvetica';font-size:63.28px;fill:#000000" text-anchor="middle">post_1</text>
	<line x1="2132.32" y1="2877.02" x2="2132.32" y2="2910.77" style="stroke:#000000;stroke-width:4.86"/>
	<text x="2132.32" y="2971.86" style="font-family:'Helvetica';font-size:63.28px;fill:#000000" text-anchor="middle">post_2</text>
	<line x1="2454.13" y1="2877.02" x2="2454.13" y2="2910.77" style="stroke:#000000;stroke-width:4.86"/>
	<text x="2454.13" y="2971.86" style="font-family:'Helvetica';font-size:63.28px;fill:#000000" text-anchor="middle">post_3</text>
	<text x="1489.05" y="3046.53" style="font-family:'Helvetica';font-size:67.50px;fill:#000000" text-anchor="middle">Readability</text>
	<rect x="2700.00" y="1620.00" width="2628.79" height="1548.79" style="fill:#FFFFFF"/>
	<rect x="2702.43" y="1622.43" width="2623.93" height="1543.93" style="fill:none;stroke:#FFFFFF;stroke-width:4.86"/>
	<rect x="2994.20" y="1707.48" width="2247.11" height="1167.11" style="fill:none;stroke:#000000;stroke-width:4.86"/>
	<line x1="4117.67" y1="2877.02" x2="4117.67" y2="2812.22" style="stroke:#6E8E84;stroke-width:3.65"/>
	<line x1="4117.67" y1="2779.82" x2="4117.67" y2="2715.02" style="stroke:#6E8E84;stroke-width:3.65"/>
	<line x1="4117.67" y1="2682.62" x2="4117.67" y2="2617.82" style="stroke:#6E8E84;stroke-width:3.65"/>
	<line x1="4117.67" y1="2585.42" x2="4117.67" y2="2520.62" style="stroke:#6E8E84;stroke-width:3.65"/>
	<line x1="4117.67" y1="2488.22" x2="4117.67" y2="2423.42" style="stroke:#6E8E84;stroke-width:3.65"/>
	<line x1="4117.67" y1="2391.02" x2="4117.67" y2="2326.22" style="stroke:#6E8E84;stroke-width:3.65"/>
	<line x1="4117.67" y1="2293.82" x2="4117.67" y2="2229.02" style="stroke:#6E8E84;stroke-width:3.65"/>
	<line x1="4117.67" y1="2196.62" x2="4117.67" y2="2131.82" style="stroke:#6E8E84;stroke-width:3.65"/>
	<line x1="4117.67" y1="2099.42" x2="4117.67" y2="2034.62" style="stroke:#6E8E84;stroke-width:3.65"/>
	<line x1="4117.67" y1="2002.22" x2="4117.67" y2="1937.42" style="stroke:#6E8E84;stroke-width:3.65"/>
	<line x1="4117.67" y1="1905.02" x2="4117.67" y2="1840.22" style="stroke:#6E8E84;stroke-width:3.65"/>
	<line x1="4117.67" y1="1807.82" x2="4117.67" y2="1743.02" style="stroke:#6E8E84;stroke-width:3.65"/>
	<line x1="4117.67" y1="1710.62" x2="4117.67" y2="1705.05" style="stroke:#6E8E84;stroke-width:3.65"/>
	<line x1="2991.77" y1="2113.59" x2="5243.74" y2="2113.59" style="stroke:#658397;stroke-width:7.29"/>
	<line x1="3152.59" y1="2310.86" x2="3152.59" y2="2246.06" style="stroke:#606060;stroke-width:7.29"/>
	<line x1="3152.59" y1="2213.66" x2="3152.59" y2="2148.86" style="stroke:#606060;stroke-width:7.29"/>
	<line x1="3152.59" y1="2116.46" x2="3152.59" y2="2051.66" style="stroke:#606060;stroke-width:7.29"/>
	<line x1="3152.59" y1="2019.26" x2="3152.59" y2="1954.46" style="stroke:#606060;stroke-width:7.29"/>
	<line x1="3152.59" y1="1922.06" x2="3152.59" y2="1915.31" style="stroke:#606060;stroke-width:7.29"/>
	<line x1="3134.03" y1="1915.31" x2="3171.15" y2="1915.31" style="stroke:#606060;stroke-width:7.29"/>
	<line x1="3134.03" y1="2310.86" x2="3171.15" y2="2310.86" style="stroke:#606060;stroke-width:7.29"/>
	<line x1="3474.23" y1="2248.43" x2="3474.23" y2="2183.63" style="stroke:#606060;stroke-width:7.29"/>
	<line x1="3474.23" y1="2151.23" x2="3474.23" y2="2086.43" style="stroke:#606060;stroke-width:7.29"/>
	<line x1="3474.23" y1="2054.03" x2="3474.23" y2="1989.23" style="stroke:#606060;stroke-width:7.29"/>
	<line x1="3474.23" y1="1956.83" x2="3474.23" y2="1892.03" style="stroke:#606060;stroke-width:7.29"/>
	<line x1="3455.66" y1="1860.13" x2="3492.79" y2="1860.13" style="stroke:#606060;stroke-width:7.29"/>
	<line x1="3455.66" y1="2248.43" x2="3492.79" y2="2248.43" style="stroke:#606060;stroke-width:7.29"/>
	<line x1="3796.03" y1="2370.77" x2="3796.03" y2="2305.97" style="stroke:#606060;stroke-width:7.29"/>
	<line x1="3796.03" y1="2273.57" x2="3796.03" y2="2208.77" style="stroke:#606060;stroke-width:7.29"/>
	<line x1="3796.03" y1="2176.37" x2="3796.03" y2="2111.57" style="stroke:#606060;stroke-width:7.29"/>
	<line x1="3796.03" y1="2079.17" x2="3796.03" y2="2014.37" style="stroke:#606060;stroke-width:7.29"/>
	<line x1="3796.03" y1="1981.97" x2="3796.03" y2="1975.56" style="stroke:#606060;stroke-width:7.29"/>
	<line x1="3777.47" y1="1975.56" x2="3814.59" y2="1975.56" style="stroke:#606060;stroke-width:7.29"/>
	<line x1="3777.47" y1="2370.77" x2="3814.59" y2="2370.77" style="stroke:#606060;stroke-width:7.29"/>
	<line x1="4117.67" y1="2401.65" x2="4117.67" y2="2336.85" style="stroke:#606060;stroke-width:7.29"/>
	<line x1="4117.67" y1="2304.45" x2="4117.67" y2="2239.65" style="stroke:#606060;stroke-width:7.29"/>
	<line x1="4117.67" y1="2207.25" x2="4117.67" y2="2142.45" style="stroke:#606060;stroke-width:7.29"/>
	<line x1="4117.67" y1="2110.05" x2="4117.67" y2="2045.25" style="stroke:#606060;stroke-width:7.29"/>
	<line x1="4117.67" y1="2012.85" x2="4117.67" y2="2002.89" style="stroke:#606060;stroke-width:7.29"/>
	<line x1="4099.11" y1="2002.89" x2="4136.23" y2="2002.89" style="stroke:#606060;stroke-width:7.29"/>
	<line x1="4099.11" y1="2401.65" x2="4136.23" y2="2401.65" style="stroke:#606060;stroke-width:7.29"/>
	<line x1="4439.48" y1="2563.65" x2="4439.48" y2="2498.85" style="stroke:#606060;stroke-width:7.29"/>
	<line x1="4439.48" y1="2466.45" x2="4439.48" y2="2401.65" style="stroke:#606060;stroke-width:7.29"/>
	<line x1="4439.48" y1="2369.25" x2="4439.48" y2="2304.45" style="stroke:#606060;stroke-width:7.29"/>
	<line x1="4439.48" y1="2272.05" x2="4439.48" y2="2207.25" style="stroke:#606060;stroke-width:7.29"/>
	<line x1="4439.48" y1="2174.85" x2="4439.48" y2="2155.11" style="stroke:#606060;stroke-width:7.29"/>
	<line x1="4420.91" y1="2155.11" x2="4458.04" y2="2155.11" style="stroke:#606060;stroke-width:7.29"/>
	<line x1="4420.91" y1="2563.65" x2="4458.04" y2="2563.65" style="stroke:#606060;stroke-width:7.29"/>
	<line x1="4761.11" y1="2760.08" x2="4761.11" y2="2695.28" style="stroke:#606060;stroke-width:7.29"/>
	<line x1="4761.11" y1="2662.88" x2="4761.11" y2="2598.07" style="stroke:#606060;stroke-width:7.29"/>
	<line x1="4761.11" y1="2565.68" x2="4761.11" y2="2500.88" style="stroke:#606060;stroke-width:7.29"/>
	<line x1="4761.11" y1="2468.48" x2="4761.11" y2="2403.68" style="stroke:#606060;stroke-width:7.29"/>
	<line x1="4761.11" y1="2371.28" x2="4761.11" y2="2339.89" style="stroke:#606060;stroke-width:7.29"/>
	<line x1="4742.55" y1="2339.89" x2="4779.68" y2="2339.89" style="stroke:#606060;stroke-width:7.29"/>
	<line x1="4742.55" y1="2760.08" x2="4779.68" y2="2760.08" style="stroke:#606060;stroke-width:7.29"/>
	<line x1="5082.75" y1="2711.31" x2="5082.75" y2="2646.51" style="stroke:#606060;stroke-width:7.29"/>
	<line x1="5082.75" y1="2614.11" x2="5082.75" y2="2549.31" style="stroke:#606060;stroke-width:7.29"/>
	<line x1="5082.75" y1="2516.91" x2="5082.75" y2="2452.11" style="stroke:#606060;stroke-width:7.29"/>
	<line x1="5082.75" y1="2419.71" x2="5082.75" y2="2354.91" style="stroke:#606060;stroke-width:7.29"/>
	<line x1="5082.75" y1="2322.51" x2="5082.75" y2="2276.44" style="stroke:#606060;stroke-width:7.29"/>
	<line x1="5064.19" y1="2276.44" x2="5101.31" y2="2276.44" style="stroke:#606060;stroke-width:7.29"/>
	<line x1="5064.19" y1="2711.31" x2="5101.31" y2="2711.31" style="stroke:#606060;stroke-width:7.29"/>
	<circle cx="3152.59" cy="2113.26" r="18.56" style="fill:none;stroke:#606060;stroke-width:7.29"/>
	<circle cx="3474.23" cy="2054.36" r="18.56" style="fill:none;stroke:#606060;stroke-width:7.29"/>
	<circle cx="3795.86" cy="2173.33" r="18.56" style="fill:none;stroke:#606060;stroke-width:7.29"/>
	<circle cx="4117.67" cy="2202.36" r="18.56" style="fill:none;stroke:#606060;stroke-width:7.29"/>
	<circle cx="4439.31" cy="2359.46" r="18.56" style="fill:none;stroke:#606060;stroke-width:7.29"/>
	<circle cx="4761.11" cy="2549.98" r="18.56" style="fill:none;stroke:#606060;stroke-width:7.29"/>
	<circle cx="5082.75" cy="2493.96" r="18.56" style="fill:none;stroke:#606060;stroke-width:7.29"/>
	<path d=" M3152.59 2113.26 L3474.23 2054.36 L3795.86 2173.33 L4117.67 2202.36 L4439.31 2359.46 L4761.11 2549.98 L5082.75 2493.96" stroke-linejoin="round" style="fill:none;stroke:#808080;stroke-width:7.29"/>
	<line x1="2991.77" y1="2877.02" x2="2991.77" y2="1705.05" style="stroke:#000000;stroke-width:4.86"/>
	<line x1="2991.77" y1="2823.53" x2="2958.02" y2="2823.53" style="stroke:#000000;stroke-width:4.86"/>
	<text x="2922.08" y="2823.53" style="font-family:'Helvetica';font-size:63.28px;fill:#000000" transform="rotate(-90 2922.08,2823.53)" text-anchor="middle">-.04</text>
	<line x1="2991.77" y1="2468.48" x2="2958.02" y2="2468.48" style="stroke:#000000;stroke-width:4.86"/>
	<text x="2922.08" y="2468.48" style="font-family:'Helvetica';font-size:63.28px;fill:#000000" transform="rotate(-90 2922.08,2468.48)" text-anchor="middle">-.02</text>
	<line x1="2991.77" y1="2113.59" x2="2958.02" y2="2113.59" style="stroke:#000000;stroke-width:4.86"/>
	<text x="2922.08" y="2113.59" style="font-family:'Helvetica';font-size:63.28px;fill:#000000" transform="rotate(-90 2922.08,2113.59)" text-anchor="middle">0</text>
	<line x1="2991.77" y1="1758.54" x2="2958.02" y2="1758.54" style="stroke:#000000;stroke-width:4.86"/>
	<text x="2922.08" y="1758.54" style="font-family:'Helvetica';font-size:63.28px;fill:#000000" transform="rotate(-90 2922.08,1758.54)" text-anchor="middle">.02</text>
	<text x="2849.09" y="2290.95" style="font-family:'Helvetica';font-size:67.50px;fill:#000000" transform="rotate(-90 2849.09,2290.95)" text-anchor="middle">Policy Dynamic Effects</text>
	<line x1="2991.77" y1="2877.02" x2="5243.74" y2="2877.02" style="stroke:#000000;stroke-width:4.86"/>
	<line x1="3152.59" y1="2877.02" x2="3152.59" y2="2910.77" style="stroke:#000000;stroke-width:4.86"/>
	<text x="3152.59" y="2971.86" style="font-family:'Helvetica';font-size:63.28px;fill:#000000" text-anchor="middle">pre_4</text>
	<line x1="3474.23" y1="2877.02" x2="3474.23" y2="2910.77" style="stroke:#000000;stroke-width:4.86"/>
	<text x="3474.23" y="2971.86" style="font-family:'Helvetica';font-size:63.28px;fill:#000000" text-anchor="middle">pre_3</text>
	<line x1="3796.03" y1="2877.02" x2="3796.03" y2="2910.77" style="stroke:#000000;stroke-width:4.86"/>
	<text x="3796.03" y="2971.86" style="font-family:'Helvetica';font-size:63.28px;fill:#000000" text-anchor="middle">pre_2</text>
	<line x1="4117.67" y1="2877.02" x2="4117.67" y2="2910.77" style="stroke:#000000;stroke-width:4.86"/>
	<text x="4117.67" y="2971.86" style="font-family:'Helvetica';font-size:63.28px;fill:#000000" text-anchor="middle">current</text>
	<line x1="4439.48" y1="2877.02" x2="4439.48" y2="2910.77" style="stroke:#000000;stroke-width:4.86"/>
	<text x="4439.48" y="2971.86" style="font-family:'Helvetica';font-size:63.28px;fill:#000000" text-anchor="middle">post_1</text>
	<line x1="4761.11" y1="2877.02" x2="4761.11" y2="2910.77" style="stroke:#000000;stroke-width:4.86"/>
	<text x="4761.11" y="2971.86" style="font-family:'Helvetica';font-size:63.28px;fill:#000000" text-anchor="middle">post_2</text>
	<line x1="5082.75" y1="2877.02" x2="5082.75" y2="2910.77" style="stroke:#000000;stroke-width:4.86"/>
	<text x="5082.75" y="2971.86" style="font-family:'Helvetica';font-size:63.28px;fill:#000000" text-anchor="middle">post_3</text>
	<text x="4117.67" y="3046.53" style="font-family:'Helvetica';font-size:67.50px;fill:#000000" text-anchor="middle">Code_ratio</text>
</svg>
