<?xml version="1.0" encoding="UTF-8" standalone="no"?>
<!-- This is a Stata 18.0 generated SVG file (http://www.stata.com) -->

<svg version="1.1" width="5.500in" height="4.000in" viewBox="0 0 3960 2880" xmlns="http://www.w3.org/2000/svg" xmlns:xlink="http://www.w3.org/1999/xlink">
	<desc>Stata Graph - Graph</desc>
	<rect x="0" y="0" width="3960" height="2880" style="fill:#FFFFFF;stroke:none"/>
	<rect x="0.00" y="0.00" width="3959.88" height="2880.00" style="fill:#FFFFFF"/>
	<rect x="2.88" y="2.88" width="3954.12" height="2874.24" style="fill:none;stroke:#FFFFFF;stroke-width:5.76"/>
	<rect x="348.64" y="103.74" width="3507.50" height="2427.61" style="fill:none;stroke:#000000;stroke-width:5.76"/>
	<line x1="2102.39" y1="2534.23" x2="2102.39" y2="2476.69" style="stroke:#6E8E84;stroke-width:4.32"/>
	<line x1="2102.39" y1="2447.85" x2="2102.39" y2="2390.31" style="stroke:#6E8E84;stroke-width:4.32"/>
	<line x1="2102.39" y1="2361.47" x2="2102.39" y2="2303.93" style="stroke:#6E8E84;stroke-width:4.32"/>
	<line x1="2102.39" y1="2275.09" x2="2102.39" y2="2217.55" style="stroke:#6E8E84;stroke-width:4.32"/>
	<line x1="2102.39" y1="2188.71" x2="2102.39" y2="2131.17" style="stroke:#6E8E84;stroke-width:4.32"/>
	<line x1="2102.39" y1="2102.33" x2="2102.39" y2="2044.66" style="stroke:#6E8E84;stroke-width:4.32"/>
	<line x1="2102.39" y1="2015.95" x2="2102.39" y2="1958.28" style="stroke:#6E8E84;stroke-width:4.32"/>
	<line x1="2102.39" y1="1929.57" x2="2102.39" y2="1871.90" style="stroke:#6E8E84;stroke-width:4.32"/>
	<line x1="2102.39" y1="1843.07" x2="2102.39" y2="1785.52" style="stroke:#6E8E84;stroke-width:4.32"/>
	<line x1="2102.39" y1="1756.69" x2="2102.39" y2="1699.14" style="stroke:#6E8E84;stroke-width:4.32"/>
	<line x1="2102.39" y1="1670.31" x2="2102.39" y2="1612.76" style="stroke:#6E8E84;stroke-width:4.32"/>
	<line x1="2102.39" y1="1583.93" x2="2102.39" y2="1526.38" style="stroke:#6E8E84;stroke-width:4.32"/>
	<line x1="2102.39" y1="1497.55" x2="2102.39" y2="1440.00" style="stroke:#6E8E84;stroke-width:4.32"/>
	<line x1="2102.39" y1="1411.17" x2="2102.39" y2="1353.62" style="stroke:#6E8E84;stroke-width:4.32"/>
	<line x1="2102.39" y1="1324.79" x2="2102.39" y2="1267.24" style="stroke:#6E8E84;stroke-width:4.32"/>
	<line x1="2102.39" y1="1238.40" x2="2102.39" y2="1180.86" style="stroke:#6E8E84;stroke-width:4.32"/>
	<line x1="2102.39" y1="1152.02" x2="2102.39" y2="1094.36" style="stroke:#6E8E84;stroke-width:4.32"/>
	<line x1="2102.39" y1="1065.64" x2="2102.39" y2="1007.98" style="stroke:#6E8E84;stroke-width:4.32"/>
	<line x1="2102.39" y1="979.14" x2="2102.39" y2="921.60" style="stroke:#6E8E84;stroke-width:4.32"/>
	<line x1="2102.39" y1="892.76" x2="2102.39" y2="835.21" style="stroke:#6E8E84;stroke-width:4.32"/>
	<line x1="2102.39" y1="806.38" x2="2102.39" y2="748.83" style="stroke:#6E8E84;stroke-width:4.32"/>
	<line x1="2102.39" y1="720.00" x2="2102.39" y2="662.45" style="stroke:#6E8E84;stroke-width:4.32"/>
	<line x1="2102.39" y1="633.62" x2="2102.39" y2="576.07" style="stroke:#6E8E84;stroke-width:4.32"/>
	<line x1="2102.39" y1="547.24" x2="2102.39" y2="489.69" style="stroke:#6E8E84;stroke-width:4.32"/>
	<line x1="2102.39" y1="460.86" x2="2102.39" y2="403.31" style="stroke:#6E8E84;stroke-width:4.32"/>
	<line x1="2102.39" y1="374.48" x2="2102.39" y2="316.93" style="stroke:#6E8E84;stroke-width:4.32"/>
	<line x1="2102.39" y1="288.10" x2="2102.39" y2="230.55" style="stroke:#6E8E84;stroke-width:4.32"/>
	<line x1="2102.39" y1="201.72" x2="2102.39" y2="144.05" style="stroke:#6E8E84;stroke-width:4.32"/>
	<line x1="2102.39" y1="115.34" x2="2102.39" y2="100.86" style="stroke:#6E8E84;stroke-width:4.32"/>
	<line x1="345.76" y1="933.10" x2="3859.02" y2="933.10" style="stroke:#658397;stroke-width:8.64"/>
	<line x1="596.72" y1="1360.67" x2="596.72" y2="1303.13" style="stroke:#606060;stroke-width:8.64"/>
	<line x1="596.72" y1="1274.29" x2="596.72" y2="1216.75" style="stroke:#606060;stroke-width:8.64"/>
	<line x1="596.72" y1="1187.91" x2="596.72" y2="1130.24" style="stroke:#606060;stroke-width:8.64"/>
	<line x1="596.72" y1="1101.53" x2="596.72" y2="1043.86" style="stroke:#606060;stroke-width:8.64"/>
	<line x1="596.72" y1="1015.03" x2="596.72" y2="957.48" style="stroke:#606060;stroke-width:8.64"/>
	<line x1="596.72" y1="928.65" x2="596.72" y2="871.10" style="stroke:#606060;stroke-width:8.64"/>
	<line x1="596.72" y1="842.27" x2="596.72" y2="784.72" style="stroke:#606060;stroke-width:8.64"/>
	<line x1="596.72" y1="755.89" x2="596.72" y2="698.34" style="stroke:#606060;stroke-width:8.64"/>
	<line x1="596.72" y1="669.51" x2="596.72" y2="611.96" style="stroke:#606060;stroke-width:8.64"/>
	<line x1="596.72" y1="583.13" x2="596.72" y2="525.58" style="stroke:#606060;stroke-width:8.64"/>
	<line x1="574.70" y1="503.80" x2="618.75" y2="503.80" style="stroke:#606060;stroke-width:8.64"/>
	<line x1="574.70" y1="1360.67" x2="618.75" y2="1360.67" style="stroke:#606060;stroke-width:8.64"/>
	<line x1="1098.65" y1="1225.16" x2="1098.65" y2="1167.62" style="stroke:#606060;stroke-width:8.64"/>
	<line x1="1098.65" y1="1138.78" x2="1098.65" y2="1081.24" style="stroke:#606060;stroke-width:8.64"/>
	<line x1="1098.65" y1="1052.40" x2="1098.65" y2="994.86" style="stroke:#606060;stroke-width:8.64"/>
	<line x1="1098.65" y1="966.02" x2="1098.65" y2="908.35" style="stroke:#606060;stroke-width:8.64"/>
	<line x1="1098.65" y1="879.64" x2="1098.65" y2="821.97" style="stroke:#606060;stroke-width:8.64"/>
	<line x1="1098.65" y1="793.14" x2="1098.65" y2="735.59" style="stroke:#606060;stroke-width:8.64"/>
	<line x1="1098.65" y1="706.76" x2="1098.65" y2="649.21" style="stroke:#606060;stroke-width:8.64"/>
	<line x1="1098.65" y1="620.38" x2="1098.65" y2="562.83" style="stroke:#606060;stroke-width:8.64"/>
	<line x1="1098.65" y1="534.00" x2="1098.65" y2="476.45" style="stroke:#606060;stroke-width:8.64"/>
	<line x1="1098.65" y1="447.62" x2="1098.65" y2="390.07" style="stroke:#606060;stroke-width:8.64"/>
	<line x1="1076.63" y1="384.13" x2="1120.68" y2="384.13" style="stroke:#606060;stroke-width:8.64"/>
	<line x1="1076.63" y1="1225.16" x2="1120.68" y2="1225.16" style="stroke:#606060;stroke-width:8.64"/>
	<line x1="1600.46" y1="1490.37" x2="1600.46" y2="1432.82" style="stroke:#606060;stroke-width:8.64"/>
	<line x1="1600.46" y1="1403.99" x2="1600.46" y2="1346.44" style="stroke:#606060;stroke-width:8.64"/>
	<line x1="1600.46" y1="1317.61" x2="1600.46" y2="1260.06" style="stroke:#606060;stroke-width:8.64"/>
	<line x1="1600.46" y1="1231.23" x2="1600.46" y2="1173.56" style="stroke:#606060;stroke-width:8.64"/>
	<line x1="1600.46" y1="1144.85" x2="1600.46" y2="1087.18" style="stroke:#606060;stroke-width:8.64"/>
	<line x1="1600.46" y1="1058.34" x2="1600.46" y2="1000.80" style="stroke:#606060;stroke-width:8.64"/>
	<line x1="1600.46" y1="971.96" x2="1600.46" y2="914.42" style="stroke:#606060;stroke-width:8.64"/>
	<line x1="1600.46" y1="885.58" x2="1600.46" y2="828.04" style="stroke:#606060;stroke-width:8.64"/>
	<line x1="1600.46" y1="799.20" x2="1600.46" y2="741.66" style="stroke:#606060;stroke-width:8.64"/>
	<line x1="1600.46" y1="712.82" x2="1600.46" y2="655.28" style="stroke:#606060;stroke-width:8.64"/>
	<line x1="1578.43" y1="634.11" x2="1622.49" y2="634.11" style="stroke:#606060;stroke-width:8.64"/>
	<line x1="1578.43" y1="1490.37" x2="1622.49" y2="1490.37" style="stroke:#606060;stroke-width:8.64"/>
	<line x1="2102.39" y1="1557.07" x2="2102.39" y2="1499.53" style="stroke:#606060;stroke-width:8.64"/>
	<line x1="2102.39" y1="1470.69" x2="2102.39" y2="1413.15" style="stroke:#606060;stroke-width:8.64"/>
	<line x1="2102.39" y1="1384.31" x2="2102.39" y2="1326.77" style="stroke:#606060;stroke-width:8.64"/>
	<line x1="2102.39" y1="1297.93" x2="2102.39" y2="1240.39" style="stroke:#606060;stroke-width:8.64"/>
	<line x1="2102.39" y1="1211.55" x2="2102.39" y2="1153.88" style="stroke:#606060;stroke-width:8.64"/>
	<line x1="2102.39" y1="1125.17" x2="2102.39" y2="1067.50" style="stroke:#606060;stroke-width:8.64"/>
	<line x1="2102.39" y1="1038.67" x2="2102.39" y2="981.12" style="stroke:#606060;stroke-width:8.64"/>
	<line x1="2102.39" y1="952.29" x2="2102.39" y2="894.74" style="stroke:#606060;stroke-width:8.64"/>
	<line x1="2102.39" y1="865.91" x2="2102.39" y2="808.36" style="stroke:#606060;stroke-width:8.64"/>
	<line x1="2102.39" y1="779.53" x2="2102.39" y2="721.98" style="stroke:#606060;stroke-width:8.64"/>
	<line x1="2080.36" y1="693.52" x2="2124.42" y2="693.52" style="stroke:#606060;stroke-width:8.64"/>
	<line x1="2080.36" y1="1557.07" x2="2124.42" y2="1557.07" style="stroke:#606060;stroke-width:8.64"/>
	<line x1="2604.32" y1="1908.16" x2="2604.32" y2="1850.62" style="stroke:#606060;stroke-width:8.64"/>
	<line x1="2604.32" y1="1821.78" x2="2604.32" y2="1764.24" style="stroke:#606060;stroke-width:8.64"/>
	<line x1="2604.32" y1="1735.40" x2="2604.32" y2="1677.85" style="stroke:#606060;stroke-width:8.64"/>
	<line x1="2604.32" y1="1649.02" x2="2604.32" y2="1591.47" style="stroke:#606060;stroke-width:8.64"/>
	<line x1="2604.32" y1="1562.64" x2="2604.32" y2="1505.09" style="stroke:#606060;stroke-width:8.64"/>
	<line x1="2604.32" y1="1476.26" x2="2604.32" y2="1418.71" style="stroke:#606060;stroke-width:8.64"/>
	<line x1="2604.32" y1="1389.88" x2="2604.32" y2="1332.21" style="stroke:#606060;stroke-width:8.64"/>
	<line x1="2604.32" y1="1303.50" x2="2604.32" y2="1245.83" style="stroke:#606060;stroke-width:8.64"/>
	<line x1="2604.32" y1="1217.00" x2="2604.32" y2="1159.45" style="stroke:#606060;stroke-width:8.64"/>
	<line x1="2604.32" y1="1130.62" x2="2604.32" y2="1073.07" style="stroke:#606060;stroke-width:8.64"/>
	<line x1="2604.32" y1="1044.24" x2="2604.32" y2="1023.07" style="stroke:#606060;stroke-width:8.64"/>
	<line x1="2582.29" y1="1023.07" x2="2626.35" y2="1023.07" style="stroke:#606060;stroke-width:8.64"/>
	<line x1="2582.29" y1="1908.16" x2="2626.35" y2="1908.16" style="stroke:#606060;stroke-width:8.64"/>
	<line x1="3106.25" y1="2333.38" x2="3106.25" y2="2275.83" style="stroke:#606060;stroke-width:8.64"/>
	<line x1="3106.25" y1="2247.00" x2="3106.25" y2="2189.45" style="stroke:#606060;stroke-width:8.64"/>
	<line x1="3106.25" y1="2160.62" x2="3106.25" y2="2103.07" style="stroke:#606060;stroke-width:8.64"/>
	<line x1="3106.25" y1="2074.24" x2="3106.25" y2="2016.69" style="stroke:#606060;stroke-width:8.64"/>
	<line x1="3106.25" y1="1987.86" x2="3106.25" y2="1930.19" style="stroke:#606060;stroke-width:8.64"/>
	<line x1="3106.25" y1="1901.48" x2="3106.25" y2="1843.81" style="stroke:#606060;stroke-width:8.64"/>
	<line x1="3106.25" y1="1814.97" x2="3106.25" y2="1757.43" style="stroke:#606060;stroke-width:8.64"/>
	<line x1="3106.25" y1="1728.59" x2="3106.25" y2="1671.05" style="stroke:#606060;stroke-width:8.64"/>
	<line x1="3106.25" y1="1642.21" x2="3106.25" y2="1584.67" style="stroke:#606060;stroke-width:8.64"/>
	<line x1="3106.25" y1="1555.83" x2="3106.25" y2="1498.29" style="stroke:#606060;stroke-width:8.64"/>
	<line x1="3106.25" y1="1469.45" x2="3106.25" y2="1423.42" style="stroke:#606060;stroke-width:8.64"/>
	<line x1="3084.22" y1="1423.42" x2="3128.28" y2="1423.42" style="stroke:#606060;stroke-width:8.64"/>
	<line x1="3084.22" y1="2333.38" x2="3128.28" y2="2333.38" style="stroke:#606060;stroke-width:8.64"/>
	<line x1="3608.18" y1="2227.82" x2="3608.18" y2="2170.27" style="stroke:#606060;stroke-width:8.64"/>
	<line x1="3608.18" y1="2141.44" x2="3608.18" y2="2083.89" style="stroke:#606060;stroke-width:8.64"/>
	<line x1="3608.18" y1="2055.06" x2="3608.18" y2="1997.39" style="stroke:#606060;stroke-width:8.64"/>
	<line x1="3608.18" y1="1968.68" x2="3608.18" y2="1911.01" style="stroke:#606060;stroke-width:8.64"/>
	<line x1="3608.18" y1="1882.17" x2="3608.18" y2="1824.63" style="stroke:#606060;stroke-width:8.64"/>
	<line x1="3608.18" y1="1795.79" x2="3608.18" y2="1738.25" style="stroke:#606060;stroke-width:8.64"/>
	<line x1="3608.18" y1="1709.41" x2="3608.18" y2="1651.87" style="stroke:#606060;stroke-width:8.64"/>
	<line x1="3608.18" y1="1623.03" x2="3608.18" y2="1565.49" style="stroke:#606060;stroke-width:8.64"/>
	<line x1="3608.18" y1="1536.65" x2="3608.18" y2="1479.11" style="stroke:#606060;stroke-width:8.64"/>
	<line x1="3608.18" y1="1450.27" x2="3608.18" y2="1392.73" style="stroke:#606060;stroke-width:8.64"/>
	<line x1="3608.18" y1="1363.89" x2="3608.18" y2="1306.35" style="stroke:#606060;stroke-width:8.64"/>
	<line x1="3586.15" y1="1285.80" x2="3630.21" y2="1285.80" style="stroke:#606060;stroke-width:8.64"/>
	<line x1="3586.15" y1="2227.82" x2="3630.21" y2="2227.82" style="stroke:#606060;stroke-width:8.64"/>
	<circle cx="596.60" cy="932.24" r="22.03" style="fill:none;stroke:#606060;stroke-width:8.64"/>
	<circle cx="1098.53" cy="804.77" r="22.03" style="fill:none;stroke:#606060;stroke-width:8.64"/>
	<circle cx="1600.46" cy="1062.30" r="22.03" style="fill:none;stroke:#606060;stroke-width:8.64"/>
	<circle cx="2102.39" cy="1125.42" r="22.03" style="fill:none;stroke:#606060;stroke-width:8.64"/>
	<circle cx="2604.32" cy="1465.74" r="22.03" style="fill:none;stroke:#606060;stroke-width:8.64"/>
	<circle cx="3106.13" cy="1878.46" r="22.03" style="fill:none;stroke:#606060;stroke-width:8.64"/>
	<circle cx="3608.06" cy="1756.93" r="22.03" style="fill:none;stroke:#606060;stroke-width:8.64"/>
	<path d=" M596.60 932.24 L1098.53 804.77 L1600.46 1062.30 L2102.39 1125.42 L2604.32 1465.74 L3106.13 1878.46 L3608.06 1756.93" stroke-linejoin="round" style="fill:none;stroke:#808080;stroke-width:8.64"/>
	<line x1="345.76" y1="2534.23" x2="345.76" y2="100.86" style="stroke:#000000;stroke-width:5.76"/>
	<line x1="345.76" y1="2470.87" x2="305.79" y2="2470.87" style="stroke:#000000;stroke-width:5.76"/>
	<text x="263.18" y="2470.87" style="font-family:'Helvetica';font-size:74.99px;fill:#000000" transform="rotate(-90 263.18,2470.87)" text-anchor="middle">-.04</text>
	<line x1="345.76" y1="1701.99" x2="305.79" y2="1701.99" style="stroke:#000000;stroke-width:5.76"/>
	<text x="263.18" y="1701.99" style="font-family:'Helvetica';font-size:74.99px;fill:#000000" transform="rotate(-90 263.18,1701.99)" text-anchor="middle">-.02</text>
	<line x1="345.76" y1="933.10" x2="305.79" y2="933.10" style="stroke:#000000;stroke-width:5.76"/>
	<text x="263.18" y="933.10" style="font-family:'Helvetica';font-size:74.99px;fill:#000000" transform="rotate(-90 263.18,933.10)" text-anchor="middle">0</text>
	<line x1="345.76" y1="164.22" x2="305.79" y2="164.22" style="stroke:#000000;stroke-width:5.76"/>
	<text x="263.18" y="164.22" style="font-family:'Helvetica';font-size:74.99px;fill:#000000" transform="rotate(-90 263.18,164.22)" text-anchor="middle">.02</text>
	<text x="176.68" y="1317.48" style="font-family:'Helvetica';font-size:79.94px;fill:#000000" transform="rotate(-90 176.68,1317.48)" text-anchor="middle">Policy Dynamic Effects</text>
	<line x1="345.76" y1="2534.23" x2="3859.02" y2="2534.23" style="stroke:#000000;stroke-width:5.76"/>
	<line x1="596.72" y1="2534.23" x2="596.72" y2="2574.20" style="stroke:#000000;stroke-width:5.76"/>
	<text x="596.72" y="2646.69" style="font-family:'Helvetica';font-size:74.99px;fill:#000000" text-anchor="middle">pre_4</text>
	<line x1="1098.65" y1="2534.23" x2="1098.65" y2="2574.20" style="stroke:#000000;stroke-width:5.76"/>
	<text x="1098.65" y="2646.69" style="font-family:'Helvetica';font-size:74.99px;fill:#000000" text-anchor="middle">pre_3</text>
	<line x1="1600.46" y1="2534.23" x2="1600.46" y2="2574.20" style="stroke:#000000;stroke-width:5.76"/>
	<text x="1600.46" y="2646.69" style="font-family:'Helvetica';font-size:74.99px;fill:#000000" text-anchor="middle">pre_2</text>
	<line x1="2102.39" y1="2534.23" x2="2102.39" y2="2574.20" style="stroke:#000000;stroke-width:5.76"/>
	<text x="2102.39" y="2646.69" style="font-family:'Helvetica';font-size:74.99px;fill:#000000" text-anchor="middle">current</text>
	<line x1="2604.32" y1="2534.23" x2="2604.32" y2="2574.20" style="stroke:#000000;stroke-width:5.76"/>
	<text x="2604.32" y="2646.69" style="font-family:'Helvetica';font-size:74.99px;fill:#000000" text-anchor="middle">post_1</text>
	<line x1="3106.25" y1="2534.23" x2="3106.25" y2="2574.20" style="stroke:#000000;stroke-width:5.76"/>
	<text x="3106.25" y="2646.69" style="font-family:'Helvetica';font-size:74.99px;fill:#000000" text-anchor="middle">post_2</text>
	<line x1="3608.18" y1="2534.23" x2="3608.18" y2="2574.20" style="stroke:#000000;stroke-width:5.76"/>
	<text x="3608.18" y="2646.69" style="font-family:'Helvetica';font-size:74.99px;fill:#000000" text-anchor="middle">post_3</text>
	<text x="2102.39" y="2735.17" style="font-family:'Helvetica';font-size:79.94px;fill:#000000" text-anchor="middle">Code_ratio</text>
</svg>
