<?xml version="1.0" encoding="UTF-8" standalone="no"?>
<!-- This is a Stata 18.0 generated SVG file (http://www.stata.com) -->

<svg version="1.1" width="5.500in" height="4.000in" viewBox="0 0 3960 2880" xmlns="http://www.w3.org/2000/svg" xmlns:xlink="http://www.w3.org/1999/xlink">
	<desc>Stata Graph - Graph</desc>
	<rect x="0" y="0" width="3960" height="2880" style="fill:#FFFFFF;stroke:none"/>
	<rect x="0.00" y="0.00" width="3959.88" height="2880.00" style="fill:#FFFFFF"/>
	<rect x="2.88" y="2.88" width="3954.12" height="2874.24" style="fill:none;stroke:#FFFFFF;stroke-width:5.76"/>
	<rect x="348.64" y="103.74" width="3507.50" height="2427.61" style="fill:none;stroke:#000000;stroke-width:5.76"/>
	<line x1="2102.39" y1="2534.23" x2="2102.39" y2="2476.69" style="stroke:#6E8E84;stroke-width:4.32"/>
	<line x1="2102.39" y1="2447.85" x2="2102.39" y2="2390.31" style="stroke:#6E8E84;stroke-width:4.32"/>
	<line x1="2102.39" y1="2361.47" x2="2102.39" y2="2303.93" style="stroke:#6E8E84;stroke-width:4.32"/>
	<line x1="2102.39" y1="2275.09" x2="2102.39" y2="2217.55" style="stroke:#6E8E84;stroke-width:4.32"/>
	<line x1="2102.39" y1="2188.71" x2="2102.39" y2="2131.17" style="stroke:#6E8E84;stroke-width:4.32"/>
	<line x1="2102.39" y1="2102.33" x2="2102.39" y2="2044.66" style="stroke:#6E8E84;stroke-width:4.32"/>
	<line x1="2102.39" y1="2015.95" x2="2102.39" y2="1958.28" style="stroke:#6E8E84;stroke-width:4.32"/>
	<line x1="2102.39" y1="1929.57" x2="2102.39" y2="1871.90" style="stroke:#6E8E84;stroke-width:4.32"/>
	<line x1="2102.39" y1="1843.07" x2="2102.39" y2="1785.52" style="stroke:#6E8E84;stroke-width:4.32"/>
	<line x1="2102.39" y1="1756.69" x2="2102.39" y2="1699.14" style="stroke:#6E8E84;stroke-width:4.32"/>
	<line x1="2102.39" y1="1670.31" x2="2102.39" y2="1612.76" style="stroke:#6E8E84;stroke-width:4.32"/>
	<line x1="2102.39" y1="1583.93" x2="2102.39" y2="1526.38" style="stroke:#6E8E84;stroke-width:4.32"/>
	<line x1="2102.39" y1="1497.55" x2="2102.39" y2="1440.00" style="stroke:#6E8E84;stroke-width:4.32"/>
	<line x1="2102.39" y1="1411.17" x2="2102.39" y2="1353.62" style="stroke:#6E8E84;stroke-width:4.32"/>
	<line x1="2102.39" y1="1324.79" x2="2102.39" y2="1267.24" style="stroke:#6E8E84;stroke-width:4.32"/>
	<line x1="2102.39" y1="1238.40" x2="2102.39" y2="1180.86" style="stroke:#6E8E84;stroke-width:4.32"/>
	<line x1="2102.39" y1="1152.02" x2="2102.39" y2="1094.36" style="stroke:#6E8E84;stroke-width:4.32"/>
	<line x1="2102.39" y1="1065.64" x2="2102.39" y2="1007.98" style="stroke:#6E8E84;stroke-width:4.32"/>
	<line x1="2102.39" y1="979.14" x2="2102.39" y2="921.60" style="stroke:#6E8E84;stroke-width:4.32"/>
	<line x1="2102.39" y1="892.76" x2="2102.39" y2="835.21" style="stroke:#6E8E84;stroke-width:4.32"/>
	<line x1="2102.39" y1="806.38" x2="2102.39" y2="748.83" style="stroke:#6E8E84;stroke-width:4.32"/>
	<line x1="2102.39" y1="720.00" x2="2102.39" y2="662.45" style="stroke:#6E8E84;stroke-width:4.32"/>
	<line x1="2102.39" y1="633.62" x2="2102.39" y2="576.07" style="stroke:#6E8E84;stroke-width:4.32"/>
	<line x1="2102.39" y1="547.24" x2="2102.39" y2="489.69" style="stroke:#6E8E84;stroke-width:4.32"/>
	<line x1="2102.39" y1="460.86" x2="2102.39" y2="403.31" style="stroke:#6E8E84;stroke-width:4.32"/>
	<line x1="2102.39" y1="374.48" x2="2102.39" y2="316.93" style="stroke:#6E8E84;stroke-width:4.32"/>
	<line x1="2102.39" y1="288.10" x2="2102.39" y2="230.55" style="stroke:#6E8E84;stroke-width:4.32"/>
	<line x1="2102.39" y1="201.72" x2="2102.39" y2="144.05" style="stroke:#6E8E84;stroke-width:4.32"/>
	<line x1="2102.39" y1="115.34" x2="2102.39" y2="100.86" style="stroke:#6E8E84;stroke-width:4.32"/>
	<line x1="345.76" y1="1701.99" x2="3859.02" y2="1701.99" style="stroke:#658397;stroke-width:8.64"/>
	<line x1="596.72" y1="1988.23" x2="596.72" y2="1930.68" style="stroke:#606060;stroke-width:8.64"/>
	<line x1="596.72" y1="1901.85" x2="596.72" y2="1844.30" style="stroke:#606060;stroke-width:8.64"/>
	<line x1="596.72" y1="1815.47" x2="596.72" y2="1757.92" style="stroke:#606060;stroke-width:8.64"/>
	<line x1="596.72" y1="1729.09" x2="596.72" y2="1671.54" style="stroke:#606060;stroke-width:8.64"/>
	<line x1="596.72" y1="1642.71" x2="596.72" y2="1585.04" style="stroke:#606060;stroke-width:8.64"/>
	<line x1="596.72" y1="1556.33" x2="596.72" y2="1498.66" style="stroke:#606060;stroke-width:8.64"/>
	<line x1="596.72" y1="1469.95" x2="596.72" y2="1412.28" style="stroke:#606060;stroke-width:8.64"/>
	<line x1="596.72" y1="1383.44" x2="596.72" y2="1325.90" style="stroke:#606060;stroke-width:8.64"/>
	<line x1="596.72" y1="1297.06" x2="596.72" y2="1244.10" style="stroke:#606060;stroke-width:8.64"/>
	<line x1="574.70" y1="1244.10" x2="618.75" y2="1244.10" style="stroke:#606060;stroke-width:8.64"/>
	<line x1="574.70" y1="1988.23" x2="618.75" y2="1988.23" style="stroke:#606060;stroke-width:8.64"/>
	<line x1="1098.65" y1="1791.71" x2="1098.65" y2="1734.16" style="stroke:#606060;stroke-width:8.64"/>
	<line x1="1098.65" y1="1705.33" x2="1098.65" y2="1647.78" style="stroke:#606060;stroke-width:8.64"/>
	<line x1="1098.65" y1="1618.95" x2="1098.65" y2="1561.28" style="stroke:#606060;stroke-width:8.64"/>
	<line x1="1098.65" y1="1532.57" x2="1098.65" y2="1474.90" style="stroke:#606060;stroke-width:8.64"/>
	<line x1="1098.65" y1="1446.19" x2="1098.65" y2="1388.52" style="stroke:#606060;stroke-width:8.64"/>
	<line x1="1098.65" y1="1359.68" x2="1098.65" y2="1302.14" style="stroke:#606060;stroke-width:8.64"/>
	<line x1="1098.65" y1="1273.30" x2="1098.65" y2="1215.76" style="stroke:#606060;stroke-width:8.64"/>
	<line x1="1098.65" y1="1186.92" x2="1098.65" y2="1129.38" style="stroke:#606060;stroke-width:8.64"/>
	<line x1="1076.63" y1="1107.72" x2="1120.68" y2="1107.72" style="stroke:#606060;stroke-width:8.64"/>
	<line x1="1076.63" y1="1791.71" x2="1120.68" y2="1791.71" style="stroke:#606060;stroke-width:8.64"/>
	<line x1="1600.46" y1="2367.91" x2="1600.46" y2="2310.36" style="stroke:#606060;stroke-width:8.64"/>
	<line x1="1600.46" y1="2281.53" x2="1600.46" y2="2223.98" style="stroke:#606060;stroke-width:8.64"/>
	<line x1="1600.46" y1="2195.15" x2="1600.46" y2="2137.60" style="stroke:#606060;stroke-width:8.64"/>
	<line x1="1600.46" y1="2108.77" x2="1600.46" y2="2051.22" style="stroke:#606060;stroke-width:8.64"/>
	<line x1="1600.46" y1="2022.39" x2="1600.46" y2="1964.84" style="stroke:#606060;stroke-width:8.64"/>
	<line x1="1600.46" y1="1936.01" x2="1600.46" y2="1878.34" style="stroke:#606060;stroke-width:8.64"/>
	<line x1="1600.46" y1="1849.63" x2="1600.46" y2="1791.96" style="stroke:#606060;stroke-width:8.64"/>
	<line x1="1600.46" y1="1763.25" x2="1600.46" y2="1712.01" style="stroke:#606060;stroke-width:8.64"/>
	<line x1="1578.43" y1="1712.01" x2="1622.49" y2="1712.01" style="stroke:#606060;stroke-width:8.64"/>
	<line x1="1578.43" y1="2367.91" x2="1622.49" y2="2367.91" style="stroke:#606060;stroke-width:8.64"/>
	<line x1="2102.39" y1="1973.01" x2="2102.39" y2="1915.46" style="stroke:#606060;stroke-width:8.64"/>
	<line x1="2102.39" y1="1886.63" x2="2102.39" y2="1829.08" style="stroke:#606060;stroke-width:8.64"/>
	<line x1="2102.39" y1="1800.25" x2="2102.39" y2="1742.70" style="stroke:#606060;stroke-width:8.64"/>
	<line x1="2102.39" y1="1713.87" x2="2102.39" y2="1656.32" style="stroke:#606060;stroke-width:8.64"/>
	<line x1="2102.39" y1="1627.49" x2="2102.39" y2="1569.82" style="stroke:#606060;stroke-width:8.64"/>
	<line x1="2102.39" y1="1541.11" x2="2102.39" y2="1483.44" style="stroke:#606060;stroke-width:8.64"/>
	<line x1="2102.39" y1="1454.60" x2="2102.39" y2="1397.06" style="stroke:#606060;stroke-width:8.64"/>
	<line x1="2102.39" y1="1368.22" x2="2102.39" y2="1337.28" style="stroke:#606060;stroke-width:8.64"/>
	<line x1="2080.36" y1="1337.28" x2="2124.42" y2="1337.28" style="stroke:#606060;stroke-width:8.64"/>
	<line x1="2080.36" y1="1973.01" x2="2124.42" y2="1973.01" style="stroke:#606060;stroke-width:8.64"/>
	<line x1="2604.32" y1="1445.20" x2="2604.32" y2="1387.65" style="stroke:#606060;stroke-width:8.64"/>
	<line x1="2604.32" y1="1358.82" x2="2604.32" y2="1301.27" style="stroke:#606060;stroke-width:8.64"/>
	<line x1="2604.32" y1="1272.44" x2="2604.32" y2="1214.89" style="stroke:#606060;stroke-width:8.64"/>
	<line x1="2604.32" y1="1186.06" x2="2604.32" y2="1128.51" style="stroke:#606060;stroke-width:8.64"/>
	<line x1="2604.32" y1="1099.68" x2="2604.32" y2="1042.13" style="stroke:#606060;stroke-width:8.64"/>
	<line x1="2604.32" y1="1013.30" x2="2604.32" y2="955.63" style="stroke:#606060;stroke-width:8.64"/>
	<line x1="2604.32" y1="926.92" x2="2604.32" y2="869.25" style="stroke:#606060;stroke-width:8.64"/>
	<line x1="2604.32" y1="840.54" x2="2604.32" y2="807.49" style="stroke:#606060;stroke-width:8.64"/>
	<line x1="2582.29" y1="807.49" x2="2626.35" y2="807.49" style="stroke:#606060;stroke-width:8.64"/>
	<line x1="2582.29" y1="1445.20" x2="2626.35" y2="1445.20" style="stroke:#606060;stroke-width:8.64"/>
	<line x1="3106.25" y1="1023.82" x2="3106.25" y2="966.27" style="stroke:#606060;stroke-width:8.64"/>
	<line x1="3106.25" y1="937.44" x2="3106.25" y2="879.89" style="stroke:#606060;stroke-width:8.64"/>
	<line x1="3106.25" y1="851.06" x2="3106.25" y2="793.39" style="stroke:#606060;stroke-width:8.64"/>
	<line x1="3106.25" y1="764.68" x2="3106.25" y2="707.01" style="stroke:#606060;stroke-width:8.64"/>
	<line x1="3106.25" y1="678.17" x2="3106.25" y2="620.63" style="stroke:#606060;stroke-width:8.64"/>
	<line x1="3106.25" y1="591.79" x2="3106.25" y2="534.25" style="stroke:#606060;stroke-width:8.64"/>
	<line x1="3106.25" y1="505.41" x2="3106.25" y2="447.87" style="stroke:#606060;stroke-width:8.64"/>
	<line x1="3106.25" y1="419.03" x2="3106.25" y2="361.49" style="stroke:#606060;stroke-width:8.64"/>
	<line x1="3084.22" y1="355.05" x2="3128.28" y2="355.05" style="stroke:#606060;stroke-width:8.64"/>
	<line x1="3084.22" y1="1023.82" x2="3128.28" y2="1023.82" style="stroke:#606060;stroke-width:8.64"/>
	<line x1="3608.18" y1="1110.32" x2="3608.18" y2="1052.77" style="stroke:#606060;stroke-width:8.64"/>
	<line x1="3608.18" y1="1023.94" x2="3608.18" y2="966.39" style="stroke:#606060;stroke-width:8.64"/>
	<line x1="3608.18" y1="937.56" x2="3608.18" y2="880.01" style="stroke:#606060;stroke-width:8.64"/>
	<line x1="3608.18" y1="851.18" x2="3608.18" y2="793.51" style="stroke:#606060;stroke-width:8.64"/>
	<line x1="3608.18" y1="764.80" x2="3608.18" y2="707.13" style="stroke:#606060;stroke-width:8.64"/>
	<line x1="3608.18" y1="678.29" x2="3608.18" y2="620.75" style="stroke:#606060;stroke-width:8.64"/>
	<line x1="3608.18" y1="591.91" x2="3608.18" y2="534.37" style="stroke:#606060;stroke-width:8.64"/>
	<line x1="3608.18" y1="505.53" x2="3608.18" y2="448.98" style="stroke:#606060;stroke-width:8.64"/>
	<line x1="3586.15" y1="448.98" x2="3630.21" y2="448.98" style="stroke:#606060;stroke-width:8.64"/>
	<line x1="3586.15" y1="1110.32" x2="3630.21" y2="1110.32" style="stroke:#606060;stroke-width:8.64"/>
	<circle cx="596.60" cy="1616.23" r="22.03" style="fill:none;stroke:#606060;stroke-width:8.64"/>
	<circle cx="1098.53" cy="1449.78" r="22.03" style="fill:none;stroke:#606060;stroke-width:8.64"/>
	<circle cx="1600.46" cy="2039.96" r="22.03" style="fill:none;stroke:#606060;stroke-width:8.64"/>
	<circle cx="2102.39" cy="1655.21" r="22.03" style="fill:none;stroke:#606060;stroke-width:8.64"/>
	<circle cx="2604.32" cy="1126.41" r="22.03" style="fill:none;stroke:#606060;stroke-width:8.64"/>
	<circle cx="3106.13" cy="689.56" r="22.03" style="fill:none;stroke:#606060;stroke-width:8.64"/>
	<circle cx="3608.06" cy="779.65" r="22.03" style="fill:none;stroke:#606060;stroke-width:8.64"/>
	<path d=" M596.60 1616.23 L1098.53 1449.78 L1600.46 2039.96 L2102.39 1655.21 L2604.32 1126.41 L3106.13 689.56 L3608.06 779.65" stroke-linejoin="round" style="fill:none;stroke:#808080;stroke-width:8.64"/>
	<line x1="345.76" y1="2534.23" x2="345.76" y2="100.86" style="stroke:#000000;stroke-width:5.76"/>
	<line x1="345.76" y1="2470.87" x2="305.79" y2="2470.87" style="stroke:#000000;stroke-width:5.76"/>
	<text x="263.18" y="2470.87" style="font-family:'Helvetica';font-size:74.99px;fill:#000000" transform="rotate(-90 263.18,2470.87)" text-anchor="middle">-.02</text>
	<line x1="345.76" y1="1701.99" x2="305.79" y2="1701.99" style="stroke:#000000;stroke-width:5.76"/>
	<text x="263.18" y="1701.99" style="font-family:'Helvetica';font-size:74.99px;fill:#000000" transform="rotate(-90 263.18,1701.99)" text-anchor="middle">0</text>
	<line x1="345.76" y1="933.10" x2="305.79" y2="933.10" style="stroke:#000000;stroke-width:5.76"/>
	<text x="263.18" y="933.10" style="font-family:'Helvetica';font-size:74.99px;fill:#000000" transform="rotate(-90 263.18,933.10)" text-anchor="middle">.02</text>
	<line x1="345.76" y1="164.22" x2="305.79" y2="164.22" style="stroke:#000000;stroke-width:5.76"/>
	<text x="263.18" y="164.22" style="font-family:'Helvetica';font-size:74.99px;fill:#000000" transform="rotate(-90 263.18,164.22)" text-anchor="middle">.04</text>
	<text x="176.68" y="1317.48" style="font-family:'Helvetica';font-size:79.94px;fill:#000000" transform="rotate(-90 176.68,1317.48)" text-anchor="middle">Policy Dynamic Effects</text>
	<line x1="345.76" y1="2534.23" x2="3859.02" y2="2534.23" style="stroke:#000000;stroke-width:5.76"/>
	<line x1="596.72" y1="2534.23" x2="596.72" y2="2574.20" style="stroke:#000000;stroke-width:5.76"/>
	<text x="596.72" y="2646.69" style="font-family:'Helvetica';font-size:74.99px;fill:#000000" text-anchor="middle">pre_4</text>
	<line x1="1098.65" y1="2534.23" x2="1098.65" y2="2574.20" style="stroke:#000000;stroke-width:5.76"/>
	<text x="1098.65" y="2646.69" style="font-family:'Helvetica';font-size:74.99px;fill:#000000" text-anchor="middle">pre_3</text>
	<line x1="1600.46" y1="2534.23" x2="1600.46" y2="2574.20" style="stroke:#000000;stroke-width:5.76"/>
	<text x="1600.46" y="2646.69" style="font-family:'Helvetica';font-size:74.99px;fill:#000000" text-anchor="middle">pre_2</text>
	<line x1="2102.39" y1="2534.23" x2="2102.39" y2="2574.20" style="stroke:#000000;stroke-width:5.76"/>
	<text x="2102.39" y="2646.69" style="font-family:'Helvetica';font-size:74.99px;fill:#000000" text-anchor="middle">current</text>
	<line x1="2604.32" y1="2534.23" x2="2604.32" y2="2574.20" style="stroke:#000000;stroke-width:5.76"/>
	<text x="2604.32" y="2646.69" style="font-family:'Helvetica';font-size:74.99px;fill:#000000" text-anchor="middle">post_1</text>
	<line x1="3106.25" y1="2534.23" x2="3106.25" y2="2574.20" style="stroke:#000000;stroke-width:5.76"/>
	<text x="3106.25" y="2646.69" style="font-family:'Helvetica';font-size:74.99px;fill:#000000" text-anchor="middle">post_2</text>
	<line x1="3608.18" y1="2534.23" x2="3608.18" y2="2574.20" style="stroke:#000000;stroke-width:5.76"/>
	<text x="3608.18" y="2646.69" style="font-family:'Helvetica';font-size:74.99px;fill:#000000" text-anchor="middle">post_3</text>
	<text x="2102.39" y="2735.17" style="fill:#000000" text-anchor="middle">
		<tspan style="font-family:'Helvetica';font-size:79.94px">Avg_rating</tspan>
		<tspan dy="11.42px" style="font-family:'Helvetica';font-size:46.61px">it</tspan>
	</text>
</svg>
