<?xml version="1.0" encoding="UTF-8" standalone="no"?>
<!-- This is a Stata 18.0 generated SVG file (http://www.stata.com) -->

<svg version="1.1" width="5.500in" height="4.000in" viewBox="0 0 3960 2880" xmlns="http://www.w3.org/2000/svg" xmlns:xlink="http://www.w3.org/1999/xlink">
	<desc>Stata Graph - Graph</desc>
	<rect x="0" y="0" width="3960" height="2880" style="fill:#FFFFFF;stroke:none"/>
	<rect x="0.00" y="0.00" width="3959.88" height="2880.00" style="fill:#FFFFFF"/>
	<rect x="2.88" y="2.88" width="3954.12" height="2874.24" style="fill:none;stroke:#FFFFFF;stroke-width:5.76"/>
	<rect x="348.64" y="103.74" width="3507.50" height="2427.61" style="fill:none;stroke:#000000;stroke-width:5.76"/>
	<line x1="2102.39" y1="2534.23" x2="2102.39" y2="2476.69" style="stroke:#6E8E84;stroke-width:4.32"/>
	<line x1="2102.39" y1="2447.85" x2="2102.39" y2="2390.31" style="stroke:#6E8E84;stroke-width:4.32"/>
	<line x1="2102.39" y1="2361.47" x2="2102.39" y2="2303.93" style="stroke:#6E8E84;stroke-width:4.32"/>
	<line x1="2102.39" y1="2275.09" x2="2102.39" y2="2217.55" style="stroke:#6E8E84;stroke-width:4.32"/>
	<line x1="2102.39" y1="2188.71" x2="2102.39" y2="2131.17" style="stroke:#6E8E84;stroke-width:4.32"/>
	<line x1="2102.39" y1="2102.33" x2="2102.39" y2="2044.66" style="stroke:#6E8E84;stroke-width:4.32"/>
	<line x1="2102.39" y1="2015.95" x2="2102.39" y2="1958.28" style="stroke:#6E8E84;stroke-width:4.32"/>
	<line x1="2102.39" y1="1929.57" x2="2102.39" y2="1871.90" style="stroke:#6E8E84;stroke-width:4.32"/>
	<line x1="2102.39" y1="1843.07" x2="2102.39" y2="1785.52" style="stroke:#6E8E84;stroke-width:4.32"/>
	<line x1="2102.39" y1="1756.69" x2="2102.39" y2="1699.14" style="stroke:#6E8E84;stroke-width:4.32"/>
	<line x1="2102.39" y1="1670.31" x2="2102.39" y2="1612.76" style="stroke:#6E8E84;stroke-width:4.32"/>
	<line x1="2102.39" y1="1583.93" x2="2102.39" y2="1526.38" style="stroke:#6E8E84;stroke-width:4.32"/>
	<line x1="2102.39" y1="1497.55" x2="2102.39" y2="1440.00" style="stroke:#6E8E84;stroke-width:4.32"/>
	<line x1="2102.39" y1="1411.17" x2="2102.39" y2="1353.62" style="stroke:#6E8E84;stroke-width:4.32"/>
	<line x1="2102.39" y1="1324.79" x2="2102.39" y2="1267.24" style="stroke:#6E8E84;stroke-width:4.32"/>
	<line x1="2102.39" y1="1238.40" x2="2102.39" y2="1180.86" style="stroke:#6E8E84;stroke-width:4.32"/>
	<line x1="2102.39" y1="1152.02" x2="2102.39" y2="1094.36" style="stroke:#6E8E84;stroke-width:4.32"/>
	<line x1="2102.39" y1="1065.64" x2="2102.39" y2="1007.98" style="stroke:#6E8E84;stroke-width:4.32"/>
	<line x1="2102.39" y1="979.14" x2="2102.39" y2="921.60" style="stroke:#6E8E84;stroke-width:4.32"/>
	<line x1="2102.39" y1="892.76" x2="2102.39" y2="835.21" style="stroke:#6E8E84;stroke-width:4.32"/>
	<line x1="2102.39" y1="806.38" x2="2102.39" y2="748.83" style="stroke:#6E8E84;stroke-width:4.32"/>
	<line x1="2102.39" y1="720.00" x2="2102.39" y2="662.45" style="stroke:#6E8E84;stroke-width:4.32"/>
	<line x1="2102.39" y1="633.62" x2="2102.39" y2="576.07" style="stroke:#6E8E84;stroke-width:4.32"/>
	<line x1="2102.39" y1="547.24" x2="2102.39" y2="489.69" style="stroke:#6E8E84;stroke-width:4.32"/>
	<line x1="2102.39" y1="460.86" x2="2102.39" y2="403.31" style="stroke:#6E8E84;stroke-width:4.32"/>
	<line x1="2102.39" y1="374.48" x2="2102.39" y2="316.93" style="stroke:#6E8E84;stroke-width:4.32"/>
	<line x1="2102.39" y1="288.10" x2="2102.39" y2="230.55" style="stroke:#6E8E84;stroke-width:4.32"/>
	<line x1="2102.39" y1="201.72" x2="2102.39" y2="144.05" style="stroke:#6E8E84;stroke-width:4.32"/>
	<line x1="2102.39" y1="115.34" x2="2102.39" y2="100.86" style="stroke:#6E8E84;stroke-width:4.32"/>
	<line x1="345.76" y1="1829.95" x2="3859.02" y2="1829.95" style="stroke:#658397;stroke-width:8.64"/>
	<line x1="596.72" y1="2214.70" x2="596.72" y2="2157.15" style="stroke:#606060;stroke-width:8.64"/>
	<line x1="596.72" y1="2128.32" x2="596.72" y2="2070.77" style="stroke:#606060;stroke-width:8.64"/>
	<line x1="596.72" y1="2041.94" x2="596.72" y2="1984.39" style="stroke:#606060;stroke-width:8.64"/>
	<line x1="596.72" y1="1955.56" x2="596.72" y2="1897.89" style="stroke:#606060;stroke-width:8.64"/>
	<line x1="596.72" y1="1869.18" x2="596.72" y2="1811.51" style="stroke:#606060;stroke-width:8.64"/>
	<line x1="596.72" y1="1782.80" x2="596.72" y2="1725.13" style="stroke:#606060;stroke-width:8.64"/>
	<line x1="596.72" y1="1696.29" x2="596.72" y2="1638.75" style="stroke:#606060;stroke-width:8.64"/>
	<line x1="596.72" y1="1609.91" x2="596.72" y2="1552.37" style="stroke:#606060;stroke-width:8.64"/>
	<line x1="596.72" y1="1523.53" x2="596.72" y2="1465.99" style="stroke:#606060;stroke-width:8.64"/>
	<line x1="596.72" y1="1437.15" x2="596.72" y2="1379.61" style="stroke:#606060;stroke-width:8.64"/>
	<line x1="596.72" y1="1350.77" x2="596.72" y2="1293.23" style="stroke:#606060;stroke-width:8.64"/>
	<line x1="596.72" y1="1264.39" x2="596.72" y2="1211.30" style="stroke:#606060;stroke-width:8.64"/>
	<line x1="574.70" y1="1211.30" x2="618.75" y2="1211.30" style="stroke:#606060;stroke-width:8.64"/>
	<line x1="574.70" y1="2214.70" x2="618.75" y2="2214.70" style="stroke:#606060;stroke-width:8.64"/>
	<line x1="1098.65" y1="2470.87" x2="1098.65" y2="2413.32" style="stroke:#606060;stroke-width:8.64"/>
	<line x1="1098.65" y1="2384.49" x2="1098.65" y2="2326.94" style="stroke:#606060;stroke-width:8.64"/>
	<line x1="1098.65" y1="2298.11" x2="1098.65" y2="2240.56" style="stroke:#606060;stroke-width:8.64"/>
	<line x1="1098.65" y1="2211.73" x2="1098.65" y2="2154.18" style="stroke:#606060;stroke-width:8.64"/>
	<line x1="1098.65" y1="2125.35" x2="1098.65" y2="2067.80" style="stroke:#606060;stroke-width:8.64"/>
	<line x1="1098.65" y1="2038.97" x2="1098.65" y2="1981.30" style="stroke:#606060;stroke-width:8.64"/>
	<line x1="1098.65" y1="1952.59" x2="1098.65" y2="1894.92" style="stroke:#606060;stroke-width:8.64"/>
	<line x1="1098.65" y1="1866.21" x2="1098.65" y2="1808.54" style="stroke:#606060;stroke-width:8.64"/>
	<line x1="1098.65" y1="1779.70" x2="1098.65" y2="1722.16" style="stroke:#606060;stroke-width:8.64"/>
	<line x1="1098.65" y1="1693.32" x2="1098.65" y2="1635.78" style="stroke:#606060;stroke-width:8.64"/>
	<line x1="1098.65" y1="1606.94" x2="1098.65" y2="1549.40" style="stroke:#606060;stroke-width:8.64"/>
	<line x1="1098.65" y1="1520.56" x2="1098.65" y2="1467.84" style="stroke:#606060;stroke-width:8.64"/>
	<line x1="1076.63" y1="1467.84" x2="1120.68" y2="1467.84" style="stroke:#606060;stroke-width:8.64"/>
	<line x1="1076.63" y1="2470.87" x2="1120.68" y2="2470.87" style="stroke:#606060;stroke-width:8.64"/>
	<line x1="1600.46" y1="2295.76" x2="1600.46" y2="2238.21" style="stroke:#606060;stroke-width:8.64"/>
	<line x1="1600.46" y1="2209.38" x2="1600.46" y2="2151.71" style="stroke:#606060;stroke-width:8.64"/>
	<line x1="1600.46" y1="2123.00" x2="1600.46" y2="2065.33" style="stroke:#606060;stroke-width:8.64"/>
	<line x1="1600.46" y1="2036.49" x2="1600.46" y2="1978.95" style="stroke:#606060;stroke-width:8.64"/>
	<line x1="1600.46" y1="1950.11" x2="1600.46" y2="1892.57" style="stroke:#606060;stroke-width:8.64"/>
	<line x1="1600.46" y1="1863.73" x2="1600.46" y2="1806.19" style="stroke:#606060;stroke-width:8.64"/>
	<line x1="1600.46" y1="1777.35" x2="1600.46" y2="1719.81" style="stroke:#606060;stroke-width:8.64"/>
	<line x1="1600.46" y1="1690.97" x2="1600.46" y2="1633.43" style="stroke:#606060;stroke-width:8.64"/>
	<line x1="1600.46" y1="1604.59" x2="1600.46" y2="1547.05" style="stroke:#606060;stroke-width:8.64"/>
	<line x1="1600.46" y1="1518.21" x2="1600.46" y2="1460.67" style="stroke:#606060;stroke-width:8.64"/>
	<line x1="1600.46" y1="1431.83" x2="1600.46" y2="1374.29" style="stroke:#606060;stroke-width:8.64"/>
	<line x1="1600.46" y1="1345.45" x2="1600.46" y2="1318.97" style="stroke:#606060;stroke-width:8.64"/>
	<line x1="1578.43" y1="1318.97" x2="1622.49" y2="1318.97" style="stroke:#606060;stroke-width:8.64"/>
	<line x1="1578.43" y1="2295.76" x2="1622.49" y2="2295.76" style="stroke:#606060;stroke-width:8.64"/>
	<line x1="2102.39" y1="1712.38" x2="2102.39" y2="1654.84" style="stroke:#606060;stroke-width:8.64"/>
	<line x1="2102.39" y1="1626.00" x2="2102.39" y2="1568.46" style="stroke:#606060;stroke-width:8.64"/>
	<line x1="2102.39" y1="1539.62" x2="2102.39" y2="1482.08" style="stroke:#606060;stroke-width:8.64"/>
	<line x1="2102.39" y1="1453.24" x2="2102.39" y2="1395.57" style="stroke:#606060;stroke-width:8.64"/>
	<line x1="2102.39" y1="1366.86" x2="2102.39" y2="1309.19" style="stroke:#606060;stroke-width:8.64"/>
	<line x1="2102.39" y1="1280.36" x2="2102.39" y2="1222.81" style="stroke:#606060;stroke-width:8.64"/>
	<line x1="2102.39" y1="1193.98" x2="2102.39" y2="1136.43" style="stroke:#606060;stroke-width:8.64"/>
	<line x1="2102.39" y1="1107.60" x2="2102.39" y2="1050.05" style="stroke:#606060;stroke-width:8.64"/>
	<line x1="2102.39" y1="1021.22" x2="2102.39" y2="963.67" style="stroke:#606060;stroke-width:8.64"/>
	<line x1="2102.39" y1="934.84" x2="2102.39" y2="877.29" style="stroke:#606060;stroke-width:8.64"/>
	<line x1="2102.39" y1="848.46" x2="2102.39" y2="790.91" style="stroke:#606060;stroke-width:8.64"/>
	<line x1="2102.39" y1="762.08" x2="2102.39" y2="704.53" style="stroke:#606060;stroke-width:8.64"/>
	<line x1="2080.36" y1="696.36" x2="2124.42" y2="696.36" style="stroke:#606060;stroke-width:8.64"/>
	<line x1="2080.36" y1="1712.38" x2="2124.42" y2="1712.38" style="stroke:#606060;stroke-width:8.64"/>
	<line x1="2604.32" y1="1978.70" x2="2604.32" y2="1921.16" style="stroke:#606060;stroke-width:8.64"/>
	<line x1="2604.32" y1="1892.32" x2="2604.32" y2="1834.65" style="stroke:#606060;stroke-width:8.64"/>
	<line x1="2604.32" y1="1805.94" x2="2604.32" y2="1748.27" style="stroke:#606060;stroke-width:8.64"/>
	<line x1="2604.32" y1="1719.56" x2="2604.32" y2="1661.89" style="stroke:#606060;stroke-width:8.64"/>
	<line x1="2604.32" y1="1633.06" x2="2604.32" y2="1575.51" style="stroke:#606060;stroke-width:8.64"/>
	<line x1="2604.32" y1="1546.68" x2="2604.32" y2="1489.13" style="stroke:#606060;stroke-width:8.64"/>
	<line x1="2604.32" y1="1460.30" x2="2604.32" y2="1402.75" style="stroke:#606060;stroke-width:8.64"/>
	<line x1="2604.32" y1="1373.92" x2="2604.32" y2="1316.37" style="stroke:#606060;stroke-width:8.64"/>
	<line x1="2604.32" y1="1287.54" x2="2604.32" y2="1229.99" style="stroke:#606060;stroke-width:8.64"/>
	<line x1="2604.32" y1="1201.16" x2="2604.32" y2="1143.61" style="stroke:#606060;stroke-width:8.64"/>
	<line x1="2604.32" y1="1114.77" x2="2604.32" y2="1057.23" style="stroke:#606060;stroke-width:8.64"/>
	<line x1="2604.32" y1="1028.39" x2="2604.32" y2="970.85" style="stroke:#606060;stroke-width:8.64"/>
	<line x1="2604.32" y1="942.01" x2="2604.32" y2="930.26" style="stroke:#606060;stroke-width:8.64"/>
	<line x1="2582.29" y1="930.26" x2="2626.35" y2="930.26" style="stroke:#606060;stroke-width:8.64"/>
	<line x1="2582.29" y1="1978.70" x2="2626.35" y2="1978.70" style="stroke:#606060;stroke-width:8.64"/>
	<line x1="3106.25" y1="1234.69" x2="3106.25" y2="1177.15" style="stroke:#606060;stroke-width:8.64"/>
	<line x1="3106.25" y1="1148.31" x2="3106.25" y2="1090.77" style="stroke:#606060;stroke-width:8.64"/>
	<line x1="3106.25" y1="1061.93" x2="3106.25" y2="1004.39" style="stroke:#606060;stroke-width:8.64"/>
	<line x1="3106.25" y1="975.55" x2="3106.25" y2="918.01" style="stroke:#606060;stroke-width:8.64"/>
	<line x1="3106.25" y1="889.17" x2="3106.25" y2="831.63" style="stroke:#606060;stroke-width:8.64"/>
	<line x1="3106.25" y1="802.79" x2="3106.25" y2="745.25" style="stroke:#606060;stroke-width:8.64"/>
	<line x1="3106.25" y1="716.41" x2="3106.25" y2="658.74" style="stroke:#606060;stroke-width:8.64"/>
	<line x1="3106.25" y1="630.03" x2="3106.25" y2="572.36" style="stroke:#606060;stroke-width:8.64"/>
	<line x1="3106.25" y1="543.53" x2="3106.25" y2="485.98" style="stroke:#606060;stroke-width:8.64"/>
	<line x1="3106.25" y1="457.15" x2="3106.25" y2="399.60" style="stroke:#606060;stroke-width:8.64"/>
	<line x1="3106.25" y1="370.77" x2="3106.25" y2="313.22" style="stroke:#606060;stroke-width:8.64"/>
	<line x1="3106.25" y1="284.39" x2="3106.25" y2="226.84" style="stroke:#606060;stroke-width:8.64"/>
	<line x1="3106.25" y1="198.01" x2="3106.25" y2="164.22" style="stroke:#606060;stroke-width:8.64"/>
	<line x1="3084.22" y1="164.22" x2="3128.28" y2="164.22" style="stroke:#606060;stroke-width:8.64"/>
	<line x1="3084.22" y1="1234.69" x2="3128.28" y2="1234.69" style="stroke:#606060;stroke-width:8.64"/>
	<line x1="3608.18" y1="1305.60" x2="3608.18" y2="1248.06" style="stroke:#606060;stroke-width:8.64"/>
	<line x1="3608.18" y1="1219.22" x2="3608.18" y2="1161.55" style="stroke:#606060;stroke-width:8.64"/>
	<line x1="3608.18" y1="1132.84" x2="3608.18" y2="1075.17" style="stroke:#606060;stroke-width:8.64"/>
	<line x1="3608.18" y1="1046.46" x2="3608.18" y2="988.79" style="stroke:#606060;stroke-width:8.64"/>
	<line x1="3608.18" y1="959.96" x2="3608.18" y2="902.41" style="stroke:#606060;stroke-width:8.64"/>
	<line x1="3608.18" y1="873.58" x2="3608.18" y2="816.03" style="stroke:#606060;stroke-width:8.64"/>
	<line x1="3608.18" y1="787.20" x2="3608.18" y2="729.65" style="stroke:#606060;stroke-width:8.64"/>
	<line x1="3608.18" y1="700.82" x2="3608.18" y2="643.27" style="stroke:#606060;stroke-width:8.64"/>
	<line x1="3608.18" y1="614.44" x2="3608.18" y2="556.89" style="stroke:#606060;stroke-width:8.64"/>
	<line x1="3608.18" y1="528.06" x2="3608.18" y2="470.51" style="stroke:#606060;stroke-width:8.64"/>
	<line x1="3608.18" y1="441.68" x2="3608.18" y2="384.13" style="stroke:#606060;stroke-width:8.64"/>
	<line x1="3608.18" y1="355.30" x2="3608.18" y2="297.75" style="stroke:#606060;stroke-width:8.64"/>
	<line x1="3608.18" y1="268.92" x2="3608.18" y2="211.25" style="stroke:#606060;stroke-width:8.64"/>
	<line x1="3586.15" y1="202.21" x2="3630.21" y2="202.21" style="stroke:#606060;stroke-width:8.64"/>
	<line x1="3586.15" y1="1305.60" x2="3630.21" y2="1305.60" style="stroke:#606060;stroke-width:8.64"/>
	<circle cx="596.60" cy="1713.12" r="22.03" style="fill:none;stroke:#606060;stroke-width:8.64"/>
	<circle cx="1098.53" cy="1969.42" r="22.03" style="fill:none;stroke:#606060;stroke-width:8.64"/>
	<circle cx="1600.46" cy="1807.43" r="22.03" style="fill:none;stroke:#606060;stroke-width:8.64"/>
	<circle cx="2102.39" cy="1204.37" r="22.03" style="fill:none;stroke:#606060;stroke-width:8.64"/>
	<circle cx="2604.32" cy="1454.48" r="22.03" style="fill:none;stroke:#606060;stroke-width:8.64"/>
	<circle cx="3106.13" cy="699.46" r="22.03" style="fill:none;stroke:#606060;stroke-width:8.64"/>
	<circle cx="3608.06" cy="754.03" r="22.03" style="fill:none;stroke:#606060;stroke-width:8.64"/>
	<path d=" M596.60 1713.12 L1098.53 1969.42 L1600.46 1807.43 L2102.39 1204.37 L2604.32 1454.48 L3106.13 699.46 L3608.06 754.03" stroke-linejoin="round" style="fill:none;stroke:#808080;stroke-width:8.64"/>
	<line x1="345.76" y1="2534.23" x2="345.76" y2="100.86" style="stroke:#000000;stroke-width:5.76"/>
	<line x1="345.76" y1="2375.33" x2="305.79" y2="2375.33" style="stroke:#000000;stroke-width:5.76"/>
	<text x="263.18" y="2375.33" style="font-family:'Helvetica';font-size:74.99px;fill:#000000" transform="rotate(-90 263.18,2375.33)" text-anchor="middle">-.2</text>
	<line x1="345.76" y1="1829.95" x2="305.79" y2="1829.95" style="stroke:#000000;stroke-width:5.76"/>
	<text x="263.18" y="1829.95" style="font-family:'Helvetica';font-size:74.99px;fill:#000000" transform="rotate(-90 263.18,1829.95)" text-anchor="middle">0</text>
	<line x1="345.76" y1="1284.57" x2="305.79" y2="1284.57" style="stroke:#000000;stroke-width:5.76"/>
	<text x="263.18" y="1284.57" style="font-family:'Helvetica';font-size:74.99px;fill:#000000" transform="rotate(-90 263.18,1284.57)" text-anchor="middle">.2</text>
	<line x1="345.76" y1="739.18" x2="305.79" y2="739.18" style="stroke:#000000;stroke-width:5.76"/>
	<text x="263.18" y="739.18" style="font-family:'Helvetica';font-size:74.99px;fill:#000000" transform="rotate(-90 263.18,739.18)" text-anchor="middle">.4</text>
	<line x1="345.76" y1="193.80" x2="305.79" y2="193.80" style="stroke:#000000;stroke-width:5.76"/>
	<text x="263.18" y="193.80" style="font-family:'Helvetica';font-size:74.99px;fill:#000000" transform="rotate(-90 263.18,193.80)" text-anchor="middle">.6</text>
	<text x="176.68" y="1317.48" style="font-family:'Helvetica';font-size:79.94px;fill:#000000" transform="rotate(-90 176.68,1317.48)" text-anchor="middle">Policy Dynamic Effects</text>
	<line x1="345.76" y1="2534.23" x2="3859.02" y2="2534.23" style="stroke:#000000;stroke-width:5.76"/>
	<line x1="596.72" y1="2534.23" x2="596.72" y2="2574.20" style="stroke:#000000;stroke-width:5.76"/>
	<text x="596.72" y="2646.69" style="font-family:'Helvetica';font-size:74.99px;fill:#000000" text-anchor="middle">pre_4</text>
	<line x1="1098.65" y1="2534.23" x2="1098.65" y2="2574.20" style="stroke:#000000;stroke-width:5.76"/>
	<text x="1098.65" y="2646.69" style="font-family:'Helvetica';font-size:74.99px;fill:#000000" text-anchor="middle">pre_3</text>
	<line x1="1600.46" y1="2534.23" x2="1600.46" y2="2574.20" style="stroke:#000000;stroke-width:5.76"/>
	<text x="1600.46" y="2646.69" style="font-family:'Helvetica';font-size:74.99px;fill:#000000" text-anchor="middle">pre_2</text>
	<line x1="2102.39" y1="2534.23" x2="2102.39" y2="2574.20" style="stroke:#000000;stroke-width:5.76"/>
	<text x="2102.39" y="2646.69" style="font-family:'Helvetica';font-size:74.99px;fill:#000000" text-anchor="middle">current</text>
	<line x1="2604.32" y1="2534.23" x2="2604.32" y2="2574.20" style="stroke:#000000;stroke-width:5.76"/>
	<text x="2604.32" y="2646.69" style="font-family:'Helvetica';font-size:74.99px;fill:#000000" text-anchor="middle">post_1</text>
	<line x1="3106.25" y1="2534.23" x2="3106.25" y2="2574.20" style="stroke:#000000;stroke-width:5.76"/>
	<text x="3106.25" y="2646.69" style="font-family:'Helvetica';font-size:74.99px;fill:#000000" text-anchor="middle">post_2</text>
	<line x1="3608.18" y1="2534.23" x2="3608.18" y2="2574.20" style="stroke:#000000;stroke-width:5.76"/>
	<text x="3608.18" y="2646.69" style="font-family:'Helvetica';font-size:74.99px;fill:#000000" text-anchor="middle">post_3</text>
	<text x="2102.39" y="2735.17" style="font-family:'Helvetica';font-size:79.94px;fill:#000000" text-anchor="middle">Readability</text>
</svg>
