<?xml version="1.0" encoding="UTF-8" standalone="no"?>
<!-- This is a Stata 18.0 generated SVG file (http://www.stata.com) -->

<svg version="1.1" width="5.500in" height="4.000in" viewBox="0 0 3960 2880" xmlns="http://www.w3.org/2000/svg" xmlns:xlink="http://www.w3.org/1999/xlink">
	<desc>Stata Graph - Graph</desc>
	<rect x="0" y="0" width="3960" height="2880" style="fill:#FFFFFF;stroke:none"/>
	<rect x="0.00" y="0.00" width="3959.88" height="2880.00" style="fill:#FFFFFF"/>
	<rect x="2.88" y="2.88" width="3954.12" height="2874.24" style="fill:none;stroke:#FFFFFF;stroke-width:5.76"/>
	<rect x="348.64" y="103.74" width="3507.50" height="2427.61" style="fill:none;stroke:#000000;stroke-width:5.76"/>
	<line x1="880.36" y1="2534.23" x2="880.36" y2="2476.69" style="stroke:#6E8E84;stroke-width:4.32"/>
	<line x1="880.36" y1="2447.85" x2="880.36" y2="2390.31" style="stroke:#6E8E84;stroke-width:4.32"/>
	<line x1="880.36" y1="2361.47" x2="880.36" y2="2303.93" style="stroke:#6E8E84;stroke-width:4.32"/>
	<line x1="880.36" y1="2275.09" x2="880.36" y2="2217.55" style="stroke:#6E8E84;stroke-width:4.32"/>
	<line x1="880.36" y1="2188.71" x2="880.36" y2="2131.17" style="stroke:#6E8E84;stroke-width:4.32"/>
	<line x1="880.36" y1="2102.33" x2="880.36" y2="2044.66" style="stroke:#6E8E84;stroke-width:4.32"/>
	<line x1="880.36" y1="2015.95" x2="880.36" y2="1958.28" style="stroke:#6E8E84;stroke-width:4.32"/>
	<line x1="880.36" y1="1929.57" x2="880.36" y2="1871.90" style="stroke:#6E8E84;stroke-width:4.32"/>
	<line x1="880.36" y1="1843.07" x2="880.36" y2="1785.52" style="stroke:#6E8E84;stroke-width:4.32"/>
	<line x1="880.36" y1="1756.69" x2="880.36" y2="1699.14" style="stroke:#6E8E84;stroke-width:4.32"/>
	<line x1="880.36" y1="1670.31" x2="880.36" y2="1612.76" style="stroke:#6E8E84;stroke-width:4.32"/>
	<line x1="880.36" y1="1583.93" x2="880.36" y2="1526.38" style="stroke:#6E8E84;stroke-width:4.32"/>
	<line x1="880.36" y1="1497.55" x2="880.36" y2="1440.00" style="stroke:#6E8E84;stroke-width:4.32"/>
	<line x1="880.36" y1="1411.17" x2="880.36" y2="1353.62" style="stroke:#6E8E84;stroke-width:4.32"/>
	<line x1="880.36" y1="1324.79" x2="880.36" y2="1267.24" style="stroke:#6E8E84;stroke-width:4.32"/>
	<line x1="880.36" y1="1238.40" x2="880.36" y2="1180.86" style="stroke:#6E8E84;stroke-width:4.32"/>
	<line x1="880.36" y1="1152.02" x2="880.36" y2="1094.36" style="stroke:#6E8E84;stroke-width:4.32"/>
	<line x1="880.36" y1="1065.64" x2="880.36" y2="1007.98" style="stroke:#6E8E84;stroke-width:4.32"/>
	<line x1="880.36" y1="979.14" x2="880.36" y2="921.60" style="stroke:#6E8E84;stroke-width:4.32"/>
	<line x1="880.36" y1="892.76" x2="880.36" y2="835.21" style="stroke:#6E8E84;stroke-width:4.32"/>
	<line x1="880.36" y1="806.38" x2="880.36" y2="748.83" style="stroke:#6E8E84;stroke-width:4.32"/>
	<line x1="880.36" y1="720.00" x2="880.36" y2="662.45" style="stroke:#6E8E84;stroke-width:4.32"/>
	<line x1="880.36" y1="633.62" x2="880.36" y2="576.07" style="stroke:#6E8E84;stroke-width:4.32"/>
	<line x1="880.36" y1="547.24" x2="880.36" y2="489.69" style="stroke:#6E8E84;stroke-width:4.32"/>
	<line x1="880.36" y1="460.86" x2="880.36" y2="403.31" style="stroke:#6E8E84;stroke-width:4.32"/>
	<line x1="880.36" y1="374.48" x2="880.36" y2="316.93" style="stroke:#6E8E84;stroke-width:4.32"/>
	<line x1="880.36" y1="288.10" x2="880.36" y2="230.55" style="stroke:#6E8E84;stroke-width:4.32"/>
	<line x1="880.36" y1="201.72" x2="880.36" y2="144.05" style="stroke:#6E8E84;stroke-width:4.32"/>
	<line x1="880.36" y1="115.34" x2="880.36" y2="100.86" style="stroke:#6E8E84;stroke-width:4.32"/>
	<line x1="345.76" y1="740.79" x2="3859.02" y2="740.79" style="stroke:#658397;stroke-width:8.64"/>
	<line x1="422.11" y1="1304.98" x2="422.11" y2="1247.44" style="stroke:#606060;stroke-width:8.64"/>
	<line x1="422.11" y1="1218.60" x2="422.11" y2="1161.06" style="stroke:#606060;stroke-width:8.64"/>
	<line x1="422.11" y1="1132.22" x2="422.11" y2="1074.55" style="stroke:#606060;stroke-width:8.64"/>
	<line x1="422.11" y1="1045.84" x2="422.11" y2="988.17" style="stroke:#606060;stroke-width:8.64"/>
	<line x1="422.11" y1="959.34" x2="422.11" y2="901.79" style="stroke:#606060;stroke-width:8.64"/>
	<line x1="422.11" y1="872.96" x2="422.11" y2="815.41" style="stroke:#606060;stroke-width:8.64"/>
	<line x1="422.11" y1="786.58" x2="422.11" y2="729.03" style="stroke:#606060;stroke-width:8.64"/>
	<line x1="422.11" y1="700.20" x2="422.11" y2="642.65" style="stroke:#606060;stroke-width:8.64"/>
	<line x1="422.11" y1="613.82" x2="422.11" y2="556.27" style="stroke:#606060;stroke-width:8.64"/>
	<line x1="422.11" y1="527.44" x2="422.11" y2="469.89" style="stroke:#606060;stroke-width:8.64"/>
	<line x1="422.11" y1="441.06" x2="422.11" y2="383.51" style="stroke:#606060;stroke-width:8.64"/>
	<line x1="422.11" y1="354.68" x2="422.11" y2="327.95" style="stroke:#606060;stroke-width:8.64"/>
	<line x1="400.08" y1="327.95" x2="444.14" y2="327.95" style="stroke:#606060;stroke-width:8.64"/>
	<line x1="400.08" y1="1304.98" x2="444.14" y2="1304.98" style="stroke:#606060;stroke-width:8.64"/>
	<line x1="574.94" y1="1088.66" x2="574.94" y2="1031.12" style="stroke:#606060;stroke-width:8.64"/>
	<line x1="574.94" y1="1002.28" x2="574.94" y2="944.74" style="stroke:#606060;stroke-width:8.64"/>
	<line x1="574.94" y1="915.90" x2="574.94" y2="858.36" style="stroke:#606060;stroke-width:8.64"/>
	<line x1="574.94" y1="829.52" x2="574.94" y2="771.98" style="stroke:#606060;stroke-width:8.64"/>
	<line x1="574.94" y1="743.14" x2="574.94" y2="685.60" style="stroke:#606060;stroke-width:8.64"/>
	<line x1="574.94" y1="656.76" x2="574.94" y2="599.09" style="stroke:#606060;stroke-width:8.64"/>
	<line x1="574.94" y1="570.38" x2="574.94" y2="512.71" style="stroke:#606060;stroke-width:8.64"/>
	<line x1="574.94" y1="484.00" x2="574.94" y2="426.33" style="stroke:#606060;stroke-width:8.64"/>
	<line x1="574.94" y1="397.50" x2="574.94" y2="339.95" style="stroke:#606060;stroke-width:8.64"/>
	<line x1="574.94" y1="311.12" x2="574.94" y2="253.57" style="stroke:#606060;stroke-width:8.64"/>
	<line x1="574.94" y1="224.74" x2="574.94" y2="214.71" style="stroke:#606060;stroke-width:8.64"/>
	<line x1="552.92" y1="214.71" x2="596.97" y2="214.71" style="stroke:#606060;stroke-width:8.64"/>
	<line x1="552.92" y1="1088.66" x2="596.97" y2="1088.66" style="stroke:#606060;stroke-width:8.64"/>
	<line x1="727.65" y1="1257.83" x2="727.65" y2="1200.29" style="stroke:#606060;stroke-width:8.64"/>
	<line x1="727.65" y1="1171.45" x2="727.65" y2="1113.78" style="stroke:#606060;stroke-width:8.64"/>
	<line x1="727.65" y1="1085.07" x2="727.65" y2="1027.40" style="stroke:#606060;stroke-width:8.64"/>
	<line x1="727.65" y1="998.69" x2="727.65" y2="941.02" style="stroke:#606060;stroke-width:8.64"/>
	<line x1="727.65" y1="912.19" x2="727.65" y2="854.64" style="stroke:#606060;stroke-width:8.64"/>
	<line x1="727.65" y1="825.81" x2="727.65" y2="768.26" style="stroke:#606060;stroke-width:8.64"/>
	<line x1="727.65" y1="739.43" x2="727.65" y2="681.88" style="stroke:#606060;stroke-width:8.64"/>
	<line x1="727.65" y1="653.05" x2="727.65" y2="595.50" style="stroke:#606060;stroke-width:8.64"/>
	<line x1="727.65" y1="566.67" x2="727.65" y2="509.12" style="stroke:#606060;stroke-width:8.64"/>
	<line x1="727.65" y1="480.29" x2="727.65" y2="422.74" style="stroke:#606060;stroke-width:8.64"/>
	<line x1="727.65" y1="393.91" x2="727.65" y2="338.34" style="stroke:#606060;stroke-width:8.64"/>
	<line x1="705.62" y1="338.34" x2="749.68" y2="338.34" style="stroke:#606060;stroke-width:8.64"/>
	<line x1="705.62" y1="1257.83" x2="749.68" y2="1257.83" style="stroke:#606060;stroke-width:8.64"/>
	<line x1="880.36" y1="1310.06" x2="880.36" y2="1252.51" style="stroke:#606060;stroke-width:8.64"/>
	<line x1="880.36" y1="1223.68" x2="880.36" y2="1166.13" style="stroke:#606060;stroke-width:8.64"/>
	<line x1="880.36" y1="1137.30" x2="880.36" y2="1079.75" style="stroke:#606060;stroke-width:8.64"/>
	<line x1="880.36" y1="1050.92" x2="880.36" y2="993.37" style="stroke:#606060;stroke-width:8.64"/>
	<line x1="880.36" y1="964.54" x2="880.36" y2="906.99" style="stroke:#606060;stroke-width:8.64"/>
	<line x1="880.36" y1="878.16" x2="880.36" y2="820.61" style="stroke:#606060;stroke-width:8.64"/>
	<line x1="880.36" y1="791.78" x2="880.36" y2="734.11" style="stroke:#606060;stroke-width:8.64"/>
	<line x1="880.36" y1="705.40" x2="880.36" y2="647.73" style="stroke:#606060;stroke-width:8.64"/>
	<line x1="880.36" y1="618.89" x2="880.36" y2="561.35" style="stroke:#606060;stroke-width:8.64"/>
	<line x1="880.36" y1="532.51" x2="880.36" y2="474.97" style="stroke:#606060;stroke-width:8.64"/>
	<line x1="880.36" y1="446.13" x2="880.36" y2="388.59" style="stroke:#606060;stroke-width:8.64"/>
	<line x1="858.33" y1="387.35" x2="902.39" y2="387.35" style="stroke:#606060;stroke-width:8.64"/>
	<line x1="858.33" y1="1310.06" x2="902.39" y2="1310.06" style="stroke:#606060;stroke-width:8.64"/>
	<line x1="1033.19" y1="1336.54" x2="1033.19" y2="1279.00" style="stroke:#606060;stroke-width:8.64"/>
	<line x1="1033.19" y1="1250.16" x2="1033.19" y2="1192.62" style="stroke:#606060;stroke-width:8.64"/>
	<line x1="1033.19" y1="1163.78" x2="1033.19" y2="1106.11" style="stroke:#606060;stroke-width:8.64"/>
	<line x1="1033.19" y1="1077.40" x2="1033.19" y2="1019.73" style="stroke:#606060;stroke-width:8.64"/>
	<line x1="1033.19" y1="991.02" x2="1033.19" y2="933.35" style="stroke:#606060;stroke-width:8.64"/>
	<line x1="1033.19" y1="904.52" x2="1033.19" y2="846.97" style="stroke:#606060;stroke-width:8.64"/>
	<line x1="1033.19" y1="818.14" x2="1033.19" y2="760.59" style="stroke:#606060;stroke-width:8.64"/>
	<line x1="1033.19" y1="731.76" x2="1033.19" y2="674.21" style="stroke:#606060;stroke-width:8.64"/>
	<line x1="1033.19" y1="645.38" x2="1033.19" y2="587.83" style="stroke:#606060;stroke-width:8.64"/>
	<line x1="1033.19" y1="559.00" x2="1033.19" y2="501.45" style="stroke:#606060;stroke-width:8.64"/>
	<line x1="1033.19" y1="472.62" x2="1033.19" y2="435.37" style="stroke:#606060;stroke-width:8.64"/>
	<line x1="1011.16" y1="435.37" x2="1055.22" y2="435.37" style="stroke:#606060;stroke-width:8.64"/>
	<line x1="1011.16" y1="1336.54" x2="1055.22" y2="1336.54" style="stroke:#606060;stroke-width:8.64"/>
	<line x1="1185.90" y1="1429.98" x2="1185.90" y2="1372.43" style="stroke:#606060;stroke-width:8.64"/>
	<line x1="1185.90" y1="1343.60" x2="1185.90" y2="1286.05" style="stroke:#606060;stroke-width:8.64"/>
	<line x1="1185.90" y1="1257.22" x2="1185.90" y2="1199.67" style="stroke:#606060;stroke-width:8.64"/>
	<line x1="1185.90" y1="1170.84" x2="1185.90" y2="1113.29" style="stroke:#606060;stroke-width:8.64"/>
	<line x1="1185.90" y1="1084.46" x2="1185.90" y2="1026.79" style="stroke:#606060;stroke-width:8.64"/>
	<line x1="1185.90" y1="998.07" x2="1185.90" y2="940.41" style="stroke:#606060;stroke-width:8.64"/>
	<line x1="1185.90" y1="911.69" x2="1185.90" y2="854.03" style="stroke:#606060;stroke-width:8.64"/>
	<line x1="1185.90" y1="825.19" x2="1185.90" y2="767.65" style="stroke:#606060;stroke-width:8.64"/>
	<line x1="1185.90" y1="738.81" x2="1185.90" y2="681.27" style="stroke:#606060;stroke-width:8.64"/>
	<line x1="1185.90" y1="652.43" x2="1185.90" y2="594.88" style="stroke:#606060;stroke-width:8.64"/>
	<line x1="1185.90" y1="566.05" x2="1185.90" y2="508.50" style="stroke:#606060;stroke-width:8.64"/>
	<line x1="1163.87" y1="497.49" x2="1207.92" y2="497.49" style="stroke:#606060;stroke-width:8.64"/>
	<line x1="1163.87" y1="1429.98" x2="1207.92" y2="1429.98" style="stroke:#606060;stroke-width:8.64"/>
	<line x1="1338.60" y1="1271.82" x2="1338.60" y2="1214.27" style="stroke:#606060;stroke-width:8.64"/>
	<line x1="1338.60" y1="1185.44" x2="1338.60" y2="1127.89" style="stroke:#606060;stroke-width:8.64"/>
	<line x1="1338.60" y1="1099.06" x2="1338.60" y2="1041.51" style="stroke:#606060;stroke-width:8.64"/>
	<line x1="1338.60" y1="1012.68" x2="1338.60" y2="955.13" style="stroke:#606060;stroke-width:8.64"/>
	<line x1="1338.60" y1="926.30" x2="1338.60" y2="868.63" style="stroke:#606060;stroke-width:8.64"/>
	<line x1="1338.60" y1="839.92" x2="1338.60" y2="782.25" style="stroke:#606060;stroke-width:8.64"/>
	<line x1="1338.60" y1="753.41" x2="1338.60" y2="695.87" style="stroke:#606060;stroke-width:8.64"/>
	<line x1="1338.60" y1="667.03" x2="1338.60" y2="609.49" style="stroke:#606060;stroke-width:8.64"/>
	<line x1="1338.60" y1="580.65" x2="1338.60" y2="523.11" style="stroke:#606060;stroke-width:8.64"/>
	<line x1="1338.60" y1="494.27" x2="1338.60" y2="436.73" style="stroke:#606060;stroke-width:8.64"/>
	<line x1="1338.60" y1="407.89" x2="1338.60" y2="362.72" style="stroke:#606060;stroke-width:8.64"/>
	<line x1="1316.58" y1="362.72" x2="1360.63" y2="362.72" style="stroke:#606060;stroke-width:8.64"/>
	<line x1="1316.58" y1="1271.82" x2="1360.63" y2="1271.82" style="stroke:#606060;stroke-width:8.64"/>
	<line x1="1491.44" y1="1132.35" x2="1491.44" y2="1074.80" style="stroke:#606060;stroke-width:8.64"/>
	<line x1="1491.44" y1="1045.97" x2="1491.44" y2="988.42" style="stroke:#606060;stroke-width:8.64"/>
	<line x1="1491.44" y1="959.59" x2="1491.44" y2="902.04" style="stroke:#606060;stroke-width:8.64"/>
	<line x1="1491.44" y1="873.21" x2="1491.44" y2="815.66" style="stroke:#606060;stroke-width:8.64"/>
	<line x1="1491.44" y1="786.83" x2="1491.44" y2="729.28" style="stroke:#606060;stroke-width:8.64"/>
	<line x1="1491.44" y1="700.45" x2="1491.44" y2="642.78" style="stroke:#606060;stroke-width:8.64"/>
	<line x1="1491.44" y1="614.07" x2="1491.44" y2="556.40" style="stroke:#606060;stroke-width:8.64"/>
	<line x1="1491.44" y1="527.69" x2="1491.44" y2="470.02" style="stroke:#606060;stroke-width:8.64"/>
	<line x1="1491.44" y1="441.18" x2="1491.44" y2="383.64" style="stroke:#606060;stroke-width:8.64"/>
	<line x1="1491.44" y1="354.80" x2="1491.44" y2="297.26" style="stroke:#606060;stroke-width:8.64"/>
	<line x1="1491.44" y1="268.42" x2="1491.44" y2="224.61" style="stroke:#606060;stroke-width:8.64"/>
	<line x1="1469.41" y1="224.61" x2="1513.46" y2="224.61" style="stroke:#606060;stroke-width:8.64"/>
	<line x1="1469.41" y1="1132.35" x2="1513.46" y2="1132.35" style="stroke:#606060;stroke-width:8.64"/>
	<line x1="1644.14" y1="1239.52" x2="1644.14" y2="1181.97" style="stroke:#606060;stroke-width:8.64"/>
	<line x1="1644.14" y1="1153.14" x2="1644.14" y2="1095.59" style="stroke:#606060;stroke-width:8.64"/>
	<line x1="1644.14" y1="1066.76" x2="1644.14" y2="1009.21" style="stroke:#606060;stroke-width:8.64"/>
	<line x1="1644.14" y1="980.38" x2="1644.14" y2="922.83" style="stroke:#606060;stroke-width:8.64"/>
	<line x1="1644.14" y1="894.00" x2="1644.14" y2="836.45" style="stroke:#606060;stroke-width:8.64"/>
	<line x1="1644.14" y1="807.62" x2="1644.14" y2="749.95" style="stroke:#606060;stroke-width:8.64"/>
	<line x1="1644.14" y1="721.24" x2="1644.14" y2="663.57" style="stroke:#606060;stroke-width:8.64"/>
	<line x1="1644.14" y1="634.73" x2="1644.14" y2="577.19" style="stroke:#606060;stroke-width:8.64"/>
	<line x1="1644.14" y1="548.35" x2="1644.14" y2="490.81" style="stroke:#606060;stroke-width:8.64"/>
	<line x1="1644.14" y1="461.97" x2="1644.14" y2="404.43" style="stroke:#606060;stroke-width:8.64"/>
	<line x1="1644.14" y1="375.59" x2="1644.14" y2="357.15" style="stroke:#606060;stroke-width:8.64"/>
	<line x1="1622.12" y1="357.15" x2="1666.17" y2="357.15" style="stroke:#606060;stroke-width:8.64"/>
	<line x1="1622.12" y1="1239.52" x2="1666.17" y2="1239.52" style="stroke:#606060;stroke-width:8.64"/>
	<line x1="1796.97" y1="1193.85" x2="1796.97" y2="1136.31" style="stroke:#606060;stroke-width:8.64"/>
	<line x1="1796.97" y1="1107.47" x2="1796.97" y2="1049.93" style="stroke:#606060;stroke-width:8.64"/>
	<line x1="1796.97" y1="1021.09" x2="1796.97" y2="963.42" style="stroke:#606060;stroke-width:8.64"/>
	<line x1="1796.97" y1="934.71" x2="1796.97" y2="877.04" style="stroke:#606060;stroke-width:8.64"/>
	<line x1="1796.97" y1="848.33" x2="1796.97" y2="790.66" style="stroke:#606060;stroke-width:8.64"/>
	<line x1="1796.97" y1="761.83" x2="1796.97" y2="704.28" style="stroke:#606060;stroke-width:8.64"/>
	<line x1="1796.97" y1="675.45" x2="1796.97" y2="617.90" style="stroke:#606060;stroke-width:8.64"/>
	<line x1="1796.97" y1="589.07" x2="1796.97" y2="531.52" style="stroke:#606060;stroke-width:8.64"/>
	<line x1="1796.97" y1="502.69" x2="1796.97" y2="445.14" style="stroke:#606060;stroke-width:8.64"/>
	<line x1="1796.97" y1="416.31" x2="1796.97" y2="358.76" style="stroke:#606060;stroke-width:8.64"/>
	<line x1="1796.97" y1="329.93" x2="1796.97" y2="297.63" style="stroke:#606060;stroke-width:8.64"/>
	<line x1="1774.95" y1="297.63" x2="1819.00" y2="297.63" style="stroke:#606060;stroke-width:8.64"/>
	<line x1="1774.95" y1="1193.85" x2="1819.00" y2="1193.85" style="stroke:#606060;stroke-width:8.64"/>
	<line x1="1949.68" y1="1323.05" x2="1949.68" y2="1265.51" style="stroke:#606060;stroke-width:8.64"/>
	<line x1="1949.68" y1="1236.67" x2="1949.68" y2="1179.13" style="stroke:#606060;stroke-width:8.64"/>
	<line x1="1949.68" y1="1150.29" x2="1949.68" y2="1092.75" style="stroke:#606060;stroke-width:8.64"/>
	<line x1="1949.68" y1="1063.91" x2="1949.68" y2="1006.37" style="stroke:#606060;stroke-width:8.64"/>
	<line x1="1949.68" y1="977.53" x2="1949.68" y2="919.86" style="stroke:#606060;stroke-width:8.64"/>
	<line x1="1949.68" y1="891.15" x2="1949.68" y2="833.48" style="stroke:#606060;stroke-width:8.64"/>
	<line x1="1949.68" y1="804.77" x2="1949.68" y2="747.10" style="stroke:#606060;stroke-width:8.64"/>
	<line x1="1949.68" y1="718.27" x2="1949.68" y2="660.72" style="stroke:#606060;stroke-width:8.64"/>
	<line x1="1949.68" y1="631.89" x2="1949.68" y2="574.34" style="stroke:#606060;stroke-width:8.64"/>
	<line x1="1949.68" y1="545.51" x2="1949.68" y2="487.96" style="stroke:#606060;stroke-width:8.64"/>
	<line x1="1927.65" y1="462.22" x2="1971.71" y2="462.22" style="stroke:#606060;stroke-width:8.64"/>
	<line x1="1927.65" y1="1323.05" x2="1971.71" y2="1323.05" style="stroke:#606060;stroke-width:8.64"/>
	<line x1="2102.39" y1="1508.06" x2="2102.39" y2="1450.52" style="stroke:#606060;stroke-width:8.64"/>
	<line x1="2102.39" y1="1421.68" x2="2102.39" y2="1364.14" style="stroke:#606060;stroke-width:8.64"/>
	<line x1="2102.39" y1="1335.30" x2="2102.39" y2="1277.76" style="stroke:#606060;stroke-width:8.64"/>
	<line x1="2102.39" y1="1248.92" x2="2102.39" y2="1191.38" style="stroke:#606060;stroke-width:8.64"/>
	<line x1="2102.39" y1="1162.54" x2="2102.39" y2="1105.00" style="stroke:#606060;stroke-width:8.64"/>
	<line x1="2102.39" y1="1076.16" x2="2102.39" y2="1018.62" style="stroke:#606060;stroke-width:8.64"/>
	<line x1="2102.39" y1="989.78" x2="2102.39" y2="932.11" style="stroke:#606060;stroke-width:8.64"/>
	<line x1="2102.39" y1="903.40" x2="2102.39" y2="845.73" style="stroke:#606060;stroke-width:8.64"/>
	<line x1="2102.39" y1="816.90" x2="2102.39" y2="759.35" style="stroke:#606060;stroke-width:8.64"/>
	<line x1="2102.39" y1="730.52" x2="2102.39" y2="672.97" style="stroke:#606060;stroke-width:8.64"/>
	<line x1="2102.39" y1="644.14" x2="2102.39" y2="607.76" style="stroke:#606060;stroke-width:8.64"/>
	<line x1="2080.36" y1="607.76" x2="2124.42" y2="607.76" style="stroke:#606060;stroke-width:8.64"/>
	<line x1="2080.36" y1="1508.06" x2="2124.42" y2="1508.06" style="stroke:#606060;stroke-width:8.64"/>
	<line x1="2255.22" y1="1550.26" x2="2255.22" y2="1492.72" style="stroke:#606060;stroke-width:8.64"/>
	<line x1="2255.22" y1="1463.88" x2="2255.22" y2="1406.34" style="stroke:#606060;stroke-width:8.64"/>
	<line x1="2255.22" y1="1377.50" x2="2255.22" y2="1319.83" style="stroke:#606060;stroke-width:8.64"/>
	<line x1="2255.22" y1="1291.12" x2="2255.22" y2="1233.45" style="stroke:#606060;stroke-width:8.64"/>
	<line x1="2255.22" y1="1204.74" x2="2255.22" y2="1147.07" style="stroke:#606060;stroke-width:8.64"/>
	<line x1="2255.22" y1="1118.24" x2="2255.22" y2="1060.69" style="stroke:#606060;stroke-width:8.64"/>
	<line x1="2255.22" y1="1031.86" x2="2255.22" y2="974.31" style="stroke:#606060;stroke-width:8.64"/>
	<line x1="2255.22" y1="945.48" x2="2255.22" y2="887.93" style="stroke:#606060;stroke-width:8.64"/>
	<line x1="2255.22" y1="859.10" x2="2255.22" y2="801.55" style="stroke:#606060;stroke-width:8.64"/>
	<line x1="2255.22" y1="772.72" x2="2255.22" y2="715.17" style="stroke:#606060;stroke-width:8.64"/>
	<line x1="2255.22" y1="686.34" x2="2255.22" y2="634.61" style="stroke:#606060;stroke-width:8.64"/>
	<line x1="2233.19" y1="634.61" x2="2277.25" y2="634.61" style="stroke:#606060;stroke-width:8.64"/>
	<line x1="2233.19" y1="1550.26" x2="2277.25" y2="1550.26" style="stroke:#606060;stroke-width:8.64"/>
	<line x1="2407.93" y1="1632.56" x2="2407.93" y2="1575.02" style="stroke:#606060;stroke-width:8.64"/>
	<line x1="2407.93" y1="1546.18" x2="2407.93" y2="1488.64" style="stroke:#606060;stroke-width:8.64"/>
	<line x1="2407.93" y1="1459.80" x2="2407.93" y2="1402.26" style="stroke:#606060;stroke-width:8.64"/>
	<line x1="2407.93" y1="1373.42" x2="2407.93" y2="1315.75" style="stroke:#606060;stroke-width:8.64"/>
	<line x1="2407.93" y1="1287.04" x2="2407.93" y2="1229.37" style="stroke:#606060;stroke-width:8.64"/>
	<line x1="2407.93" y1="1200.66" x2="2407.93" y2="1142.99" style="stroke:#606060;stroke-width:8.64"/>
	<line x1="2407.93" y1="1114.16" x2="2407.93" y2="1056.61" style="stroke:#606060;stroke-width:8.64"/>
	<line x1="2407.93" y1="1027.78" x2="2407.93" y2="970.23" style="stroke:#606060;stroke-width:8.64"/>
	<line x1="2407.93" y1="941.40" x2="2407.93" y2="883.85" style="stroke:#606060;stroke-width:8.64"/>
	<line x1="2407.93" y1="855.02" x2="2407.93" y2="797.47" style="stroke:#606060;stroke-width:8.64"/>
	<line x1="2407.93" y1="768.64" x2="2407.93" y2="711.09" style="stroke:#606060;stroke-width:8.64"/>
	<line x1="2407.93" y1="682.26" x2="2407.93" y2="662.70" style="stroke:#606060;stroke-width:8.64"/>
	<line x1="2385.90" y1="662.70" x2="2429.96" y2="662.70" style="stroke:#606060;stroke-width:8.64"/>
	<line x1="2385.90" y1="1632.56" x2="2429.96" y2="1632.56" style="stroke:#606060;stroke-width:8.64"/>
	<line x1="2560.64" y1="1620.80" x2="2560.64" y2="1563.26" style="stroke:#606060;stroke-width:8.64"/>
	<line x1="2560.64" y1="1534.42" x2="2560.64" y2="1476.88" style="stroke:#606060;stroke-width:8.64"/>
	<line x1="2560.64" y1="1448.04" x2="2560.64" y2="1390.50" style="stroke:#606060;stroke-width:8.64"/>
	<line x1="2560.64" y1="1361.66" x2="2560.64" y2="1303.99" style="stroke:#606060;stroke-width:8.64"/>
	<line x1="2560.64" y1="1275.28" x2="2560.64" y2="1217.61" style="stroke:#606060;stroke-width:8.64"/>
	<line x1="2560.64" y1="1188.90" x2="2560.64" y2="1131.23" style="stroke:#606060;stroke-width:8.64"/>
	<line x1="2560.64" y1="1102.40" x2="2560.64" y2="1044.85" style="stroke:#606060;stroke-width:8.64"/>
	<line x1="2560.64" y1="1016.02" x2="2560.64" y2="958.47" style="stroke:#606060;stroke-width:8.64"/>
	<line x1="2560.64" y1="929.64" x2="2560.64" y2="872.09" style="stroke:#606060;stroke-width:8.64"/>
	<line x1="2560.64" y1="843.26" x2="2560.64" y2="785.71" style="stroke:#606060;stroke-width:8.64"/>
	<line x1="2560.64" y1="756.88" x2="2560.64" y2="699.33" style="stroke:#606060;stroke-width:8.64"/>
	<line x1="2538.61" y1="670.99" x2="2582.66" y2="670.99" style="stroke:#606060;stroke-width:8.64"/>
	<line x1="2538.61" y1="1620.80" x2="2582.66" y2="1620.80" style="stroke:#606060;stroke-width:8.64"/>
	<line x1="2713.47" y1="1888.86" x2="2713.47" y2="1831.31" style="stroke:#606060;stroke-width:8.64"/>
	<line x1="2713.47" y1="1802.48" x2="2713.47" y2="1744.93" style="stroke:#606060;stroke-width:8.64"/>
	<line x1="2713.47" y1="1716.09" x2="2713.47" y2="1658.55" style="stroke:#606060;stroke-width:8.64"/>
	<line x1="2713.47" y1="1629.71" x2="2713.47" y2="1572.17" style="stroke:#606060;stroke-width:8.64"/>
	<line x1="2713.47" y1="1543.33" x2="2713.47" y2="1485.79" style="stroke:#606060;stroke-width:8.64"/>
	<line x1="2713.47" y1="1456.95" x2="2713.47" y2="1399.28" style="stroke:#606060;stroke-width:8.64"/>
	<line x1="2713.47" y1="1370.57" x2="2713.47" y2="1312.90" style="stroke:#606060;stroke-width:8.64"/>
	<line x1="2713.47" y1="1284.07" x2="2713.47" y2="1226.52" style="stroke:#606060;stroke-width:8.64"/>
	<line x1="2713.47" y1="1197.69" x2="2713.47" y2="1140.14" style="stroke:#606060;stroke-width:8.64"/>
	<line x1="2713.47" y1="1111.31" x2="2713.47" y2="1053.76" style="stroke:#606060;stroke-width:8.64"/>
	<line x1="2713.47" y1="1024.93" x2="2713.47" y2="967.38" style="stroke:#606060;stroke-width:8.64"/>
	<line x1="2713.47" y1="938.55" x2="2713.47" y2="910.83" style="stroke:#606060;stroke-width:8.64"/>
	<line x1="2691.44" y1="910.83" x2="2735.49" y2="910.83" style="stroke:#606060;stroke-width:8.64"/>
	<line x1="2691.44" y1="1888.86" x2="2735.49" y2="1888.86" style="stroke:#606060;stroke-width:8.64"/>
	<line x1="2866.17" y1="1671.91" x2="2866.17" y2="1614.37" style="stroke:#606060;stroke-width:8.64"/>
	<line x1="2866.17" y1="1585.53" x2="2866.17" y2="1527.99" style="stroke:#606060;stroke-width:8.64"/>
	<line x1="2866.17" y1="1499.15" x2="2866.17" y2="1441.61" style="stroke:#606060;stroke-width:8.64"/>
	<line x1="2866.17" y1="1412.77" x2="2866.17" y2="1355.23" style="stroke:#606060;stroke-width:8.64"/>
	<line x1="2866.17" y1="1326.39" x2="2866.17" y2="1268.72" style="stroke:#606060;stroke-width:8.64"/>
	<line x1="2866.17" y1="1240.01" x2="2866.17" y2="1182.34" style="stroke:#606060;stroke-width:8.64"/>
	<line x1="2866.17" y1="1153.51" x2="2866.17" y2="1095.96" style="stroke:#606060;stroke-width:8.64"/>
	<line x1="2866.17" y1="1067.13" x2="2866.17" y2="1009.58" style="stroke:#606060;stroke-width:8.64"/>
	<line x1="2866.17" y1="980.75" x2="2866.17" y2="923.20" style="stroke:#606060;stroke-width:8.64"/>
	<line x1="2866.17" y1="894.37" x2="2866.17" y2="836.82" style="stroke:#606060;stroke-width:8.64"/>
	<line x1="2866.17" y1="807.99" x2="2866.17" y2="750.44" style="stroke:#606060;stroke-width:8.64"/>
	<line x1="2866.17" y1="721.61" x2="2866.17" y2="706.88" style="stroke:#606060;stroke-width:8.64"/>
	<line x1="2844.15" y1="706.88" x2="2888.20" y2="706.88" style="stroke:#606060;stroke-width:8.64"/>
	<line x1="2844.15" y1="1671.91" x2="2888.20" y2="1671.91" style="stroke:#606060;stroke-width:8.64"/>
	<line x1="3018.88" y1="1827.47" x2="3018.88" y2="1769.93" style="stroke:#606060;stroke-width:8.64"/>
	<line x1="3018.88" y1="1741.09" x2="3018.88" y2="1683.55" style="stroke:#606060;stroke-width:8.64"/>
	<line x1="3018.88" y1="1654.71" x2="3018.88" y2="1597.04" style="stroke:#606060;stroke-width:8.64"/>
	<line x1="3018.88" y1="1568.33" x2="3018.88" y2="1510.66" style="stroke:#606060;stroke-width:8.64"/>
	<line x1="3018.88" y1="1481.95" x2="3018.88" y2="1424.28" style="stroke:#606060;stroke-width:8.64"/>
	<line x1="3018.88" y1="1395.45" x2="3018.88" y2="1337.90" style="stroke:#606060;stroke-width:8.64"/>
	<line x1="3018.88" y1="1309.07" x2="3018.88" y2="1251.52" style="stroke:#606060;stroke-width:8.64"/>
	<line x1="3018.88" y1="1222.69" x2="3018.88" y2="1165.14" style="stroke:#606060;stroke-width:8.64"/>
	<line x1="3018.88" y1="1136.31" x2="3018.88" y2="1078.76" style="stroke:#606060;stroke-width:8.64"/>
	<line x1="3018.88" y1="1049.93" x2="3018.88" y2="992.38" style="stroke:#606060;stroke-width:8.64"/>
	<line x1="3018.88" y1="963.55" x2="3018.88" y2="906.00" style="stroke:#606060;stroke-width:8.64"/>
	<line x1="3018.88" y1="877.17" x2="3018.88" y2="819.62" style="stroke:#606060;stroke-width:8.64"/>
	<line x1="2996.85" y1="810.46" x2="3040.91" y2="810.46" style="stroke:#606060;stroke-width:8.64"/>
	<line x1="2996.85" y1="1827.47" x2="3040.91" y2="1827.47" style="stroke:#606060;stroke-width:8.64"/>
	<line x1="3171.71" y1="1993.80" x2="3171.71" y2="1936.25" style="stroke:#606060;stroke-width:8.64"/>
	<line x1="3171.71" y1="1907.42" x2="3171.71" y2="1849.87" style="stroke:#606060;stroke-width:8.64"/>
	<line x1="3171.71" y1="1821.04" x2="3171.71" y2="1763.37" style="stroke:#606060;stroke-width:8.64"/>
	<line x1="3171.71" y1="1734.66" x2="3171.71" y2="1676.99" style="stroke:#606060;stroke-width:8.64"/>
	<line x1="3171.71" y1="1648.28" x2="3171.71" y2="1590.61" style="stroke:#606060;stroke-width:8.64"/>
	<line x1="3171.71" y1="1561.77" x2="3171.71" y2="1504.23" style="stroke:#606060;stroke-width:8.64"/>
	<line x1="3171.71" y1="1475.39" x2="3171.71" y2="1417.85" style="stroke:#606060;stroke-width:8.64"/>
	<line x1="3171.71" y1="1389.01" x2="3171.71" y2="1331.47" style="stroke:#606060;stroke-width:8.64"/>
	<line x1="3171.71" y1="1302.63" x2="3171.71" y2="1245.09" style="stroke:#606060;stroke-width:8.64"/>
	<line x1="3171.71" y1="1216.25" x2="3171.71" y2="1158.71" style="stroke:#606060;stroke-width:8.64"/>
	<line x1="3171.71" y1="1129.87" x2="3171.71" y2="1072.33" style="stroke:#606060;stroke-width:8.64"/>
	<line x1="3149.69" y1="1047.45" x2="3193.74" y2="1047.45" style="stroke:#606060;stroke-width:8.64"/>
	<line x1="3149.69" y1="1993.80" x2="3193.74" y2="1993.80" style="stroke:#606060;stroke-width:8.64"/>
	<line x1="3324.42" y1="1869.30" x2="3324.42" y2="1811.76" style="stroke:#606060;stroke-width:8.64"/>
	<line x1="3324.42" y1="1782.92" x2="3324.42" y2="1725.38" style="stroke:#606060;stroke-width:8.64"/>
	<line x1="3324.42" y1="1696.54" x2="3324.42" y2="1639.00" style="stroke:#606060;stroke-width:8.64"/>
	<line x1="3324.42" y1="1610.16" x2="3324.42" y2="1552.62" style="stroke:#606060;stroke-width:8.64"/>
	<line x1="3324.42" y1="1523.78" x2="3324.42" y2="1466.24" style="stroke:#606060;stroke-width:8.64"/>
	<line x1="3324.42" y1="1437.40" x2="3324.42" y2="1379.73" style="stroke:#606060;stroke-width:8.64"/>
	<line x1="3324.42" y1="1351.02" x2="3324.42" y2="1293.35" style="stroke:#606060;stroke-width:8.64"/>
	<line x1="3324.42" y1="1264.52" x2="3324.42" y2="1206.97" style="stroke:#606060;stroke-width:8.64"/>
	<line x1="3324.42" y1="1178.14" x2="3324.42" y2="1120.59" style="stroke:#606060;stroke-width:8.64"/>
	<line x1="3324.42" y1="1091.76" x2="3324.42" y2="1034.21" style="stroke:#606060;stroke-width:8.64"/>
	<line x1="3324.42" y1="1005.38" x2="3324.42" y2="947.83" style="stroke:#606060;stroke-width:8.64"/>
	<line x1="3324.42" y1="919.00" x2="3324.42" y2="861.45" style="stroke:#606060;stroke-width:8.64"/>
	<line x1="3302.39" y1="840.29" x2="3346.45" y2="840.29" style="stroke:#606060;stroke-width:8.64"/>
	<line x1="3302.39" y1="1869.30" x2="3346.45" y2="1869.30" style="stroke:#606060;stroke-width:8.64"/>
	<line x1="3477.25" y1="1937.61" x2="3477.25" y2="1880.07" style="stroke:#606060;stroke-width:8.64"/>
	<line x1="3477.25" y1="1851.23" x2="3477.25" y2="1793.69" style="stroke:#606060;stroke-width:8.64"/>
	<line x1="3477.25" y1="1764.85" x2="3477.25" y2="1707.31" style="stroke:#606060;stroke-width:8.64"/>
	<line x1="3477.25" y1="1678.47" x2="3477.25" y2="1620.80" style="stroke:#606060;stroke-width:8.64"/>
	<line x1="3477.25" y1="1592.09" x2="3477.25" y2="1534.42" style="stroke:#606060;stroke-width:8.64"/>
	<line x1="3477.25" y1="1505.71" x2="3477.25" y2="1448.04" style="stroke:#606060;stroke-width:8.64"/>
	<line x1="3477.25" y1="1419.21" x2="3477.25" y2="1361.66" style="stroke:#606060;stroke-width:8.64"/>
	<line x1="3477.25" y1="1332.83" x2="3477.25" y2="1275.28" style="stroke:#606060;stroke-width:8.64"/>
	<line x1="3477.25" y1="1246.45" x2="3477.25" y2="1188.90" style="stroke:#606060;stroke-width:8.64"/>
	<line x1="3477.25" y1="1160.07" x2="3477.25" y2="1102.52" style="stroke:#606060;stroke-width:8.64"/>
	<line x1="3477.25" y1="1073.69" x2="3477.25" y2="1016.14" style="stroke:#606060;stroke-width:8.64"/>
	<line x1="3477.25" y1="987.31" x2="3477.25" y2="929.76" style="stroke:#606060;stroke-width:8.64"/>
	<line x1="3477.25" y1="900.93" x2="3477.25" y2="893.63" style="stroke:#606060;stroke-width:8.64"/>
	<line x1="3455.22" y1="893.63" x2="3499.28" y2="893.63" style="stroke:#606060;stroke-width:8.64"/>
	<line x1="3455.22" y1="1937.61" x2="3499.28" y2="1937.61" style="stroke:#606060;stroke-width:8.64"/>
	<line x1="3629.96" y1="2191.19" x2="3629.96" y2="2133.64" style="stroke:#606060;stroke-width:8.64"/>
	<line x1="3629.96" y1="2104.81" x2="3629.96" y2="2047.26" style="stroke:#606060;stroke-width:8.64"/>
	<line x1="3629.96" y1="2018.43" x2="3629.96" y2="1960.88" style="stroke:#606060;stroke-width:8.64"/>
	<line x1="3629.96" y1="1932.05" x2="3629.96" y2="1874.38" style="stroke:#606060;stroke-width:8.64"/>
	<line x1="3629.96" y1="1845.67" x2="3629.96" y2="1788.00" style="stroke:#606060;stroke-width:8.64"/>
	<line x1="3629.96" y1="1759.28" x2="3629.96" y2="1701.62" style="stroke:#606060;stroke-width:8.64"/>
	<line x1="3629.96" y1="1672.78" x2="3629.96" y2="1615.24" style="stroke:#606060;stroke-width:8.64"/>
	<line x1="3629.96" y1="1586.40" x2="3629.96" y2="1528.86" style="stroke:#606060;stroke-width:8.64"/>
	<line x1="3629.96" y1="1500.02" x2="3629.96" y2="1442.48" style="stroke:#606060;stroke-width:8.64"/>
	<line x1="3629.96" y1="1413.64" x2="3629.96" y2="1356.09" style="stroke:#606060;stroke-width:8.64"/>
	<line x1="3629.96" y1="1327.26" x2="3629.96" y2="1269.71" style="stroke:#606060;stroke-width:8.64"/>
	<line x1="3629.96" y1="1240.88" x2="3629.96" y2="1183.33" style="stroke:#606060;stroke-width:8.64"/>
	<line x1="3607.93" y1="1160.07" x2="3651.99" y2="1160.07" style="stroke:#606060;stroke-width:8.64"/>
	<line x1="3607.93" y1="2191.19" x2="3651.99" y2="2191.19" style="stroke:#606060;stroke-width:8.64"/>
	<line x1="3782.67" y1="2127.95" x2="3782.67" y2="2070.40" style="stroke:#606060;stroke-width:8.64"/>
	<line x1="3782.67" y1="2041.57" x2="3782.67" y2="1984.02" style="stroke:#606060;stroke-width:8.64"/>
	<line x1="3782.67" y1="1955.19" x2="3782.67" y2="1897.64" style="stroke:#606060;stroke-width:8.64"/>
	<line x1="3782.67" y1="1868.81" x2="3782.67" y2="1811.14" style="stroke:#606060;stroke-width:8.64"/>
	<line x1="3782.67" y1="1782.43" x2="3782.67" y2="1724.76" style="stroke:#606060;stroke-width:8.64"/>
	<line x1="3782.67" y1="1695.92" x2="3782.67" y2="1638.38" style="stroke:#606060;stroke-width:8.64"/>
	<line x1="3782.67" y1="1609.54" x2="3782.67" y2="1552.00" style="stroke:#606060;stroke-width:8.64"/>
	<line x1="3782.67" y1="1523.16" x2="3782.67" y2="1465.62" style="stroke:#606060;stroke-width:8.64"/>
	<line x1="3782.67" y1="1436.78" x2="3782.67" y2="1379.24" style="stroke:#606060;stroke-width:8.64"/>
	<line x1="3782.67" y1="1350.40" x2="3782.67" y2="1292.86" style="stroke:#606060;stroke-width:8.64"/>
	<line x1="3782.67" y1="1264.02" x2="3782.67" y2="1206.48" style="stroke:#606060;stroke-width:8.64"/>
	<line x1="3782.67" y1="1177.64" x2="3782.67" y2="1120.10" style="stroke:#606060;stroke-width:8.64"/>
	<line x1="3782.67" y1="1091.26" x2="3782.67" y2="1083.22" style="stroke:#606060;stroke-width:8.64"/>
	<line x1="3760.64" y1="1083.22" x2="3804.69" y2="1083.22" style="stroke:#606060;stroke-width:8.64"/>
	<line x1="3760.64" y1="2127.95" x2="3804.69" y2="2127.95" style="stroke:#606060;stroke-width:8.64"/>
	<circle cx="422.11" cy="816.53" r="22.03" style="fill:none;stroke:#606060;stroke-width:8.64"/>
	<circle cx="574.82" cy="651.81" r="22.03" style="fill:none;stroke:#606060;stroke-width:8.64"/>
	<circle cx="727.53" cy="798.09" r="22.03" style="fill:none;stroke:#606060;stroke-width:8.64"/>
	<circle cx="880.36" cy="848.83" r="22.03" style="fill:none;stroke:#606060;stroke-width:8.64"/>
	<circle cx="1033.07" cy="885.95" r="22.03" style="fill:none;stroke:#606060;stroke-width:8.64"/>
	<circle cx="1185.90" cy="963.80" r="22.03" style="fill:none;stroke:#606060;stroke-width:8.64"/>
	<circle cx="1338.60" cy="817.39" r="22.03" style="fill:none;stroke:#606060;stroke-width:8.64"/>
	<circle cx="1491.31" cy="678.54" r="22.03" style="fill:none;stroke:#606060;stroke-width:8.64"/>
	<circle cx="1644.14" cy="798.34" r="22.03" style="fill:none;stroke:#606060;stroke-width:8.64"/>
	<circle cx="1796.85" cy="745.74" r="22.03" style="fill:none;stroke:#606060;stroke-width:8.64"/>
	<circle cx="1949.56" cy="892.76" r="22.03" style="fill:none;stroke:#606060;stroke-width:8.64"/>
	<circle cx="2102.39" cy="1057.97" r="22.03" style="fill:none;stroke:#606060;stroke-width:8.64"/>
	<circle cx="2255.10" cy="1092.50" r="22.03" style="fill:none;stroke:#606060;stroke-width:8.64"/>
	<circle cx="2407.80" cy="1147.69" r="22.03" style="fill:none;stroke:#606060;stroke-width:8.64"/>
	<circle cx="2560.64" cy="1145.96" r="22.03" style="fill:none;stroke:#606060;stroke-width:8.64"/>
	<circle cx="2713.34" cy="1399.90" r="22.03" style="fill:none;stroke:#606060;stroke-width:8.64"/>
	<circle cx="2866.17" cy="1189.40" r="22.03" style="fill:none;stroke:#606060;stroke-width:8.64"/>
	<circle cx="3018.88" cy="1319.09" r="22.03" style="fill:none;stroke:#606060;stroke-width:8.64"/>
	<circle cx="3171.59" cy="1520.69" r="22.03" style="fill:none;stroke:#606060;stroke-width:8.64"/>
	<circle cx="3324.42" cy="1354.86" r="22.03" style="fill:none;stroke:#606060;stroke-width:8.64"/>
	<circle cx="3477.13" cy="1415.74" r="22.03" style="fill:none;stroke:#606060;stroke-width:8.64"/>
	<circle cx="3629.84" cy="1675.63" r="22.03" style="fill:none;stroke:#606060;stroke-width:8.64"/>
	<circle cx="3782.67" cy="1605.58" r="22.03" style="fill:none;stroke:#606060;stroke-width:8.64"/>
	<path d=" M422.11 816.53 L574.82 651.81 L727.53 798.09 L880.36 848.83 L1033.07 885.95 L1185.90 963.80 L1338.60 817.39 L1491.31 678.54 L1644.14 798.34 L1796.85 745.74 L1949.56 892.76 L2102.39 1057.97 L2255.10 1092.50 L2407.80 1147.69 L2560.64 1145.96 L2713.34 1399.90 L2866.17 1189.40 L3018.88 1319.09 L3171.59 1520.69 L3324.42 1354.86 L3477.13 1415.74 L3629.84 1675.63 L3782.67 1605.58" stroke-linejoin="round" style="fill:none;stroke:#808080;stroke-width:8.64"/>
	<line x1="345.76" y1="2534.23" x2="345.76" y2="100.86" style="stroke:#000000;stroke-width:5.76"/>
	<line x1="345.76" y1="2470.87" x2="305.79" y2="2470.87" style="stroke:#000000;stroke-width:5.76"/>
	<text x="263.18" y="2470.87" style="font-family:'Helvetica';font-size:74.99px;fill:#000000" transform="rotate(-90 263.18,2470.87)" text-anchor="middle">-.06</text>
	<line x1="345.76" y1="1894.18" x2="305.79" y2="1894.18" style="stroke:#000000;stroke-width:5.76"/>
	<text x="263.18" y="1894.18" style="font-family:'Helvetica';font-size:74.99px;fill:#000000" transform="rotate(-90 263.18,1894.18)" text-anchor="middle">-.04</text>
	<line x1="345.76" y1="1317.48" x2="305.79" y2="1317.48" style="stroke:#000000;stroke-width:5.76"/>
	<text x="263.18" y="1317.48" style="font-family:'Helvetica';font-size:74.99px;fill:#000000" transform="rotate(-90 263.18,1317.48)" text-anchor="middle">-.02</text>
	<line x1="345.76" y1="740.79" x2="305.79" y2="740.79" style="stroke:#000000;stroke-width:5.76"/>
	<text x="263.18" y="740.79" style="font-family:'Helvetica';font-size:74.99px;fill:#000000" transform="rotate(-90 263.18,740.79)" text-anchor="middle">0</text>
	<line x1="345.76" y1="164.22" x2="305.79" y2="164.22" style="stroke:#000000;stroke-width:5.76"/>
	<text x="263.18" y="164.22" style="font-family:'Helvetica';font-size:74.99px;fill:#000000" transform="rotate(-90 263.18,164.22)" text-anchor="middle">.02</text>
	<text x="176.68" y="1317.48" style="font-family:'Helvetica';font-size:79.94px;fill:#000000" transform="rotate(-90 176.68,1317.48)" text-anchor="middle">Policy Dynamic Effects</text>
	<line x1="345.76" y1="2534.23" x2="3859.02" y2="2534.23" style="stroke:#000000;stroke-width:5.76"/>
	<line x1="422.11" y1="2534.23" x2="422.11" y2="2574.20" style="stroke:#000000;stroke-width:5.76"/>
	<text x="422.11" y="2646.69" style="font-family:'Helvetica';font-size:74.99px;fill:#000000" text-anchor="middle">pre_11</text>
	<line x1="574.94" y1="2534.23" x2="574.94" y2="2574.20" style="stroke:#000000;stroke-width:5.76"/>
	<text x="574.94" y="2646.69" style="font-family:'Helvetica';font-size:74.99px;fill:#000000" text-anchor="middle">pre_10</text>
	<line x1="727.65" y1="2534.23" x2="727.65" y2="2574.20" style="stroke:#000000;stroke-width:5.76"/>
	<text x="727.65" y="2646.69" style="font-family:'Helvetica';font-size:74.99px;fill:#000000" text-anchor="middle">pre_9</text>
	<line x1="880.36" y1="2534.23" x2="880.36" y2="2574.20" style="stroke:#000000;stroke-width:5.76"/>
	<text x="880.36" y="2646.69" style="font-family:'Helvetica';font-size:74.99px;fill:#000000" text-anchor="middle">pre_8</text>
	<line x1="1033.19" y1="2534.23" x2="1033.19" y2="2574.20" style="stroke:#000000;stroke-width:5.76"/>
	<text x="1033.19" y="2646.69" style="font-family:'Helvetica';font-size:74.99px;fill:#000000" text-anchor="middle">pre_7</text>
	<line x1="1185.90" y1="2534.23" x2="1185.90" y2="2574.20" style="stroke:#000000;stroke-width:5.76"/>
	<text x="1185.90" y="2646.69" style="font-family:'Helvetica';font-size:74.99px;fill:#000000" text-anchor="middle">pre_6</text>
	<line x1="1338.60" y1="2534.23" x2="1338.60" y2="2574.20" style="stroke:#000000;stroke-width:5.76"/>
	<text x="1338.60" y="2646.69" style="font-family:'Helvetica';font-size:74.99px;fill:#000000" text-anchor="middle">pre_5</text>
	<line x1="1491.44" y1="2534.23" x2="1491.44" y2="2574.20" style="stroke:#000000;stroke-width:5.76"/>
	<text x="1491.44" y="2646.69" style="font-family:'Helvetica';font-size:74.99px;fill:#000000" text-anchor="middle">pre_4</text>
	<line x1="1644.14" y1="2534.23" x2="1644.14" y2="2574.20" style="stroke:#000000;stroke-width:5.76"/>
	<text x="1644.14" y="2646.69" style="font-family:'Helvetica';font-size:74.99px;fill:#000000" text-anchor="middle">pre_3</text>
	<line x1="1796.97" y1="2534.23" x2="1796.97" y2="2574.20" style="stroke:#000000;stroke-width:5.76"/>
	<text x="1796.97" y="2646.69" style="font-family:'Helvetica';font-size:74.99px;fill:#000000" text-anchor="middle">pre_2</text>
	<line x1="1949.68" y1="2534.23" x2="1949.68" y2="2574.20" style="stroke:#000000;stroke-width:5.76"/>
	<text x="1949.68" y="2646.69" style="font-family:'Helvetica';font-size:74.99px;fill:#000000" text-anchor="middle">current</text>
	<line x1="2102.39" y1="2534.23" x2="2102.39" y2="2574.20" style="stroke:#000000;stroke-width:5.76"/>
	<text x="2102.39" y="2646.69" style="font-family:'Helvetica';font-size:74.99px;fill:#000000" text-anchor="middle">post_1</text>
	<line x1="2255.22" y1="2534.23" x2="2255.22" y2="2574.20" style="stroke:#000000;stroke-width:5.76"/>
	<text x="2255.22" y="2646.69" style="font-family:'Helvetica';font-size:74.99px;fill:#000000" text-anchor="middle">post_2</text>
	<line x1="2407.93" y1="2534.23" x2="2407.93" y2="2574.20" style="stroke:#000000;stroke-width:5.76"/>
	<text x="2407.93" y="2646.69" style="font-family:'Helvetica';font-size:74.99px;fill:#000000" text-anchor="middle">post_3</text>
	<line x1="2560.64" y1="2534.23" x2="2560.64" y2="2574.20" style="stroke:#000000;stroke-width:5.76"/>
	<text x="2560.64" y="2646.69" style="font-family:'Helvetica';font-size:74.99px;fill:#000000" text-anchor="middle">post_4</text>
	<line x1="2713.47" y1="2534.23" x2="2713.47" y2="2574.20" style="stroke:#000000;stroke-width:5.76"/>
	<text x="2713.47" y="2646.69" style="font-family:'Helvetica';font-size:74.99px;fill:#000000" text-anchor="middle">post_5</text>
	<line x1="2866.17" y1="2534.23" x2="2866.17" y2="2574.20" style="stroke:#000000;stroke-width:5.76"/>
	<text x="2866.17" y="2646.69" style="font-family:'Helvetica';font-size:74.99px;fill:#000000" text-anchor="middle">post_6</text>
	<line x1="3018.88" y1="2534.23" x2="3018.88" y2="2574.20" style="stroke:#000000;stroke-width:5.76"/>
	<text x="3018.88" y="2646.69" style="font-family:'Helvetica';font-size:74.99px;fill:#000000" text-anchor="middle">post_7</text>
	<line x1="3171.71" y1="2534.23" x2="3171.71" y2="2574.20" style="stroke:#000000;stroke-width:5.76"/>
	<text x="3171.71" y="2646.69" style="font-family:'Helvetica';font-size:74.99px;fill:#000000" text-anchor="middle">post_8</text>
	<line x1="3324.42" y1="2534.23" x2="3324.42" y2="2574.20" style="stroke:#000000;stroke-width:5.76"/>
	<text x="3324.42" y="2646.69" style="font-family:'Helvetica';font-size:74.99px;fill:#000000" text-anchor="middle">post_9</text>
	<line x1="3477.25" y1="2534.23" x2="3477.25" y2="2574.20" style="stroke:#000000;stroke-width:5.76"/>
	<text x="3477.25" y="2646.69" style="font-family:'Helvetica';font-size:74.99px;fill:#000000" text-anchor="middle">post_10</text>
	<line x1="3629.96" y1="2534.23" x2="3629.96" y2="2574.20" style="stroke:#000000;stroke-width:5.76"/>
	<text x="3629.96" y="2646.69" style="font-family:'Helvetica';font-size:74.99px;fill:#000000" text-anchor="middle">post_11</text>
	<line x1="3782.67" y1="2534.23" x2="3782.67" y2="2574.20" style="stroke:#000000;stroke-width:5.76"/>
	<text x="3782.67" y="2646.69" style="font-family:'Helvetica';font-size:74.99px;fill:#000000" text-anchor="middle">post_12</text>
	<text x="2102.39" y="2735.17" style="font-family:'Helvetica';font-size:79.94px;fill:#000000" text-anchor="middle">Code_ratio</text>
</svg>
