<?xml version="1.0" encoding="UTF-8" standalone="no"?>
<!-- This is a Stata 18.0 generated SVG file (http://www.stata.com) -->

<svg version="1.1" width="5.500in" height="4.000in" viewBox="0 0 3960 2880" xmlns="http://www.w3.org/2000/svg" xmlns:xlink="http://www.w3.org/1999/xlink">
	<desc>Stata Graph - Graph</desc>
	<rect x="0" y="0" width="3960" height="2880" style="fill:#FFFFFF;stroke:none"/>
	<rect x="0.00" y="0.00" width="3959.88" height="2880.00" style="fill:#FFFFFF"/>
	<rect x="2.88" y="2.88" width="3954.12" height="2874.24" style="fill:none;stroke:#FFFFFF;stroke-width:5.76"/>
	<rect x="348.64" y="103.74" width="3507.50" height="2427.61" style="fill:none;stroke:#000000;stroke-width:5.76"/>
	<line x1="880.36" y1="2534.23" x2="880.36" y2="2476.69" style="stroke:#6E8E84;stroke-width:4.32"/>
	<line x1="880.36" y1="2447.85" x2="880.36" y2="2390.31" style="stroke:#6E8E84;stroke-width:4.32"/>
	<line x1="880.36" y1="2361.47" x2="880.36" y2="2303.93" style="stroke:#6E8E84;stroke-width:4.32"/>
	<line x1="880.36" y1="2275.09" x2="880.36" y2="2217.55" style="stroke:#6E8E84;stroke-width:4.32"/>
	<line x1="880.36" y1="2188.71" x2="880.36" y2="2131.17" style="stroke:#6E8E84;stroke-width:4.32"/>
	<line x1="880.36" y1="2102.33" x2="880.36" y2="2044.66" style="stroke:#6E8E84;stroke-width:4.32"/>
	<line x1="880.36" y1="2015.95" x2="880.36" y2="1958.28" style="stroke:#6E8E84;stroke-width:4.32"/>
	<line x1="880.36" y1="1929.57" x2="880.36" y2="1871.90" style="stroke:#6E8E84;stroke-width:4.32"/>
	<line x1="880.36" y1="1843.07" x2="880.36" y2="1785.52" style="stroke:#6E8E84;stroke-width:4.32"/>
	<line x1="880.36" y1="1756.69" x2="880.36" y2="1699.14" style="stroke:#6E8E84;stroke-width:4.32"/>
	<line x1="880.36" y1="1670.31" x2="880.36" y2="1612.76" style="stroke:#6E8E84;stroke-width:4.32"/>
	<line x1="880.36" y1="1583.93" x2="880.36" y2="1526.38" style="stroke:#6E8E84;stroke-width:4.32"/>
	<line x1="880.36" y1="1497.55" x2="880.36" y2="1440.00" style="stroke:#6E8E84;stroke-width:4.32"/>
	<line x1="880.36" y1="1411.17" x2="880.36" y2="1353.62" style="stroke:#6E8E84;stroke-width:4.32"/>
	<line x1="880.36" y1="1324.79" x2="880.36" y2="1267.24" style="stroke:#6E8E84;stroke-width:4.32"/>
	<line x1="880.36" y1="1238.40" x2="880.36" y2="1180.86" style="stroke:#6E8E84;stroke-width:4.32"/>
	<line x1="880.36" y1="1152.02" x2="880.36" y2="1094.36" style="stroke:#6E8E84;stroke-width:4.32"/>
	<line x1="880.36" y1="1065.64" x2="880.36" y2="1007.98" style="stroke:#6E8E84;stroke-width:4.32"/>
	<line x1="880.36" y1="979.14" x2="880.36" y2="921.60" style="stroke:#6E8E84;stroke-width:4.32"/>
	<line x1="880.36" y1="892.76" x2="880.36" y2="835.21" style="stroke:#6E8E84;stroke-width:4.32"/>
	<line x1="880.36" y1="806.38" x2="880.36" y2="748.83" style="stroke:#6E8E84;stroke-width:4.32"/>
	<line x1="880.36" y1="720.00" x2="880.36" y2="662.45" style="stroke:#6E8E84;stroke-width:4.32"/>
	<line x1="880.36" y1="633.62" x2="880.36" y2="576.07" style="stroke:#6E8E84;stroke-width:4.32"/>
	<line x1="880.36" y1="547.24" x2="880.36" y2="489.69" style="stroke:#6E8E84;stroke-width:4.32"/>
	<line x1="880.36" y1="460.86" x2="880.36" y2="403.31" style="stroke:#6E8E84;stroke-width:4.32"/>
	<line x1="880.36" y1="374.48" x2="880.36" y2="316.93" style="stroke:#6E8E84;stroke-width:4.32"/>
	<line x1="880.36" y1="288.10" x2="880.36" y2="230.55" style="stroke:#6E8E84;stroke-width:4.32"/>
	<line x1="880.36" y1="201.72" x2="880.36" y2="144.05" style="stroke:#6E8E84;stroke-width:4.32"/>
	<line x1="880.36" y1="115.34" x2="880.36" y2="100.86" style="stroke:#6E8E84;stroke-width:4.32"/>
	<line x1="345.76" y1="835.83" x2="3859.02" y2="835.83" style="stroke:#658397;stroke-width:8.64"/>
	<line x1="422.11" y1="1197.57" x2="422.11" y2="1140.02" style="stroke:#606060;stroke-width:8.64"/>
	<line x1="422.11" y1="1111.19" x2="422.11" y2="1053.64" style="stroke:#606060;stroke-width:8.64"/>
	<line x1="422.11" y1="1024.81" x2="422.11" y2="967.26" style="stroke:#606060;stroke-width:8.64"/>
	<line x1="422.11" y1="938.43" x2="422.11" y2="880.76" style="stroke:#606060;stroke-width:8.64"/>
	<line x1="422.11" y1="852.05" x2="422.11" y2="794.38" style="stroke:#606060;stroke-width:8.64"/>
	<line x1="422.11" y1="765.54" x2="422.11" y2="708.00" style="stroke:#606060;stroke-width:8.64"/>
	<line x1="422.11" y1="679.16" x2="422.11" y2="621.62" style="stroke:#606060;stroke-width:8.64"/>
	<line x1="422.11" y1="592.78" x2="422.11" y2="535.24" style="stroke:#606060;stroke-width:8.64"/>
	<line x1="422.11" y1="506.40" x2="422.11" y2="448.86" style="stroke:#606060;stroke-width:8.64"/>
	<line x1="422.11" y1="420.02" x2="422.11" y2="362.48" style="stroke:#606060;stroke-width:8.64"/>
	<line x1="422.11" y1="333.64" x2="422.11" y2="276.09" style="stroke:#606060;stroke-width:8.64"/>
	<line x1="422.11" y1="247.26" x2="422.11" y2="189.71" style="stroke:#606060;stroke-width:8.64"/>
	<line x1="400.08" y1="164.22" x2="444.14" y2="164.22" style="stroke:#606060;stroke-width:8.64"/>
	<line x1="400.08" y1="1197.57" x2="444.14" y2="1197.57" style="stroke:#606060;stroke-width:8.64"/>
	<line x1="574.94" y1="1275.53" x2="574.94" y2="1217.99" style="stroke:#606060;stroke-width:8.64"/>
	<line x1="574.94" y1="1189.15" x2="574.94" y2="1131.61" style="stroke:#606060;stroke-width:8.64"/>
	<line x1="574.94" y1="1102.77" x2="574.94" y2="1045.23" style="stroke:#606060;stroke-width:8.64"/>
	<line x1="574.94" y1="1016.39" x2="574.94" y2="958.84" style="stroke:#606060;stroke-width:8.64"/>
	<line x1="574.94" y1="930.01" x2="574.94" y2="872.34" style="stroke:#606060;stroke-width:8.64"/>
	<line x1="574.94" y1="843.63" x2="574.94" y2="785.96" style="stroke:#606060;stroke-width:8.64"/>
	<line x1="574.94" y1="757.25" x2="574.94" y2="699.58" style="stroke:#606060;stroke-width:8.64"/>
	<line x1="574.94" y1="670.75" x2="574.94" y2="613.20" style="stroke:#606060;stroke-width:8.64"/>
	<line x1="574.94" y1="584.37" x2="574.94" y2="526.82" style="stroke:#606060;stroke-width:8.64"/>
	<line x1="574.94" y1="497.99" x2="574.94" y2="440.44" style="stroke:#606060;stroke-width:8.64"/>
	<line x1="574.94" y1="411.61" x2="574.94" y2="368.91" style="stroke:#606060;stroke-width:8.64"/>
	<line x1="552.92" y1="368.91" x2="596.97" y2="368.91" style="stroke:#606060;stroke-width:8.64"/>
	<line x1="552.92" y1="1275.53" x2="596.97" y2="1275.53" style="stroke:#606060;stroke-width:8.64"/>
	<line x1="727.65" y1="1316.86" x2="727.65" y2="1259.32" style="stroke:#606060;stroke-width:8.64"/>
	<line x1="727.65" y1="1230.48" x2="727.65" y2="1172.94" style="stroke:#606060;stroke-width:8.64"/>
	<line x1="727.65" y1="1144.10" x2="727.65" y2="1086.44" style="stroke:#606060;stroke-width:8.64"/>
	<line x1="727.65" y1="1057.72" x2="727.65" y2="1000.06" style="stroke:#606060;stroke-width:8.64"/>
	<line x1="727.65" y1="971.22" x2="727.65" y2="913.67" style="stroke:#606060;stroke-width:8.64"/>
	<line x1="727.65" y1="884.84" x2="727.65" y2="827.29" style="stroke:#606060;stroke-width:8.64"/>
	<line x1="727.65" y1="798.46" x2="727.65" y2="740.91" style="stroke:#606060;stroke-width:8.64"/>
	<line x1="727.65" y1="712.08" x2="727.65" y2="654.53" style="stroke:#606060;stroke-width:8.64"/>
	<line x1="727.65" y1="625.70" x2="727.65" y2="568.15" style="stroke:#606060;stroke-width:8.64"/>
	<line x1="727.65" y1="539.32" x2="727.65" y2="481.77" style="stroke:#606060;stroke-width:8.64"/>
	<line x1="727.65" y1="452.94" x2="727.65" y2="395.39" style="stroke:#606060;stroke-width:8.64"/>
	<line x1="705.62" y1="371.39" x2="749.68" y2="371.39" style="stroke:#606060;stroke-width:8.64"/>
	<line x1="705.62" y1="1316.86" x2="749.68" y2="1316.86" style="stroke:#606060;stroke-width:8.64"/>
	<line x1="880.36" y1="1381.59" x2="880.36" y2="1324.04" style="stroke:#606060;stroke-width:8.64"/>
	<line x1="880.36" y1="1295.21" x2="880.36" y2="1237.66" style="stroke:#606060;stroke-width:8.64"/>
	<line x1="880.36" y1="1208.83" x2="880.36" y2="1151.28" style="stroke:#606060;stroke-width:8.64"/>
	<line x1="880.36" y1="1122.45" x2="880.36" y2="1064.90" style="stroke:#606060;stroke-width:8.64"/>
	<line x1="880.36" y1="1036.07" x2="880.36" y2="978.52" style="stroke:#606060;stroke-width:8.64"/>
	<line x1="880.36" y1="949.69" x2="880.36" y2="892.02" style="stroke:#606060;stroke-width:8.64"/>
	<line x1="880.36" y1="863.31" x2="880.36" y2="805.64" style="stroke:#606060;stroke-width:8.64"/>
	<line x1="880.36" y1="776.93" x2="880.36" y2="719.26" style="stroke:#606060;stroke-width:8.64"/>
	<line x1="880.36" y1="690.42" x2="880.36" y2="632.88" style="stroke:#606060;stroke-width:8.64"/>
	<line x1="880.36" y1="604.04" x2="880.36" y2="546.50" style="stroke:#606060;stroke-width:8.64"/>
	<line x1="880.36" y1="517.66" x2="880.36" y2="460.12" style="stroke:#606060;stroke-width:8.64"/>
	<line x1="858.33" y1="442.67" x2="902.39" y2="442.67" style="stroke:#606060;stroke-width:8.64"/>
	<line x1="858.33" y1="1381.59" x2="902.39" y2="1381.59" style="stroke:#606060;stroke-width:8.64"/>
	<line x1="1033.19" y1="1178.38" x2="1033.19" y2="1120.84" style="stroke:#606060;stroke-width:8.64"/>
	<line x1="1033.19" y1="1092.00" x2="1033.19" y2="1034.46" style="stroke:#606060;stroke-width:8.64"/>
	<line x1="1033.19" y1="1005.62" x2="1033.19" y2="947.95" style="stroke:#606060;stroke-width:8.64"/>
	<line x1="1033.19" y1="919.24" x2="1033.19" y2="861.57" style="stroke:#606060;stroke-width:8.64"/>
	<line x1="1033.19" y1="832.74" x2="1033.19" y2="775.19" style="stroke:#606060;stroke-width:8.64"/>
	<line x1="1033.19" y1="746.36" x2="1033.19" y2="688.81" style="stroke:#606060;stroke-width:8.64"/>
	<line x1="1033.19" y1="659.98" x2="1033.19" y2="602.43" style="stroke:#606060;stroke-width:8.64"/>
	<line x1="1033.19" y1="573.60" x2="1033.19" y2="516.05" style="stroke:#606060;stroke-width:8.64"/>
	<line x1="1033.19" y1="487.22" x2="1033.19" y2="429.67" style="stroke:#606060;stroke-width:8.64"/>
	<line x1="1033.19" y1="400.84" x2="1033.19" y2="343.29" style="stroke:#606060;stroke-width:8.64"/>
	<line x1="1033.19" y1="314.46" x2="1033.19" y2="261.99" style="stroke:#606060;stroke-width:8.64"/>
	<line x1="1011.16" y1="261.99" x2="1055.22" y2="261.99" style="stroke:#606060;stroke-width:8.64"/>
	<line x1="1011.16" y1="1178.38" x2="1055.22" y2="1178.38" style="stroke:#606060;stroke-width:8.64"/>
	<line x1="1185.90" y1="1443.59" x2="1185.90" y2="1386.04" style="stroke:#606060;stroke-width:8.64"/>
	<line x1="1185.90" y1="1357.21" x2="1185.90" y2="1299.66" style="stroke:#606060;stroke-width:8.64"/>
	<line x1="1185.90" y1="1270.83" x2="1185.90" y2="1213.16" style="stroke:#606060;stroke-width:8.64"/>
	<line x1="1185.90" y1="1184.45" x2="1185.90" y2="1126.78" style="stroke:#606060;stroke-width:8.64"/>
	<line x1="1185.90" y1="1097.94" x2="1185.90" y2="1040.40" style="stroke:#606060;stroke-width:8.64"/>
	<line x1="1185.90" y1="1011.56" x2="1185.90" y2="954.02" style="stroke:#606060;stroke-width:8.64"/>
	<line x1="1185.90" y1="925.18" x2="1185.90" y2="867.64" style="stroke:#606060;stroke-width:8.64"/>
	<line x1="1185.90" y1="838.80" x2="1185.90" y2="781.26" style="stroke:#606060;stroke-width:8.64"/>
	<line x1="1185.90" y1="752.42" x2="1185.90" y2="694.88" style="stroke:#606060;stroke-width:8.64"/>
	<line x1="1185.90" y1="666.04" x2="1185.90" y2="608.50" style="stroke:#606060;stroke-width:8.64"/>
	<line x1="1185.90" y1="579.66" x2="1185.90" y2="522.12" style="stroke:#606060;stroke-width:8.64"/>
	<line x1="1185.90" y1="493.28" x2="1185.90" y2="456.16" style="stroke:#606060;stroke-width:8.64"/>
	<line x1="1163.87" y1="456.16" x2="1207.92" y2="456.16" style="stroke:#606060;stroke-width:8.64"/>
	<line x1="1163.87" y1="1443.59" x2="1207.92" y2="1443.59" style="stroke:#606060;stroke-width:8.64"/>
	<line x1="1338.60" y1="1297.81" x2="1338.60" y2="1240.26" style="stroke:#606060;stroke-width:8.64"/>
	<line x1="1338.60" y1="1211.43" x2="1338.60" y2="1153.76" style="stroke:#606060;stroke-width:8.64"/>
	<line x1="1338.60" y1="1125.05" x2="1338.60" y2="1067.38" style="stroke:#606060;stroke-width:8.64"/>
	<line x1="1338.60" y1="1038.54" x2="1338.60" y2="981.00" style="stroke:#606060;stroke-width:8.64"/>
	<line x1="1338.60" y1="952.16" x2="1338.60" y2="894.62" style="stroke:#606060;stroke-width:8.64"/>
	<line x1="1338.60" y1="865.78" x2="1338.60" y2="808.24" style="stroke:#606060;stroke-width:8.64"/>
	<line x1="1338.60" y1="779.40" x2="1338.60" y2="721.86" style="stroke:#606060;stroke-width:8.64"/>
	<line x1="1338.60" y1="693.02" x2="1338.60" y2="635.48" style="stroke:#606060;stroke-width:8.64"/>
	<line x1="1338.60" y1="606.64" x2="1338.60" y2="549.10" style="stroke:#606060;stroke-width:8.64"/>
	<line x1="1338.60" y1="520.26" x2="1338.60" y2="462.72" style="stroke:#606060;stroke-width:8.64"/>
	<line x1="1338.60" y1="433.88" x2="1338.60" y2="376.34" style="stroke:#606060;stroke-width:8.64"/>
	<line x1="1338.60" y1="347.50" x2="1338.60" y2="341.81" style="stroke:#606060;stroke-width:8.64"/>
	<line x1="1316.58" y1="341.81" x2="1360.63" y2="341.81" style="stroke:#606060;stroke-width:8.64"/>
	<line x1="1316.58" y1="1297.81" x2="1360.63" y2="1297.81" style="stroke:#606060;stroke-width:8.64"/>
	<line x1="1491.44" y1="1265.88" x2="1491.44" y2="1208.33" style="stroke:#606060;stroke-width:8.64"/>
	<line x1="1491.44" y1="1179.50" x2="1491.44" y2="1121.83" style="stroke:#606060;stroke-width:8.64"/>
	<line x1="1491.44" y1="1093.12" x2="1491.44" y2="1035.45" style="stroke:#606060;stroke-width:8.64"/>
	<line x1="1491.44" y1="1006.74" x2="1491.44" y2="949.07" style="stroke:#606060;stroke-width:8.64"/>
	<line x1="1491.44" y1="920.23" x2="1491.44" y2="862.69" style="stroke:#606060;stroke-width:8.64"/>
	<line x1="1491.44" y1="833.85" x2="1491.44" y2="776.31" style="stroke:#606060;stroke-width:8.64"/>
	<line x1="1491.44" y1="747.47" x2="1491.44" y2="689.93" style="stroke:#606060;stroke-width:8.64"/>
	<line x1="1491.44" y1="661.09" x2="1491.44" y2="603.55" style="stroke:#606060;stroke-width:8.64"/>
	<line x1="1491.44" y1="574.71" x2="1491.44" y2="517.17" style="stroke:#606060;stroke-width:8.64"/>
	<line x1="1491.44" y1="488.33" x2="1491.44" y2="430.79" style="stroke:#606060;stroke-width:8.64"/>
	<line x1="1491.44" y1="401.95" x2="1491.44" y2="366.06" style="stroke:#606060;stroke-width:8.64"/>
	<line x1="1469.41" y1="366.06" x2="1513.46" y2="366.06" style="stroke:#606060;stroke-width:8.64"/>
	<line x1="1469.41" y1="1265.88" x2="1513.46" y2="1265.88" style="stroke:#606060;stroke-width:8.64"/>
	<line x1="1644.14" y1="1366.99" x2="1644.14" y2="1309.44" style="stroke:#606060;stroke-width:8.64"/>
	<line x1="1644.14" y1="1280.61" x2="1644.14" y2="1223.06" style="stroke:#606060;stroke-width:8.64"/>
	<line x1="1644.14" y1="1194.22" x2="1644.14" y2="1136.68" style="stroke:#606060;stroke-width:8.64"/>
	<line x1="1644.14" y1="1107.84" x2="1644.14" y2="1050.30" style="stroke:#606060;stroke-width:8.64"/>
	<line x1="1644.14" y1="1021.46" x2="1644.14" y2="963.80" style="stroke:#606060;stroke-width:8.64"/>
	<line x1="1644.14" y1="935.08" x2="1644.14" y2="877.41" style="stroke:#606060;stroke-width:8.64"/>
	<line x1="1644.14" y1="848.58" x2="1644.14" y2="791.03" style="stroke:#606060;stroke-width:8.64"/>
	<line x1="1644.14" y1="762.20" x2="1644.14" y2="704.65" style="stroke:#606060;stroke-width:8.64"/>
	<line x1="1644.14" y1="675.82" x2="1644.14" y2="618.27" style="stroke:#606060;stroke-width:8.64"/>
	<line x1="1644.14" y1="589.44" x2="1644.14" y2="531.89" style="stroke:#606060;stroke-width:8.64"/>
	<line x1="1644.14" y1="503.06" x2="1644.14" y2="445.51" style="stroke:#606060;stroke-width:8.64"/>
	<line x1="1622.12" y1="429.43" x2="1666.17" y2="429.43" style="stroke:#606060;stroke-width:8.64"/>
	<line x1="1622.12" y1="1366.99" x2="1666.17" y2="1366.99" style="stroke:#606060;stroke-width:8.64"/>
	<line x1="1796.97" y1="1278.38" x2="1796.97" y2="1220.83" style="stroke:#606060;stroke-width:8.64"/>
	<line x1="1796.97" y1="1192.00" x2="1796.97" y2="1134.45" style="stroke:#606060;stroke-width:8.64"/>
	<line x1="1796.97" y1="1105.62" x2="1796.97" y2="1048.07" style="stroke:#606060;stroke-width:8.64"/>
	<line x1="1796.97" y1="1019.24" x2="1796.97" y2="961.69" style="stroke:#606060;stroke-width:8.64"/>
	<line x1="1796.97" y1="932.86" x2="1796.97" y2="875.31" style="stroke:#606060;stroke-width:8.64"/>
	<line x1="1796.97" y1="846.48" x2="1796.97" y2="788.93" style="stroke:#606060;stroke-width:8.64"/>
	<line x1="1796.97" y1="760.10" x2="1796.97" y2="702.43" style="stroke:#606060;stroke-width:8.64"/>
	<line x1="1796.97" y1="673.72" x2="1796.97" y2="616.05" style="stroke:#606060;stroke-width:8.64"/>
	<line x1="1796.97" y1="587.21" x2="1796.97" y2="529.67" style="stroke:#606060;stroke-width:8.64"/>
	<line x1="1796.97" y1="500.83" x2="1796.97" y2="443.29" style="stroke:#606060;stroke-width:8.64"/>
	<line x1="1796.97" y1="414.45" x2="1796.97" y2="356.91" style="stroke:#606060;stroke-width:8.64"/>
	<line x1="1796.97" y1="328.07" x2="1796.97" y2="307.90" style="stroke:#606060;stroke-width:8.64"/>
	<line x1="1774.95" y1="307.90" x2="1819.00" y2="307.90" style="stroke:#606060;stroke-width:8.64"/>
	<line x1="1774.95" y1="1278.38" x2="1819.00" y2="1278.38" style="stroke:#606060;stroke-width:8.64"/>
	<line x1="1949.68" y1="1426.02" x2="1949.68" y2="1368.47" style="stroke:#606060;stroke-width:8.64"/>
	<line x1="1949.68" y1="1339.64" x2="1949.68" y2="1282.09" style="stroke:#606060;stroke-width:8.64"/>
	<line x1="1949.68" y1="1253.26" x2="1949.68" y2="1195.71" style="stroke:#606060;stroke-width:8.64"/>
	<line x1="1949.68" y1="1166.88" x2="1949.68" y2="1109.33" style="stroke:#606060;stroke-width:8.64"/>
	<line x1="1949.68" y1="1080.50" x2="1949.68" y2="1022.83" style="stroke:#606060;stroke-width:8.64"/>
	<line x1="1949.68" y1="994.11" x2="1949.68" y2="936.45" style="stroke:#606060;stroke-width:8.64"/>
	<line x1="1949.68" y1="907.73" x2="1949.68" y2="850.07" style="stroke:#606060;stroke-width:8.64"/>
	<line x1="1949.68" y1="821.23" x2="1949.68" y2="763.69" style="stroke:#606060;stroke-width:8.64"/>
	<line x1="1949.68" y1="734.85" x2="1949.68" y2="677.30" style="stroke:#606060;stroke-width:8.64"/>
	<line x1="1949.68" y1="648.47" x2="1949.68" y2="590.92" style="stroke:#606060;stroke-width:8.64"/>
	<line x1="1949.68" y1="562.09" x2="1949.68" y2="505.04" style="stroke:#606060;stroke-width:8.64"/>
	<line x1="1927.65" y1="505.04" x2="1971.71" y2="505.04" style="stroke:#606060;stroke-width:8.64"/>
	<line x1="1927.65" y1="1426.02" x2="1971.71" y2="1426.02" style="stroke:#606060;stroke-width:8.64"/>
	<line x1="2102.39" y1="1502.99" x2="2102.39" y2="1445.45" style="stroke:#606060;stroke-width:8.64"/>
	<line x1="2102.39" y1="1416.61" x2="2102.39" y2="1359.06" style="stroke:#606060;stroke-width:8.64"/>
	<line x1="2102.39" y1="1330.23" x2="2102.39" y2="1272.56" style="stroke:#606060;stroke-width:8.64"/>
	<line x1="2102.39" y1="1243.85" x2="2102.39" y2="1186.18" style="stroke:#606060;stroke-width:8.64"/>
	<line x1="2102.39" y1="1157.35" x2="2102.39" y2="1099.80" style="stroke:#606060;stroke-width:8.64"/>
	<line x1="2102.39" y1="1070.97" x2="2102.39" y2="1013.42" style="stroke:#606060;stroke-width:8.64"/>
	<line x1="2102.39" y1="984.59" x2="2102.39" y2="927.04" style="stroke:#606060;stroke-width:8.64"/>
	<line x1="2102.39" y1="898.21" x2="2102.39" y2="840.66" style="stroke:#606060;stroke-width:8.64"/>
	<line x1="2102.39" y1="811.83" x2="2102.39" y2="754.28" style="stroke:#606060;stroke-width:8.64"/>
	<line x1="2102.39" y1="725.45" x2="2102.39" y2="667.90" style="stroke:#606060;stroke-width:8.64"/>
	<line x1="2102.39" y1="639.06" x2="2102.39" y2="581.52" style="stroke:#606060;stroke-width:8.64"/>
	<line x1="2102.39" y1="552.68" x2="2102.39" y2="535.36" style="stroke:#606060;stroke-width:8.64"/>
	<line x1="2080.36" y1="535.36" x2="2124.42" y2="535.36" style="stroke:#606060;stroke-width:8.64"/>
	<line x1="2080.36" y1="1502.99" x2="2124.42" y2="1502.99" style="stroke:#606060;stroke-width:8.64"/>
	<line x1="2255.22" y1="1806.68" x2="2255.22" y2="1749.14" style="stroke:#606060;stroke-width:8.64"/>
	<line x1="2255.22" y1="1720.30" x2="2255.22" y2="1662.76" style="stroke:#606060;stroke-width:8.64"/>
	<line x1="2255.22" y1="1633.92" x2="2255.22" y2="1576.38" style="stroke:#606060;stroke-width:8.64"/>
	<line x1="2255.22" y1="1547.54" x2="2255.22" y2="1490.00" style="stroke:#606060;stroke-width:8.64"/>
	<line x1="2255.22" y1="1461.16" x2="2255.22" y2="1403.49" style="stroke:#606060;stroke-width:8.64"/>
	<line x1="2255.22" y1="1374.78" x2="2255.22" y2="1317.11" style="stroke:#606060;stroke-width:8.64"/>
	<line x1="2255.22" y1="1288.28" x2="2255.22" y2="1230.73" style="stroke:#606060;stroke-width:8.64"/>
	<line x1="2255.22" y1="1201.90" x2="2255.22" y2="1144.35" style="stroke:#606060;stroke-width:8.64"/>
	<line x1="2255.22" y1="1115.52" x2="2255.22" y2="1057.97" style="stroke:#606060;stroke-width:8.64"/>
	<line x1="2255.22" y1="1029.14" x2="2255.22" y2="971.59" style="stroke:#606060;stroke-width:8.64"/>
	<line x1="2255.22" y1="942.76" x2="2255.22" y2="885.21" style="stroke:#606060;stroke-width:8.64"/>
	<line x1="2255.22" y1="856.38" x2="2255.22" y2="840.91" style="stroke:#606060;stroke-width:8.64"/>
	<line x1="2233.19" y1="840.91" x2="2277.25" y2="840.91" style="stroke:#606060;stroke-width:8.64"/>
	<line x1="2233.19" y1="1806.68" x2="2277.25" y2="1806.68" style="stroke:#606060;stroke-width:8.64"/>
	<line x1="2407.93" y1="1903.58" x2="2407.93" y2="1846.04" style="stroke:#606060;stroke-width:8.64"/>
	<line x1="2407.93" y1="1817.20" x2="2407.93" y2="1759.53" style="stroke:#606060;stroke-width:8.64"/>
	<line x1="2407.93" y1="1730.82" x2="2407.93" y2="1673.15" style="stroke:#606060;stroke-width:8.64"/>
	<line x1="2407.93" y1="1644.44" x2="2407.93" y2="1586.77" style="stroke:#606060;stroke-width:8.64"/>
	<line x1="2407.93" y1="1557.94" x2="2407.93" y2="1500.39" style="stroke:#606060;stroke-width:8.64"/>
	<line x1="2407.93" y1="1471.56" x2="2407.93" y2="1414.01" style="stroke:#606060;stroke-width:8.64"/>
	<line x1="2407.93" y1="1385.18" x2="2407.93" y2="1327.63" style="stroke:#606060;stroke-width:8.64"/>
	<line x1="2407.93" y1="1298.80" x2="2407.93" y2="1241.25" style="stroke:#606060;stroke-width:8.64"/>
	<line x1="2407.93" y1="1212.42" x2="2407.93" y2="1154.87" style="stroke:#606060;stroke-width:8.64"/>
	<line x1="2407.93" y1="1126.04" x2="2407.93" y2="1068.49" style="stroke:#606060;stroke-width:8.64"/>
	<line x1="2407.93" y1="1039.66" x2="2407.93" y2="982.11" style="stroke:#606060;stroke-width:8.64"/>
	<line x1="2407.93" y1="953.28" x2="2407.93" y2="924.07" style="stroke:#606060;stroke-width:8.64"/>
	<line x1="2385.90" y1="924.07" x2="2429.96" y2="924.07" style="stroke:#606060;stroke-width:8.64"/>
	<line x1="2385.90" y1="1903.58" x2="2429.96" y2="1903.58" style="stroke:#606060;stroke-width:8.64"/>
	<line x1="2560.64" y1="1755.82" x2="2560.64" y2="1698.27" style="stroke:#606060;stroke-width:8.64"/>
	<line x1="2560.64" y1="1669.44" x2="2560.64" y2="1611.89" style="stroke:#606060;stroke-width:8.64"/>
	<line x1="2560.64" y1="1583.06" x2="2560.64" y2="1525.51" style="stroke:#606060;stroke-width:8.64"/>
	<line x1="2560.64" y1="1496.68" x2="2560.64" y2="1439.01" style="stroke:#606060;stroke-width:8.64"/>
	<line x1="2560.64" y1="1410.30" x2="2560.64" y2="1352.63" style="stroke:#606060;stroke-width:8.64"/>
	<line x1="2560.64" y1="1323.80" x2="2560.64" y2="1266.25" style="stroke:#606060;stroke-width:8.64"/>
	<line x1="2560.64" y1="1237.41" x2="2560.64" y2="1179.87" style="stroke:#606060;stroke-width:8.64"/>
	<line x1="2560.64" y1="1151.03" x2="2560.64" y2="1093.49" style="stroke:#606060;stroke-width:8.64"/>
	<line x1="2560.64" y1="1064.65" x2="2560.64" y2="1007.11" style="stroke:#606060;stroke-width:8.64"/>
	<line x1="2560.64" y1="978.27" x2="2560.64" y2="920.73" style="stroke:#606060;stroke-width:8.64"/>
	<line x1="2560.64" y1="891.89" x2="2560.64" y2="834.35" style="stroke:#606060;stroke-width:8.64"/>
	<line x1="2560.64" y1="805.51" x2="2560.64" y2="772.97" style="stroke:#606060;stroke-width:8.64"/>
	<line x1="2538.61" y1="772.97" x2="2582.66" y2="772.97" style="stroke:#606060;stroke-width:8.64"/>
	<line x1="2538.61" y1="1755.82" x2="2582.66" y2="1755.82" style="stroke:#606060;stroke-width:8.64"/>
	<line x1="2713.47" y1="2034.27" x2="2713.47" y2="1976.72" style="stroke:#606060;stroke-width:8.64"/>
	<line x1="2713.47" y1="1947.89" x2="2713.47" y2="1890.22" style="stroke:#606060;stroke-width:8.64"/>
	<line x1="2713.47" y1="1861.51" x2="2713.47" y2="1803.84" style="stroke:#606060;stroke-width:8.64"/>
	<line x1="2713.47" y1="1775.13" x2="2713.47" y2="1717.46" style="stroke:#606060;stroke-width:8.64"/>
	<line x1="2713.47" y1="1688.62" x2="2713.47" y2="1631.08" style="stroke:#606060;stroke-width:8.64"/>
	<line x1="2713.47" y1="1602.24" x2="2713.47" y2="1544.70" style="stroke:#606060;stroke-width:8.64"/>
	<line x1="2713.47" y1="1515.86" x2="2713.47" y2="1458.32" style="stroke:#606060;stroke-width:8.64"/>
	<line x1="2713.47" y1="1429.48" x2="2713.47" y2="1371.94" style="stroke:#606060;stroke-width:8.64"/>
	<line x1="2713.47" y1="1343.10" x2="2713.47" y2="1285.56" style="stroke:#606060;stroke-width:8.64"/>
	<line x1="2713.47" y1="1256.72" x2="2713.47" y2="1199.17" style="stroke:#606060;stroke-width:8.64"/>
	<line x1="2713.47" y1="1170.34" x2="2713.47" y2="1112.79" style="stroke:#606060;stroke-width:8.64"/>
	<line x1="2713.47" y1="1083.96" x2="2713.47" y2="1038.05" style="stroke:#606060;stroke-width:8.64"/>
	<line x1="2691.44" y1="1038.05" x2="2735.49" y2="1038.05" style="stroke:#606060;stroke-width:8.64"/>
	<line x1="2691.44" y1="2034.27" x2="2735.49" y2="2034.27" style="stroke:#606060;stroke-width:8.64"/>
	<line x1="2866.17" y1="1644.07" x2="2866.17" y2="1586.52" style="stroke:#606060;stroke-width:8.64"/>
	<line x1="2866.17" y1="1557.69" x2="2866.17" y2="1500.14" style="stroke:#606060;stroke-width:8.64"/>
	<line x1="2866.17" y1="1471.31" x2="2866.17" y2="1413.76" style="stroke:#606060;stroke-width:8.64"/>
	<line x1="2866.17" y1="1384.93" x2="2866.17" y2="1327.38" style="stroke:#606060;stroke-width:8.64"/>
	<line x1="2866.17" y1="1298.55" x2="2866.17" y2="1240.88" style="stroke:#606060;stroke-width:8.64"/>
	<line x1="2866.17" y1="1212.17" x2="2866.17" y2="1154.50" style="stroke:#606060;stroke-width:8.64"/>
	<line x1="2866.17" y1="1125.67" x2="2866.17" y2="1068.12" style="stroke:#606060;stroke-width:8.64"/>
	<line x1="2866.17" y1="1039.28" x2="2866.17" y2="981.74" style="stroke:#606060;stroke-width:8.64"/>
	<line x1="2866.17" y1="952.90" x2="2866.17" y2="895.36" style="stroke:#606060;stroke-width:8.64"/>
	<line x1="2866.17" y1="866.52" x2="2866.17" y2="808.98" style="stroke:#606060;stroke-width:8.64"/>
	<line x1="2866.17" y1="780.14" x2="2866.17" y2="722.60" style="stroke:#606060;stroke-width:8.64"/>
	<line x1="2866.17" y1="693.76" x2="2866.17" y2="636.22" style="stroke:#606060;stroke-width:8.64"/>
	<line x1="2844.15" y1="628.79" x2="2888.20" y2="628.79" style="stroke:#606060;stroke-width:8.64"/>
	<line x1="2844.15" y1="1644.07" x2="2888.20" y2="1644.07" style="stroke:#606060;stroke-width:8.64"/>
	<line x1="3018.88" y1="1966.33" x2="3018.88" y2="1908.78" style="stroke:#606060;stroke-width:8.64"/>
	<line x1="3018.88" y1="1879.94" x2="3018.88" y2="1822.40" style="stroke:#606060;stroke-width:8.64"/>
	<line x1="3018.88" y1="1793.56" x2="3018.88" y2="1735.90" style="stroke:#606060;stroke-width:8.64"/>
	<line x1="3018.88" y1="1707.18" x2="3018.88" y2="1649.52" style="stroke:#606060;stroke-width:8.64"/>
	<line x1="3018.88" y1="1620.68" x2="3018.88" y2="1563.14" style="stroke:#606060;stroke-width:8.64"/>
	<line x1="3018.88" y1="1534.30" x2="3018.88" y2="1476.75" style="stroke:#606060;stroke-width:8.64"/>
	<line x1="3018.88" y1="1447.92" x2="3018.88" y2="1390.37" style="stroke:#606060;stroke-width:8.64"/>
	<line x1="3018.88" y1="1361.54" x2="3018.88" y2="1303.99" style="stroke:#606060;stroke-width:8.64"/>
	<line x1="3018.88" y1="1275.16" x2="3018.88" y2="1217.61" style="stroke:#606060;stroke-width:8.64"/>
	<line x1="3018.88" y1="1188.78" x2="3018.88" y2="1131.23" style="stroke:#606060;stroke-width:8.64"/>
	<line x1="3018.88" y1="1102.40" x2="3018.88" y2="1044.85" style="stroke:#606060;stroke-width:8.64"/>
	<line x1="3018.88" y1="1016.02" x2="3018.88" y2="958.47" style="stroke:#606060;stroke-width:8.64"/>
	<line x1="3018.88" y1="929.64" x2="3018.88" y2="895.48" style="stroke:#606060;stroke-width:8.64"/>
	<line x1="2996.85" y1="895.48" x2="3040.91" y2="895.48" style="stroke:#606060;stroke-width:8.64"/>
	<line x1="2996.85" y1="1966.33" x2="3040.91" y2="1966.33" style="stroke:#606060;stroke-width:8.64"/>
	<line x1="3171.71" y1="1978.70" x2="3171.71" y2="1921.16" style="stroke:#606060;stroke-width:8.64"/>
	<line x1="3171.71" y1="1892.32" x2="3171.71" y2="1834.65" style="stroke:#606060;stroke-width:8.64"/>
	<line x1="3171.71" y1="1805.94" x2="3171.71" y2="1748.27" style="stroke:#606060;stroke-width:8.64"/>
	<line x1="3171.71" y1="1719.56" x2="3171.71" y2="1661.89" style="stroke:#606060;stroke-width:8.64"/>
	<line x1="3171.71" y1="1633.06" x2="3171.71" y2="1575.51" style="stroke:#606060;stroke-width:8.64"/>
	<line x1="3171.71" y1="1546.68" x2="3171.71" y2="1489.13" style="stroke:#606060;stroke-width:8.64"/>
	<line x1="3171.71" y1="1460.30" x2="3171.71" y2="1402.75" style="stroke:#606060;stroke-width:8.64"/>
	<line x1="3171.71" y1="1373.92" x2="3171.71" y2="1316.37" style="stroke:#606060;stroke-width:8.64"/>
	<line x1="3171.71" y1="1287.54" x2="3171.71" y2="1229.99" style="stroke:#606060;stroke-width:8.64"/>
	<line x1="3171.71" y1="1201.16" x2="3171.71" y2="1143.61" style="stroke:#606060;stroke-width:8.64"/>
	<line x1="3171.71" y1="1114.77" x2="3171.71" y2="1057.23" style="stroke:#606060;stroke-width:8.64"/>
	<line x1="3171.71" y1="1028.39" x2="3171.71" y2="1008.10" style="stroke:#606060;stroke-width:8.64"/>
	<line x1="3149.69" y1="1008.10" x2="3193.74" y2="1008.10" style="stroke:#606060;stroke-width:8.64"/>
	<line x1="3149.69" y1="1978.70" x2="3193.74" y2="1978.70" style="stroke:#606060;stroke-width:8.64"/>
	<line x1="3324.42" y1="1920.54" x2="3324.42" y2="1862.99" style="stroke:#606060;stroke-width:8.64"/>
	<line x1="3324.42" y1="1834.16" x2="3324.42" y2="1776.61" style="stroke:#606060;stroke-width:8.64"/>
	<line x1="3324.42" y1="1747.78" x2="3324.42" y2="1690.23" style="stroke:#606060;stroke-width:8.64"/>
	<line x1="3324.42" y1="1661.40" x2="3324.42" y2="1603.85" style="stroke:#606060;stroke-width:8.64"/>
	<line x1="3324.42" y1="1575.02" x2="3324.42" y2="1517.47" style="stroke:#606060;stroke-width:8.64"/>
	<line x1="3324.42" y1="1488.64" x2="3324.42" y2="1430.97" style="stroke:#606060;stroke-width:8.64"/>
	<line x1="3324.42" y1="1402.26" x2="3324.42" y2="1344.59" style="stroke:#606060;stroke-width:8.64"/>
	<line x1="3324.42" y1="1315.75" x2="3324.42" y2="1258.21" style="stroke:#606060;stroke-width:8.64"/>
	<line x1="3324.42" y1="1229.37" x2="3324.42" y2="1171.83" style="stroke:#606060;stroke-width:8.64"/>
	<line x1="3324.42" y1="1142.99" x2="3324.42" y2="1085.45" style="stroke:#606060;stroke-width:8.64"/>
	<line x1="3324.42" y1="1056.61" x2="3324.42" y2="999.06" style="stroke:#606060;stroke-width:8.64"/>
	<line x1="3324.42" y1="970.23" x2="3324.42" y2="912.68" style="stroke:#606060;stroke-width:8.64"/>
	<line x1="3324.42" y1="883.85" x2="3324.42" y2="848.46" style="stroke:#606060;stroke-width:8.64"/>
	<line x1="3302.39" y1="848.46" x2="3346.45" y2="848.46" style="stroke:#606060;stroke-width:8.64"/>
	<line x1="3302.39" y1="1920.54" x2="3346.45" y2="1920.54" style="stroke:#606060;stroke-width:8.64"/>
	<line x1="3477.25" y1="1763.12" x2="3477.25" y2="1705.58" style="stroke:#606060;stroke-width:8.64"/>
	<line x1="3477.25" y1="1676.74" x2="3477.25" y2="1619.20" style="stroke:#606060;stroke-width:8.64"/>
	<line x1="3477.25" y1="1590.36" x2="3477.25" y2="1532.82" style="stroke:#606060;stroke-width:8.64"/>
	<line x1="3477.25" y1="1503.98" x2="3477.25" y2="1446.44" style="stroke:#606060;stroke-width:8.64"/>
	<line x1="3477.25" y1="1417.60" x2="3477.25" y2="1359.93" style="stroke:#606060;stroke-width:8.64"/>
	<line x1="3477.25" y1="1331.22" x2="3477.25" y2="1273.55" style="stroke:#606060;stroke-width:8.64"/>
	<line x1="3477.25" y1="1244.72" x2="3477.25" y2="1187.17" style="stroke:#606060;stroke-width:8.64"/>
	<line x1="3477.25" y1="1158.34" x2="3477.25" y2="1100.79" style="stroke:#606060;stroke-width:8.64"/>
	<line x1="3477.25" y1="1071.96" x2="3477.25" y2="1014.41" style="stroke:#606060;stroke-width:8.64"/>
	<line x1="3477.25" y1="985.58" x2="3477.25" y2="928.03" style="stroke:#606060;stroke-width:8.64"/>
	<line x1="3477.25" y1="899.20" x2="3477.25" y2="841.65" style="stroke:#606060;stroke-width:8.64"/>
	<line x1="3477.25" y1="812.82" x2="3477.25" y2="755.27" style="stroke:#606060;stroke-width:8.64"/>
	<line x1="3477.25" y1="726.44" x2="3477.25" y2="668.89" style="stroke:#606060;stroke-width:8.64"/>
	<line x1="3477.25" y1="640.06" x2="3477.25" y2="634.61" style="stroke:#606060;stroke-width:8.64"/>
	<line x1="3455.22" y1="634.61" x2="3499.28" y2="634.61" style="stroke:#606060;stroke-width:8.64"/>
	<line x1="3455.22" y1="1763.12" x2="3499.28" y2="1763.12" style="stroke:#606060;stroke-width:8.64"/>
	<line x1="3629.96" y1="2015.58" x2="3629.96" y2="1958.03" style="stroke:#606060;stroke-width:8.64"/>
	<line x1="3629.96" y1="1929.20" x2="3629.96" y2="1871.65" style="stroke:#606060;stroke-width:8.64"/>
	<line x1="3629.96" y1="1842.82" x2="3629.96" y2="1785.27" style="stroke:#606060;stroke-width:8.64"/>
	<line x1="3629.96" y1="1756.44" x2="3629.96" y2="1698.89" style="stroke:#606060;stroke-width:8.64"/>
	<line x1="3629.96" y1="1670.06" x2="3629.96" y2="1612.51" style="stroke:#606060;stroke-width:8.64"/>
	<line x1="3629.96" y1="1583.68" x2="3629.96" y2="1526.01" style="stroke:#606060;stroke-width:8.64"/>
	<line x1="3629.96" y1="1497.30" x2="3629.96" y2="1439.63" style="stroke:#606060;stroke-width:8.64"/>
	<line x1="3629.96" y1="1410.79" x2="3629.96" y2="1353.25" style="stroke:#606060;stroke-width:8.64"/>
	<line x1="3629.96" y1="1324.41" x2="3629.96" y2="1266.87" style="stroke:#606060;stroke-width:8.64"/>
	<line x1="3629.96" y1="1238.03" x2="3629.96" y2="1180.49" style="stroke:#606060;stroke-width:8.64"/>
	<line x1="3629.96" y1="1151.65" x2="3629.96" y2="1094.11" style="stroke:#606060;stroke-width:8.64"/>
	<line x1="3629.96" y1="1065.27" x2="3629.96" y2="1007.73" style="stroke:#606060;stroke-width:8.64"/>
	<line x1="3629.96" y1="978.89" x2="3629.96" y2="966.02" style="stroke:#606060;stroke-width:8.64"/>
	<line x1="3607.93" y1="966.02" x2="3651.99" y2="966.02" style="stroke:#606060;stroke-width:8.64"/>
	<line x1="3607.93" y1="2015.58" x2="3651.99" y2="2015.58" style="stroke:#606060;stroke-width:8.64"/>
	<line x1="3782.67" y1="2236.48" x2="3782.67" y2="2178.93" style="stroke:#606060;stroke-width:8.64"/>
	<line x1="3782.67" y1="2150.10" x2="3782.67" y2="2092.43" style="stroke:#606060;stroke-width:8.64"/>
	<line x1="3782.67" y1="2063.72" x2="3782.67" y2="2006.05" style="stroke:#606060;stroke-width:8.64"/>
	<line x1="3782.67" y1="1977.22" x2="3782.67" y2="1919.67" style="stroke:#606060;stroke-width:8.64"/>
	<line x1="3782.67" y1="1890.84" x2="3782.67" y2="1833.29" style="stroke:#606060;stroke-width:8.64"/>
	<line x1="3782.67" y1="1804.46" x2="3782.67" y2="1746.91" style="stroke:#606060;stroke-width:8.64"/>
	<line x1="3782.67" y1="1718.07" x2="3782.67" y2="1660.53" style="stroke:#606060;stroke-width:8.64"/>
	<line x1="3782.67" y1="1631.69" x2="3782.67" y2="1574.15" style="stroke:#606060;stroke-width:8.64"/>
	<line x1="3782.67" y1="1545.31" x2="3782.67" y2="1487.77" style="stroke:#606060;stroke-width:8.64"/>
	<line x1="3782.67" y1="1458.93" x2="3782.67" y2="1401.39" style="stroke:#606060;stroke-width:8.64"/>
	<line x1="3782.67" y1="1372.55" x2="3782.67" y2="1315.01" style="stroke:#606060;stroke-width:8.64"/>
	<line x1="3782.67" y1="1286.17" x2="3782.67" y2="1228.63" style="stroke:#606060;stroke-width:8.64"/>
	<line x1="3782.67" y1="1199.79" x2="3782.67" y2="1177.89" style="stroke:#606060;stroke-width:8.64"/>
	<line x1="3760.64" y1="1177.89" x2="3804.69" y2="1177.89" style="stroke:#606060;stroke-width:8.64"/>
	<line x1="3760.64" y1="2236.48" x2="3804.69" y2="2236.48" style="stroke:#606060;stroke-width:8.64"/>
	<circle cx="422.11" cy="680.89" r="22.03" style="fill:none;stroke:#606060;stroke-width:8.64"/>
	<circle cx="574.82" cy="822.22" r="22.03" style="fill:none;stroke:#606060;stroke-width:8.64"/>
	<circle cx="727.53" cy="844.13" r="22.03" style="fill:none;stroke:#606060;stroke-width:8.64"/>
	<circle cx="880.36" cy="912.19" r="22.03" style="fill:none;stroke:#606060;stroke-width:8.64"/>
	<circle cx="1033.07" cy="720.25" r="22.03" style="fill:none;stroke:#606060;stroke-width:8.64"/>
	<circle cx="1185.90" cy="949.93" r="22.03" style="fill:none;stroke:#606060;stroke-width:8.64"/>
	<circle cx="1338.60" cy="819.87" r="22.03" style="fill:none;stroke:#606060;stroke-width:8.64"/>
	<circle cx="1491.31" cy="816.03" r="22.03" style="fill:none;stroke:#606060;stroke-width:8.64"/>
	<circle cx="1644.14" cy="898.33" r="22.03" style="fill:none;stroke:#606060;stroke-width:8.64"/>
	<circle cx="1796.85" cy="793.14" r="22.03" style="fill:none;stroke:#606060;stroke-width:8.64"/>
	<circle cx="1949.56" cy="965.53" r="22.03" style="fill:none;stroke:#606060;stroke-width:8.64"/>
	<circle cx="2102.39" cy="1019.24" r="22.03" style="fill:none;stroke:#606060;stroke-width:8.64"/>
	<circle cx="2255.10" cy="1323.80" r="22.03" style="fill:none;stroke:#606060;stroke-width:8.64"/>
	<circle cx="2407.80" cy="1413.89" r="22.03" style="fill:none;stroke:#606060;stroke-width:8.64"/>
	<circle cx="2560.64" cy="1264.39" r="22.03" style="fill:none;stroke:#606060;stroke-width:8.64"/>
	<circle cx="2713.34" cy="1536.16" r="22.03" style="fill:none;stroke:#606060;stroke-width:8.64"/>
	<circle cx="2866.17" cy="1136.56" r="22.03" style="fill:none;stroke:#606060;stroke-width:8.64"/>
	<circle cx="3018.88" cy="1430.97" r="22.03" style="fill:none;stroke:#606060;stroke-width:8.64"/>
	<circle cx="3171.59" cy="1493.46" r="22.03" style="fill:none;stroke:#606060;stroke-width:8.64"/>
	<circle cx="3324.42" cy="1384.56" r="22.03" style="fill:none;stroke:#606060;stroke-width:8.64"/>
	<circle cx="3477.13" cy="1198.93" r="22.03" style="fill:none;stroke:#606060;stroke-width:8.64"/>
	<circle cx="3629.84" cy="1490.86" r="22.03" style="fill:none;stroke:#606060;stroke-width:8.64"/>
	<circle cx="3782.67" cy="1707.18" r="22.03" style="fill:none;stroke:#606060;stroke-width:8.64"/>
	<path d=" M422.11 680.89 L574.82 822.22 L727.53 844.13 L880.36 912.19 L1033.07 720.25 L1185.90 949.93 L1338.60 819.87 L1491.31 816.03 L1644.14 898.33 L1796.85 793.14 L1949.56 965.53 L2102.39 1019.24 L2255.10 1323.80 L2407.80 1413.89 L2560.64 1264.39 L2713.34 1536.16 L2866.17 1136.56 L3018.88 1430.97 L3171.59 1493.46 L3324.42 1384.56 L3477.13 1198.93 L3629.84 1490.86 L3782.67 1707.18" stroke-linejoin="round" style="fill:none;stroke:#808080;stroke-width:8.64"/>
	<line x1="345.76" y1="2534.23" x2="345.76" y2="100.86" style="stroke:#000000;stroke-width:5.76"/>
	<line x1="345.76" y1="2470.87" x2="305.79" y2="2470.87" style="stroke:#000000;stroke-width:5.76"/>
	<text x="263.18" y="2470.87" style="font-family:'Helvetica';font-size:74.99px;fill:#000000" transform="rotate(-90 263.18,2470.87)" text-anchor="middle">-.06</text>
	<line x1="345.76" y1="1925.86" x2="305.79" y2="1925.86" style="stroke:#000000;stroke-width:5.76"/>
	<text x="263.18" y="1925.86" style="font-family:'Helvetica';font-size:74.99px;fill:#000000" transform="rotate(-90 263.18,1925.86)" text-anchor="middle">-.04</text>
	<line x1="345.76" y1="1380.85" x2="305.79" y2="1380.85" style="stroke:#000000;stroke-width:5.76"/>
	<text x="263.18" y="1380.85" style="font-family:'Helvetica';font-size:74.99px;fill:#000000" transform="rotate(-90 263.18,1380.85)" text-anchor="middle">-.02</text>
	<line x1="345.76" y1="835.83" x2="305.79" y2="835.83" style="stroke:#000000;stroke-width:5.76"/>
	<text x="263.18" y="835.83" style="font-family:'Helvetica';font-size:74.99px;fill:#000000" transform="rotate(-90 263.18,835.83)" text-anchor="middle">0</text>
	<line x1="345.76" y1="290.70" x2="305.79" y2="290.70" style="stroke:#000000;stroke-width:5.76"/>
	<text x="263.18" y="290.70" style="font-family:'Helvetica';font-size:74.99px;fill:#000000" transform="rotate(-90 263.18,290.70)" text-anchor="middle">.02</text>
	<text x="176.68" y="1317.48" style="font-family:'Helvetica';font-size:79.94px;fill:#000000" transform="rotate(-90 176.68,1317.48)" text-anchor="middle">Policy Dynamic Effects</text>
	<line x1="345.76" y1="2534.23" x2="3859.02" y2="2534.23" style="stroke:#000000;stroke-width:5.76"/>
	<line x1="422.11" y1="2534.23" x2="422.11" y2="2574.20" style="stroke:#000000;stroke-width:5.76"/>
	<text x="422.11" y="2646.69" style="font-family:'Helvetica';font-size:74.99px;fill:#000000" text-anchor="middle">pre_11</text>
	<line x1="574.94" y1="2534.23" x2="574.94" y2="2574.20" style="stroke:#000000;stroke-width:5.76"/>
	<text x="574.94" y="2646.69" style="font-family:'Helvetica';font-size:74.99px;fill:#000000" text-anchor="middle">pre_10</text>
	<line x1="727.65" y1="2534.23" x2="727.65" y2="2574.20" style="stroke:#000000;stroke-width:5.76"/>
	<text x="727.65" y="2646.69" style="font-family:'Helvetica';font-size:74.99px;fill:#000000" text-anchor="middle">pre_9</text>
	<line x1="880.36" y1="2534.23" x2="880.36" y2="2574.20" style="stroke:#000000;stroke-width:5.76"/>
	<text x="880.36" y="2646.69" style="font-family:'Helvetica';font-size:74.99px;fill:#000000" text-anchor="middle">pre_8</text>
	<line x1="1033.19" y1="2534.23" x2="1033.19" y2="2574.20" style="stroke:#000000;stroke-width:5.76"/>
	<text x="1033.19" y="2646.69" style="font-family:'Helvetica';font-size:74.99px;fill:#000000" text-anchor="middle">pre_7</text>
	<line x1="1185.90" y1="2534.23" x2="1185.90" y2="2574.20" style="stroke:#000000;stroke-width:5.76"/>
	<text x="1185.90" y="2646.69" style="font-family:'Helvetica';font-size:74.99px;fill:#000000" text-anchor="middle">pre_6</text>
	<line x1="1338.60" y1="2534.23" x2="1338.60" y2="2574.20" style="stroke:#000000;stroke-width:5.76"/>
	<text x="1338.60" y="2646.69" style="font-family:'Helvetica';font-size:74.99px;fill:#000000" text-anchor="middle">pre_5</text>
	<line x1="1491.44" y1="2534.23" x2="1491.44" y2="2574.20" style="stroke:#000000;stroke-width:5.76"/>
	<text x="1491.44" y="2646.69" style="font-family:'Helvetica';font-size:74.99px;fill:#000000" text-anchor="middle">pre_4</text>
	<line x1="1644.14" y1="2534.23" x2="1644.14" y2="2574.20" style="stroke:#000000;stroke-width:5.76"/>
	<text x="1644.14" y="2646.69" style="font-family:'Helvetica';font-size:74.99px;fill:#000000" text-anchor="middle">pre_3</text>
	<line x1="1796.97" y1="2534.23" x2="1796.97" y2="2574.20" style="stroke:#000000;stroke-width:5.76"/>
	<text x="1796.97" y="2646.69" style="font-family:'Helvetica';font-size:74.99px;fill:#000000" text-anchor="middle">pre_2</text>
	<line x1="1949.68" y1="2534.23" x2="1949.68" y2="2574.20" style="stroke:#000000;stroke-width:5.76"/>
	<text x="1949.68" y="2646.69" style="font-family:'Helvetica';font-size:74.99px;fill:#000000" text-anchor="middle">current</text>
	<line x1="2102.39" y1="2534.23" x2="2102.39" y2="2574.20" style="stroke:#000000;stroke-width:5.76"/>
	<text x="2102.39" y="2646.69" style="font-family:'Helvetica';font-size:74.99px;fill:#000000" text-anchor="middle">post_1</text>
	<line x1="2255.22" y1="2534.23" x2="2255.22" y2="2574.20" style="stroke:#000000;stroke-width:5.76"/>
	<text x="2255.22" y="2646.69" style="font-family:'Helvetica';font-size:74.99px;fill:#000000" text-anchor="middle">post_2</text>
	<line x1="2407.93" y1="2534.23" x2="2407.93" y2="2574.20" style="stroke:#000000;stroke-width:5.76"/>
	<text x="2407.93" y="2646.69" style="font-family:'Helvetica';font-size:74.99px;fill:#000000" text-anchor="middle">post_3</text>
	<line x1="2560.64" y1="2534.23" x2="2560.64" y2="2574.20" style="stroke:#000000;stroke-width:5.76"/>
	<text x="2560.64" y="2646.69" style="font-family:'Helvetica';font-size:74.99px;fill:#000000" text-anchor="middle">post_4</text>
	<line x1="2713.47" y1="2534.23" x2="2713.47" y2="2574.20" style="stroke:#000000;stroke-width:5.76"/>
	<text x="2713.47" y="2646.69" style="font-family:'Helvetica';font-size:74.99px;fill:#000000" text-anchor="middle">post_5</text>
	<line x1="2866.17" y1="2534.23" x2="2866.17" y2="2574.20" style="stroke:#000000;stroke-width:5.76"/>
	<text x="2866.17" y="2646.69" style="font-family:'Helvetica';font-size:74.99px;fill:#000000" text-anchor="middle">post_6</text>
	<line x1="3018.88" y1="2534.23" x2="3018.88" y2="2574.20" style="stroke:#000000;stroke-width:5.76"/>
	<text x="3018.88" y="2646.69" style="font-family:'Helvetica';font-size:74.99px;fill:#000000" text-anchor="middle">post_7</text>
	<line x1="3171.71" y1="2534.23" x2="3171.71" y2="2574.20" style="stroke:#000000;stroke-width:5.76"/>
	<text x="3171.71" y="2646.69" style="font-family:'Helvetica';font-size:74.99px;fill:#000000" text-anchor="middle">post_8</text>
	<line x1="3324.42" y1="2534.23" x2="3324.42" y2="2574.20" style="stroke:#000000;stroke-width:5.76"/>
	<text x="3324.42" y="2646.69" style="font-family:'Helvetica';font-size:74.99px;fill:#000000" text-anchor="middle">post_9</text>
	<line x1="3477.25" y1="2534.23" x2="3477.25" y2="2574.20" style="stroke:#000000;stroke-width:5.76"/>
	<text x="3477.25" y="2646.69" style="font-family:'Helvetica';font-size:74.99px;fill:#000000" text-anchor="middle">post_10</text>
	<line x1="3629.96" y1="2534.23" x2="3629.96" y2="2574.20" style="stroke:#000000;stroke-width:5.76"/>
	<text x="3629.96" y="2646.69" style="font-family:'Helvetica';font-size:74.99px;fill:#000000" text-anchor="middle">post_11</text>
	<line x1="3782.67" y1="2534.23" x2="3782.67" y2="2574.20" style="stroke:#000000;stroke-width:5.76"/>
	<text x="3782.67" y="2646.69" style="font-family:'Helvetica';font-size:74.99px;fill:#000000" text-anchor="middle">post_12</text>
	<text x="2102.39" y="2735.17" style="font-family:'Helvetica';font-size:79.94px;fill:#000000" text-anchor="middle">Code_ratio</text>
</svg>
