<?xml version="1.0" encoding="UTF-8" standalone="no"?>
<!-- This is a Stata 18.0 generated SVG file (http://www.stata.com) -->

<svg version="1.1" width="5.500in" height="4.000in" viewBox="0 0 3960 2880" xmlns="http://www.w3.org/2000/svg" xmlns:xlink="http://www.w3.org/1999/xlink">
	<desc>Stata Graph - Graph</desc>
	<rect x="0" y="0" width="3960" height="2880" style="fill:#FFFFFF;stroke:none"/>
	<rect x="0.00" y="0.00" width="3959.88" height="2880.00" style="fill:#FFFFFF"/>
	<rect x="2.88" y="2.88" width="3954.12" height="2874.24" style="fill:none;stroke:#FFFFFF;stroke-width:5.76"/>
	<rect x="348.64" y="103.74" width="3507.50" height="2427.61" style="fill:none;stroke:#000000;stroke-width:5.76"/>
	<line x1="880.36" y1="2534.23" x2="880.36" y2="2476.69" style="stroke:#6E8E84;stroke-width:4.32"/>
	<line x1="880.36" y1="2447.85" x2="880.36" y2="2390.31" style="stroke:#6E8E84;stroke-width:4.32"/>
	<line x1="880.36" y1="2361.47" x2="880.36" y2="2303.93" style="stroke:#6E8E84;stroke-width:4.32"/>
	<line x1="880.36" y1="2275.09" x2="880.36" y2="2217.55" style="stroke:#6E8E84;stroke-width:4.32"/>
	<line x1="880.36" y1="2188.71" x2="880.36" y2="2131.17" style="stroke:#6E8E84;stroke-width:4.32"/>
	<line x1="880.36" y1="2102.33" x2="880.36" y2="2044.66" style="stroke:#6E8E84;stroke-width:4.32"/>
	<line x1="880.36" y1="2015.95" x2="880.36" y2="1958.28" style="stroke:#6E8E84;stroke-width:4.32"/>
	<line x1="880.36" y1="1929.57" x2="880.36" y2="1871.90" style="stroke:#6E8E84;stroke-width:4.32"/>
	<line x1="880.36" y1="1843.07" x2="880.36" y2="1785.52" style="stroke:#6E8E84;stroke-width:4.32"/>
	<line x1="880.36" y1="1756.69" x2="880.36" y2="1699.14" style="stroke:#6E8E84;stroke-width:4.32"/>
	<line x1="880.36" y1="1670.31" x2="880.36" y2="1612.76" style="stroke:#6E8E84;stroke-width:4.32"/>
	<line x1="880.36" y1="1583.93" x2="880.36" y2="1526.38" style="stroke:#6E8E84;stroke-width:4.32"/>
	<line x1="880.36" y1="1497.55" x2="880.36" y2="1440.00" style="stroke:#6E8E84;stroke-width:4.32"/>
	<line x1="880.36" y1="1411.17" x2="880.36" y2="1353.62" style="stroke:#6E8E84;stroke-width:4.32"/>
	<line x1="880.36" y1="1324.79" x2="880.36" y2="1267.24" style="stroke:#6E8E84;stroke-width:4.32"/>
	<line x1="880.36" y1="1238.40" x2="880.36" y2="1180.86" style="stroke:#6E8E84;stroke-width:4.32"/>
	<line x1="880.36" y1="1152.02" x2="880.36" y2="1094.36" style="stroke:#6E8E84;stroke-width:4.32"/>
	<line x1="880.36" y1="1065.64" x2="880.36" y2="1007.98" style="stroke:#6E8E84;stroke-width:4.32"/>
	<line x1="880.36" y1="979.14" x2="880.36" y2="921.60" style="stroke:#6E8E84;stroke-width:4.32"/>
	<line x1="880.36" y1="892.76" x2="880.36" y2="835.21" style="stroke:#6E8E84;stroke-width:4.32"/>
	<line x1="880.36" y1="806.38" x2="880.36" y2="748.83" style="stroke:#6E8E84;stroke-width:4.32"/>
	<line x1="880.36" y1="720.00" x2="880.36" y2="662.45" style="stroke:#6E8E84;stroke-width:4.32"/>
	<line x1="880.36" y1="633.62" x2="880.36" y2="576.07" style="stroke:#6E8E84;stroke-width:4.32"/>
	<line x1="880.36" y1="547.24" x2="880.36" y2="489.69" style="stroke:#6E8E84;stroke-width:4.32"/>
	<line x1="880.36" y1="460.86" x2="880.36" y2="403.31" style="stroke:#6E8E84;stroke-width:4.32"/>
	<line x1="880.36" y1="374.48" x2="880.36" y2="316.93" style="stroke:#6E8E84;stroke-width:4.32"/>
	<line x1="880.36" y1="288.10" x2="880.36" y2="230.55" style="stroke:#6E8E84;stroke-width:4.32"/>
	<line x1="880.36" y1="201.72" x2="880.36" y2="144.05" style="stroke:#6E8E84;stroke-width:4.32"/>
	<line x1="880.36" y1="115.34" x2="880.36" y2="100.86" style="stroke:#6E8E84;stroke-width:4.32"/>
	<line x1="345.76" y1="1735.65" x2="3859.02" y2="1735.65" style="stroke:#658397;stroke-width:8.64"/>
	<line x1="422.11" y1="2117.06" x2="422.11" y2="2059.51" style="stroke:#606060;stroke-width:8.64"/>
	<line x1="422.11" y1="2030.68" x2="422.11" y2="1973.13" style="stroke:#606060;stroke-width:8.64"/>
	<line x1="422.11" y1="1944.30" x2="422.11" y2="1886.63" style="stroke:#606060;stroke-width:8.64"/>
	<line x1="422.11" y1="1857.92" x2="422.11" y2="1800.25" style="stroke:#606060;stroke-width:8.64"/>
	<line x1="422.11" y1="1771.41" x2="422.11" y2="1713.87" style="stroke:#606060;stroke-width:8.64"/>
	<line x1="422.11" y1="1685.03" x2="422.11" y2="1627.49" style="stroke:#606060;stroke-width:8.64"/>
	<line x1="422.11" y1="1598.65" x2="422.11" y2="1541.11" style="stroke:#606060;stroke-width:8.64"/>
	<line x1="422.11" y1="1512.27" x2="422.11" y2="1454.73" style="stroke:#606060;stroke-width:8.64"/>
	<line x1="422.11" y1="1425.89" x2="422.11" y2="1368.35" style="stroke:#606060;stroke-width:8.64"/>
	<line x1="422.11" y1="1339.51" x2="422.11" y2="1281.97" style="stroke:#606060;stroke-width:8.64"/>
	<line x1="422.11" y1="1253.13" x2="422.11" y2="1195.59" style="stroke:#606060;stroke-width:8.64"/>
	<line x1="422.11" y1="1166.75" x2="422.11" y2="1109.21" style="stroke:#606060;stroke-width:8.64"/>
	<line x1="422.11" y1="1080.37" x2="422.11" y2="1031.86" style="stroke:#606060;stroke-width:8.64"/>
	<line x1="400.08" y1="1031.86" x2="444.14" y2="1031.86" style="stroke:#606060;stroke-width:8.64"/>
	<line x1="400.08" y1="2117.06" x2="444.14" y2="2117.06" style="stroke:#606060;stroke-width:8.64"/>
	<line x1="574.94" y1="2166.19" x2="574.94" y2="2108.64" style="stroke:#606060;stroke-width:8.64"/>
	<line x1="574.94" y1="2079.81" x2="574.94" y2="2022.26" style="stroke:#606060;stroke-width:8.64"/>
	<line x1="574.94" y1="1993.43" x2="574.94" y2="1935.88" style="stroke:#606060;stroke-width:8.64"/>
	<line x1="574.94" y1="1907.05" x2="574.94" y2="1849.50" style="stroke:#606060;stroke-width:8.64"/>
	<line x1="574.94" y1="1820.67" x2="574.94" y2="1763.12" style="stroke:#606060;stroke-width:8.64"/>
	<line x1="574.94" y1="1734.29" x2="574.94" y2="1676.62" style="stroke:#606060;stroke-width:8.64"/>
	<line x1="574.94" y1="1647.91" x2="574.94" y2="1590.24" style="stroke:#606060;stroke-width:8.64"/>
	<line x1="574.94" y1="1561.40" x2="574.94" y2="1503.86" style="stroke:#606060;stroke-width:8.64"/>
	<line x1="574.94" y1="1475.02" x2="574.94" y2="1417.48" style="stroke:#606060;stroke-width:8.64"/>
	<line x1="574.94" y1="1388.64" x2="574.94" y2="1331.10" style="stroke:#606060;stroke-width:8.64"/>
	<line x1="574.94" y1="1302.26" x2="574.94" y2="1244.72" style="stroke:#606060;stroke-width:8.64"/>
	<line x1="574.94" y1="1215.88" x2="574.94" y2="1158.34" style="stroke:#606060;stroke-width:8.64"/>
	<line x1="574.94" y1="1129.50" x2="574.94" y2="1071.96" style="stroke:#606060;stroke-width:8.64"/>
	<line x1="552.92" y1="1046.59" x2="596.97" y2="1046.59" style="stroke:#606060;stroke-width:8.64"/>
	<line x1="552.92" y1="2166.19" x2="596.97" y2="2166.19" style="stroke:#606060;stroke-width:8.64"/>
	<line x1="727.65" y1="2108.64" x2="727.65" y2="2051.10" style="stroke:#606060;stroke-width:8.64"/>
	<line x1="727.65" y1="2022.26" x2="727.65" y2="1964.72" style="stroke:#606060;stroke-width:8.64"/>
	<line x1="727.65" y1="1935.88" x2="727.65" y2="1878.21" style="stroke:#606060;stroke-width:8.64"/>
	<line x1="727.65" y1="1849.50" x2="727.65" y2="1791.83" style="stroke:#606060;stroke-width:8.64"/>
	<line x1="727.65" y1="1763.12" x2="727.65" y2="1705.45" style="stroke:#606060;stroke-width:8.64"/>
	<line x1="727.65" y1="1676.62" x2="727.65" y2="1619.07" style="stroke:#606060;stroke-width:8.64"/>
	<line x1="727.65" y1="1590.24" x2="727.65" y2="1532.69" style="stroke:#606060;stroke-width:8.64"/>
	<line x1="727.65" y1="1503.86" x2="727.65" y2="1446.31" style="stroke:#606060;stroke-width:8.64"/>
	<line x1="727.65" y1="1417.48" x2="727.65" y2="1359.93" style="stroke:#606060;stroke-width:8.64"/>
	<line x1="727.65" y1="1331.10" x2="727.65" y2="1273.55" style="stroke:#606060;stroke-width:8.64"/>
	<line x1="727.65" y1="1244.72" x2="727.65" y2="1187.17" style="stroke:#606060;stroke-width:8.64"/>
	<line x1="727.65" y1="1158.34" x2="727.65" y2="1100.79" style="stroke:#606060;stroke-width:8.64"/>
	<line x1="727.65" y1="1071.96" x2="727.65" y2="1051.78" style="stroke:#606060;stroke-width:8.64"/>
	<line x1="705.62" y1="1051.78" x2="749.68" y2="1051.78" style="stroke:#606060;stroke-width:8.64"/>
	<line x1="705.62" y1="2108.64" x2="749.68" y2="2108.64" style="stroke:#606060;stroke-width:8.64"/>
	<line x1="880.36" y1="2276.58" x2="880.36" y2="2219.03" style="stroke:#606060;stroke-width:8.64"/>
	<line x1="880.36" y1="2190.20" x2="880.36" y2="2132.65" style="stroke:#606060;stroke-width:8.64"/>
	<line x1="880.36" y1="2103.82" x2="880.36" y2="2046.27" style="stroke:#606060;stroke-width:8.64"/>
	<line x1="880.36" y1="2017.44" x2="880.36" y2="1959.89" style="stroke:#606060;stroke-width:8.64"/>
	<line x1="880.36" y1="1931.06" x2="880.36" y2="1873.51" style="stroke:#606060;stroke-width:8.64"/>
	<line x1="880.36" y1="1844.68" x2="880.36" y2="1787.01" style="stroke:#606060;stroke-width:8.64"/>
	<line x1="880.36" y1="1758.29" x2="880.36" y2="1700.63" style="stroke:#606060;stroke-width:8.64"/>
	<line x1="880.36" y1="1671.91" x2="880.36" y2="1614.25" style="stroke:#606060;stroke-width:8.64"/>
	<line x1="880.36" y1="1585.41" x2="880.36" y2="1527.87" style="stroke:#606060;stroke-width:8.64"/>
	<line x1="880.36" y1="1499.03" x2="880.36" y2="1441.49" style="stroke:#606060;stroke-width:8.64"/>
	<line x1="880.36" y1="1412.65" x2="880.36" y2="1355.10" style="stroke:#606060;stroke-width:8.64"/>
	<line x1="880.36" y1="1326.27" x2="880.36" y2="1268.72" style="stroke:#606060;stroke-width:8.64"/>
	<line x1="858.33" y1="1248.06" x2="902.39" y2="1248.06" style="stroke:#606060;stroke-width:8.64"/>
	<line x1="858.33" y1="2276.58" x2="902.39" y2="2276.58" style="stroke:#606060;stroke-width:8.64"/>
	<line x1="1033.19" y1="2309.62" x2="1033.19" y2="2252.07" style="stroke:#606060;stroke-width:8.64"/>
	<line x1="1033.19" y1="2223.24" x2="1033.19" y2="2165.69" style="stroke:#606060;stroke-width:8.64"/>
	<line x1="1033.19" y1="2136.86" x2="1033.19" y2="2079.31" style="stroke:#606060;stroke-width:8.64"/>
	<line x1="1033.19" y1="2050.48" x2="1033.19" y2="1992.93" style="stroke:#606060;stroke-width:8.64"/>
	<line x1="1033.19" y1="1964.10" x2="1033.19" y2="1906.43" style="stroke:#606060;stroke-width:8.64"/>
	<line x1="1033.19" y1="1877.72" x2="1033.19" y2="1820.05" style="stroke:#606060;stroke-width:8.64"/>
	<line x1="1033.19" y1="1791.21" x2="1033.19" y2="1733.67" style="stroke:#606060;stroke-width:8.64"/>
	<line x1="1033.19" y1="1704.83" x2="1033.19" y2="1647.29" style="stroke:#606060;stroke-width:8.64"/>
	<line x1="1033.19" y1="1618.45" x2="1033.19" y2="1560.91" style="stroke:#606060;stroke-width:8.64"/>
	<line x1="1033.19" y1="1532.07" x2="1033.19" y2="1474.53" style="stroke:#606060;stroke-width:8.64"/>
	<line x1="1033.19" y1="1445.69" x2="1033.19" y2="1388.15" style="stroke:#606060;stroke-width:8.64"/>
	<line x1="1033.19" y1="1359.31" x2="1033.19" y2="1301.77" style="stroke:#606060;stroke-width:8.64"/>
	<line x1="1033.19" y1="1272.93" x2="1033.19" y2="1243.48" style="stroke:#606060;stroke-width:8.64"/>
	<line x1="1011.16" y1="1243.48" x2="1055.22" y2="1243.48" style="stroke:#606060;stroke-width:8.64"/>
	<line x1="1011.16" y1="2309.62" x2="1055.22" y2="2309.62" style="stroke:#606060;stroke-width:8.64"/>
	<line x1="1185.90" y1="2194.03" x2="1185.90" y2="2136.49" style="stroke:#606060;stroke-width:8.64"/>
	<line x1="1185.90" y1="2107.65" x2="1185.90" y2="2050.11" style="stroke:#606060;stroke-width:8.64"/>
	<line x1="1185.90" y1="2021.27" x2="1185.90" y2="1963.73" style="stroke:#606060;stroke-width:8.64"/>
	<line x1="1185.90" y1="1934.89" x2="1185.90" y2="1877.35" style="stroke:#606060;stroke-width:8.64"/>
	<line x1="1185.90" y1="1848.51" x2="1185.90" y2="1790.97" style="stroke:#606060;stroke-width:8.64"/>
	<line x1="1185.90" y1="1762.13" x2="1185.90" y2="1704.46" style="stroke:#606060;stroke-width:8.64"/>
	<line x1="1185.90" y1="1675.75" x2="1185.90" y2="1618.08" style="stroke:#606060;stroke-width:8.64"/>
	<line x1="1185.90" y1="1589.25" x2="1185.90" y2="1531.70" style="stroke:#606060;stroke-width:8.64"/>
	<line x1="1185.90" y1="1502.87" x2="1185.90" y2="1445.32" style="stroke:#606060;stroke-width:8.64"/>
	<line x1="1185.90" y1="1416.49" x2="1185.90" y2="1358.94" style="stroke:#606060;stroke-width:8.64"/>
	<line x1="1185.90" y1="1330.11" x2="1185.90" y2="1272.56" style="stroke:#606060;stroke-width:8.64"/>
	<line x1="1185.90" y1="1243.73" x2="1185.90" y2="1199.55" style="stroke:#606060;stroke-width:8.64"/>
	<line x1="1163.87" y1="1199.55" x2="1207.92" y2="1199.55" style="stroke:#606060;stroke-width:8.64"/>
	<line x1="1163.87" y1="2194.03" x2="1207.92" y2="2194.03" style="stroke:#606060;stroke-width:8.64"/>
	<line x1="1338.60" y1="2074.36" x2="1338.60" y2="2016.82" style="stroke:#606060;stroke-width:8.64"/>
	<line x1="1338.60" y1="1987.98" x2="1338.60" y2="1930.44" style="stroke:#606060;stroke-width:8.64"/>
	<line x1="1338.60" y1="1901.60" x2="1338.60" y2="1844.06" style="stroke:#606060;stroke-width:8.64"/>
	<line x1="1338.60" y1="1815.22" x2="1338.60" y2="1757.68" style="stroke:#606060;stroke-width:8.64"/>
	<line x1="1338.60" y1="1728.84" x2="1338.60" y2="1671.30" style="stroke:#606060;stroke-width:8.64"/>
	<line x1="1338.60" y1="1642.46" x2="1338.60" y2="1584.92" style="stroke:#606060;stroke-width:8.64"/>
	<line x1="1338.60" y1="1556.08" x2="1338.60" y2="1498.41" style="stroke:#606060;stroke-width:8.64"/>
	<line x1="1338.60" y1="1469.70" x2="1338.60" y2="1412.03" style="stroke:#606060;stroke-width:8.64"/>
	<line x1="1338.60" y1="1383.20" x2="1338.60" y2="1325.65" style="stroke:#606060;stroke-width:8.64"/>
	<line x1="1338.60" y1="1296.82" x2="1338.60" y2="1239.27" style="stroke:#606060;stroke-width:8.64"/>
	<line x1="1338.60" y1="1210.44" x2="1338.60" y2="1152.89" style="stroke:#606060;stroke-width:8.64"/>
	<line x1="1338.60" y1="1124.06" x2="1338.60" y2="1066.51" style="stroke:#606060;stroke-width:8.64"/>
	<line x1="1338.60" y1="1037.68" x2="1338.60" y2="1017.01" style="stroke:#606060;stroke-width:8.64"/>
	<line x1="1316.58" y1="1017.01" x2="1360.63" y2="1017.01" style="stroke:#606060;stroke-width:8.64"/>
	<line x1="1316.58" y1="2074.36" x2="1360.63" y2="2074.36" style="stroke:#606060;stroke-width:8.64"/>
	<line x1="1491.44" y1="2076.09" x2="1491.44" y2="2018.55" style="stroke:#606060;stroke-width:8.64"/>
	<line x1="1491.44" y1="1989.71" x2="1491.44" y2="1932.17" style="stroke:#606060;stroke-width:8.64"/>
	<line x1="1491.44" y1="1903.33" x2="1491.44" y2="1845.79" style="stroke:#606060;stroke-width:8.64"/>
	<line x1="1491.44" y1="1816.95" x2="1491.44" y2="1759.28" style="stroke:#606060;stroke-width:8.64"/>
	<line x1="1491.44" y1="1730.57" x2="1491.44" y2="1672.90" style="stroke:#606060;stroke-width:8.64"/>
	<line x1="1491.44" y1="1644.19" x2="1491.44" y2="1586.52" style="stroke:#606060;stroke-width:8.64"/>
	<line x1="1491.44" y1="1557.69" x2="1491.44" y2="1500.14" style="stroke:#606060;stroke-width:8.64"/>
	<line x1="1491.44" y1="1471.31" x2="1491.44" y2="1413.76" style="stroke:#606060;stroke-width:8.64"/>
	<line x1="1491.44" y1="1384.93" x2="1491.44" y2="1327.38" style="stroke:#606060;stroke-width:8.64"/>
	<line x1="1491.44" y1="1298.55" x2="1491.44" y2="1241.00" style="stroke:#606060;stroke-width:8.64"/>
	<line x1="1491.44" y1="1212.17" x2="1491.44" y2="1154.62" style="stroke:#606060;stroke-width:8.64"/>
	<line x1="1491.44" y1="1125.79" x2="1491.44" y2="1068.24" style="stroke:#606060;stroke-width:8.64"/>
	<line x1="1469.41" y1="1055.13" x2="1513.46" y2="1055.13" style="stroke:#606060;stroke-width:8.64"/>
	<line x1="1469.41" y1="2076.09" x2="1513.46" y2="2076.09" style="stroke:#606060;stroke-width:8.64"/>
	<line x1="1644.14" y1="2459.24" x2="1644.14" y2="2401.69" style="stroke:#606060;stroke-width:8.64"/>
	<line x1="1644.14" y1="2372.86" x2="1644.14" y2="2315.31" style="stroke:#606060;stroke-width:8.64"/>
	<line x1="1644.14" y1="2286.48" x2="1644.14" y2="2228.93" style="stroke:#606060;stroke-width:8.64"/>
	<line x1="1644.14" y1="2200.10" x2="1644.14" y2="2142.55" style="stroke:#606060;stroke-width:8.64"/>
	<line x1="1644.14" y1="2113.72" x2="1644.14" y2="2056.17" style="stroke:#606060;stroke-width:8.64"/>
	<line x1="1644.14" y1="2027.34" x2="1644.14" y2="1969.67" style="stroke:#606060;stroke-width:8.64"/>
	<line x1="1644.14" y1="1940.96" x2="1644.14" y2="1883.29" style="stroke:#606060;stroke-width:8.64"/>
	<line x1="1644.14" y1="1854.45" x2="1644.14" y2="1796.91" style="stroke:#606060;stroke-width:8.64"/>
	<line x1="1644.14" y1="1768.07" x2="1644.14" y2="1710.53" style="stroke:#606060;stroke-width:8.64"/>
	<line x1="1644.14" y1="1681.69" x2="1644.14" y2="1624.15" style="stroke:#606060;stroke-width:8.64"/>
	<line x1="1644.14" y1="1595.31" x2="1644.14" y2="1537.77" style="stroke:#606060;stroke-width:8.64"/>
	<line x1="1644.14" y1="1508.93" x2="1644.14" y2="1451.39" style="stroke:#606060;stroke-width:8.64"/>
	<line x1="1644.14" y1="1422.55" x2="1644.14" y2="1365.01" style="stroke:#606060;stroke-width:8.64"/>
	<line x1="1644.14" y1="1336.17" x2="1644.14" y2="1324.79" style="stroke:#606060;stroke-width:8.64"/>
	<line x1="1622.12" y1="1324.79" x2="1666.17" y2="1324.79" style="stroke:#606060;stroke-width:8.64"/>
	<line x1="1622.12" y1="2459.24" x2="1666.17" y2="2459.24" style="stroke:#606060;stroke-width:8.64"/>
	<line x1="1796.97" y1="2273.23" x2="1796.97" y2="2215.69" style="stroke:#606060;stroke-width:8.64"/>
	<line x1="1796.97" y1="2186.85" x2="1796.97" y2="2129.31" style="stroke:#606060;stroke-width:8.64"/>
	<line x1="1796.97" y1="2100.47" x2="1796.97" y2="2042.93" style="stroke:#606060;stroke-width:8.64"/>
	<line x1="1796.97" y1="2014.09" x2="1796.97" y2="1956.55" style="stroke:#606060;stroke-width:8.64"/>
	<line x1="1796.97" y1="1927.71" x2="1796.97" y2="1870.17" style="stroke:#606060;stroke-width:8.64"/>
	<line x1="1796.97" y1="1841.33" x2="1796.97" y2="1783.66" style="stroke:#606060;stroke-width:8.64"/>
	<line x1="1796.97" y1="1754.95" x2="1796.97" y2="1697.28" style="stroke:#606060;stroke-width:8.64"/>
	<line x1="1796.97" y1="1668.45" x2="1796.97" y2="1610.90" style="stroke:#606060;stroke-width:8.64"/>
	<line x1="1796.97" y1="1582.07" x2="1796.97" y2="1524.52" style="stroke:#606060;stroke-width:8.64"/>
	<line x1="1796.97" y1="1495.69" x2="1796.97" y2="1438.14" style="stroke:#606060;stroke-width:8.64"/>
	<line x1="1796.97" y1="1409.31" x2="1796.97" y2="1351.76" style="stroke:#606060;stroke-width:8.64"/>
	<line x1="1796.97" y1="1322.93" x2="1796.97" y2="1265.38" style="stroke:#606060;stroke-width:8.64"/>
	<line x1="1796.97" y1="1236.55" x2="1796.97" y2="1225.04" style="stroke:#606060;stroke-width:8.64"/>
	<line x1="1774.95" y1="1225.04" x2="1819.00" y2="1225.04" style="stroke:#606060;stroke-width:8.64"/>
	<line x1="1774.95" y1="2273.23" x2="1819.00" y2="2273.23" style="stroke:#606060;stroke-width:8.64"/>
	<line x1="1949.68" y1="2189.45" x2="1949.68" y2="2131.91" style="stroke:#606060;stroke-width:8.64"/>
	<line x1="1949.68" y1="2103.07" x2="1949.68" y2="2045.53" style="stroke:#606060;stroke-width:8.64"/>
	<line x1="1949.68" y1="2016.69" x2="1949.68" y2="1959.15" style="stroke:#606060;stroke-width:8.64"/>
	<line x1="1949.68" y1="1930.31" x2="1949.68" y2="1872.77" style="stroke:#606060;stroke-width:8.64"/>
	<line x1="1949.68" y1="1843.93" x2="1949.68" y2="1786.39" style="stroke:#606060;stroke-width:8.64"/>
	<line x1="1949.68" y1="1757.55" x2="1949.68" y2="1699.88" style="stroke:#606060;stroke-width:8.64"/>
	<line x1="1949.68" y1="1671.17" x2="1949.68" y2="1613.50" style="stroke:#606060;stroke-width:8.64"/>
	<line x1="1949.68" y1="1584.79" x2="1949.68" y2="1527.12" style="stroke:#606060;stroke-width:8.64"/>
	<line x1="1949.68" y1="1498.29" x2="1949.68" y2="1440.74" style="stroke:#606060;stroke-width:8.64"/>
	<line x1="1949.68" y1="1411.91" x2="1949.68" y2="1354.36" style="stroke:#606060;stroke-width:8.64"/>
	<line x1="1949.68" y1="1325.53" x2="1949.68" y2="1267.98" style="stroke:#606060;stroke-width:8.64"/>
	<line x1="1949.68" y1="1239.15" x2="1949.68" y2="1181.60" style="stroke:#606060;stroke-width:8.64"/>
	<line x1="1949.68" y1="1152.77" x2="1949.68" y2="1141.75" style="stroke:#606060;stroke-width:8.64"/>
	<line x1="1927.65" y1="1141.75" x2="1971.71" y2="1141.75" style="stroke:#606060;stroke-width:8.64"/>
	<line x1="1927.65" y1="2189.45" x2="1971.71" y2="2189.45" style="stroke:#606060;stroke-width:8.64"/>
	<line x1="2102.39" y1="1800.87" x2="2102.39" y2="1743.32" style="stroke:#606060;stroke-width:8.64"/>
	<line x1="2102.39" y1="1714.49" x2="2102.39" y2="1656.82" style="stroke:#606060;stroke-width:8.64"/>
	<line x1="2102.39" y1="1628.11" x2="2102.39" y2="1570.44" style="stroke:#606060;stroke-width:8.64"/>
	<line x1="2102.39" y1="1541.60" x2="2102.39" y2="1484.06" style="stroke:#606060;stroke-width:8.64"/>
	<line x1="2102.39" y1="1455.22" x2="2102.39" y2="1397.68" style="stroke:#606060;stroke-width:8.64"/>
	<line x1="2102.39" y1="1368.84" x2="2102.39" y2="1311.30" style="stroke:#606060;stroke-width:8.64"/>
	<line x1="2102.39" y1="1282.46" x2="2102.39" y2="1224.92" style="stroke:#606060;stroke-width:8.64"/>
	<line x1="2102.39" y1="1196.08" x2="2102.39" y2="1138.54" style="stroke:#606060;stroke-width:8.64"/>
	<line x1="2102.39" y1="1109.70" x2="2102.39" y2="1052.16" style="stroke:#606060;stroke-width:8.64"/>
	<line x1="2102.39" y1="1023.32" x2="2102.39" y2="965.78" style="stroke:#606060;stroke-width:8.64"/>
	<line x1="2102.39" y1="936.94" x2="2102.39" y2="879.39" style="stroke:#606060;stroke-width:8.64"/>
	<line x1="2102.39" y1="850.56" x2="2102.39" y2="793.01" style="stroke:#606060;stroke-width:8.64"/>
	<line x1="2102.39" y1="764.18" x2="2102.39" y2="706.51" style="stroke:#606060;stroke-width:8.64"/>
	<line x1="2102.39" y1="677.80" x2="2102.39" y2="656.14" style="stroke:#606060;stroke-width:8.64"/>
	<line x1="2080.36" y1="656.14" x2="2124.42" y2="656.14" style="stroke:#606060;stroke-width:8.64"/>
	<line x1="2080.36" y1="1800.87" x2="2124.42" y2="1800.87" style="stroke:#606060;stroke-width:8.64"/>
	<line x1="2255.22" y1="1593.08" x2="2255.22" y2="1535.54" style="stroke:#606060;stroke-width:8.64"/>
	<line x1="2255.22" y1="1506.70" x2="2255.22" y2="1449.16" style="stroke:#606060;stroke-width:8.64"/>
	<line x1="2255.22" y1="1420.32" x2="2255.22" y2="1362.78" style="stroke:#606060;stroke-width:8.64"/>
	<line x1="2255.22" y1="1333.94" x2="2255.22" y2="1276.27" style="stroke:#606060;stroke-width:8.64"/>
	<line x1="2255.22" y1="1247.56" x2="2255.22" y2="1189.89" style="stroke:#606060;stroke-width:8.64"/>
	<line x1="2255.22" y1="1161.18" x2="2255.22" y2="1103.51" style="stroke:#606060;stroke-width:8.64"/>
	<line x1="2255.22" y1="1074.68" x2="2255.22" y2="1017.13" style="stroke:#606060;stroke-width:8.64"/>
	<line x1="2255.22" y1="988.30" x2="2255.22" y2="930.75" style="stroke:#606060;stroke-width:8.64"/>
	<line x1="2255.22" y1="901.92" x2="2255.22" y2="844.37" style="stroke:#606060;stroke-width:8.64"/>
	<line x1="2255.22" y1="815.54" x2="2255.22" y2="757.99" style="stroke:#606060;stroke-width:8.64"/>
	<line x1="2255.22" y1="729.16" x2="2255.22" y2="671.61" style="stroke:#606060;stroke-width:8.64"/>
	<line x1="2255.22" y1="642.78" x2="2255.22" y2="585.23" style="stroke:#606060;stroke-width:8.64"/>
	<line x1="2255.22" y1="556.40" x2="2255.22" y2="498.85" style="stroke:#606060;stroke-width:8.64"/>
	<line x1="2233.19" y1="485.61" x2="2277.25" y2="485.61" style="stroke:#606060;stroke-width:8.64"/>
	<line x1="2233.19" y1="1593.08" x2="2277.25" y2="1593.08" style="stroke:#606060;stroke-width:8.64"/>
	<line x1="2407.93" y1="1390.99" x2="2407.93" y2="1333.45" style="stroke:#606060;stroke-width:8.64"/>
	<line x1="2407.93" y1="1304.61" x2="2407.93" y2="1247.07" style="stroke:#606060;stroke-width:8.64"/>
	<line x1="2407.93" y1="1218.23" x2="2407.93" y2="1160.69" style="stroke:#606060;stroke-width:8.64"/>
	<line x1="2407.93" y1="1131.85" x2="2407.93" y2="1074.18" style="stroke:#606060;stroke-width:8.64"/>
	<line x1="2407.93" y1="1045.47" x2="2407.93" y2="987.80" style="stroke:#606060;stroke-width:8.64"/>
	<line x1="2407.93" y1="959.09" x2="2407.93" y2="901.42" style="stroke:#606060;stroke-width:8.64"/>
	<line x1="2407.93" y1="872.59" x2="2407.93" y2="815.04" style="stroke:#606060;stroke-width:8.64"/>
	<line x1="2407.93" y1="786.21" x2="2407.93" y2="728.66" style="stroke:#606060;stroke-width:8.64"/>
	<line x1="2407.93" y1="699.83" x2="2407.93" y2="642.28" style="stroke:#606060;stroke-width:8.64"/>
	<line x1="2407.93" y1="613.45" x2="2407.93" y2="555.90" style="stroke:#606060;stroke-width:8.64"/>
	<line x1="2407.93" y1="527.07" x2="2407.93" y2="469.52" style="stroke:#606060;stroke-width:8.64"/>
	<line x1="2407.93" y1="440.69" x2="2407.93" y2="383.14" style="stroke:#606060;stroke-width:8.64"/>
	<line x1="2407.93" y1="354.31" x2="2407.93" y2="302.45" style="stroke:#606060;stroke-width:8.64"/>
	<line x1="2385.90" y1="302.45" x2="2429.96" y2="302.45" style="stroke:#606060;stroke-width:8.64"/>
	<line x1="2385.90" y1="1390.99" x2="2429.96" y2="1390.99" style="stroke:#606060;stroke-width:8.64"/>
	<line x1="2560.64" y1="1572.91" x2="2560.64" y2="1515.37" style="stroke:#606060;stroke-width:8.64"/>
	<line x1="2560.64" y1="1486.53" x2="2560.64" y2="1428.99" style="stroke:#606060;stroke-width:8.64"/>
	<line x1="2560.64" y1="1400.15" x2="2560.64" y2="1342.61" style="stroke:#606060;stroke-width:8.64"/>
	<line x1="2560.64" y1="1313.77" x2="2560.64" y2="1256.23" style="stroke:#606060;stroke-width:8.64"/>
	<line x1="2560.64" y1="1227.39" x2="2560.64" y2="1169.72" style="stroke:#606060;stroke-width:8.64"/>
	<line x1="2560.64" y1="1141.01" x2="2560.64" y2="1083.34" style="stroke:#606060;stroke-width:8.64"/>
	<line x1="2560.64" y1="1054.51" x2="2560.64" y2="996.96" style="stroke:#606060;stroke-width:8.64"/>
	<line x1="2560.64" y1="968.13" x2="2560.64" y2="910.58" style="stroke:#606060;stroke-width:8.64"/>
	<line x1="2560.64" y1="881.75" x2="2560.64" y2="824.20" style="stroke:#606060;stroke-width:8.64"/>
	<line x1="2560.64" y1="795.37" x2="2560.64" y2="737.82" style="stroke:#606060;stroke-width:8.64"/>
	<line x1="2560.64" y1="708.99" x2="2560.64" y2="651.44" style="stroke:#606060;stroke-width:8.64"/>
	<line x1="2560.64" y1="622.61" x2="2560.64" y2="565.06" style="stroke:#606060;stroke-width:8.64"/>
	<line x1="2560.64" y1="536.23" x2="2560.64" y2="488.83" style="stroke:#606060;stroke-width:8.64"/>
	<line x1="2538.61" y1="488.83" x2="2582.66" y2="488.83" style="stroke:#606060;stroke-width:8.64"/>
	<line x1="2538.61" y1="1572.91" x2="2582.66" y2="1572.91" style="stroke:#606060;stroke-width:8.64"/>
	<line x1="2713.47" y1="1697.16" x2="2713.47" y2="1639.61" style="stroke:#606060;stroke-width:8.64"/>
	<line x1="2713.47" y1="1610.78" x2="2713.47" y2="1553.23" style="stroke:#606060;stroke-width:8.64"/>
	<line x1="2713.47" y1="1524.40" x2="2713.47" y2="1466.73" style="stroke:#606060;stroke-width:8.64"/>
	<line x1="2713.47" y1="1438.02" x2="2713.47" y2="1380.35" style="stroke:#606060;stroke-width:8.64"/>
	<line x1="2713.47" y1="1351.52" x2="2713.47" y2="1293.97" style="stroke:#606060;stroke-width:8.64"/>
	<line x1="2713.47" y1="1265.14" x2="2713.47" y2="1207.59" style="stroke:#606060;stroke-width:8.64"/>
	<line x1="2713.47" y1="1178.76" x2="2713.47" y2="1121.21" style="stroke:#606060;stroke-width:8.64"/>
	<line x1="2713.47" y1="1092.38" x2="2713.47" y2="1034.83" style="stroke:#606060;stroke-width:8.64"/>
	<line x1="2713.47" y1="1006.00" x2="2713.47" y2="948.45" style="stroke:#606060;stroke-width:8.64"/>
	<line x1="2713.47" y1="919.61" x2="2713.47" y2="862.07" style="stroke:#606060;stroke-width:8.64"/>
	<line x1="2713.47" y1="833.23" x2="2713.47" y2="775.69" style="stroke:#606060;stroke-width:8.64"/>
	<line x1="2713.47" y1="746.85" x2="2713.47" y2="689.31" style="stroke:#606060;stroke-width:8.64"/>
	<line x1="2713.47" y1="660.47" x2="2713.47" y2="602.93" style="stroke:#606060;stroke-width:8.64"/>
	<line x1="2691.44" y1="594.02" x2="2735.49" y2="594.02" style="stroke:#606060;stroke-width:8.64"/>
	<line x1="2691.44" y1="1697.16" x2="2735.49" y2="1697.16" style="stroke:#606060;stroke-width:8.64"/>
	<line x1="2866.17" y1="1627.12" x2="2866.17" y2="1569.57" style="stroke:#606060;stroke-width:8.64"/>
	<line x1="2866.17" y1="1540.74" x2="2866.17" y2="1483.19" style="stroke:#606060;stroke-width:8.64"/>
	<line x1="2866.17" y1="1454.36" x2="2866.17" y2="1396.81" style="stroke:#606060;stroke-width:8.64"/>
	<line x1="2866.17" y1="1367.98" x2="2866.17" y2="1310.43" style="stroke:#606060;stroke-width:8.64"/>
	<line x1="2866.17" y1="1281.60" x2="2866.17" y2="1224.05" style="stroke:#606060;stroke-width:8.64"/>
	<line x1="2866.17" y1="1195.21" x2="2866.17" y2="1137.55" style="stroke:#606060;stroke-width:8.64"/>
	<line x1="2866.17" y1="1108.83" x2="2866.17" y2="1051.17" style="stroke:#606060;stroke-width:8.64"/>
	<line x1="2866.17" y1="1022.45" x2="2866.17" y2="964.79" style="stroke:#606060;stroke-width:8.64"/>
	<line x1="2866.17" y1="935.95" x2="2866.17" y2="878.40" style="stroke:#606060;stroke-width:8.64"/>
	<line x1="2866.17" y1="849.57" x2="2866.17" y2="792.02" style="stroke:#606060;stroke-width:8.64"/>
	<line x1="2866.17" y1="763.19" x2="2866.17" y2="705.64" style="stroke:#606060;stroke-width:8.64"/>
	<line x1="2866.17" y1="676.81" x2="2866.17" y2="619.26" style="stroke:#606060;stroke-width:8.64"/>
	<line x1="2866.17" y1="590.43" x2="2866.17" y2="533.63" style="stroke:#606060;stroke-width:8.64"/>
	<line x1="2844.15" y1="533.63" x2="2888.20" y2="533.63" style="stroke:#606060;stroke-width:8.64"/>
	<line x1="2844.15" y1="1627.12" x2="2888.20" y2="1627.12" style="stroke:#606060;stroke-width:8.64"/>
	<line x1="3018.88" y1="1678.97" x2="3018.88" y2="1621.42" style="stroke:#606060;stroke-width:8.64"/>
	<line x1="3018.88" y1="1592.59" x2="3018.88" y2="1535.04" style="stroke:#606060;stroke-width:8.64"/>
	<line x1="3018.88" y1="1506.21" x2="3018.88" y2="1448.66" style="stroke:#606060;stroke-width:8.64"/>
	<line x1="3018.88" y1="1419.83" x2="3018.88" y2="1362.28" style="stroke:#606060;stroke-width:8.64"/>
	<line x1="3018.88" y1="1333.45" x2="3018.88" y2="1275.90" style="stroke:#606060;stroke-width:8.64"/>
	<line x1="3018.88" y1="1247.07" x2="3018.88" y2="1189.40" style="stroke:#606060;stroke-width:8.64"/>
	<line x1="3018.88" y1="1160.69" x2="3018.88" y2="1103.02" style="stroke:#606060;stroke-width:8.64"/>
	<line x1="3018.88" y1="1074.18" x2="3018.88" y2="1016.64" style="stroke:#606060;stroke-width:8.64"/>
	<line x1="3018.88" y1="987.80" x2="3018.88" y2="930.26" style="stroke:#606060;stroke-width:8.64"/>
	<line x1="3018.88" y1="901.42" x2="3018.88" y2="843.88" style="stroke:#606060;stroke-width:8.64"/>
	<line x1="3018.88" y1="815.04" x2="3018.88" y2="757.50" style="stroke:#606060;stroke-width:8.64"/>
	<line x1="3018.88" y1="728.66" x2="3018.88" y2="671.12" style="stroke:#606060;stroke-width:8.64"/>
	<line x1="3018.88" y1="642.28" x2="3018.88" y2="584.74" style="stroke:#606060;stroke-width:8.64"/>
	<line x1="3018.88" y1="555.90" x2="3018.88" y2="498.36" style="stroke:#606060;stroke-width:8.64"/>
	<line x1="2996.85" y1="497.61" x2="3040.91" y2="497.61" style="stroke:#606060;stroke-width:8.64"/>
	<line x1="2996.85" y1="1678.97" x2="3040.91" y2="1678.97" style="stroke:#606060;stroke-width:8.64"/>
	<line x1="3171.71" y1="1663.75" x2="3171.71" y2="1606.20" style="stroke:#606060;stroke-width:8.64"/>
	<line x1="3171.71" y1="1577.37" x2="3171.71" y2="1519.82" style="stroke:#606060;stroke-width:8.64"/>
	<line x1="3171.71" y1="1490.99" x2="3171.71" y2="1433.44" style="stroke:#606060;stroke-width:8.64"/>
	<line x1="3171.71" y1="1404.61" x2="3171.71" y2="1347.06" style="stroke:#606060;stroke-width:8.64"/>
	<line x1="3171.71" y1="1318.23" x2="3171.71" y2="1260.56" style="stroke:#606060;stroke-width:8.64"/>
	<line x1="3171.71" y1="1231.85" x2="3171.71" y2="1174.18" style="stroke:#606060;stroke-width:8.64"/>
	<line x1="3171.71" y1="1145.47" x2="3171.71" y2="1087.80" style="stroke:#606060;stroke-width:8.64"/>
	<line x1="3171.71" y1="1058.96" x2="3171.71" y2="1001.42" style="stroke:#606060;stroke-width:8.64"/>
	<line x1="3171.71" y1="972.58" x2="3171.71" y2="915.04" style="stroke:#606060;stroke-width:8.64"/>
	<line x1="3171.71" y1="886.20" x2="3171.71" y2="828.66" style="stroke:#606060;stroke-width:8.64"/>
	<line x1="3171.71" y1="799.82" x2="3171.71" y2="742.28" style="stroke:#606060;stroke-width:8.64"/>
	<line x1="3171.71" y1="713.44" x2="3171.71" y2="655.90" style="stroke:#606060;stroke-width:8.64"/>
	<line x1="3171.71" y1="627.06" x2="3171.71" y2="569.52" style="stroke:#606060;stroke-width:8.64"/>
	<line x1="3149.69" y1="545.38" x2="3193.74" y2="545.38" style="stroke:#606060;stroke-width:8.64"/>
	<line x1="3149.69" y1="1663.75" x2="3193.74" y2="1663.75" style="stroke:#606060;stroke-width:8.64"/>
	<line x1="3324.42" y1="1349.91" x2="3324.42" y2="1292.36" style="stroke:#606060;stroke-width:8.64"/>
	<line x1="3324.42" y1="1263.53" x2="3324.42" y2="1205.98" style="stroke:#606060;stroke-width:8.64"/>
	<line x1="3324.42" y1="1177.15" x2="3324.42" y2="1119.60" style="stroke:#606060;stroke-width:8.64"/>
	<line x1="3324.42" y1="1090.77" x2="3324.42" y2="1033.22" style="stroke:#606060;stroke-width:8.64"/>
	<line x1="3324.42" y1="1004.39" x2="3324.42" y2="946.84" style="stroke:#606060;stroke-width:8.64"/>
	<line x1="3324.42" y1="918.01" x2="3324.42" y2="860.34" style="stroke:#606060;stroke-width:8.64"/>
	<line x1="3324.42" y1="831.63" x2="3324.42" y2="773.96" style="stroke:#606060;stroke-width:8.64"/>
	<line x1="3324.42" y1="745.25" x2="3324.42" y2="687.58" style="stroke:#606060;stroke-width:8.64"/>
	<line x1="3324.42" y1="658.74" x2="3324.42" y2="601.20" style="stroke:#606060;stroke-width:8.64"/>
	<line x1="3324.42" y1="572.36" x2="3324.42" y2="514.82" style="stroke:#606060;stroke-width:8.64"/>
	<line x1="3324.42" y1="485.98" x2="3324.42" y2="428.44" style="stroke:#606060;stroke-width:8.64"/>
	<line x1="3324.42" y1="399.60" x2="3324.42" y2="342.06" style="stroke:#606060;stroke-width:8.64"/>
	<line x1="3324.42" y1="313.22" x2="3324.42" y2="255.68" style="stroke:#606060;stroke-width:8.64"/>
	<line x1="3324.42" y1="226.84" x2="3324.42" y2="169.30" style="stroke:#606060;stroke-width:8.64"/>
	<line x1="3302.39" y1="164.22" x2="3346.45" y2="164.22" style="stroke:#606060;stroke-width:8.64"/>
	<line x1="3302.39" y1="1349.91" x2="3346.45" y2="1349.91" style="stroke:#606060;stroke-width:8.64"/>
	<line x1="3477.25" y1="1764.11" x2="3477.25" y2="1706.57" style="stroke:#606060;stroke-width:8.64"/>
	<line x1="3477.25" y1="1677.73" x2="3477.25" y2="1620.19" style="stroke:#606060;stroke-width:8.64"/>
	<line x1="3477.25" y1="1591.35" x2="3477.25" y2="1533.68" style="stroke:#606060;stroke-width:8.64"/>
	<line x1="3477.25" y1="1504.97" x2="3477.25" y2="1447.30" style="stroke:#606060;stroke-width:8.64"/>
	<line x1="3477.25" y1="1418.59" x2="3477.25" y2="1360.92" style="stroke:#606060;stroke-width:8.64"/>
	<line x1="3477.25" y1="1332.09" x2="3477.25" y2="1274.54" style="stroke:#606060;stroke-width:8.64"/>
	<line x1="3477.25" y1="1245.71" x2="3477.25" y2="1188.16" style="stroke:#606060;stroke-width:8.64"/>
	<line x1="3477.25" y1="1159.33" x2="3477.25" y2="1101.78" style="stroke:#606060;stroke-width:8.64"/>
	<line x1="3477.25" y1="1072.95" x2="3477.25" y2="1015.40" style="stroke:#606060;stroke-width:8.64"/>
	<line x1="3477.25" y1="986.57" x2="3477.25" y2="929.02" style="stroke:#606060;stroke-width:8.64"/>
	<line x1="3477.25" y1="900.19" x2="3477.25" y2="842.64" style="stroke:#606060;stroke-width:8.64"/>
	<line x1="3477.25" y1="813.81" x2="3477.25" y2="756.26" style="stroke:#606060;stroke-width:8.64"/>
	<line x1="3477.25" y1="727.43" x2="3477.25" y2="669.88" style="stroke:#606060;stroke-width:8.64"/>
	<line x1="3477.25" y1="641.05" x2="3477.25" y2="583.38" style="stroke:#606060;stroke-width:8.64"/>
	<line x1="3455.22" y1="575.58" x2="3499.28" y2="575.58" style="stroke:#606060;stroke-width:8.64"/>
	<line x1="3455.22" y1="1764.11" x2="3499.28" y2="1764.11" style="stroke:#606060;stroke-width:8.64"/>
	<line x1="3629.96" y1="1573.78" x2="3629.96" y2="1516.23" style="stroke:#606060;stroke-width:8.64"/>
	<line x1="3629.96" y1="1487.40" x2="3629.96" y2="1429.85" style="stroke:#606060;stroke-width:8.64"/>
	<line x1="3629.96" y1="1401.02" x2="3629.96" y2="1343.47" style="stroke:#606060;stroke-width:8.64"/>
	<line x1="3629.96" y1="1314.64" x2="3629.96" y2="1256.97" style="stroke:#606060;stroke-width:8.64"/>
	<line x1="3629.96" y1="1228.26" x2="3629.96" y2="1170.59" style="stroke:#606060;stroke-width:8.64"/>
	<line x1="3629.96" y1="1141.75" x2="3629.96" y2="1084.21" style="stroke:#606060;stroke-width:8.64"/>
	<line x1="3629.96" y1="1055.37" x2="3629.96" y2="997.83" style="stroke:#606060;stroke-width:8.64"/>
	<line x1="3629.96" y1="968.99" x2="3629.96" y2="911.45" style="stroke:#606060;stroke-width:8.64"/>
	<line x1="3629.96" y1="882.61" x2="3629.96" y2="825.07" style="stroke:#606060;stroke-width:8.64"/>
	<line x1="3629.96" y1="796.23" x2="3629.96" y2="738.69" style="stroke:#606060;stroke-width:8.64"/>
	<line x1="3629.96" y1="709.85" x2="3629.96" y2="652.31" style="stroke:#606060;stroke-width:8.64"/>
	<line x1="3629.96" y1="623.47" x2="3629.96" y2="565.93" style="stroke:#606060;stroke-width:8.64"/>
	<line x1="3629.96" y1="537.09" x2="3629.96" y2="479.55" style="stroke:#606060;stroke-width:8.64"/>
	<line x1="3629.96" y1="450.71" x2="3629.96" y2="427.20" style="stroke:#606060;stroke-width:8.64"/>
	<line x1="3607.93" y1="427.20" x2="3651.99" y2="427.20" style="stroke:#606060;stroke-width:8.64"/>
	<line x1="3607.93" y1="1573.78" x2="3651.99" y2="1573.78" style="stroke:#606060;stroke-width:8.64"/>
	<line x1="3782.67" y1="1474.28" x2="3782.67" y2="1416.73" style="stroke:#606060;stroke-width:8.64"/>
	<line x1="3782.67" y1="1387.90" x2="3782.67" y2="1330.35" style="stroke:#606060;stroke-width:8.64"/>
	<line x1="3782.67" y1="1301.52" x2="3782.67" y2="1243.97" style="stroke:#606060;stroke-width:8.64"/>
	<line x1="3782.67" y1="1215.14" x2="3782.67" y2="1157.47" style="stroke:#606060;stroke-width:8.64"/>
	<line x1="3782.67" y1="1128.76" x2="3782.67" y2="1071.09" style="stroke:#606060;stroke-width:8.64"/>
	<line x1="3782.67" y1="1042.38" x2="3782.67" y2="984.71" style="stroke:#606060;stroke-width:8.64"/>
	<line x1="3782.67" y1="955.87" x2="3782.67" y2="898.33" style="stroke:#606060;stroke-width:8.64"/>
	<line x1="3782.67" y1="869.49" x2="3782.67" y2="811.95" style="stroke:#606060;stroke-width:8.64"/>
	<line x1="3782.67" y1="783.11" x2="3782.67" y2="725.57" style="stroke:#606060;stroke-width:8.64"/>
	<line x1="3782.67" y1="696.73" x2="3782.67" y2="639.19" style="stroke:#606060;stroke-width:8.64"/>
	<line x1="3782.67" y1="610.35" x2="3782.67" y2="552.81" style="stroke:#606060;stroke-width:8.64"/>
	<line x1="3782.67" y1="523.97" x2="3782.67" y2="466.43" style="stroke:#606060;stroke-width:8.64"/>
	<line x1="3782.67" y1="437.59" x2="3782.67" y2="380.05" style="stroke:#606060;stroke-width:8.64"/>
	<line x1="3782.67" y1="351.21" x2="3782.67" y2="293.67" style="stroke:#606060;stroke-width:8.64"/>
	<line x1="3782.67" y1="264.83" x2="3782.67" y2="234.14" style="stroke:#606060;stroke-width:8.64"/>
	<line x1="3760.64" y1="234.14" x2="3804.69" y2="234.14" style="stroke:#606060;stroke-width:8.64"/>
	<line x1="3760.64" y1="1474.28" x2="3804.69" y2="1474.28" style="stroke:#606060;stroke-width:8.64"/>
	<circle cx="422.11" cy="1574.52" r="22.03" style="fill:none;stroke:#606060;stroke-width:8.64"/>
	<circle cx="574.82" cy="1606.45" r="22.03" style="fill:none;stroke:#606060;stroke-width:8.64"/>
	<circle cx="727.53" cy="1580.21" r="22.03" style="fill:none;stroke:#606060;stroke-width:8.64"/>
	<circle cx="880.36" cy="1762.38" r="22.03" style="fill:none;stroke:#606060;stroke-width:8.64"/>
	<circle cx="1033.07" cy="1776.61" r="22.03" style="fill:none;stroke:#606060;stroke-width:8.64"/>
	<circle cx="1185.90" cy="1696.79" r="22.03" style="fill:none;stroke:#606060;stroke-width:8.64"/>
	<circle cx="1338.60" cy="1545.81" r="22.03" style="fill:none;stroke:#606060;stroke-width:8.64"/>
	<circle cx="1491.31" cy="1565.73" r="22.03" style="fill:none;stroke:#606060;stroke-width:8.64"/>
	<circle cx="1644.14" cy="1892.07" r="22.03" style="fill:none;stroke:#606060;stroke-width:8.64"/>
	<circle cx="1796.85" cy="1749.26" r="22.03" style="fill:none;stroke:#606060;stroke-width:8.64"/>
	<circle cx="1949.56" cy="1665.73" r="22.03" style="fill:none;stroke:#606060;stroke-width:8.64"/>
	<circle cx="2102.39" cy="1228.50" r="22.03" style="fill:none;stroke:#606060;stroke-width:8.64"/>
	<circle cx="2255.10" cy="1039.41" r="22.03" style="fill:none;stroke:#606060;stroke-width:8.64"/>
	<circle cx="2407.80" cy="846.85" r="22.03" style="fill:none;stroke:#606060;stroke-width:8.64"/>
	<circle cx="2560.64" cy="1030.99" r="22.03" style="fill:none;stroke:#606060;stroke-width:8.64"/>
	<circle cx="2713.34" cy="1145.59" r="22.03" style="fill:none;stroke:#606060;stroke-width:8.64"/>
	<circle cx="2866.17" cy="1080.50" r="22.03" style="fill:none;stroke:#606060;stroke-width:8.64"/>
	<circle cx="3018.88" cy="1088.42" r="22.03" style="fill:none;stroke:#606060;stroke-width:8.64"/>
	<circle cx="3171.59" cy="1104.63" r="22.03" style="fill:none;stroke:#606060;stroke-width:8.64"/>
	<circle cx="3324.42" cy="757.13" r="22.03" style="fill:none;stroke:#606060;stroke-width:8.64"/>
	<circle cx="3477.13" cy="1169.85" r="22.03" style="fill:none;stroke:#606060;stroke-width:8.64"/>
	<circle cx="3629.84" cy="1000.55" r="22.03" style="fill:none;stroke:#606060;stroke-width:8.64"/>
	<circle cx="3782.67" cy="854.27" r="22.03" style="fill:none;stroke:#606060;stroke-width:8.64"/>
	<path d=" M422.11 1574.52 L574.82 1606.45 L727.53 1580.21 L880.36 1762.38 L1033.07 1776.61 L1185.90 1696.79 L1338.60 1545.81 L1491.31 1565.73 L1644.14 1892.07 L1796.85 1749.26 L1949.56 1665.73 L2102.39 1228.50 L2255.10 1039.41 L2407.80 846.85 L2560.64 1030.99 L2713.34 1145.59 L2866.17 1080.50 L3018.88 1088.42 L3171.59 1104.63 L3324.42 757.13 L3477.13 1169.85 L3629.84 1000.55 L3782.67 854.27" stroke-linejoin="round" style="fill:none;stroke:#808080;stroke-width:8.64"/>
	<line x1="345.76" y1="2534.23" x2="345.76" y2="100.86" style="stroke:#000000;stroke-width:5.76"/>
	<line x1="345.76" y1="2470.87" x2="305.79" y2="2470.87" style="stroke:#000000;stroke-width:5.76"/>
	<text x="263.18" y="2470.87" style="font-family:'Helvetica';font-size:74.99px;fill:#000000" transform="rotate(-90 263.18,2470.87)" text-anchor="middle">-.5</text>
	<line x1="345.76" y1="1735.65" x2="305.79" y2="1735.65" style="stroke:#000000;stroke-width:5.76"/>
	<text x="263.18" y="1735.65" style="font-family:'Helvetica';font-size:74.99px;fill:#000000" transform="rotate(-90 263.18,1735.65)" text-anchor="middle">0</text>
	<line x1="345.76" y1="1000.30" x2="305.79" y2="1000.30" style="stroke:#000000;stroke-width:5.76"/>
	<text x="263.18" y="1000.30" style="font-family:'Helvetica';font-size:74.99px;fill:#000000" transform="rotate(-90 263.18,1000.30)" text-anchor="middle">.5</text>
	<line x1="345.76" y1="265.08" x2="305.79" y2="265.08" style="stroke:#000000;stroke-width:5.76"/>
	<text x="263.18" y="265.08" style="font-family:'Helvetica';font-size:74.99px;fill:#000000" transform="rotate(-90 263.18,265.08)" text-anchor="middle">1</text>
	<text x="176.68" y="1317.48" style="font-family:'Helvetica';font-size:79.94px;fill:#000000" transform="rotate(-90 176.68,1317.48)" text-anchor="middle">Policy Dynamic Effects</text>
	<line x1="345.76" y1="2534.23" x2="3859.02" y2="2534.23" style="stroke:#000000;stroke-width:5.76"/>
	<line x1="422.11" y1="2534.23" x2="422.11" y2="2574.20" style="stroke:#000000;stroke-width:5.76"/>
	<text x="422.11" y="2646.69" style="font-family:'Helvetica';font-size:74.99px;fill:#000000" text-anchor="middle">pre_11</text>
	<line x1="574.94" y1="2534.23" x2="574.94" y2="2574.20" style="stroke:#000000;stroke-width:5.76"/>
	<text x="574.94" y="2646.69" style="font-family:'Helvetica';font-size:74.99px;fill:#000000" text-anchor="middle">pre_10</text>
	<line x1="727.65" y1="2534.23" x2="727.65" y2="2574.20" style="stroke:#000000;stroke-width:5.76"/>
	<text x="727.65" y="2646.69" style="font-family:'Helvetica';font-size:74.99px;fill:#000000" text-anchor="middle">pre_9</text>
	<line x1="880.36" y1="2534.23" x2="880.36" y2="2574.20" style="stroke:#000000;stroke-width:5.76"/>
	<text x="880.36" y="2646.69" style="font-family:'Helvetica';font-size:74.99px;fill:#000000" text-anchor="middle">pre_8</text>
	<line x1="1033.19" y1="2534.23" x2="1033.19" y2="2574.20" style="stroke:#000000;stroke-width:5.76"/>
	<text x="1033.19" y="2646.69" style="font-family:'Helvetica';font-size:74.99px;fill:#000000" text-anchor="middle">pre_7</text>
	<line x1="1185.90" y1="2534.23" x2="1185.90" y2="2574.20" style="stroke:#000000;stroke-width:5.76"/>
	<text x="1185.90" y="2646.69" style="font-family:'Helvetica';font-size:74.99px;fill:#000000" text-anchor="middle">pre_6</text>
	<line x1="1338.60" y1="2534.23" x2="1338.60" y2="2574.20" style="stroke:#000000;stroke-width:5.76"/>
	<text x="1338.60" y="2646.69" style="font-family:'Helvetica';font-size:74.99px;fill:#000000" text-anchor="middle">pre_5</text>
	<line x1="1491.44" y1="2534.23" x2="1491.44" y2="2574.20" style="stroke:#000000;stroke-width:5.76"/>
	<text x="1491.44" y="2646.69" style="font-family:'Helvetica';font-size:74.99px;fill:#000000" text-anchor="middle">pre_4</text>
	<line x1="1644.14" y1="2534.23" x2="1644.14" y2="2574.20" style="stroke:#000000;stroke-width:5.76"/>
	<text x="1644.14" y="2646.69" style="font-family:'Helvetica';font-size:74.99px;fill:#000000" text-anchor="middle">pre_3</text>
	<line x1="1796.97" y1="2534.23" x2="1796.97" y2="2574.20" style="stroke:#000000;stroke-width:5.76"/>
	<text x="1796.97" y="2646.69" style="font-family:'Helvetica';font-size:74.99px;fill:#000000" text-anchor="middle">pre_2</text>
	<line x1="1949.68" y1="2534.23" x2="1949.68" y2="2574.20" style="stroke:#000000;stroke-width:5.76"/>
	<text x="1949.68" y="2646.69" style="font-family:'Helvetica';font-size:74.99px;fill:#000000" text-anchor="middle">current</text>
	<line x1="2102.39" y1="2534.23" x2="2102.39" y2="2574.20" style="stroke:#000000;stroke-width:5.76"/>
	<text x="2102.39" y="2646.69" style="font-family:'Helvetica';font-size:74.99px;fill:#000000" text-anchor="middle">post_1</text>
	<line x1="2255.22" y1="2534.23" x2="2255.22" y2="2574.20" style="stroke:#000000;stroke-width:5.76"/>
	<text x="2255.22" y="2646.69" style="font-family:'Helvetica';font-size:74.99px;fill:#000000" text-anchor="middle">post_2</text>
	<line x1="2407.93" y1="2534.23" x2="2407.93" y2="2574.20" style="stroke:#000000;stroke-width:5.76"/>
	<text x="2407.93" y="2646.69" style="font-family:'Helvetica';font-size:74.99px;fill:#000000" text-anchor="middle">post_3</text>
	<line x1="2560.64" y1="2534.23" x2="2560.64" y2="2574.20" style="stroke:#000000;stroke-width:5.76"/>
	<text x="2560.64" y="2646.69" style="font-family:'Helvetica';font-size:74.99px;fill:#000000" text-anchor="middle">post_4</text>
	<line x1="2713.47" y1="2534.23" x2="2713.47" y2="2574.20" style="stroke:#000000;stroke-width:5.76"/>
	<text x="2713.47" y="2646.69" style="font-family:'Helvetica';font-size:74.99px;fill:#000000" text-anchor="middle">post_5</text>
	<line x1="2866.17" y1="2534.23" x2="2866.17" y2="2574.20" style="stroke:#000000;stroke-width:5.76"/>
	<text x="2866.17" y="2646.69" style="font-family:'Helvetica';font-size:74.99px;fill:#000000" text-anchor="middle">post_6</text>
	<line x1="3018.88" y1="2534.23" x2="3018.88" y2="2574.20" style="stroke:#000000;stroke-width:5.76"/>
	<text x="3018.88" y="2646.69" style="font-family:'Helvetica';font-size:74.99px;fill:#000000" text-anchor="middle">post_7</text>
	<line x1="3171.71" y1="2534.23" x2="3171.71" y2="2574.20" style="stroke:#000000;stroke-width:5.76"/>
	<text x="3171.71" y="2646.69" style="font-family:'Helvetica';font-size:74.99px;fill:#000000" text-anchor="middle">post_8</text>
	<line x1="3324.42" y1="2534.23" x2="3324.42" y2="2574.20" style="stroke:#000000;stroke-width:5.76"/>
	<text x="3324.42" y="2646.69" style="font-family:'Helvetica';font-size:74.99px;fill:#000000" text-anchor="middle">post_9</text>
	<line x1="3477.25" y1="2534.23" x2="3477.25" y2="2574.20" style="stroke:#000000;stroke-width:5.76"/>
	<text x="3477.25" y="2646.69" style="font-family:'Helvetica';font-size:74.99px;fill:#000000" text-anchor="middle">post_10</text>
	<line x1="3629.96" y1="2534.23" x2="3629.96" y2="2574.20" style="stroke:#000000;stroke-width:5.76"/>
	<text x="3629.96" y="2646.69" style="font-family:'Helvetica';font-size:74.99px;fill:#000000" text-anchor="middle">post_11</text>
	<line x1="3782.67" y1="2534.23" x2="3782.67" y2="2574.20" style="stroke:#000000;stroke-width:5.76"/>
	<text x="3782.67" y="2646.69" style="font-family:'Helvetica';font-size:74.99px;fill:#000000" text-anchor="middle">post_12</text>
	<text x="2102.39" y="2735.17" style="font-family:'Helvetica';font-size:79.94px;fill:#000000" text-anchor="middle">Readability</text>
</svg>
