<?xml version="1.0" encoding="UTF-8" standalone="no"?>
<!-- This is a Stata 18.0 generated SVG file (http://www.stata.com) -->

<svg version="1.1" width="5.500in" height="4.000in" viewBox="0 0 3960 2880" xmlns="http://www.w3.org/2000/svg" xmlns:xlink="http://www.w3.org/1999/xlink">
	<desc>Stata Graph - Graph</desc>
	<rect x="0" y="0" width="3960" height="2880" style="fill:#FFFFFF;stroke:none"/>
	<rect x="0.00" y="0.00" width="3959.88" height="2880.00" style="fill:#FFFFFF"/>
	<rect x="2.88" y="2.88" width="3954.12" height="2874.24" style="fill:none;stroke:#FFFFFF;stroke-width:5.76"/>
	<rect x="348.64" y="103.74" width="3507.50" height="2427.61" style="fill:none;stroke:#000000;stroke-width:5.76"/>
	<line x1="880.36" y1="2534.23" x2="880.36" y2="2476.69" style="stroke:#6E8E84;stroke-width:4.32"/>
	<line x1="880.36" y1="2447.85" x2="880.36" y2="2390.31" style="stroke:#6E8E84;stroke-width:4.32"/>
	<line x1="880.36" y1="2361.47" x2="880.36" y2="2303.93" style="stroke:#6E8E84;stroke-width:4.32"/>
	<line x1="880.36" y1="2275.09" x2="880.36" y2="2217.55" style="stroke:#6E8E84;stroke-width:4.32"/>
	<line x1="880.36" y1="2188.71" x2="880.36" y2="2131.17" style="stroke:#6E8E84;stroke-width:4.32"/>
	<line x1="880.36" y1="2102.33" x2="880.36" y2="2044.66" style="stroke:#6E8E84;stroke-width:4.32"/>
	<line x1="880.36" y1="2015.95" x2="880.36" y2="1958.28" style="stroke:#6E8E84;stroke-width:4.32"/>
	<line x1="880.36" y1="1929.57" x2="880.36" y2="1871.90" style="stroke:#6E8E84;stroke-width:4.32"/>
	<line x1="880.36" y1="1843.07" x2="880.36" y2="1785.52" style="stroke:#6E8E84;stroke-width:4.32"/>
	<line x1="880.36" y1="1756.69" x2="880.36" y2="1699.14" style="stroke:#6E8E84;stroke-width:4.32"/>
	<line x1="880.36" y1="1670.31" x2="880.36" y2="1612.76" style="stroke:#6E8E84;stroke-width:4.32"/>
	<line x1="880.36" y1="1583.93" x2="880.36" y2="1526.38" style="stroke:#6E8E84;stroke-width:4.32"/>
	<line x1="880.36" y1="1497.55" x2="880.36" y2="1440.00" style="stroke:#6E8E84;stroke-width:4.32"/>
	<line x1="880.36" y1="1411.17" x2="880.36" y2="1353.62" style="stroke:#6E8E84;stroke-width:4.32"/>
	<line x1="880.36" y1="1324.79" x2="880.36" y2="1267.24" style="stroke:#6E8E84;stroke-width:4.32"/>
	<line x1="880.36" y1="1238.40" x2="880.36" y2="1180.86" style="stroke:#6E8E84;stroke-width:4.32"/>
	<line x1="880.36" y1="1152.02" x2="880.36" y2="1094.36" style="stroke:#6E8E84;stroke-width:4.32"/>
	<line x1="880.36" y1="1065.64" x2="880.36" y2="1007.98" style="stroke:#6E8E84;stroke-width:4.32"/>
	<line x1="880.36" y1="979.14" x2="880.36" y2="921.60" style="stroke:#6E8E84;stroke-width:4.32"/>
	<line x1="880.36" y1="892.76" x2="880.36" y2="835.21" style="stroke:#6E8E84;stroke-width:4.32"/>
	<line x1="880.36" y1="806.38" x2="880.36" y2="748.83" style="stroke:#6E8E84;stroke-width:4.32"/>
	<line x1="880.36" y1="720.00" x2="880.36" y2="662.45" style="stroke:#6E8E84;stroke-width:4.32"/>
	<line x1="880.36" y1="633.62" x2="880.36" y2="576.07" style="stroke:#6E8E84;stroke-width:4.32"/>
	<line x1="880.36" y1="547.24" x2="880.36" y2="489.69" style="stroke:#6E8E84;stroke-width:4.32"/>
	<line x1="880.36" y1="460.86" x2="880.36" y2="403.31" style="stroke:#6E8E84;stroke-width:4.32"/>
	<line x1="880.36" y1="374.48" x2="880.36" y2="316.93" style="stroke:#6E8E84;stroke-width:4.32"/>
	<line x1="880.36" y1="288.10" x2="880.36" y2="230.55" style="stroke:#6E8E84;stroke-width:4.32"/>
	<line x1="880.36" y1="201.72" x2="880.36" y2="144.05" style="stroke:#6E8E84;stroke-width:4.32"/>
	<line x1="880.36" y1="115.34" x2="880.36" y2="100.86" style="stroke:#6E8E84;stroke-width:4.32"/>
	<line x1="345.76" y1="1701.99" x2="3859.02" y2="1701.99" style="stroke:#658397;stroke-width:8.64"/>
	<line x1="422.11" y1="1965.34" x2="422.11" y2="1907.79" style="stroke:#606060;stroke-width:8.64"/>
	<line x1="422.11" y1="1878.95" x2="422.11" y2="1821.41" style="stroke:#606060;stroke-width:8.64"/>
	<line x1="422.11" y1="1792.57" x2="422.11" y2="1735.03" style="stroke:#606060;stroke-width:8.64"/>
	<line x1="422.11" y1="1706.19" x2="422.11" y2="1648.53" style="stroke:#606060;stroke-width:8.64"/>
	<line x1="422.11" y1="1619.81" x2="422.11" y2="1562.15" style="stroke:#606060;stroke-width:8.64"/>
	<line x1="422.11" y1="1533.43" x2="422.11" y2="1475.76" style="stroke:#606060;stroke-width:8.64"/>
	<line x1="422.11" y1="1446.93" x2="422.11" y2="1389.38" style="stroke:#606060;stroke-width:8.64"/>
	<line x1="422.11" y1="1360.55" x2="422.11" y2="1303.00" style="stroke:#606060;stroke-width:8.64"/>
	<line x1="422.11" y1="1274.17" x2="422.11" y2="1216.62" style="stroke:#606060;stroke-width:8.64"/>
	<line x1="422.11" y1="1187.79" x2="422.11" y2="1130.24" style="stroke:#606060;stroke-width:8.64"/>
	<line x1="422.11" y1="1101.41" x2="422.11" y2="1043.86" style="stroke:#606060;stroke-width:8.64"/>
	<line x1="400.08" y1="1029.01" x2="444.14" y2="1029.01" style="stroke:#606060;stroke-width:8.64"/>
	<line x1="400.08" y1="1965.34" x2="444.14" y2="1965.34" style="stroke:#606060;stroke-width:8.64"/>
	<line x1="574.94" y1="2196.38" x2="574.94" y2="2138.84" style="stroke:#606060;stroke-width:8.64"/>
	<line x1="574.94" y1="2110.00" x2="574.94" y2="2052.33" style="stroke:#606060;stroke-width:8.64"/>
	<line x1="574.94" y1="2023.62" x2="574.94" y2="1965.95" style="stroke:#606060;stroke-width:8.64"/>
	<line x1="574.94" y1="1937.24" x2="574.94" y2="1879.57" style="stroke:#606060;stroke-width:8.64"/>
	<line x1="574.94" y1="1850.74" x2="574.94" y2="1793.19" style="stroke:#606060;stroke-width:8.64"/>
	<line x1="574.94" y1="1764.36" x2="574.94" y2="1706.81" style="stroke:#606060;stroke-width:8.64"/>
	<line x1="574.94" y1="1677.98" x2="574.94" y2="1620.43" style="stroke:#606060;stroke-width:8.64"/>
	<line x1="574.94" y1="1591.60" x2="574.94" y2="1534.05" style="stroke:#606060;stroke-width:8.64"/>
	<line x1="574.94" y1="1505.22" x2="574.94" y2="1447.67" style="stroke:#606060;stroke-width:8.64"/>
	<line x1="574.94" y1="1418.84" x2="574.94" y2="1361.29" style="stroke:#606060;stroke-width:8.64"/>
	<line x1="574.94" y1="1332.46" x2="574.94" y2="1274.91" style="stroke:#606060;stroke-width:8.64"/>
	<line x1="552.92" y1="1267.61" x2="596.97" y2="1267.61" style="stroke:#606060;stroke-width:8.64"/>
	<line x1="552.92" y1="2196.38" x2="596.97" y2="2196.38" style="stroke:#606060;stroke-width:8.64"/>
	<line x1="727.65" y1="2006.92" x2="727.65" y2="1949.37" style="stroke:#606060;stroke-width:8.64"/>
	<line x1="727.65" y1="1920.54" x2="727.65" y2="1862.99" style="stroke:#606060;stroke-width:8.64"/>
	<line x1="727.65" y1="1834.16" x2="727.65" y2="1776.61" style="stroke:#606060;stroke-width:8.64"/>
	<line x1="727.65" y1="1747.78" x2="727.65" y2="1690.23" style="stroke:#606060;stroke-width:8.64"/>
	<line x1="727.65" y1="1661.40" x2="727.65" y2="1603.85" style="stroke:#606060;stroke-width:8.64"/>
	<line x1="727.65" y1="1575.02" x2="727.65" y2="1517.47" style="stroke:#606060;stroke-width:8.64"/>
	<line x1="727.65" y1="1488.64" x2="727.65" y2="1430.97" style="stroke:#606060;stroke-width:8.64"/>
	<line x1="727.65" y1="1402.26" x2="727.65" y2="1344.59" style="stroke:#606060;stroke-width:8.64"/>
	<line x1="727.65" y1="1315.75" x2="727.65" y2="1258.21" style="stroke:#606060;stroke-width:8.64"/>
	<line x1="727.65" y1="1229.37" x2="727.65" y2="1176.53" style="stroke:#606060;stroke-width:8.64"/>
	<line x1="705.62" y1="1176.53" x2="749.68" y2="1176.53" style="stroke:#606060;stroke-width:8.64"/>
	<line x1="705.62" y1="2006.92" x2="749.68" y2="2006.92" style="stroke:#606060;stroke-width:8.64"/>
	<line x1="880.36" y1="2188.59" x2="880.36" y2="2131.04" style="stroke:#606060;stroke-width:8.64"/>
	<line x1="880.36" y1="2102.21" x2="880.36" y2="2044.54" style="stroke:#606060;stroke-width:8.64"/>
	<line x1="880.36" y1="2015.83" x2="880.36" y2="1958.16" style="stroke:#606060;stroke-width:8.64"/>
	<line x1="880.36" y1="1929.45" x2="880.36" y2="1871.78" style="stroke:#606060;stroke-width:8.64"/>
	<line x1="880.36" y1="1842.94" x2="880.36" y2="1785.40" style="stroke:#606060;stroke-width:8.64"/>
	<line x1="880.36" y1="1756.56" x2="880.36" y2="1699.02" style="stroke:#606060;stroke-width:8.64"/>
	<line x1="880.36" y1="1670.18" x2="880.36" y2="1612.64" style="stroke:#606060;stroke-width:8.64"/>
	<line x1="880.36" y1="1583.80" x2="880.36" y2="1526.26" style="stroke:#606060;stroke-width:8.64"/>
	<line x1="880.36" y1="1497.42" x2="880.36" y2="1439.88" style="stroke:#606060;stroke-width:8.64"/>
	<line x1="880.36" y1="1411.04" x2="880.36" y2="1403.37" style="stroke:#606060;stroke-width:8.64"/>
	<line x1="858.33" y1="1403.37" x2="902.39" y2="1403.37" style="stroke:#606060;stroke-width:8.64"/>
	<line x1="858.33" y1="2188.59" x2="902.39" y2="2188.59" style="stroke:#606060;stroke-width:8.64"/>
	<line x1="1033.19" y1="2236.36" x2="1033.19" y2="2178.81" style="stroke:#606060;stroke-width:8.64"/>
	<line x1="1033.19" y1="2149.98" x2="1033.19" y2="2092.31" style="stroke:#606060;stroke-width:8.64"/>
	<line x1="1033.19" y1="2063.60" x2="1033.19" y2="2005.93" style="stroke:#606060;stroke-width:8.64"/>
	<line x1="1033.19" y1="1977.09" x2="1033.19" y2="1919.55" style="stroke:#606060;stroke-width:8.64"/>
	<line x1="1033.19" y1="1890.71" x2="1033.19" y2="1833.17" style="stroke:#606060;stroke-width:8.64"/>
	<line x1="1033.19" y1="1804.33" x2="1033.19" y2="1746.79" style="stroke:#606060;stroke-width:8.64"/>
	<line x1="1033.19" y1="1717.95" x2="1033.19" y2="1660.41" style="stroke:#606060;stroke-width:8.64"/>
	<line x1="1033.19" y1="1631.57" x2="1033.19" y2="1574.03" style="stroke:#606060;stroke-width:8.64"/>
	<line x1="1033.19" y1="1545.19" x2="1033.19" y2="1487.65" style="stroke:#606060;stroke-width:8.64"/>
	<line x1="1033.19" y1="1458.81" x2="1033.19" y2="1406.96" style="stroke:#606060;stroke-width:8.64"/>
	<line x1="1011.16" y1="1406.96" x2="1055.22" y2="1406.96" style="stroke:#606060;stroke-width:8.64"/>
	<line x1="1011.16" y1="2236.36" x2="1055.22" y2="2236.36" style="stroke:#606060;stroke-width:8.64"/>
	<line x1="1185.90" y1="2088.59" x2="1185.90" y2="2031.05" style="stroke:#606060;stroke-width:8.64"/>
	<line x1="1185.90" y1="2002.21" x2="1185.90" y2="1944.67" style="stroke:#606060;stroke-width:8.64"/>
	<line x1="1185.90" y1="1915.83" x2="1185.90" y2="1858.29" style="stroke:#606060;stroke-width:8.64"/>
	<line x1="1185.90" y1="1829.45" x2="1185.90" y2="1771.78" style="stroke:#606060;stroke-width:8.64"/>
	<line x1="1185.90" y1="1743.07" x2="1185.90" y2="1685.40" style="stroke:#606060;stroke-width:8.64"/>
	<line x1="1185.90" y1="1656.57" x2="1185.90" y2="1599.02" style="stroke:#606060;stroke-width:8.64"/>
	<line x1="1185.90" y1="1570.19" x2="1185.90" y2="1512.64" style="stroke:#606060;stroke-width:8.64"/>
	<line x1="1185.90" y1="1483.81" x2="1185.90" y2="1426.26" style="stroke:#606060;stroke-width:8.64"/>
	<line x1="1185.90" y1="1397.43" x2="1185.90" y2="1339.88" style="stroke:#606060;stroke-width:8.64"/>
	<line x1="1185.90" y1="1311.05" x2="1185.90" y2="1253.50" style="stroke:#606060;stroke-width:8.64"/>
	<line x1="1185.90" y1="1224.67" x2="1185.90" y2="1174.80" style="stroke:#606060;stroke-width:8.64"/>
	<line x1="1163.87" y1="1174.80" x2="1207.92" y2="1174.80" style="stroke:#606060;stroke-width:8.64"/>
	<line x1="1163.87" y1="2088.59" x2="1207.92" y2="2088.59" style="stroke:#606060;stroke-width:8.64"/>
	<line x1="1338.60" y1="1856.68" x2="1338.60" y2="1799.13" style="stroke:#606060;stroke-width:8.64"/>
	<line x1="1338.60" y1="1770.30" x2="1338.60" y2="1712.75" style="stroke:#606060;stroke-width:8.64"/>
	<line x1="1338.60" y1="1683.92" x2="1338.60" y2="1626.37" style="stroke:#606060;stroke-width:8.64"/>
	<line x1="1338.60" y1="1597.54" x2="1338.60" y2="1539.99" style="stroke:#606060;stroke-width:8.64"/>
	<line x1="1338.60" y1="1511.16" x2="1338.60" y2="1453.61" style="stroke:#606060;stroke-width:8.64"/>
	<line x1="1338.60" y1="1424.78" x2="1338.60" y2="1367.23" style="stroke:#606060;stroke-width:8.64"/>
	<line x1="1338.60" y1="1338.40" x2="1338.60" y2="1280.73" style="stroke:#606060;stroke-width:8.64"/>
	<line x1="1338.60" y1="1252.02" x2="1338.60" y2="1194.35" style="stroke:#606060;stroke-width:8.64"/>
	<line x1="1338.60" y1="1165.51" x2="1338.60" y2="1107.97" style="stroke:#606060;stroke-width:8.64"/>
	<line x1="1338.60" y1="1079.13" x2="1338.60" y2="1021.59" style="stroke:#606060;stroke-width:8.64"/>
	<line x1="1316.58" y1="1011.19" x2="1360.63" y2="1011.19" style="stroke:#606060;stroke-width:8.64"/>
	<line x1="1316.58" y1="1856.68" x2="1360.63" y2="1856.68" style="stroke:#606060;stroke-width:8.64"/>
	<line x1="1491.44" y1="1971.28" x2="1491.44" y2="1913.73" style="stroke:#606060;stroke-width:8.64"/>
	<line x1="1491.44" y1="1884.90" x2="1491.44" y2="1827.35" style="stroke:#606060;stroke-width:8.64"/>
	<line x1="1491.44" y1="1798.51" x2="1491.44" y2="1740.97" style="stroke:#606060;stroke-width:8.64"/>
	<line x1="1491.44" y1="1712.13" x2="1491.44" y2="1654.59" style="stroke:#606060;stroke-width:8.64"/>
	<line x1="1491.44" y1="1625.75" x2="1491.44" y2="1568.21" style="stroke:#606060;stroke-width:8.64"/>
	<line x1="1491.44" y1="1539.37" x2="1491.44" y2="1481.83" style="stroke:#606060;stroke-width:8.64"/>
	<line x1="1491.44" y1="1452.99" x2="1491.44" y2="1395.32" style="stroke:#606060;stroke-width:8.64"/>
	<line x1="1491.44" y1="1366.61" x2="1491.44" y2="1308.94" style="stroke:#606060;stroke-width:8.64"/>
	<line x1="1491.44" y1="1280.11" x2="1491.44" y2="1222.56" style="stroke:#606060;stroke-width:8.64"/>
	<line x1="1491.44" y1="1193.73" x2="1491.44" y2="1161.80" style="stroke:#606060;stroke-width:8.64"/>
	<line x1="1469.41" y1="1161.80" x2="1513.46" y2="1161.80" style="stroke:#606060;stroke-width:8.64"/>
	<line x1="1469.41" y1="1971.28" x2="1513.46" y2="1971.28" style="stroke:#606060;stroke-width:8.64"/>
	<line x1="1644.14" y1="2056.17" x2="1644.14" y2="1998.62" style="stroke:#606060;stroke-width:8.64"/>
	<line x1="1644.14" y1="1969.79" x2="1644.14" y2="1912.24" style="stroke:#606060;stroke-width:8.64"/>
	<line x1="1644.14" y1="1883.41" x2="1644.14" y2="1825.86" style="stroke:#606060;stroke-width:8.64"/>
	<line x1="1644.14" y1="1797.03" x2="1644.14" y2="1739.48" style="stroke:#606060;stroke-width:8.64"/>
	<line x1="1644.14" y1="1710.65" x2="1644.14" y2="1652.98" style="stroke:#606060;stroke-width:8.64"/>
	<line x1="1644.14" y1="1624.27" x2="1644.14" y2="1566.60" style="stroke:#606060;stroke-width:8.64"/>
	<line x1="1644.14" y1="1537.77" x2="1644.14" y2="1480.22" style="stroke:#606060;stroke-width:8.64"/>
	<line x1="1644.14" y1="1451.39" x2="1644.14" y2="1393.84" style="stroke:#606060;stroke-width:8.64"/>
	<line x1="1644.14" y1="1365.01" x2="1644.14" y2="1307.46" style="stroke:#606060;stroke-width:8.64"/>
	<line x1="1644.14" y1="1278.62" x2="1644.14" y2="1221.45" style="stroke:#606060;stroke-width:8.64"/>
	<line x1="1622.12" y1="1221.45" x2="1666.17" y2="1221.45" style="stroke:#606060;stroke-width:8.64"/>
	<line x1="1622.12" y1="2056.17" x2="1666.17" y2="2056.17" style="stroke:#606060;stroke-width:8.64"/>
	<line x1="1796.97" y1="2319.52" x2="1796.97" y2="2261.97" style="stroke:#606060;stroke-width:8.64"/>
	<line x1="1796.97" y1="2233.14" x2="1796.97" y2="2175.47" style="stroke:#606060;stroke-width:8.64"/>
	<line x1="1796.97" y1="2146.76" x2="1796.97" y2="2089.09" style="stroke:#606060;stroke-width:8.64"/>
	<line x1="1796.97" y1="2060.25" x2="1796.97" y2="2002.71" style="stroke:#606060;stroke-width:8.64"/>
	<line x1="1796.97" y1="1973.87" x2="1796.97" y2="1916.33" style="stroke:#606060;stroke-width:8.64"/>
	<line x1="1796.97" y1="1887.49" x2="1796.97" y2="1829.95" style="stroke:#606060;stroke-width:8.64"/>
	<line x1="1796.97" y1="1801.11" x2="1796.97" y2="1743.57" style="stroke:#606060;stroke-width:8.64"/>
	<line x1="1796.97" y1="1714.73" x2="1796.97" y2="1657.19" style="stroke:#606060;stroke-width:8.64"/>
	<line x1="1796.97" y1="1628.35" x2="1796.97" y2="1570.81" style="stroke:#606060;stroke-width:8.64"/>
	<line x1="1796.97" y1="1541.97" x2="1796.97" y2="1484.43" style="stroke:#606060;stroke-width:8.64"/>
	<line x1="1774.95" y1="1481.46" x2="1819.00" y2="1481.46" style="stroke:#606060;stroke-width:8.64"/>
	<line x1="1774.95" y1="2319.52" x2="1819.00" y2="2319.52" style="stroke:#606060;stroke-width:8.64"/>
	<line x1="1949.68" y1="2036.74" x2="1949.68" y2="1979.20" style="stroke:#606060;stroke-width:8.64"/>
	<line x1="1949.68" y1="1950.36" x2="1949.68" y2="1892.82" style="stroke:#606060;stroke-width:8.64"/>
	<line x1="1949.68" y1="1863.98" x2="1949.68" y2="1806.44" style="stroke:#606060;stroke-width:8.64"/>
	<line x1="1949.68" y1="1777.60" x2="1949.68" y2="1719.93" style="stroke:#606060;stroke-width:8.64"/>
	<line x1="1949.68" y1="1691.22" x2="1949.68" y2="1633.55" style="stroke:#606060;stroke-width:8.64"/>
	<line x1="1949.68" y1="1604.84" x2="1949.68" y2="1547.17" style="stroke:#606060;stroke-width:8.64"/>
	<line x1="1949.68" y1="1518.34" x2="1949.68" y2="1460.79" style="stroke:#606060;stroke-width:8.64"/>
	<line x1="1949.68" y1="1431.96" x2="1949.68" y2="1374.41" style="stroke:#606060;stroke-width:8.64"/>
	<line x1="1949.68" y1="1345.58" x2="1949.68" y2="1288.03" style="stroke:#606060;stroke-width:8.64"/>
	<line x1="1949.68" y1="1259.20" x2="1949.68" y2="1201.65" style="stroke:#606060;stroke-width:8.64"/>
	<line x1="1927.65" y1="1200.54" x2="1971.71" y2="1200.54" style="stroke:#606060;stroke-width:8.64"/>
	<line x1="1927.65" y1="2036.74" x2="1971.71" y2="2036.74" style="stroke:#606060;stroke-width:8.64"/>
	<line x1="2102.39" y1="2040.08" x2="2102.39" y2="1982.54" style="stroke:#606060;stroke-width:8.64"/>
	<line x1="2102.39" y1="1953.70" x2="2102.39" y2="1896.16" style="stroke:#606060;stroke-width:8.64"/>
	<line x1="2102.39" y1="1867.32" x2="2102.39" y2="1809.78" style="stroke:#606060;stroke-width:8.64"/>
	<line x1="2102.39" y1="1780.94" x2="2102.39" y2="1723.40" style="stroke:#606060;stroke-width:8.64"/>
	<line x1="2102.39" y1="1694.56" x2="2102.39" y2="1636.89" style="stroke:#606060;stroke-width:8.64"/>
	<line x1="2102.39" y1="1608.18" x2="2102.39" y2="1550.51" style="stroke:#606060;stroke-width:8.64"/>
	<line x1="2102.39" y1="1521.68" x2="2102.39" y2="1464.13" style="stroke:#606060;stroke-width:8.64"/>
	<line x1="2102.39" y1="1435.30" x2="2102.39" y2="1377.75" style="stroke:#606060;stroke-width:8.64"/>
	<line x1="2102.39" y1="1348.92" x2="2102.39" y2="1291.37" style="stroke:#606060;stroke-width:8.64"/>
	<line x1="2102.39" y1="1262.54" x2="2102.39" y2="1204.99" style="stroke:#606060;stroke-width:8.64"/>
	<line x1="2080.36" y1="1187.42" x2="2124.42" y2="1187.42" style="stroke:#606060;stroke-width:8.64"/>
	<line x1="2080.36" y1="2040.08" x2="2124.42" y2="2040.08" style="stroke:#606060;stroke-width:8.64"/>
	<line x1="2255.22" y1="1711.02" x2="2255.22" y2="1653.48" style="stroke:#606060;stroke-width:8.64"/>
	<line x1="2255.22" y1="1624.64" x2="2255.22" y2="1567.10" style="stroke:#606060;stroke-width:8.64"/>
	<line x1="2255.22" y1="1538.26" x2="2255.22" y2="1480.72" style="stroke:#606060;stroke-width:8.64"/>
	<line x1="2255.22" y1="1451.88" x2="2255.22" y2="1394.33" style="stroke:#606060;stroke-width:8.64"/>
	<line x1="2255.22" y1="1365.50" x2="2255.22" y2="1307.83" style="stroke:#606060;stroke-width:8.64"/>
	<line x1="2255.22" y1="1279.12" x2="2255.22" y2="1221.45" style="stroke:#606060;stroke-width:8.64"/>
	<line x1="2255.22" y1="1192.74" x2="2255.22" y2="1135.07" style="stroke:#606060;stroke-width:8.64"/>
	<line x1="2255.22" y1="1106.24" x2="2255.22" y2="1048.69" style="stroke:#606060;stroke-width:8.64"/>
	<line x1="2255.22" y1="1019.86" x2="2255.22" y2="962.31" style="stroke:#606060;stroke-width:8.64"/>
	<line x1="2255.22" y1="933.48" x2="2255.22" y2="875.93" style="stroke:#606060;stroke-width:8.64"/>
	<line x1="2255.22" y1="847.10" x2="2255.22" y2="800.81" style="stroke:#606060;stroke-width:8.64"/>
	<line x1="2233.19" y1="800.81" x2="2277.25" y2="800.81" style="stroke:#606060;stroke-width:8.64"/>
	<line x1="2233.19" y1="1711.02" x2="2277.25" y2="1711.02" style="stroke:#606060;stroke-width:8.64"/>
	<line x1="2407.93" y1="1861.13" x2="2407.93" y2="1803.59" style="stroke:#606060;stroke-width:8.64"/>
	<line x1="2407.93" y1="1774.75" x2="2407.93" y2="1717.21" style="stroke:#606060;stroke-width:8.64"/>
	<line x1="2407.93" y1="1688.37" x2="2407.93" y2="1630.83" style="stroke:#606060;stroke-width:8.64"/>
	<line x1="2407.93" y1="1601.99" x2="2407.93" y2="1544.45" style="stroke:#606060;stroke-width:8.64"/>
	<line x1="2407.93" y1="1515.61" x2="2407.93" y2="1458.07" style="stroke:#606060;stroke-width:8.64"/>
	<line x1="2407.93" y1="1429.23" x2="2407.93" y2="1371.56" style="stroke:#606060;stroke-width:8.64"/>
	<line x1="2407.93" y1="1342.85" x2="2407.93" y2="1285.18" style="stroke:#606060;stroke-width:8.64"/>
	<line x1="2407.93" y1="1256.35" x2="2407.93" y2="1198.80" style="stroke:#606060;stroke-width:8.64"/>
	<line x1="2407.93" y1="1169.97" x2="2407.93" y2="1112.42" style="stroke:#606060;stroke-width:8.64"/>
	<line x1="2407.93" y1="1083.59" x2="2407.93" y2="1026.04" style="stroke:#606060;stroke-width:8.64"/>
	<line x1="2385.90" y1="1003.77" x2="2429.96" y2="1003.77" style="stroke:#606060;stroke-width:8.64"/>
	<line x1="2385.90" y1="1861.13" x2="2429.96" y2="1861.13" style="stroke:#606060;stroke-width:8.64"/>
	<line x1="2560.64" y1="1535.54" x2="2560.64" y2="1477.99" style="stroke:#606060;stroke-width:8.64"/>
	<line x1="2560.64" y1="1449.16" x2="2560.64" y2="1391.49" style="stroke:#606060;stroke-width:8.64"/>
	<line x1="2560.64" y1="1362.78" x2="2560.64" y2="1305.11" style="stroke:#606060;stroke-width:8.64"/>
	<line x1="2560.64" y1="1276.27" x2="2560.64" y2="1218.73" style="stroke:#606060;stroke-width:8.64"/>
	<line x1="2560.64" y1="1189.89" x2="2560.64" y2="1132.35" style="stroke:#606060;stroke-width:8.64"/>
	<line x1="2560.64" y1="1103.51" x2="2560.64" y2="1045.97" style="stroke:#606060;stroke-width:8.64"/>
	<line x1="2560.64" y1="1017.13" x2="2560.64" y2="959.59" style="stroke:#606060;stroke-width:8.64"/>
	<line x1="2560.64" y1="930.75" x2="2560.64" y2="873.21" style="stroke:#606060;stroke-width:8.64"/>
	<line x1="2560.64" y1="844.37" x2="2560.64" y2="786.83" style="stroke:#606060;stroke-width:8.64"/>
	<line x1="2560.64" y1="757.99" x2="2560.64" y2="700.45" style="stroke:#606060;stroke-width:8.64"/>
	<line x1="2560.64" y1="671.61" x2="2560.64" y2="660.60" style="stroke:#606060;stroke-width:8.64"/>
	<line x1="2538.61" y1="660.60" x2="2582.66" y2="660.60" style="stroke:#606060;stroke-width:8.64"/>
	<line x1="2538.61" y1="1535.54" x2="2582.66" y2="1535.54" style="stroke:#606060;stroke-width:8.64"/>
	<line x1="2713.47" y1="1682.06" x2="2713.47" y2="1624.52" style="stroke:#606060;stroke-width:8.64"/>
	<line x1="2713.47" y1="1595.68" x2="2713.47" y2="1538.01" style="stroke:#606060;stroke-width:8.64"/>
	<line x1="2713.47" y1="1509.30" x2="2713.47" y2="1451.63" style="stroke:#606060;stroke-width:8.64"/>
	<line x1="2713.47" y1="1422.80" x2="2713.47" y2="1365.25" style="stroke:#606060;stroke-width:8.64"/>
	<line x1="2713.47" y1="1336.42" x2="2713.47" y2="1278.87" style="stroke:#606060;stroke-width:8.64"/>
	<line x1="2713.47" y1="1250.04" x2="2713.47" y2="1192.49" style="stroke:#606060;stroke-width:8.64"/>
	<line x1="2713.47" y1="1163.66" x2="2713.47" y2="1106.11" style="stroke:#606060;stroke-width:8.64"/>
	<line x1="2713.47" y1="1077.28" x2="2713.47" y2="1019.73" style="stroke:#606060;stroke-width:8.64"/>
	<line x1="2713.47" y1="990.90" x2="2713.47" y2="933.35" style="stroke:#606060;stroke-width:8.64"/>
	<line x1="2713.47" y1="904.52" x2="2713.47" y2="846.97" style="stroke:#606060;stroke-width:8.64"/>
	<line x1="2691.44" y1="829.03" x2="2735.49" y2="829.03" style="stroke:#606060;stroke-width:8.64"/>
	<line x1="2691.44" y1="1682.06" x2="2735.49" y2="1682.06" style="stroke:#606060;stroke-width:8.64"/>
	<line x1="2866.17" y1="1713.50" x2="2866.17" y2="1655.95" style="stroke:#606060;stroke-width:8.64"/>
	<line x1="2866.17" y1="1627.12" x2="2866.17" y2="1569.45" style="stroke:#606060;stroke-width:8.64"/>
	<line x1="2866.17" y1="1540.74" x2="2866.17" y2="1483.07" style="stroke:#606060;stroke-width:8.64"/>
	<line x1="2866.17" y1="1454.36" x2="2866.17" y2="1396.69" style="stroke:#606060;stroke-width:8.64"/>
	<line x1="2866.17" y1="1367.85" x2="2866.17" y2="1310.31" style="stroke:#606060;stroke-width:8.64"/>
	<line x1="2866.17" y1="1281.47" x2="2866.17" y2="1223.93" style="stroke:#606060;stroke-width:8.64"/>
	<line x1="2866.17" y1="1195.09" x2="2866.17" y2="1137.55" style="stroke:#606060;stroke-width:8.64"/>
	<line x1="2866.17" y1="1108.71" x2="2866.17" y2="1051.17" style="stroke:#606060;stroke-width:8.64"/>
	<line x1="2866.17" y1="1022.33" x2="2866.17" y2="964.79" style="stroke:#606060;stroke-width:8.64"/>
	<line x1="2866.17" y1="935.95" x2="2866.17" y2="878.40" style="stroke:#606060;stroke-width:8.64"/>
	<line x1="2866.17" y1="849.57" x2="2866.17" y2="813.31" style="stroke:#606060;stroke-width:8.64"/>
	<line x1="2844.15" y1="813.31" x2="2888.20" y2="813.31" style="stroke:#606060;stroke-width:8.64"/>
	<line x1="2844.15" y1="1713.50" x2="2888.20" y2="1713.50" style="stroke:#606060;stroke-width:8.64"/>
	<line x1="3018.88" y1="1567.71" x2="3018.88" y2="1510.17" style="stroke:#606060;stroke-width:8.64"/>
	<line x1="3018.88" y1="1481.33" x2="3018.88" y2="1423.79" style="stroke:#606060;stroke-width:8.64"/>
	<line x1="3018.88" y1="1394.95" x2="3018.88" y2="1337.41" style="stroke:#606060;stroke-width:8.64"/>
	<line x1="3018.88" y1="1308.57" x2="3018.88" y2="1251.03" style="stroke:#606060;stroke-width:8.64"/>
	<line x1="3018.88" y1="1222.19" x2="3018.88" y2="1164.65" style="stroke:#606060;stroke-width:8.64"/>
	<line x1="3018.88" y1="1135.81" x2="3018.88" y2="1078.14" style="stroke:#606060;stroke-width:8.64"/>
	<line x1="3018.88" y1="1049.43" x2="3018.88" y2="991.76" style="stroke:#606060;stroke-width:8.64"/>
	<line x1="3018.88" y1="963.05" x2="3018.88" y2="905.38" style="stroke:#606060;stroke-width:8.64"/>
	<line x1="3018.88" y1="876.55" x2="3018.88" y2="819.00" style="stroke:#606060;stroke-width:8.64"/>
	<line x1="3018.88" y1="790.17" x2="3018.88" y2="732.62" style="stroke:#606060;stroke-width:8.64"/>
	<line x1="3018.88" y1="703.79" x2="3018.88" y2="656.02" style="stroke:#606060;stroke-width:8.64"/>
	<line x1="2996.85" y1="656.02" x2="3040.91" y2="656.02" style="stroke:#606060;stroke-width:8.64"/>
	<line x1="2996.85" y1="1567.71" x2="3040.91" y2="1567.71" style="stroke:#606060;stroke-width:8.64"/>
	<line x1="3171.71" y1="1471.06" x2="3171.71" y2="1413.52" style="stroke:#606060;stroke-width:8.64"/>
	<line x1="3171.71" y1="1384.68" x2="3171.71" y2="1327.14" style="stroke:#606060;stroke-width:8.64"/>
	<line x1="3171.71" y1="1298.30" x2="3171.71" y2="1240.63" style="stroke:#606060;stroke-width:8.64"/>
	<line x1="3171.71" y1="1211.92" x2="3171.71" y2="1154.25" style="stroke:#606060;stroke-width:8.64"/>
	<line x1="3171.71" y1="1125.54" x2="3171.71" y2="1067.87" style="stroke:#606060;stroke-width:8.64"/>
	<line x1="3171.71" y1="1039.04" x2="3171.71" y2="981.49" style="stroke:#606060;stroke-width:8.64"/>
	<line x1="3171.71" y1="952.66" x2="3171.71" y2="895.11" style="stroke:#606060;stroke-width:8.64"/>
	<line x1="3171.71" y1="866.28" x2="3171.71" y2="808.73" style="stroke:#606060;stroke-width:8.64"/>
	<line x1="3171.71" y1="779.90" x2="3171.71" y2="722.35" style="stroke:#606060;stroke-width:8.64"/>
	<line x1="3171.71" y1="693.52" x2="3171.71" y2="635.97" style="stroke:#606060;stroke-width:8.64"/>
	<line x1="3171.71" y1="607.14" x2="3171.71" y2="549.59" style="stroke:#606060;stroke-width:8.64"/>
	<line x1="3149.69" y1="540.93" x2="3193.74" y2="540.93" style="stroke:#606060;stroke-width:8.64"/>
	<line x1="3149.69" y1="1471.06" x2="3193.74" y2="1471.06" style="stroke:#606060;stroke-width:8.64"/>
	<line x1="3324.42" y1="1641.97" x2="3324.42" y2="1584.42" style="stroke:#606060;stroke-width:8.64"/>
	<line x1="3324.42" y1="1555.59" x2="3324.42" y2="1497.92" style="stroke:#606060;stroke-width:8.64"/>
	<line x1="3324.42" y1="1469.21" x2="3324.42" y2="1411.54" style="stroke:#606060;stroke-width:8.64"/>
	<line x1="3324.42" y1="1382.83" x2="3324.42" y2="1325.16" style="stroke:#606060;stroke-width:8.64"/>
	<line x1="3324.42" y1="1296.32" x2="3324.42" y2="1238.78" style="stroke:#606060;stroke-width:8.64"/>
	<line x1="3324.42" y1="1209.94" x2="3324.42" y2="1152.40" style="stroke:#606060;stroke-width:8.64"/>
	<line x1="3324.42" y1="1123.56" x2="3324.42" y2="1066.02" style="stroke:#606060;stroke-width:8.64"/>
	<line x1="3324.42" y1="1037.18" x2="3324.42" y2="979.64" style="stroke:#606060;stroke-width:8.64"/>
	<line x1="3324.42" y1="950.80" x2="3324.42" y2="893.26" style="stroke:#606060;stroke-width:8.64"/>
	<line x1="3324.42" y1="864.42" x2="3324.42" y2="806.88" style="stroke:#606060;stroke-width:8.64"/>
	<line x1="3324.42" y1="778.04" x2="3324.42" y2="720.50" style="stroke:#606060;stroke-width:8.64"/>
	<line x1="3302.39" y1="694.38" x2="3346.45" y2="694.38" style="stroke:#606060;stroke-width:8.64"/>
	<line x1="3302.39" y1="1641.97" x2="3346.45" y2="1641.97" style="stroke:#606060;stroke-width:8.64"/>
	<line x1="3477.25" y1="1206.97" x2="3477.25" y2="1149.43" style="stroke:#606060;stroke-width:8.64"/>
	<line x1="3477.25" y1="1120.59" x2="3477.25" y2="1063.05" style="stroke:#606060;stroke-width:8.64"/>
	<line x1="3477.25" y1="1034.21" x2="3477.25" y2="976.67" style="stroke:#606060;stroke-width:8.64"/>
	<line x1="3477.25" y1="947.83" x2="3477.25" y2="890.29" style="stroke:#606060;stroke-width:8.64"/>
	<line x1="3477.25" y1="861.45" x2="3477.25" y2="803.91" style="stroke:#606060;stroke-width:8.64"/>
	<line x1="3477.25" y1="775.07" x2="3477.25" y2="717.52" style="stroke:#606060;stroke-width:8.64"/>
	<line x1="3477.25" y1="688.69" x2="3477.25" y2="631.02" style="stroke:#606060;stroke-width:8.64"/>
	<line x1="3477.25" y1="602.31" x2="3477.25" y2="544.64" style="stroke:#606060;stroke-width:8.64"/>
	<line x1="3477.25" y1="515.81" x2="3477.25" y2="458.26" style="stroke:#606060;stroke-width:8.64"/>
	<line x1="3477.25" y1="429.43" x2="3477.25" y2="371.88" style="stroke:#606060;stroke-width:8.64"/>
	<line x1="3477.25" y1="343.05" x2="3477.25" y2="285.50" style="stroke:#606060;stroke-width:8.64"/>
	<line x1="3477.25" y1="256.67" x2="3477.25" y2="225.60" style="stroke:#606060;stroke-width:8.64"/>
	<line x1="3455.22" y1="225.60" x2="3499.28" y2="225.60" style="stroke:#606060;stroke-width:8.64"/>
	<line x1="3455.22" y1="1206.97" x2="3499.28" y2="1206.97" style="stroke:#606060;stroke-width:8.64"/>
	<line x1="3629.96" y1="1404.36" x2="3629.96" y2="1346.81" style="stroke:#606060;stroke-width:8.64"/>
	<line x1="3629.96" y1="1317.98" x2="3629.96" y2="1260.31" style="stroke:#606060;stroke-width:8.64"/>
	<line x1="3629.96" y1="1231.60" x2="3629.96" y2="1173.93" style="stroke:#606060;stroke-width:8.64"/>
	<line x1="3629.96" y1="1145.22" x2="3629.96" y2="1087.55" style="stroke:#606060;stroke-width:8.64"/>
	<line x1="3629.96" y1="1058.71" x2="3629.96" y2="1001.17" style="stroke:#606060;stroke-width:8.64"/>
	<line x1="3629.96" y1="972.33" x2="3629.96" y2="914.79" style="stroke:#606060;stroke-width:8.64"/>
	<line x1="3629.96" y1="885.95" x2="3629.96" y2="828.41" style="stroke:#606060;stroke-width:8.64"/>
	<line x1="3629.96" y1="799.57" x2="3629.96" y2="742.03" style="stroke:#606060;stroke-width:8.64"/>
	<line x1="3629.96" y1="713.19" x2="3629.96" y2="655.65" style="stroke:#606060;stroke-width:8.64"/>
	<line x1="3629.96" y1="626.81" x2="3629.96" y2="569.27" style="stroke:#606060;stroke-width:8.64"/>
	<line x1="3629.96" y1="540.43" x2="3629.96" y2="482.89" style="stroke:#606060;stroke-width:8.64"/>
	<line x1="3629.96" y1="454.05" x2="3629.96" y2="442.30" style="stroke:#606060;stroke-width:8.64"/>
	<line x1="3607.93" y1="442.30" x2="3651.99" y2="442.30" style="stroke:#606060;stroke-width:8.64"/>
	<line x1="3607.93" y1="1404.36" x2="3651.99" y2="1404.36" style="stroke:#606060;stroke-width:8.64"/>
	<line x1="3782.67" y1="1171.21" x2="3782.67" y2="1113.66" style="stroke:#606060;stroke-width:8.64"/>
	<line x1="3782.67" y1="1084.83" x2="3782.67" y2="1027.16" style="stroke:#606060;stroke-width:8.64"/>
	<line x1="3782.67" y1="998.45" x2="3782.67" y2="940.78" style="stroke:#606060;stroke-width:8.64"/>
	<line x1="3782.67" y1="911.94" x2="3782.67" y2="854.40" style="stroke:#606060;stroke-width:8.64"/>
	<line x1="3782.67" y1="825.56" x2="3782.67" y2="768.02" style="stroke:#606060;stroke-width:8.64"/>
	<line x1="3782.67" y1="739.18" x2="3782.67" y2="681.64" style="stroke:#606060;stroke-width:8.64"/>
	<line x1="3782.67" y1="652.80" x2="3782.67" y2="595.26" style="stroke:#606060;stroke-width:8.64"/>
	<line x1="3782.67" y1="566.42" x2="3782.67" y2="508.88" style="stroke:#606060;stroke-width:8.64"/>
	<line x1="3782.67" y1="480.04" x2="3782.67" y2="422.50" style="stroke:#606060;stroke-width:8.64"/>
	<line x1="3782.67" y1="393.66" x2="3782.67" y2="336.12" style="stroke:#606060;stroke-width:8.64"/>
	<line x1="3782.67" y1="307.28" x2="3782.67" y2="249.74" style="stroke:#606060;stroke-width:8.64"/>
	<line x1="3760.64" y1="223.00" x2="3804.69" y2="223.00" style="stroke:#606060;stroke-width:8.64"/>
	<line x1="3760.64" y1="1171.21" x2="3804.69" y2="1171.21" style="stroke:#606060;stroke-width:8.64"/>
	<circle cx="422.11" cy="1497.17" r="22.03" style="fill:none;stroke:#606060;stroke-width:8.64"/>
	<circle cx="574.82" cy="1732.06" r="22.03" style="fill:none;stroke:#606060;stroke-width:8.64"/>
	<circle cx="727.53" cy="1591.85" r="22.03" style="fill:none;stroke:#606060;stroke-width:8.64"/>
	<circle cx="880.36" cy="1796.04" r="22.03" style="fill:none;stroke:#606060;stroke-width:8.64"/>
	<circle cx="1033.07" cy="1821.66" r="22.03" style="fill:none;stroke:#606060;stroke-width:8.64"/>
	<circle cx="1185.90" cy="1631.82" r="22.03" style="fill:none;stroke:#606060;stroke-width:8.64"/>
	<circle cx="1338.60" cy="1434.06" r="22.03" style="fill:none;stroke:#606060;stroke-width:8.64"/>
	<circle cx="1491.31" cy="1566.60" r="22.03" style="fill:none;stroke:#606060;stroke-width:8.64"/>
	<circle cx="1644.14" cy="1638.87" r="22.03" style="fill:none;stroke:#606060;stroke-width:8.64"/>
	<circle cx="1796.85" cy="1900.61" r="22.03" style="fill:none;stroke:#606060;stroke-width:8.64"/>
	<circle cx="1949.56" cy="1618.70" r="22.03" style="fill:none;stroke:#606060;stroke-width:8.64"/>
	<circle cx="2102.39" cy="1613.75" r="22.03" style="fill:none;stroke:#606060;stroke-width:8.64"/>
	<circle cx="2255.10" cy="1255.98" r="22.03" style="fill:none;stroke:#606060;stroke-width:8.64"/>
	<circle cx="2407.80" cy="1432.57" r="22.03" style="fill:none;stroke:#606060;stroke-width:8.64"/>
	<circle cx="2560.64" cy="1098.07" r="22.03" style="fill:none;stroke:#606060;stroke-width:8.64"/>
	<circle cx="2713.34" cy="1255.61" r="22.03" style="fill:none;stroke:#606060;stroke-width:8.64"/>
	<circle cx="2866.17" cy="1263.40" r="22.03" style="fill:none;stroke:#606060;stroke-width:8.64"/>
	<circle cx="3018.88" cy="1111.93" r="22.03" style="fill:none;stroke:#606060;stroke-width:8.64"/>
	<circle cx="3171.59" cy="1006.00" r="22.03" style="fill:none;stroke:#606060;stroke-width:8.64"/>
	<circle cx="3324.42" cy="1168.24" r="22.03" style="fill:none;stroke:#606060;stroke-width:8.64"/>
	<circle cx="3477.13" cy="716.41" r="22.03" style="fill:none;stroke:#606060;stroke-width:8.64"/>
	<circle cx="3629.84" cy="923.45" r="22.03" style="fill:none;stroke:#606060;stroke-width:8.64"/>
	<circle cx="3782.67" cy="697.23" r="22.03" style="fill:none;stroke:#606060;stroke-width:8.64"/>
	<path d=" M422.11 1497.17 L574.82 1732.06 L727.53 1591.85 L880.36 1796.04 L1033.07 1821.66 L1185.90 1631.82 L1338.60 1434.06 L1491.31 1566.60 L1644.14 1638.87 L1796.85 1900.61 L1949.56 1618.70 L2102.39 1613.75 L2255.10 1255.98 L2407.80 1432.57 L2560.64 1098.07 L2713.34 1255.61 L2866.17 1263.40 L3018.88 1111.93 L3171.59 1006.00 L3324.42 1168.24 L3477.13 716.41 L3629.84 923.45 L3782.67 697.23" stroke-linejoin="round" style="fill:none;stroke:#808080;stroke-width:8.64"/>
	<line x1="345.76" y1="2534.23" x2="345.76" y2="100.86" style="stroke:#000000;stroke-width:5.76"/>
	<line x1="345.76" y1="2470.87" x2="305.79" y2="2470.87" style="stroke:#000000;stroke-width:5.76"/>
	<text x="263.18" y="2470.87" style="font-family:'Helvetica';font-size:74.99px;fill:#000000" transform="rotate(-90 263.18,2470.87)" text-anchor="middle">-.1</text>
	<line x1="345.76" y1="1701.99" x2="305.79" y2="1701.99" style="stroke:#000000;stroke-width:5.76"/>
	<text x="263.18" y="1701.99" style="font-family:'Helvetica';font-size:74.99px;fill:#000000" transform="rotate(-90 263.18,1701.99)" text-anchor="middle">0</text>
	<line x1="345.76" y1="933.10" x2="305.79" y2="933.10" style="stroke:#000000;stroke-width:5.76"/>
	<text x="263.18" y="933.10" style="font-family:'Helvetica';font-size:74.99px;fill:#000000" transform="rotate(-90 263.18,933.10)" text-anchor="middle">.1</text>
	<line x1="345.76" y1="164.22" x2="305.79" y2="164.22" style="stroke:#000000;stroke-width:5.76"/>
	<text x="263.18" y="164.22" style="font-family:'Helvetica';font-size:74.99px;fill:#000000" transform="rotate(-90 263.18,164.22)" text-anchor="middle">.2</text>
	<text x="176.68" y="1317.48" style="font-family:'Helvetica';font-size:79.94px;fill:#000000" transform="rotate(-90 176.68,1317.48)" text-anchor="middle">Policy Dynamic Effects</text>
	<line x1="345.76" y1="2534.23" x2="3859.02" y2="2534.23" style="stroke:#000000;stroke-width:5.76"/>
	<line x1="422.11" y1="2534.23" x2="422.11" y2="2574.20" style="stroke:#000000;stroke-width:5.76"/>
	<text x="422.11" y="2646.69" style="font-family:'Helvetica';font-size:74.99px;fill:#000000" text-anchor="middle">pre_11</text>
	<line x1="574.94" y1="2534.23" x2="574.94" y2="2574.20" style="stroke:#000000;stroke-width:5.76"/>
	<text x="574.94" y="2646.69" style="font-family:'Helvetica';font-size:74.99px;fill:#000000" text-anchor="middle">pre_10</text>
	<line x1="727.65" y1="2534.23" x2="727.65" y2="2574.20" style="stroke:#000000;stroke-width:5.76"/>
	<text x="727.65" y="2646.69" style="font-family:'Helvetica';font-size:74.99px;fill:#000000" text-anchor="middle">pre_9</text>
	<line x1="880.36" y1="2534.23" x2="880.36" y2="2574.20" style="stroke:#000000;stroke-width:5.76"/>
	<text x="880.36" y="2646.69" style="font-family:'Helvetica';font-size:74.99px;fill:#000000" text-anchor="middle">pre_8</text>
	<line x1="1033.19" y1="2534.23" x2="1033.19" y2="2574.20" style="stroke:#000000;stroke-width:5.76"/>
	<text x="1033.19" y="2646.69" style="font-family:'Helvetica';font-size:74.99px;fill:#000000" text-anchor="middle">pre_7</text>
	<line x1="1185.90" y1="2534.23" x2="1185.90" y2="2574.20" style="stroke:#000000;stroke-width:5.76"/>
	<text x="1185.90" y="2646.69" style="font-family:'Helvetica';font-size:74.99px;fill:#000000" text-anchor="middle">pre_6</text>
	<line x1="1338.60" y1="2534.23" x2="1338.60" y2="2574.20" style="stroke:#000000;stroke-width:5.76"/>
	<text x="1338.60" y="2646.69" style="font-family:'Helvetica';font-size:74.99px;fill:#000000" text-anchor="middle">pre_5</text>
	<line x1="1491.44" y1="2534.23" x2="1491.44" y2="2574.20" style="stroke:#000000;stroke-width:5.76"/>
	<text x="1491.44" y="2646.69" style="font-family:'Helvetica';font-size:74.99px;fill:#000000" text-anchor="middle">pre_4</text>
	<line x1="1644.14" y1="2534.23" x2="1644.14" y2="2574.20" style="stroke:#000000;stroke-width:5.76"/>
	<text x="1644.14" y="2646.69" style="font-family:'Helvetica';font-size:74.99px;fill:#000000" text-anchor="middle">pre_3</text>
	<line x1="1796.97" y1="2534.23" x2="1796.97" y2="2574.20" style="stroke:#000000;stroke-width:5.76"/>
	<text x="1796.97" y="2646.69" style="font-family:'Helvetica';font-size:74.99px;fill:#000000" text-anchor="middle">pre_2</text>
	<line x1="1949.68" y1="2534.23" x2="1949.68" y2="2574.20" style="stroke:#000000;stroke-width:5.76"/>
	<text x="1949.68" y="2646.69" style="font-family:'Helvetica';font-size:74.99px;fill:#000000" text-anchor="middle">current</text>
	<line x1="2102.39" y1="2534.23" x2="2102.39" y2="2574.20" style="stroke:#000000;stroke-width:5.76"/>
	<text x="2102.39" y="2646.69" style="font-family:'Helvetica';font-size:74.99px;fill:#000000" text-anchor="middle">post_1</text>
	<line x1="2255.22" y1="2534.23" x2="2255.22" y2="2574.20" style="stroke:#000000;stroke-width:5.76"/>
	<text x="2255.22" y="2646.69" style="font-family:'Helvetica';font-size:74.99px;fill:#000000" text-anchor="middle">post_2</text>
	<line x1="2407.93" y1="2534.23" x2="2407.93" y2="2574.20" style="stroke:#000000;stroke-width:5.76"/>
	<text x="2407.93" y="2646.69" style="font-family:'Helvetica';font-size:74.99px;fill:#000000" text-anchor="middle">post_3</text>
	<line x1="2560.64" y1="2534.23" x2="2560.64" y2="2574.20" style="stroke:#000000;stroke-width:5.76"/>
	<text x="2560.64" y="2646.69" style="font-family:'Helvetica';font-size:74.99px;fill:#000000" text-anchor="middle">post_4</text>
	<line x1="2713.47" y1="2534.23" x2="2713.47" y2="2574.20" style="stroke:#000000;stroke-width:5.76"/>
	<text x="2713.47" y="2646.69" style="font-family:'Helvetica';font-size:74.99px;fill:#000000" text-anchor="middle">post_5</text>
	<line x1="2866.17" y1="2534.23" x2="2866.17" y2="2574.20" style="stroke:#000000;stroke-width:5.76"/>
	<text x="2866.17" y="2646.69" style="font-family:'Helvetica';font-size:74.99px;fill:#000000" text-anchor="middle">post_6</text>
	<line x1="3018.88" y1="2534.23" x2="3018.88" y2="2574.20" style="stroke:#000000;stroke-width:5.76"/>
	<text x="3018.88" y="2646.69" style="font-family:'Helvetica';font-size:74.99px;fill:#000000" text-anchor="middle">post_7</text>
	<line x1="3171.71" y1="2534.23" x2="3171.71" y2="2574.20" style="stroke:#000000;stroke-width:5.76"/>
	<text x="3171.71" y="2646.69" style="font-family:'Helvetica';font-size:74.99px;fill:#000000" text-anchor="middle">post_8</text>
	<line x1="3324.42" y1="2534.23" x2="3324.42" y2="2574.20" style="stroke:#000000;stroke-width:5.76"/>
	<text x="3324.42" y="2646.69" style="font-family:'Helvetica';font-size:74.99px;fill:#000000" text-anchor="middle">post_9</text>
	<line x1="3477.25" y1="2534.23" x2="3477.25" y2="2574.20" style="stroke:#000000;stroke-width:5.76"/>
	<text x="3477.25" y="2646.69" style="font-family:'Helvetica';font-size:74.99px;fill:#000000" text-anchor="middle">post_10</text>
	<line x1="3629.96" y1="2534.23" x2="3629.96" y2="2574.20" style="stroke:#000000;stroke-width:5.76"/>
	<text x="3629.96" y="2646.69" style="font-family:'Helvetica';font-size:74.99px;fill:#000000" text-anchor="middle">post_11</text>
	<line x1="3782.67" y1="2534.23" x2="3782.67" y2="2574.20" style="stroke:#000000;stroke-width:5.76"/>
	<text x="3782.67" y="2646.69" style="font-family:'Helvetica';font-size:74.99px;fill:#000000" text-anchor="middle">post_12</text>
	<text x="2102.39" y="2735.17" style="font-family:'Helvetica';font-size:79.94px;fill:#000000" text-anchor="middle">Concrete</text>
</svg>
