<?xml version="1.0" encoding="UTF-8" standalone="no"?>
<!-- This is a Stata 18.0 generated SVG file (http://www.stata.com) -->

<svg version="1.1" width="5.500in" height="4.000in" viewBox="0 0 3960 2880" xmlns="http://www.w3.org/2000/svg" xmlns:xlink="http://www.w3.org/1999/xlink">
	<desc>Stata Graph - Graph</desc>
	<rect x="0" y="0" width="3960" height="2880" style="fill:#FFFFFF;stroke:none"/>
	<rect x="0.00" y="0.00" width="3959.88" height="2880.00" style="fill:#FFFFFF"/>
	<rect x="2.88" y="2.88" width="3954.12" height="2874.24" style="fill:none;stroke:#FFFFFF;stroke-width:5.76"/>
	<rect x="348.64" y="103.74" width="3507.50" height="2427.61" style="fill:none;stroke:#000000;stroke-width:5.76"/>
	<line x1="880.36" y1="2534.23" x2="880.36" y2="2476.69" style="stroke:#6E8E84;stroke-width:4.32"/>
	<line x1="880.36" y1="2447.85" x2="880.36" y2="2390.31" style="stroke:#6E8E84;stroke-width:4.32"/>
	<line x1="880.36" y1="2361.47" x2="880.36" y2="2303.93" style="stroke:#6E8E84;stroke-width:4.32"/>
	<line x1="880.36" y1="2275.09" x2="880.36" y2="2217.55" style="stroke:#6E8E84;stroke-width:4.32"/>
	<line x1="880.36" y1="2188.71" x2="880.36" y2="2131.17" style="stroke:#6E8E84;stroke-width:4.32"/>
	<line x1="880.36" y1="2102.33" x2="880.36" y2="2044.66" style="stroke:#6E8E84;stroke-width:4.32"/>
	<line x1="880.36" y1="2015.95" x2="880.36" y2="1958.28" style="stroke:#6E8E84;stroke-width:4.32"/>
	<line x1="880.36" y1="1929.57" x2="880.36" y2="1871.90" style="stroke:#6E8E84;stroke-width:4.32"/>
	<line x1="880.36" y1="1843.07" x2="880.36" y2="1785.52" style="stroke:#6E8E84;stroke-width:4.32"/>
	<line x1="880.36" y1="1756.69" x2="880.36" y2="1699.14" style="stroke:#6E8E84;stroke-width:4.32"/>
	<line x1="880.36" y1="1670.31" x2="880.36" y2="1612.76" style="stroke:#6E8E84;stroke-width:4.32"/>
	<line x1="880.36" y1="1583.93" x2="880.36" y2="1526.38" style="stroke:#6E8E84;stroke-width:4.32"/>
	<line x1="880.36" y1="1497.55" x2="880.36" y2="1440.00" style="stroke:#6E8E84;stroke-width:4.32"/>
	<line x1="880.36" y1="1411.17" x2="880.36" y2="1353.62" style="stroke:#6E8E84;stroke-width:4.32"/>
	<line x1="880.36" y1="1324.79" x2="880.36" y2="1267.24" style="stroke:#6E8E84;stroke-width:4.32"/>
	<line x1="880.36" y1="1238.40" x2="880.36" y2="1180.86" style="stroke:#6E8E84;stroke-width:4.32"/>
	<line x1="880.36" y1="1152.02" x2="880.36" y2="1094.36" style="stroke:#6E8E84;stroke-width:4.32"/>
	<line x1="880.36" y1="1065.64" x2="880.36" y2="1007.98" style="stroke:#6E8E84;stroke-width:4.32"/>
	<line x1="880.36" y1="979.14" x2="880.36" y2="921.60" style="stroke:#6E8E84;stroke-width:4.32"/>
	<line x1="880.36" y1="892.76" x2="880.36" y2="835.21" style="stroke:#6E8E84;stroke-width:4.32"/>
	<line x1="880.36" y1="806.38" x2="880.36" y2="748.83" style="stroke:#6E8E84;stroke-width:4.32"/>
	<line x1="880.36" y1="720.00" x2="880.36" y2="662.45" style="stroke:#6E8E84;stroke-width:4.32"/>
	<line x1="880.36" y1="633.62" x2="880.36" y2="576.07" style="stroke:#6E8E84;stroke-width:4.32"/>
	<line x1="880.36" y1="547.24" x2="880.36" y2="489.69" style="stroke:#6E8E84;stroke-width:4.32"/>
	<line x1="880.36" y1="460.86" x2="880.36" y2="403.31" style="stroke:#6E8E84;stroke-width:4.32"/>
	<line x1="880.36" y1="374.48" x2="880.36" y2="316.93" style="stroke:#6E8E84;stroke-width:4.32"/>
	<line x1="880.36" y1="288.10" x2="880.36" y2="230.55" style="stroke:#6E8E84;stroke-width:4.32"/>
	<line x1="880.36" y1="201.72" x2="880.36" y2="144.05" style="stroke:#6E8E84;stroke-width:4.32"/>
	<line x1="880.36" y1="115.34" x2="880.36" y2="100.86" style="stroke:#6E8E84;stroke-width:4.32"/>
	<line x1="345.76" y1="1894.18" x2="3859.02" y2="1894.18" style="stroke:#658397;stroke-width:8.64"/>
	<line x1="422.11" y1="2141.44" x2="422.11" y2="2083.89" style="stroke:#606060;stroke-width:8.64"/>
	<line x1="422.11" y1="2055.06" x2="422.11" y2="1997.39" style="stroke:#606060;stroke-width:8.64"/>
	<line x1="422.11" y1="1968.68" x2="422.11" y2="1911.01" style="stroke:#606060;stroke-width:8.64"/>
	<line x1="422.11" y1="1882.17" x2="422.11" y2="1824.63" style="stroke:#606060;stroke-width:8.64"/>
	<line x1="422.11" y1="1795.79" x2="422.11" y2="1738.25" style="stroke:#606060;stroke-width:8.64"/>
	<line x1="422.11" y1="1709.41" x2="422.11" y2="1651.87" style="stroke:#606060;stroke-width:8.64"/>
	<line x1="422.11" y1="1623.03" x2="422.11" y2="1565.49" style="stroke:#606060;stroke-width:8.64"/>
	<line x1="422.11" y1="1536.65" x2="422.11" y2="1479.11" style="stroke:#606060;stroke-width:8.64"/>
	<line x1="422.11" y1="1450.27" x2="422.11" y2="1392.73" style="stroke:#606060;stroke-width:8.64"/>
	<line x1="400.08" y1="1381.84" x2="444.14" y2="1381.84" style="stroke:#606060;stroke-width:8.64"/>
	<line x1="400.08" y1="2141.44" x2="444.14" y2="2141.44" style="stroke:#606060;stroke-width:8.64"/>
	<line x1="574.94" y1="2127.58" x2="574.94" y2="2070.03" style="stroke:#606060;stroke-width:8.64"/>
	<line x1="574.94" y1="2041.20" x2="574.94" y2="1983.65" style="stroke:#606060;stroke-width:8.64"/>
	<line x1="574.94" y1="1954.82" x2="574.94" y2="1897.27" style="stroke:#606060;stroke-width:8.64"/>
	<line x1="574.94" y1="1868.44" x2="574.94" y2="1810.77" style="stroke:#606060;stroke-width:8.64"/>
	<line x1="574.94" y1="1782.06" x2="574.94" y2="1724.39" style="stroke:#606060;stroke-width:8.64"/>
	<line x1="574.94" y1="1695.68" x2="574.94" y2="1638.01" style="stroke:#606060;stroke-width:8.64"/>
	<line x1="574.94" y1="1609.17" x2="574.94" y2="1551.63" style="stroke:#606060;stroke-width:8.64"/>
	<line x1="574.94" y1="1522.79" x2="574.94" y2="1465.25" style="stroke:#606060;stroke-width:8.64"/>
	<line x1="574.94" y1="1436.41" x2="574.94" y2="1412.53" style="stroke:#606060;stroke-width:8.64"/>
	<line x1="552.92" y1="1412.53" x2="596.97" y2="1412.53" style="stroke:#606060;stroke-width:8.64"/>
	<line x1="552.92" y1="2127.58" x2="596.97" y2="2127.58" style="stroke:#606060;stroke-width:8.64"/>
	<line x1="727.65" y1="2035.63" x2="727.65" y2="1978.08" style="stroke:#606060;stroke-width:8.64"/>
	<line x1="727.65" y1="1949.25" x2="727.65" y2="1891.70" style="stroke:#606060;stroke-width:8.64"/>
	<line x1="727.65" y1="1862.87" x2="727.65" y2="1805.32" style="stroke:#606060;stroke-width:8.64"/>
	<line x1="727.65" y1="1776.49" x2="727.65" y2="1718.94" style="stroke:#606060;stroke-width:8.64"/>
	<line x1="727.65" y1="1690.11" x2="727.65" y2="1632.56" style="stroke:#606060;stroke-width:8.64"/>
	<line x1="727.65" y1="1603.73" x2="727.65" y2="1546.06" style="stroke:#606060;stroke-width:8.64"/>
	<line x1="727.65" y1="1517.35" x2="727.65" y2="1459.68" style="stroke:#606060;stroke-width:8.64"/>
	<line x1="727.65" y1="1430.84" x2="727.65" y2="1373.30" style="stroke:#606060;stroke-width:8.64"/>
	<line x1="727.65" y1="1344.46" x2="727.65" y2="1316.37" style="stroke:#606060;stroke-width:8.64"/>
	<line x1="705.62" y1="1316.37" x2="749.68" y2="1316.37" style="stroke:#606060;stroke-width:8.64"/>
	<line x1="705.62" y1="2035.63" x2="749.68" y2="2035.63" style="stroke:#606060;stroke-width:8.64"/>
	<line x1="880.36" y1="1987.49" x2="880.36" y2="1929.94" style="stroke:#606060;stroke-width:8.64"/>
	<line x1="880.36" y1="1901.11" x2="880.36" y2="1843.56" style="stroke:#606060;stroke-width:8.64"/>
	<line x1="880.36" y1="1814.73" x2="880.36" y2="1757.18" style="stroke:#606060;stroke-width:8.64"/>
	<line x1="880.36" y1="1728.35" x2="880.36" y2="1670.80" style="stroke:#606060;stroke-width:8.64"/>
	<line x1="880.36" y1="1641.97" x2="880.36" y2="1584.42" style="stroke:#606060;stroke-width:8.64"/>
	<line x1="880.36" y1="1555.59" x2="880.36" y2="1497.92" style="stroke:#606060;stroke-width:8.64"/>
	<line x1="880.36" y1="1469.21" x2="880.36" y2="1411.54" style="stroke:#606060;stroke-width:8.64"/>
	<line x1="880.36" y1="1382.83" x2="880.36" y2="1325.40" style="stroke:#606060;stroke-width:8.64"/>
	<line x1="858.33" y1="1325.40" x2="902.39" y2="1325.40" style="stroke:#606060;stroke-width:8.64"/>
	<line x1="858.33" y1="1987.49" x2="902.39" y2="1987.49" style="stroke:#606060;stroke-width:8.64"/>
	<line x1="1033.19" y1="1952.71" x2="1033.19" y2="1895.17" style="stroke:#606060;stroke-width:8.64"/>
	<line x1="1033.19" y1="1866.33" x2="1033.19" y2="1808.79" style="stroke:#606060;stroke-width:8.64"/>
	<line x1="1033.19" y1="1779.95" x2="1033.19" y2="1722.41" style="stroke:#606060;stroke-width:8.64"/>
	<line x1="1033.19" y1="1693.57" x2="1033.19" y2="1636.03" style="stroke:#606060;stroke-width:8.64"/>
	<line x1="1033.19" y1="1607.19" x2="1033.19" y2="1549.52" style="stroke:#606060;stroke-width:8.64"/>
	<line x1="1033.19" y1="1520.81" x2="1033.19" y2="1463.14" style="stroke:#606060;stroke-width:8.64"/>
	<line x1="1033.19" y1="1434.43" x2="1033.19" y2="1376.76" style="stroke:#606060;stroke-width:8.64"/>
	<line x1="1033.19" y1="1347.93" x2="1033.19" y2="1295.83" style="stroke:#606060;stroke-width:8.64"/>
	<line x1="1011.16" y1="1295.83" x2="1055.22" y2="1295.83" style="stroke:#606060;stroke-width:8.64"/>
	<line x1="1011.16" y1="1952.71" x2="1055.22" y2="1952.71" style="stroke:#606060;stroke-width:8.64"/>
	<line x1="1185.90" y1="2015.21" x2="1185.90" y2="1957.66" style="stroke:#606060;stroke-width:8.64"/>
	<line x1="1185.90" y1="1928.83" x2="1185.90" y2="1871.28" style="stroke:#606060;stroke-width:8.64"/>
	<line x1="1185.90" y1="1842.45" x2="1185.90" y2="1784.90" style="stroke:#606060;stroke-width:8.64"/>
	<line x1="1185.90" y1="1756.07" x2="1185.90" y2="1698.52" style="stroke:#606060;stroke-width:8.64"/>
	<line x1="1185.90" y1="1669.69" x2="1185.90" y2="1612.14" style="stroke:#606060;stroke-width:8.64"/>
	<line x1="1185.90" y1="1583.31" x2="1185.90" y2="1525.64" style="stroke:#606060;stroke-width:8.64"/>
	<line x1="1185.90" y1="1496.93" x2="1185.90" y2="1439.26" style="stroke:#606060;stroke-width:8.64"/>
	<line x1="1185.90" y1="1410.55" x2="1185.90" y2="1360.43" style="stroke:#606060;stroke-width:8.64"/>
	<line x1="1163.87" y1="1360.43" x2="1207.92" y2="1360.43" style="stroke:#606060;stroke-width:8.64"/>
	<line x1="1163.87" y1="2015.21" x2="1207.92" y2="2015.21" style="stroke:#606060;stroke-width:8.64"/>
	<line x1="1338.60" y1="1943.06" x2="1338.60" y2="1885.51" style="stroke:#606060;stroke-width:8.64"/>
	<line x1="1338.60" y1="1856.68" x2="1338.60" y2="1799.01" style="stroke:#606060;stroke-width:8.64"/>
	<line x1="1338.60" y1="1770.30" x2="1338.60" y2="1712.63" style="stroke:#606060;stroke-width:8.64"/>
	<line x1="1338.60" y1="1683.92" x2="1338.60" y2="1626.25" style="stroke:#606060;stroke-width:8.64"/>
	<line x1="1338.60" y1="1597.41" x2="1338.60" y2="1539.87" style="stroke:#606060;stroke-width:8.64"/>
	<line x1="1338.60" y1="1511.03" x2="1338.60" y2="1453.49" style="stroke:#606060;stroke-width:8.64"/>
	<line x1="1338.60" y1="1424.65" x2="1338.60" y2="1367.11" style="stroke:#606060;stroke-width:8.64"/>
	<line x1="1338.60" y1="1338.27" x2="1338.60" y2="1294.71" style="stroke:#606060;stroke-width:8.64"/>
	<line x1="1316.58" y1="1294.71" x2="1360.63" y2="1294.71" style="stroke:#606060;stroke-width:8.64"/>
	<line x1="1316.58" y1="1943.06" x2="1360.63" y2="1943.06" style="stroke:#606060;stroke-width:8.64"/>
	<line x1="1491.44" y1="2145.52" x2="1491.44" y2="2087.98" style="stroke:#606060;stroke-width:8.64"/>
	<line x1="1491.44" y1="2059.14" x2="1491.44" y2="2001.60" style="stroke:#606060;stroke-width:8.64"/>
	<line x1="1491.44" y1="1972.76" x2="1491.44" y2="1915.21" style="stroke:#606060;stroke-width:8.64"/>
	<line x1="1491.44" y1="1886.38" x2="1491.44" y2="1828.83" style="stroke:#606060;stroke-width:8.64"/>
	<line x1="1491.44" y1="1800.00" x2="1491.44" y2="1742.45" style="stroke:#606060;stroke-width:8.64"/>
	<line x1="1491.44" y1="1713.62" x2="1491.44" y2="1656.07" style="stroke:#606060;stroke-width:8.64"/>
	<line x1="1491.44" y1="1627.24" x2="1491.44" y2="1569.57" style="stroke:#606060;stroke-width:8.64"/>
	<line x1="1491.44" y1="1540.86" x2="1491.44" y2="1506.70" style="stroke:#606060;stroke-width:8.64"/>
	<line x1="1469.41" y1="1506.70" x2="1513.46" y2="1506.70" style="stroke:#606060;stroke-width:8.64"/>
	<line x1="1469.41" y1="2145.52" x2="1513.46" y2="2145.52" style="stroke:#606060;stroke-width:8.64"/>
	<line x1="1644.14" y1="2341.30" x2="1644.14" y2="2283.75" style="stroke:#606060;stroke-width:8.64"/>
	<line x1="1644.14" y1="2254.92" x2="1644.14" y2="2197.37" style="stroke:#606060;stroke-width:8.64"/>
	<line x1="1644.14" y1="2168.54" x2="1644.14" y2="2110.99" style="stroke:#606060;stroke-width:8.64"/>
	<line x1="1644.14" y1="2082.16" x2="1644.14" y2="2024.61" style="stroke:#606060;stroke-width:8.64"/>
	<line x1="1644.14" y1="1995.78" x2="1644.14" y2="1938.11" style="stroke:#606060;stroke-width:8.64"/>
	<line x1="1644.14" y1="1909.40" x2="1644.14" y2="1851.73" style="stroke:#606060;stroke-width:8.64"/>
	<line x1="1644.14" y1="1822.89" x2="1644.14" y2="1765.35" style="stroke:#606060;stroke-width:8.64"/>
	<line x1="1644.14" y1="1736.51" x2="1644.14" y2="1726.00" style="stroke:#606060;stroke-width:8.64"/>
	<line x1="1622.12" y1="1726.00" x2="1666.17" y2="1726.00" style="stroke:#606060;stroke-width:8.64"/>
	<line x1="1622.12" y1="2341.30" x2="1666.17" y2="2341.30" style="stroke:#606060;stroke-width:8.64"/>
	<line x1="1796.97" y1="2100.35" x2="1796.97" y2="2042.81" style="stroke:#606060;stroke-width:8.64"/>
	<line x1="1796.97" y1="2013.97" x2="1796.97" y2="1956.42" style="stroke:#606060;stroke-width:8.64"/>
	<line x1="1796.97" y1="1927.59" x2="1796.97" y2="1870.04" style="stroke:#606060;stroke-width:8.64"/>
	<line x1="1796.97" y1="1841.21" x2="1796.97" y2="1783.54" style="stroke:#606060;stroke-width:8.64"/>
	<line x1="1796.97" y1="1754.83" x2="1796.97" y2="1697.16" style="stroke:#606060;stroke-width:8.64"/>
	<line x1="1796.97" y1="1668.33" x2="1796.97" y2="1610.78" style="stroke:#606060;stroke-width:8.64"/>
	<line x1="1796.97" y1="1581.95" x2="1796.97" y2="1545.44" style="stroke:#606060;stroke-width:8.64"/>
	<line x1="1774.95" y1="1545.44" x2="1819.00" y2="1545.44" style="stroke:#606060;stroke-width:8.64"/>
	<line x1="1774.95" y1="2100.35" x2="1819.00" y2="2100.35" style="stroke:#606060;stroke-width:8.64"/>
	<line x1="1949.68" y1="2055.80" x2="1949.68" y2="1998.25" style="stroke:#606060;stroke-width:8.64"/>
	<line x1="1949.68" y1="1969.42" x2="1949.68" y2="1911.87" style="stroke:#606060;stroke-width:8.64"/>
	<line x1="1949.68" y1="1883.04" x2="1949.68" y2="1825.49" style="stroke:#606060;stroke-width:8.64"/>
	<line x1="1949.68" y1="1796.66" x2="1949.68" y2="1739.11" style="stroke:#606060;stroke-width:8.64"/>
	<line x1="1949.68" y1="1710.28" x2="1949.68" y2="1652.61" style="stroke:#606060;stroke-width:8.64"/>
	<line x1="1949.68" y1="1623.90" x2="1949.68" y2="1566.23" style="stroke:#606060;stroke-width:8.64"/>
	<line x1="1949.68" y1="1537.52" x2="1949.68" y2="1485.05" style="stroke:#606060;stroke-width:8.64"/>
	<line x1="1927.65" y1="1485.05" x2="1971.71" y2="1485.05" style="stroke:#606060;stroke-width:8.64"/>
	<line x1="1927.65" y1="2055.80" x2="1971.71" y2="2055.80" style="stroke:#606060;stroke-width:8.64"/>
	<line x1="2102.39" y1="1835.39" x2="2102.39" y2="1777.85" style="stroke:#606060;stroke-width:8.64"/>
	<line x1="2102.39" y1="1749.01" x2="2102.39" y2="1691.47" style="stroke:#606060;stroke-width:8.64"/>
	<line x1="2102.39" y1="1662.63" x2="2102.39" y2="1604.96" style="stroke:#606060;stroke-width:8.64"/>
	<line x1="2102.39" y1="1576.25" x2="2102.39" y2="1518.58" style="stroke:#606060;stroke-width:8.64"/>
	<line x1="2102.39" y1="1489.87" x2="2102.39" y2="1432.20" style="stroke:#606060;stroke-width:8.64"/>
	<line x1="2102.39" y1="1403.37" x2="2102.39" y2="1345.82" style="stroke:#606060;stroke-width:8.64"/>
	<line x1="2102.39" y1="1316.99" x2="2102.39" y2="1259.44" style="stroke:#606060;stroke-width:8.64"/>
	<line x1="2102.39" y1="1230.61" x2="2102.39" y2="1193.23" style="stroke:#606060;stroke-width:8.64"/>
	<line x1="2080.36" y1="1193.23" x2="2124.42" y2="1193.23" style="stroke:#606060;stroke-width:8.64"/>
	<line x1="2080.36" y1="1835.39" x2="2124.42" y2="1835.39" style="stroke:#606060;stroke-width:8.64"/>
	<line x1="2255.22" y1="1885.27" x2="2255.22" y2="1827.72" style="stroke:#606060;stroke-width:8.64"/>
	<line x1="2255.22" y1="1798.89" x2="2255.22" y2="1741.34" style="stroke:#606060;stroke-width:8.64"/>
	<line x1="2255.22" y1="1712.51" x2="2255.22" y2="1654.96" style="stroke:#606060;stroke-width:8.64"/>
	<line x1="2255.22" y1="1626.13" x2="2255.22" y2="1568.58" style="stroke:#606060;stroke-width:8.64"/>
	<line x1="2255.22" y1="1539.75" x2="2255.22" y2="1482.08" style="stroke:#606060;stroke-width:8.64"/>
	<line x1="2255.22" y1="1453.37" x2="2255.22" y2="1395.70" style="stroke:#606060;stroke-width:8.64"/>
	<line x1="2255.22" y1="1366.99" x2="2255.22" y2="1309.32" style="stroke:#606060;stroke-width:8.64"/>
	<line x1="2233.19" y1="1281.60" x2="2277.25" y2="1281.60" style="stroke:#606060;stroke-width:8.64"/>
	<line x1="2233.19" y1="1885.27" x2="2277.25" y2="1885.27" style="stroke:#606060;stroke-width:8.64"/>
	<line x1="2407.93" y1="2010.38" x2="2407.93" y2="1952.84" style="stroke:#606060;stroke-width:8.64"/>
	<line x1="2407.93" y1="1924.00" x2="2407.93" y2="1866.33" style="stroke:#606060;stroke-width:8.64"/>
	<line x1="2407.93" y1="1837.62" x2="2407.93" y2="1779.95" style="stroke:#606060;stroke-width:8.64"/>
	<line x1="2407.93" y1="1751.24" x2="2407.93" y2="1693.57" style="stroke:#606060;stroke-width:8.64"/>
	<line x1="2407.93" y1="1664.74" x2="2407.93" y2="1607.19" style="stroke:#606060;stroke-width:8.64"/>
	<line x1="2407.93" y1="1578.36" x2="2407.93" y2="1520.81" style="stroke:#606060;stroke-width:8.64"/>
	<line x1="2407.93" y1="1491.98" x2="2407.93" y2="1434.43" style="stroke:#606060;stroke-width:8.64"/>
	<line x1="2385.90" y1="1412.65" x2="2429.96" y2="1412.65" style="stroke:#606060;stroke-width:8.64"/>
	<line x1="2385.90" y1="2010.38" x2="2429.96" y2="2010.38" style="stroke:#606060;stroke-width:8.64"/>
	<line x1="2560.64" y1="1718.20" x2="2560.64" y2="1660.65" style="stroke:#606060;stroke-width:8.64"/>
	<line x1="2560.64" y1="1631.82" x2="2560.64" y2="1574.27" style="stroke:#606060;stroke-width:8.64"/>
	<line x1="2560.64" y1="1545.44" x2="2560.64" y2="1487.89" style="stroke:#606060;stroke-width:8.64"/>
	<line x1="2560.64" y1="1459.06" x2="2560.64" y2="1401.51" style="stroke:#606060;stroke-width:8.64"/>
	<line x1="2560.64" y1="1372.68" x2="2560.64" y2="1315.13" style="stroke:#606060;stroke-width:8.64"/>
	<line x1="2560.64" y1="1286.30" x2="2560.64" y2="1228.63" style="stroke:#606060;stroke-width:8.64"/>
	<line x1="2560.64" y1="1199.92" x2="2560.64" y2="1142.25" style="stroke:#606060;stroke-width:8.64"/>
	<line x1="2560.64" y1="1113.54" x2="2560.64" y2="1100.67" style="stroke:#606060;stroke-width:8.64"/>
	<line x1="2538.61" y1="1100.67" x2="2582.66" y2="1100.67" style="stroke:#606060;stroke-width:8.64"/>
	<line x1="2538.61" y1="1718.20" x2="2582.66" y2="1718.20" style="stroke:#606060;stroke-width:8.64"/>
	<line x1="2713.47" y1="1538.26" x2="2713.47" y2="1480.72" style="stroke:#606060;stroke-width:8.64"/>
	<line x1="2713.47" y1="1451.88" x2="2713.47" y2="1394.33" style="stroke:#606060;stroke-width:8.64"/>
	<line x1="2713.47" y1="1365.50" x2="2713.47" y2="1307.83" style="stroke:#606060;stroke-width:8.64"/>
	<line x1="2713.47" y1="1279.12" x2="2713.47" y2="1221.45" style="stroke:#606060;stroke-width:8.64"/>
	<line x1="2713.47" y1="1192.74" x2="2713.47" y2="1135.07" style="stroke:#606060;stroke-width:8.64"/>
	<line x1="2713.47" y1="1106.24" x2="2713.47" y2="1048.69" style="stroke:#606060;stroke-width:8.64"/>
	<line x1="2713.47" y1="1019.86" x2="2713.47" y2="962.31" style="stroke:#606060;stroke-width:8.64"/>
	<line x1="2713.47" y1="933.48" x2="2713.47" y2="918.13" style="stroke:#606060;stroke-width:8.64"/>
	<line x1="2691.44" y1="918.13" x2="2735.49" y2="918.13" style="stroke:#606060;stroke-width:8.64"/>
	<line x1="2691.44" y1="1538.26" x2="2735.49" y2="1538.26" style="stroke:#606060;stroke-width:8.64"/>
	<line x1="2866.17" y1="1517.72" x2="2866.17" y2="1460.17" style="stroke:#606060;stroke-width:8.64"/>
	<line x1="2866.17" y1="1431.34" x2="2866.17" y2="1373.79" style="stroke:#606060;stroke-width:8.64"/>
	<line x1="2866.17" y1="1344.96" x2="2866.17" y2="1287.41" style="stroke:#606060;stroke-width:8.64"/>
	<line x1="2866.17" y1="1258.58" x2="2866.17" y2="1200.91" style="stroke:#606060;stroke-width:8.64"/>
	<line x1="2866.17" y1="1172.20" x2="2866.17" y2="1114.53" style="stroke:#606060;stroke-width:8.64"/>
	<line x1="2866.17" y1="1085.82" x2="2866.17" y2="1028.15" style="stroke:#606060;stroke-width:8.64"/>
	<line x1="2866.17" y1="999.31" x2="2866.17" y2="941.77" style="stroke:#606060;stroke-width:8.64"/>
	<line x1="2866.17" y1="912.93" x2="2866.17" y2="855.39" style="stroke:#606060;stroke-width:8.64"/>
	<line x1="2844.15" y1="839.42" x2="2888.20" y2="839.42" style="stroke:#606060;stroke-width:8.64"/>
	<line x1="2844.15" y1="1517.72" x2="2888.20" y2="1517.72" style="stroke:#606060;stroke-width:8.64"/>
	<line x1="3018.88" y1="1458.44" x2="3018.88" y2="1400.89" style="stroke:#606060;stroke-width:8.64"/>
	<line x1="3018.88" y1="1372.06" x2="3018.88" y2="1314.51" style="stroke:#606060;stroke-width:8.64"/>
	<line x1="3018.88" y1="1285.68" x2="3018.88" y2="1228.13" style="stroke:#606060;stroke-width:8.64"/>
	<line x1="3018.88" y1="1199.30" x2="3018.88" y2="1141.63" style="stroke:#606060;stroke-width:8.64"/>
	<line x1="3018.88" y1="1112.92" x2="3018.88" y2="1055.25" style="stroke:#606060;stroke-width:8.64"/>
	<line x1="3018.88" y1="1026.54" x2="3018.88" y2="968.87" style="stroke:#606060;stroke-width:8.64"/>
	<line x1="3018.88" y1="940.03" x2="3018.88" y2="882.49" style="stroke:#606060;stroke-width:8.64"/>
	<line x1="3018.88" y1="853.65" x2="3018.88" y2="803.04" style="stroke:#606060;stroke-width:8.64"/>
	<line x1="2996.85" y1="803.04" x2="3040.91" y2="803.04" style="stroke:#606060;stroke-width:8.64"/>
	<line x1="2996.85" y1="1458.44" x2="3040.91" y2="1458.44" style="stroke:#606060;stroke-width:8.64"/>
	<line x1="3171.71" y1="1332.71" x2="3171.71" y2="1275.16" style="stroke:#606060;stroke-width:8.64"/>
	<line x1="3171.71" y1="1246.33" x2="3171.71" y2="1188.78" style="stroke:#606060;stroke-width:8.64"/>
	<line x1="3171.71" y1="1159.94" x2="3171.71" y2="1102.28" style="stroke:#606060;stroke-width:8.64"/>
	<line x1="3171.71" y1="1073.56" x2="3171.71" y2="1015.90" style="stroke:#606060;stroke-width:8.64"/>
	<line x1="3171.71" y1="987.06" x2="3171.71" y2="929.52" style="stroke:#606060;stroke-width:8.64"/>
	<line x1="3171.71" y1="900.68" x2="3171.71" y2="843.14" style="stroke:#606060;stroke-width:8.64"/>
	<line x1="3171.71" y1="814.30" x2="3171.71" y2="756.75" style="stroke:#606060;stroke-width:8.64"/>
	<line x1="3171.71" y1="727.92" x2="3171.71" y2="670.37" style="stroke:#606060;stroke-width:8.64"/>
	<line x1="3149.69" y1="643.03" x2="3193.74" y2="643.03" style="stroke:#606060;stroke-width:8.64"/>
	<line x1="3149.69" y1="1332.71" x2="3193.74" y2="1332.71" style="stroke:#606060;stroke-width:8.64"/>
	<line x1="3324.42" y1="1256.84" x2="3324.42" y2="1199.30" style="stroke:#606060;stroke-width:8.64"/>
	<line x1="3324.42" y1="1170.46" x2="3324.42" y2="1112.92" style="stroke:#606060;stroke-width:8.64"/>
	<line x1="3324.42" y1="1084.08" x2="3324.42" y2="1026.54" style="stroke:#606060;stroke-width:8.64"/>
	<line x1="3324.42" y1="997.70" x2="3324.42" y2="940.03" style="stroke:#606060;stroke-width:8.64"/>
	<line x1="3324.42" y1="911.32" x2="3324.42" y2="853.65" style="stroke:#606060;stroke-width:8.64"/>
	<line x1="3324.42" y1="824.82" x2="3324.42" y2="767.27" style="stroke:#606060;stroke-width:8.64"/>
	<line x1="3324.42" y1="738.44" x2="3324.42" y2="680.89" style="stroke:#606060;stroke-width:8.64"/>
	<line x1="3324.42" y1="652.06" x2="3324.42" y2="606.77" style="stroke:#606060;stroke-width:8.64"/>
	<line x1="3302.39" y1="606.77" x2="3346.45" y2="606.77" style="stroke:#606060;stroke-width:8.64"/>
	<line x1="3302.39" y1="1256.84" x2="3346.45" y2="1256.84" style="stroke:#606060;stroke-width:8.64"/>
	<line x1="3477.25" y1="1538.38" x2="3477.25" y2="1480.84" style="stroke:#606060;stroke-width:8.64"/>
	<line x1="3477.25" y1="1452.00" x2="3477.25" y2="1394.46" style="stroke:#606060;stroke-width:8.64"/>
	<line x1="3477.25" y1="1365.62" x2="3477.25" y2="1307.95" style="stroke:#606060;stroke-width:8.64"/>
	<line x1="3477.25" y1="1279.24" x2="3477.25" y2="1221.57" style="stroke:#606060;stroke-width:8.64"/>
	<line x1="3477.25" y1="1192.86" x2="3477.25" y2="1135.19" style="stroke:#606060;stroke-width:8.64"/>
	<line x1="3477.25" y1="1106.36" x2="3477.25" y2="1048.81" style="stroke:#606060;stroke-width:8.64"/>
	<line x1="3477.25" y1="1019.98" x2="3477.25" y2="962.43" style="stroke:#606060;stroke-width:8.64"/>
	<line x1="3477.25" y1="933.60" x2="3477.25" y2="876.05" style="stroke:#606060;stroke-width:8.64"/>
	<line x1="3455.22" y1="852.54" x2="3499.28" y2="852.54" style="stroke:#606060;stroke-width:8.64"/>
	<line x1="3455.22" y1="1538.38" x2="3499.28" y2="1538.38" style="stroke:#606060;stroke-width:8.64"/>
	<line x1="3629.96" y1="1181.73" x2="3629.96" y2="1124.18" style="stroke:#606060;stroke-width:8.64"/>
	<line x1="3629.96" y1="1095.35" x2="3629.96" y2="1037.80" style="stroke:#606060;stroke-width:8.64"/>
	<line x1="3629.96" y1="1008.97" x2="3629.96" y2="951.42" style="stroke:#606060;stroke-width:8.64"/>
	<line x1="3629.96" y1="922.59" x2="3629.96" y2="864.92" style="stroke:#606060;stroke-width:8.64"/>
	<line x1="3629.96" y1="836.20" x2="3629.96" y2="778.54" style="stroke:#606060;stroke-width:8.64"/>
	<line x1="3629.96" y1="749.70" x2="3629.96" y2="692.16" style="stroke:#606060;stroke-width:8.64"/>
	<line x1="3629.96" y1="663.32" x2="3629.96" y2="605.78" style="stroke:#606060;stroke-width:8.64"/>
	<line x1="3629.96" y1="576.94" x2="3629.96" y2="519.39" style="stroke:#606060;stroke-width:8.64"/>
	<line x1="3607.93" y1="504.42" x2="3651.99" y2="504.42" style="stroke:#606060;stroke-width:8.64"/>
	<line x1="3607.93" y1="1181.73" x2="3651.99" y2="1181.73" style="stroke:#606060;stroke-width:8.64"/>
	<line x1="3782.67" y1="1262.17" x2="3782.67" y2="1204.62" style="stroke:#606060;stroke-width:8.64"/>
	<line x1="3782.67" y1="1175.79" x2="3782.67" y2="1118.12" style="stroke:#606060;stroke-width:8.64"/>
	<line x1="3782.67" y1="1089.41" x2="3782.67" y2="1031.74" style="stroke:#606060;stroke-width:8.64"/>
	<line x1="3782.67" y1="1002.90" x2="3782.67" y2="945.36" style="stroke:#606060;stroke-width:8.64"/>
	<line x1="3782.67" y1="916.52" x2="3782.67" y2="858.98" style="stroke:#606060;stroke-width:8.64"/>
	<line x1="3782.67" y1="830.14" x2="3782.67" y2="772.60" style="stroke:#606060;stroke-width:8.64"/>
	<line x1="3782.67" y1="743.76" x2="3782.67" y2="686.22" style="stroke:#606060;stroke-width:8.64"/>
	<line x1="3782.67" y1="657.38" x2="3782.67" y2="606.77" style="stroke:#606060;stroke-width:8.64"/>
	<line x1="3760.64" y1="606.77" x2="3804.69" y2="606.77" style="stroke:#606060;stroke-width:8.64"/>
	<line x1="3760.64" y1="1262.17" x2="3804.69" y2="1262.17" style="stroke:#606060;stroke-width:8.64"/>
	<circle cx="422.11" cy="1761.64" r="22.03" style="fill:none;stroke:#606060;stroke-width:8.64"/>
	<circle cx="574.82" cy="1770.05" r="22.03" style="fill:none;stroke:#606060;stroke-width:8.64"/>
	<circle cx="727.53" cy="1676.00" r="22.03" style="fill:none;stroke:#606060;stroke-width:8.64"/>
	<circle cx="880.36" cy="1656.45" r="22.03" style="fill:none;stroke:#606060;stroke-width:8.64"/>
	<circle cx="1033.07" cy="1624.27" r="22.03" style="fill:none;stroke:#606060;stroke-width:8.64"/>
	<circle cx="1185.90" cy="1687.88" r="22.03" style="fill:none;stroke:#606060;stroke-width:8.64"/>
	<circle cx="1338.60" cy="1618.95" r="22.03" style="fill:none;stroke:#606060;stroke-width:8.64"/>
	<circle cx="1491.31" cy="1826.24" r="22.03" style="fill:none;stroke:#606060;stroke-width:8.64"/>
	<circle cx="1644.14" cy="2033.65" r="22.03" style="fill:none;stroke:#606060;stroke-width:8.64"/>
	<circle cx="1796.85" cy="1822.89" r="22.03" style="fill:none;stroke:#606060;stroke-width:8.64"/>
	<circle cx="1949.56" cy="1770.55" r="22.03" style="fill:none;stroke:#606060;stroke-width:8.64"/>
	<circle cx="2102.39" cy="1514.38" r="22.03" style="fill:none;stroke:#606060;stroke-width:8.64"/>
	<circle cx="2255.10" cy="1583.55" r="22.03" style="fill:none;stroke:#606060;stroke-width:8.64"/>
	<circle cx="2407.80" cy="1711.52" r="22.03" style="fill:none;stroke:#606060;stroke-width:8.64"/>
	<circle cx="2560.64" cy="1409.43" r="22.03" style="fill:none;stroke:#606060;stroke-width:8.64"/>
	<circle cx="2713.34" cy="1228.26" r="22.03" style="fill:none;stroke:#606060;stroke-width:8.64"/>
	<circle cx="2866.17" cy="1178.63" r="22.03" style="fill:none;stroke:#606060;stroke-width:8.64"/>
	<circle cx="3018.88" cy="1130.86" r="22.03" style="fill:none;stroke:#606060;stroke-width:8.64"/>
	<circle cx="3171.59" cy="987.93" r="22.03" style="fill:none;stroke:#606060;stroke-width:8.64"/>
	<circle cx="3324.42" cy="931.87" r="22.03" style="fill:none;stroke:#606060;stroke-width:8.64"/>
	<circle cx="3477.13" cy="1195.46" r="22.03" style="fill:none;stroke:#606060;stroke-width:8.64"/>
	<circle cx="3629.84" cy="843.14" r="22.03" style="fill:none;stroke:#606060;stroke-width:8.64"/>
	<circle cx="3782.67" cy="934.47" r="22.03" style="fill:none;stroke:#606060;stroke-width:8.64"/>
	<path d=" M422.11 1761.64 L574.82 1770.05 L727.53 1676.00 L880.36 1656.45 L1033.07 1624.27 L1185.90 1687.88 L1338.60 1618.95 L1491.31 1826.24 L1644.14 2033.65 L1796.85 1822.89 L1949.56 1770.55 L2102.39 1514.38 L2255.10 1583.55 L2407.80 1711.52 L2560.64 1409.43 L2713.34 1228.26 L2866.17 1178.63 L3018.88 1130.86 L3171.59 987.93 L3324.42 931.87 L3477.13 1195.46 L3629.84 843.14 L3782.67 934.47" stroke-linejoin="round" style="fill:none;stroke:#808080;stroke-width:8.64"/>
	<line x1="345.76" y1="2534.23" x2="345.76" y2="100.86" style="stroke:#000000;stroke-width:5.76"/>
	<line x1="345.76" y1="2470.87" x2="305.79" y2="2470.87" style="stroke:#000000;stroke-width:5.76"/>
	<text x="263.18" y="2470.87" style="font-family:'Helvetica';font-size:74.99px;fill:#000000" transform="rotate(-90 263.18,2470.87)" text-anchor="middle">-.05</text>
	<line x1="345.76" y1="1894.18" x2="305.79" y2="1894.18" style="stroke:#000000;stroke-width:5.76"/>
	<text x="263.18" y="1894.18" style="font-family:'Helvetica';font-size:74.99px;fill:#000000" transform="rotate(-90 263.18,1894.18)" text-anchor="middle">0</text>
	<line x1="345.76" y1="1317.48" x2="305.79" y2="1317.48" style="stroke:#000000;stroke-width:5.76"/>
	<text x="263.18" y="1317.48" style="font-family:'Helvetica';font-size:74.99px;fill:#000000" transform="rotate(-90 263.18,1317.48)" text-anchor="middle">.05</text>
	<line x1="345.76" y1="740.79" x2="305.79" y2="740.79" style="stroke:#000000;stroke-width:5.76"/>
	<text x="263.18" y="740.79" style="font-family:'Helvetica';font-size:74.99px;fill:#000000" transform="rotate(-90 263.18,740.79)" text-anchor="middle">.1</text>
	<line x1="345.76" y1="164.22" x2="305.79" y2="164.22" style="stroke:#000000;stroke-width:5.76"/>
	<text x="263.18" y="164.22" style="font-family:'Helvetica';font-size:74.99px;fill:#000000" transform="rotate(-90 263.18,164.22)" text-anchor="middle">.15</text>
	<text x="176.68" y="1317.48" style="font-family:'Helvetica';font-size:79.94px;fill:#000000" transform="rotate(-90 176.68,1317.48)" text-anchor="middle">Policy Dynamic Effects</text>
	<line x1="345.76" y1="2534.23" x2="3859.02" y2="2534.23" style="stroke:#000000;stroke-width:5.76"/>
	<line x1="422.11" y1="2534.23" x2="422.11" y2="2574.20" style="stroke:#000000;stroke-width:5.76"/>
	<text x="422.11" y="2646.69" style="font-family:'Helvetica';font-size:74.99px;fill:#000000" text-anchor="middle">pre_11</text>
	<line x1="574.94" y1="2534.23" x2="574.94" y2="2574.20" style="stroke:#000000;stroke-width:5.76"/>
	<text x="574.94" y="2646.69" style="font-family:'Helvetica';font-size:74.99px;fill:#000000" text-anchor="middle">pre_10</text>
	<line x1="727.65" y1="2534.23" x2="727.65" y2="2574.20" style="stroke:#000000;stroke-width:5.76"/>
	<text x="727.65" y="2646.69" style="font-family:'Helvetica';font-size:74.99px;fill:#000000" text-anchor="middle">pre_9</text>
	<line x1="880.36" y1="2534.23" x2="880.36" y2="2574.20" style="stroke:#000000;stroke-width:5.76"/>
	<text x="880.36" y="2646.69" style="font-family:'Helvetica';font-size:74.99px;fill:#000000" text-anchor="middle">pre_8</text>
	<line x1="1033.19" y1="2534.23" x2="1033.19" y2="2574.20" style="stroke:#000000;stroke-width:5.76"/>
	<text x="1033.19" y="2646.69" style="font-family:'Helvetica';font-size:74.99px;fill:#000000" text-anchor="middle">pre_7</text>
	<line x1="1185.90" y1="2534.23" x2="1185.90" y2="2574.20" style="stroke:#000000;stroke-width:5.76"/>
	<text x="1185.90" y="2646.69" style="font-family:'Helvetica';font-size:74.99px;fill:#000000" text-anchor="middle">pre_6</text>
	<line x1="1338.60" y1="2534.23" x2="1338.60" y2="2574.20" style="stroke:#000000;stroke-width:5.76"/>
	<text x="1338.60" y="2646.69" style="font-family:'Helvetica';font-size:74.99px;fill:#000000" text-anchor="middle">pre_5</text>
	<line x1="1491.44" y1="2534.23" x2="1491.44" y2="2574.20" style="stroke:#000000;stroke-width:5.76"/>
	<text x="1491.44" y="2646.69" style="font-family:'Helvetica';font-size:74.99px;fill:#000000" text-anchor="middle">pre_4</text>
	<line x1="1644.14" y1="2534.23" x2="1644.14" y2="2574.20" style="stroke:#000000;stroke-width:5.76"/>
	<text x="1644.14" y="2646.69" style="font-family:'Helvetica';font-size:74.99px;fill:#000000" text-anchor="middle">pre_3</text>
	<line x1="1796.97" y1="2534.23" x2="1796.97" y2="2574.20" style="stroke:#000000;stroke-width:5.76"/>
	<text x="1796.97" y="2646.69" style="font-family:'Helvetica';font-size:74.99px;fill:#000000" text-anchor="middle">pre_2</text>
	<line x1="1949.68" y1="2534.23" x2="1949.68" y2="2574.20" style="stroke:#000000;stroke-width:5.76"/>
	<text x="1949.68" y="2646.69" style="font-family:'Helvetica';font-size:74.99px;fill:#000000" text-anchor="middle">current</text>
	<line x1="2102.39" y1="2534.23" x2="2102.39" y2="2574.20" style="stroke:#000000;stroke-width:5.76"/>
	<text x="2102.39" y="2646.69" style="font-family:'Helvetica';font-size:74.99px;fill:#000000" text-anchor="middle">post_1</text>
	<line x1="2255.22" y1="2534.23" x2="2255.22" y2="2574.20" style="stroke:#000000;stroke-width:5.76"/>
	<text x="2255.22" y="2646.69" style="font-family:'Helvetica';font-size:74.99px;fill:#000000" text-anchor="middle">post_2</text>
	<line x1="2407.93" y1="2534.23" x2="2407.93" y2="2574.20" style="stroke:#000000;stroke-width:5.76"/>
	<text x="2407.93" y="2646.69" style="font-family:'Helvetica';font-size:74.99px;fill:#000000" text-anchor="middle">post_3</text>
	<line x1="2560.64" y1="2534.23" x2="2560.64" y2="2574.20" style="stroke:#000000;stroke-width:5.76"/>
	<text x="2560.64" y="2646.69" style="font-family:'Helvetica';font-size:74.99px;fill:#000000" text-anchor="middle">post_4</text>
	<line x1="2713.47" y1="2534.23" x2="2713.47" y2="2574.20" style="stroke:#000000;stroke-width:5.76"/>
	<text x="2713.47" y="2646.69" style="font-family:'Helvetica';font-size:74.99px;fill:#000000" text-anchor="middle">post_5</text>
	<line x1="2866.17" y1="2534.23" x2="2866.17" y2="2574.20" style="stroke:#000000;stroke-width:5.76"/>
	<text x="2866.17" y="2646.69" style="font-family:'Helvetica';font-size:74.99px;fill:#000000" text-anchor="middle">post_6</text>
	<line x1="3018.88" y1="2534.23" x2="3018.88" y2="2574.20" style="stroke:#000000;stroke-width:5.76"/>
	<text x="3018.88" y="2646.69" style="font-family:'Helvetica';font-size:74.99px;fill:#000000" text-anchor="middle">post_7</text>
	<line x1="3171.71" y1="2534.23" x2="3171.71" y2="2574.20" style="stroke:#000000;stroke-width:5.76"/>
	<text x="3171.71" y="2646.69" style="font-family:'Helvetica';font-size:74.99px;fill:#000000" text-anchor="middle">post_8</text>
	<line x1="3324.42" y1="2534.23" x2="3324.42" y2="2574.20" style="stroke:#000000;stroke-width:5.76"/>
	<text x="3324.42" y="2646.69" style="font-family:'Helvetica';font-size:74.99px;fill:#000000" text-anchor="middle">post_9</text>
	<line x1="3477.25" y1="2534.23" x2="3477.25" y2="2574.20" style="stroke:#000000;stroke-width:5.76"/>
	<text x="3477.25" y="2646.69" style="font-family:'Helvetica';font-size:74.99px;fill:#000000" text-anchor="middle">post_10</text>
	<line x1="3629.96" y1="2534.23" x2="3629.96" y2="2574.20" style="stroke:#000000;stroke-width:5.76"/>
	<text x="3629.96" y="2646.69" style="font-family:'Helvetica';font-size:74.99px;fill:#000000" text-anchor="middle">post_11</text>
	<line x1="3782.67" y1="2534.23" x2="3782.67" y2="2574.20" style="stroke:#000000;stroke-width:5.76"/>
	<text x="3782.67" y="2646.69" style="font-family:'Helvetica';font-size:74.99px;fill:#000000" text-anchor="middle">post_12</text>
	<text x="2102.39" y="2735.17" style="fill:#000000" text-anchor="middle">
		<tspan style="font-family:'Helvetica';font-size:79.94px">Avg_rating</tspan>
		<tspan dy="11.42px" style="font-family:'Helvetica';font-size:46.61px">it</tspan>
	</text>
</svg>
