<?xml version="1.0" encoding="UTF-8" standalone="no"?>
<!-- This is a Stata 18.0 generated SVG file (http://www.stata.com) -->

<svg version="1.1" width="5.500in" height="4.000in" viewBox="0 0 3960 2880" xmlns="http://www.w3.org/2000/svg" xmlns:xlink="http://www.w3.org/1999/xlink">
	<desc>Stata Graph - Graph</desc>
	<rect x="0" y="0" width="3960" height="2880" style="fill:#FFFFFF;stroke:none"/>
	<rect x="0.00" y="0.00" width="3959.88" height="2880.00" style="fill:#FFFFFF"/>
	<rect x="2.88" y="2.88" width="3954.12" height="2874.24" style="fill:none;stroke:#FFFFFF;stroke-width:5.76"/>
	<rect x="348.64" y="103.74" width="3507.50" height="2427.61" style="fill:none;stroke:#000000;stroke-width:5.76"/>
	<line x1="880.36" y1="2534.23" x2="880.36" y2="2476.69" style="stroke:#6E8E84;stroke-width:4.32"/>
	<line x1="880.36" y1="2447.85" x2="880.36" y2="2390.31" style="stroke:#6E8E84;stroke-width:4.32"/>
	<line x1="880.36" y1="2361.47" x2="880.36" y2="2303.93" style="stroke:#6E8E84;stroke-width:4.32"/>
	<line x1="880.36" y1="2275.09" x2="880.36" y2="2217.55" style="stroke:#6E8E84;stroke-width:4.32"/>
	<line x1="880.36" y1="2188.71" x2="880.36" y2="2131.17" style="stroke:#6E8E84;stroke-width:4.32"/>
	<line x1="880.36" y1="2102.33" x2="880.36" y2="2044.66" style="stroke:#6E8E84;stroke-width:4.32"/>
	<line x1="880.36" y1="2015.95" x2="880.36" y2="1958.28" style="stroke:#6E8E84;stroke-width:4.32"/>
	<line x1="880.36" y1="1929.57" x2="880.36" y2="1871.90" style="stroke:#6E8E84;stroke-width:4.32"/>
	<line x1="880.36" y1="1843.07" x2="880.36" y2="1785.52" style="stroke:#6E8E84;stroke-width:4.32"/>
	<line x1="880.36" y1="1756.69" x2="880.36" y2="1699.14" style="stroke:#6E8E84;stroke-width:4.32"/>
	<line x1="880.36" y1="1670.31" x2="880.36" y2="1612.76" style="stroke:#6E8E84;stroke-width:4.32"/>
	<line x1="880.36" y1="1583.93" x2="880.36" y2="1526.38" style="stroke:#6E8E84;stroke-width:4.32"/>
	<line x1="880.36" y1="1497.55" x2="880.36" y2="1440.00" style="stroke:#6E8E84;stroke-width:4.32"/>
	<line x1="880.36" y1="1411.17" x2="880.36" y2="1353.62" style="stroke:#6E8E84;stroke-width:4.32"/>
	<line x1="880.36" y1="1324.79" x2="880.36" y2="1267.24" style="stroke:#6E8E84;stroke-width:4.32"/>
	<line x1="880.36" y1="1238.40" x2="880.36" y2="1180.86" style="stroke:#6E8E84;stroke-width:4.32"/>
	<line x1="880.36" y1="1152.02" x2="880.36" y2="1094.36" style="stroke:#6E8E84;stroke-width:4.32"/>
	<line x1="880.36" y1="1065.64" x2="880.36" y2="1007.98" style="stroke:#6E8E84;stroke-width:4.32"/>
	<line x1="880.36" y1="979.14" x2="880.36" y2="921.60" style="stroke:#6E8E84;stroke-width:4.32"/>
	<line x1="880.36" y1="892.76" x2="880.36" y2="835.21" style="stroke:#6E8E84;stroke-width:4.32"/>
	<line x1="880.36" y1="806.38" x2="880.36" y2="748.83" style="stroke:#6E8E84;stroke-width:4.32"/>
	<line x1="880.36" y1="720.00" x2="880.36" y2="662.45" style="stroke:#6E8E84;stroke-width:4.32"/>
	<line x1="880.36" y1="633.62" x2="880.36" y2="576.07" style="stroke:#6E8E84;stroke-width:4.32"/>
	<line x1="880.36" y1="547.24" x2="880.36" y2="489.69" style="stroke:#6E8E84;stroke-width:4.32"/>
	<line x1="880.36" y1="460.86" x2="880.36" y2="403.31" style="stroke:#6E8E84;stroke-width:4.32"/>
	<line x1="880.36" y1="374.48" x2="880.36" y2="316.93" style="stroke:#6E8E84;stroke-width:4.32"/>
	<line x1="880.36" y1="288.10" x2="880.36" y2="230.55" style="stroke:#6E8E84;stroke-width:4.32"/>
	<line x1="880.36" y1="201.72" x2="880.36" y2="144.05" style="stroke:#6E8E84;stroke-width:4.32"/>
	<line x1="880.36" y1="115.34" x2="880.36" y2="100.86" style="stroke:#6E8E84;stroke-width:4.32"/>
	<line x1="345.76" y1="1701.99" x2="3859.02" y2="1701.99" style="stroke:#658397;stroke-width:8.64"/>
	<line x1="422.11" y1="2060.63" x2="422.11" y2="2003.08" style="stroke:#606060;stroke-width:8.64"/>
	<line x1="422.11" y1="1974.25" x2="422.11" y2="1916.70" style="stroke:#606060;stroke-width:8.64"/>
	<line x1="422.11" y1="1887.87" x2="422.11" y2="1830.32" style="stroke:#606060;stroke-width:8.64"/>
	<line x1="422.11" y1="1801.49" x2="422.11" y2="1743.82" style="stroke:#606060;stroke-width:8.64"/>
	<line x1="422.11" y1="1715.10" x2="422.11" y2="1657.44" style="stroke:#606060;stroke-width:8.64"/>
	<line x1="422.11" y1="1628.60" x2="422.11" y2="1571.06" style="stroke:#606060;stroke-width:8.64"/>
	<line x1="422.11" y1="1542.22" x2="422.11" y2="1484.68" style="stroke:#606060;stroke-width:8.64"/>
	<line x1="422.11" y1="1455.84" x2="422.11" y2="1398.29" style="stroke:#606060;stroke-width:8.64"/>
	<line x1="422.11" y1="1369.46" x2="422.11" y2="1311.91" style="stroke:#606060;stroke-width:8.64"/>
	<line x1="422.11" y1="1283.08" x2="422.11" y2="1225.53" style="stroke:#606060;stroke-width:8.64"/>
	<line x1="422.11" y1="1196.70" x2="422.11" y2="1139.15" style="stroke:#606060;stroke-width:8.64"/>
	<line x1="422.11" y1="1110.32" x2="422.11" y2="1052.77" style="stroke:#606060;stroke-width:8.64"/>
	<line x1="400.08" y1="1029.76" x2="444.14" y2="1029.76" style="stroke:#606060;stroke-width:8.64"/>
	<line x1="400.08" y1="2060.63" x2="444.14" y2="2060.63" style="stroke:#606060;stroke-width:8.64"/>
	<line x1="574.94" y1="2036.12" x2="574.94" y2="1978.58" style="stroke:#606060;stroke-width:8.64"/>
	<line x1="574.94" y1="1949.74" x2="574.94" y2="1892.20" style="stroke:#606060;stroke-width:8.64"/>
	<line x1="574.94" y1="1863.36" x2="574.94" y2="1805.82" style="stroke:#606060;stroke-width:8.64"/>
	<line x1="574.94" y1="1776.98" x2="574.94" y2="1719.44" style="stroke:#606060;stroke-width:8.64"/>
	<line x1="574.94" y1="1690.60" x2="574.94" y2="1632.93" style="stroke:#606060;stroke-width:8.64"/>
	<line x1="574.94" y1="1604.22" x2="574.94" y2="1546.55" style="stroke:#606060;stroke-width:8.64"/>
	<line x1="574.94" y1="1517.72" x2="574.94" y2="1460.17" style="stroke:#606060;stroke-width:8.64"/>
	<line x1="574.94" y1="1431.34" x2="574.94" y2="1373.79" style="stroke:#606060;stroke-width:8.64"/>
	<line x1="574.94" y1="1344.96" x2="574.94" y2="1287.41" style="stroke:#606060;stroke-width:8.64"/>
	<line x1="574.94" y1="1258.58" x2="574.94" y2="1201.03" style="stroke:#606060;stroke-width:8.64"/>
	<line x1="574.94" y1="1172.20" x2="574.94" y2="1114.65" style="stroke:#606060;stroke-width:8.64"/>
	<line x1="574.94" y1="1085.82" x2="574.94" y2="1042.87" style="stroke:#606060;stroke-width:8.64"/>
	<line x1="552.92" y1="1042.87" x2="596.97" y2="1042.87" style="stroke:#606060;stroke-width:8.64"/>
	<line x1="552.92" y1="2036.12" x2="596.97" y2="2036.12" style="stroke:#606060;stroke-width:8.64"/>
	<line x1="727.65" y1="1926.97" x2="727.65" y2="1869.43" style="stroke:#606060;stroke-width:8.64"/>
	<line x1="727.65" y1="1840.59" x2="727.65" y2="1783.05" style="stroke:#606060;stroke-width:8.64"/>
	<line x1="727.65" y1="1754.21" x2="727.65" y2="1696.54" style="stroke:#606060;stroke-width:8.64"/>
	<line x1="727.65" y1="1667.83" x2="727.65" y2="1610.16" style="stroke:#606060;stroke-width:8.64"/>
	<line x1="727.65" y1="1581.33" x2="727.65" y2="1523.78" style="stroke:#606060;stroke-width:8.64"/>
	<line x1="727.65" y1="1494.95" x2="727.65" y2="1437.40" style="stroke:#606060;stroke-width:8.64"/>
	<line x1="727.65" y1="1408.57" x2="727.65" y2="1351.02" style="stroke:#606060;stroke-width:8.64"/>
	<line x1="727.65" y1="1322.19" x2="727.65" y2="1264.64" style="stroke:#606060;stroke-width:8.64"/>
	<line x1="727.65" y1="1235.81" x2="727.65" y2="1178.26" style="stroke:#606060;stroke-width:8.64"/>
	<line x1="727.65" y1="1149.43" x2="727.65" y2="1091.88" style="stroke:#606060;stroke-width:8.64"/>
	<line x1="727.65" y1="1063.05" x2="727.65" y2="1005.50" style="stroke:#606060;stroke-width:8.64"/>
	<line x1="727.65" y1="976.67" x2="727.65" y2="974.93" style="stroke:#606060;stroke-width:8.64"/>
	<line x1="705.62" y1="974.93" x2="749.68" y2="974.93" style="stroke:#606060;stroke-width:8.64"/>
	<line x1="705.62" y1="1926.97" x2="749.68" y2="1926.97" style="stroke:#606060;stroke-width:8.64"/>
	<line x1="880.36" y1="2192.79" x2="880.36" y2="2135.25" style="stroke:#606060;stroke-width:8.64"/>
	<line x1="880.36" y1="2106.41" x2="880.36" y2="2048.75" style="stroke:#606060;stroke-width:8.64"/>
	<line x1="880.36" y1="2020.03" x2="880.36" y2="1962.37" style="stroke:#606060;stroke-width:8.64"/>
	<line x1="880.36" y1="1933.53" x2="880.36" y2="1875.98" style="stroke:#606060;stroke-width:8.64"/>
	<line x1="880.36" y1="1847.15" x2="880.36" y2="1789.60" style="stroke:#606060;stroke-width:8.64"/>
	<line x1="880.36" y1="1760.77" x2="880.36" y2="1703.22" style="stroke:#606060;stroke-width:8.64"/>
	<line x1="880.36" y1="1674.39" x2="880.36" y2="1616.84" style="stroke:#606060;stroke-width:8.64"/>
	<line x1="880.36" y1="1588.01" x2="880.36" y2="1530.46" style="stroke:#606060;stroke-width:8.64"/>
	<line x1="880.36" y1="1501.63" x2="880.36" y2="1444.08" style="stroke:#606060;stroke-width:8.64"/>
	<line x1="880.36" y1="1415.25" x2="880.36" y2="1357.70" style="stroke:#606060;stroke-width:8.64"/>
	<line x1="880.36" y1="1328.87" x2="880.36" y2="1271.32" style="stroke:#606060;stroke-width:8.64"/>
	<line x1="880.36" y1="1242.49" x2="880.36" y2="1241.99" style="stroke:#606060;stroke-width:8.64"/>
	<line x1="858.33" y1="1241.99" x2="902.39" y2="1241.99" style="stroke:#606060;stroke-width:8.64"/>
	<line x1="858.33" y1="2192.79" x2="902.39" y2="2192.79" style="stroke:#606060;stroke-width:8.64"/>
	<line x1="1033.19" y1="2157.40" x2="1033.19" y2="2099.86" style="stroke:#606060;stroke-width:8.64"/>
	<line x1="1033.19" y1="2071.02" x2="1033.19" y2="2013.48" style="stroke:#606060;stroke-width:8.64"/>
	<line x1="1033.19" y1="1984.64" x2="1033.19" y2="1927.10" style="stroke:#606060;stroke-width:8.64"/>
	<line x1="1033.19" y1="1898.26" x2="1033.19" y2="1840.72" style="stroke:#606060;stroke-width:8.64"/>
	<line x1="1033.19" y1="1811.88" x2="1033.19" y2="1754.33" style="stroke:#606060;stroke-width:8.64"/>
	<line x1="1033.19" y1="1725.50" x2="1033.19" y2="1667.95" style="stroke:#606060;stroke-width:8.64"/>
	<line x1="1033.19" y1="1639.12" x2="1033.19" y2="1581.45" style="stroke:#606060;stroke-width:8.64"/>
	<line x1="1033.19" y1="1552.74" x2="1033.19" y2="1495.07" style="stroke:#606060;stroke-width:8.64"/>
	<line x1="1033.19" y1="1466.24" x2="1033.19" y2="1408.69" style="stroke:#606060;stroke-width:8.64"/>
	<line x1="1033.19" y1="1379.86" x2="1033.19" y2="1322.31" style="stroke:#606060;stroke-width:8.64"/>
	<line x1="1033.19" y1="1293.48" x2="1033.19" y2="1235.93" style="stroke:#606060;stroke-width:8.64"/>
	<line x1="1033.19" y1="1207.10" x2="1033.19" y2="1204.13" style="stroke:#606060;stroke-width:8.64"/>
	<line x1="1011.16" y1="1204.13" x2="1055.22" y2="1204.13" style="stroke:#606060;stroke-width:8.64"/>
	<line x1="1011.16" y1="2157.40" x2="1055.22" y2="2157.40" style="stroke:#606060;stroke-width:8.64"/>
	<line x1="1185.90" y1="2196.63" x2="1185.90" y2="2139.09" style="stroke:#606060;stroke-width:8.64"/>
	<line x1="1185.90" y1="2110.25" x2="1185.90" y2="2052.58" style="stroke:#606060;stroke-width:8.64"/>
	<line x1="1185.90" y1="2023.87" x2="1185.90" y2="1966.20" style="stroke:#606060;stroke-width:8.64"/>
	<line x1="1185.90" y1="1937.49" x2="1185.90" y2="1879.82" style="stroke:#606060;stroke-width:8.64"/>
	<line x1="1185.90" y1="1850.99" x2="1185.90" y2="1793.44" style="stroke:#606060;stroke-width:8.64"/>
	<line x1="1185.90" y1="1764.61" x2="1185.90" y2="1707.06" style="stroke:#606060;stroke-width:8.64"/>
	<line x1="1185.90" y1="1678.23" x2="1185.90" y2="1620.68" style="stroke:#606060;stroke-width:8.64"/>
	<line x1="1185.90" y1="1591.85" x2="1185.90" y2="1534.30" style="stroke:#606060;stroke-width:8.64"/>
	<line x1="1185.90" y1="1505.47" x2="1185.90" y2="1447.92" style="stroke:#606060;stroke-width:8.64"/>
	<line x1="1185.90" y1="1419.09" x2="1185.90" y2="1361.54" style="stroke:#606060;stroke-width:8.64"/>
	<line x1="1185.90" y1="1332.71" x2="1185.90" y2="1275.16" style="stroke:#606060;stroke-width:8.64"/>
	<line x1="1163.87" y1="1269.22" x2="1207.92" y2="1269.22" style="stroke:#606060;stroke-width:8.64"/>
	<line x1="1163.87" y1="2196.63" x2="1207.92" y2="2196.63" style="stroke:#606060;stroke-width:8.64"/>
	<line x1="1338.60" y1="2059.02" x2="1338.60" y2="2001.47" style="stroke:#606060;stroke-width:8.64"/>
	<line x1="1338.60" y1="1972.64" x2="1338.60" y2="1915.09" style="stroke:#606060;stroke-width:8.64"/>
	<line x1="1338.60" y1="1886.26" x2="1338.60" y2="1828.71" style="stroke:#606060;stroke-width:8.64"/>
	<line x1="1338.60" y1="1799.88" x2="1338.60" y2="1742.33" style="stroke:#606060;stroke-width:8.64"/>
	<line x1="1338.60" y1="1713.50" x2="1338.60" y2="1655.95" style="stroke:#606060;stroke-width:8.64"/>
	<line x1="1338.60" y1="1627.12" x2="1338.60" y2="1569.45" style="stroke:#606060;stroke-width:8.64"/>
	<line x1="1338.60" y1="1540.74" x2="1338.60" y2="1483.07" style="stroke:#606060;stroke-width:8.64"/>
	<line x1="1338.60" y1="1454.36" x2="1338.60" y2="1396.69" style="stroke:#606060;stroke-width:8.64"/>
	<line x1="1338.60" y1="1367.85" x2="1338.60" y2="1310.31" style="stroke:#606060;stroke-width:8.64"/>
	<line x1="1338.60" y1="1281.47" x2="1338.60" y2="1223.93" style="stroke:#606060;stroke-width:8.64"/>
	<line x1="1338.60" y1="1195.09" x2="1338.60" y2="1137.55" style="stroke:#606060;stroke-width:8.64"/>
	<line x1="1338.60" y1="1108.71" x2="1338.60" y2="1086.19" style="stroke:#606060;stroke-width:8.64"/>
	<line x1="1316.58" y1="1086.19" x2="1360.63" y2="1086.19" style="stroke:#606060;stroke-width:8.64"/>
	<line x1="1316.58" y1="2059.02" x2="1360.63" y2="2059.02" style="stroke:#606060;stroke-width:8.64"/>
	<line x1="1491.44" y1="2076.47" x2="1491.44" y2="2018.92" style="stroke:#606060;stroke-width:8.64"/>
	<line x1="1491.44" y1="1990.09" x2="1491.44" y2="1932.54" style="stroke:#606060;stroke-width:8.64"/>
	<line x1="1491.44" y1="1903.71" x2="1491.44" y2="1846.16" style="stroke:#606060;stroke-width:8.64"/>
	<line x1="1491.44" y1="1817.33" x2="1491.44" y2="1759.66" style="stroke:#606060;stroke-width:8.64"/>
	<line x1="1491.44" y1="1730.95" x2="1491.44" y2="1673.28" style="stroke:#606060;stroke-width:8.64"/>
	<line x1="1491.44" y1="1644.44" x2="1491.44" y2="1586.90" style="stroke:#606060;stroke-width:8.64"/>
	<line x1="1491.44" y1="1558.06" x2="1491.44" y2="1500.52" style="stroke:#606060;stroke-width:8.64"/>
	<line x1="1491.44" y1="1471.68" x2="1491.44" y2="1414.14" style="stroke:#606060;stroke-width:8.64"/>
	<line x1="1491.44" y1="1385.30" x2="1491.44" y2="1327.76" style="stroke:#606060;stroke-width:8.64"/>
	<line x1="1491.44" y1="1298.92" x2="1491.44" y2="1241.38" style="stroke:#606060;stroke-width:8.64"/>
	<line x1="1491.44" y1="1212.54" x2="1491.44" y2="1154.99" style="stroke:#606060;stroke-width:8.64"/>
	<line x1="1491.44" y1="1126.16" x2="1491.44" y2="1111.80" style="stroke:#606060;stroke-width:8.64"/>
	<line x1="1469.41" y1="1111.80" x2="1513.46" y2="1111.80" style="stroke:#606060;stroke-width:8.64"/>
	<line x1="1469.41" y1="2076.47" x2="1513.46" y2="2076.47" style="stroke:#606060;stroke-width:8.64"/>
	<line x1="1644.14" y1="2376.32" x2="1644.14" y2="2318.78" style="stroke:#606060;stroke-width:8.64"/>
	<line x1="1644.14" y1="2289.94" x2="1644.14" y2="2232.40" style="stroke:#606060;stroke-width:8.64"/>
	<line x1="1644.14" y1="2203.56" x2="1644.14" y2="2146.02" style="stroke:#606060;stroke-width:8.64"/>
	<line x1="1644.14" y1="2117.18" x2="1644.14" y2="2059.64" style="stroke:#606060;stroke-width:8.64"/>
	<line x1="1644.14" y1="2030.80" x2="1644.14" y2="1973.13" style="stroke:#606060;stroke-width:8.64"/>
	<line x1="1644.14" y1="1944.42" x2="1644.14" y2="1886.75" style="stroke:#606060;stroke-width:8.64"/>
	<line x1="1644.14" y1="1858.04" x2="1644.14" y2="1800.37" style="stroke:#606060;stroke-width:8.64"/>
	<line x1="1644.14" y1="1771.54" x2="1644.14" y2="1713.99" style="stroke:#606060;stroke-width:8.64"/>
	<line x1="1644.14" y1="1685.16" x2="1644.14" y2="1627.61" style="stroke:#606060;stroke-width:8.64"/>
	<line x1="1644.14" y1="1598.78" x2="1644.14" y2="1541.23" style="stroke:#606060;stroke-width:8.64"/>
	<line x1="1644.14" y1="1512.40" x2="1644.14" y2="1454.85" style="stroke:#606060;stroke-width:8.64"/>
	<line x1="1644.14" y1="1426.02" x2="1644.14" y2="1368.47" style="stroke:#606060;stroke-width:8.64"/>
	<line x1="1622.12" y1="1362.16" x2="1666.17" y2="1362.16" style="stroke:#606060;stroke-width:8.64"/>
	<line x1="1622.12" y1="2376.32" x2="1666.17" y2="2376.32" style="stroke:#606060;stroke-width:8.64"/>
	<line x1="1796.97" y1="2125.60" x2="1796.97" y2="2068.05" style="stroke:#606060;stroke-width:8.64"/>
	<line x1="1796.97" y1="2039.22" x2="1796.97" y2="1981.55" style="stroke:#606060;stroke-width:8.64"/>
	<line x1="1796.97" y1="1952.84" x2="1796.97" y2="1895.17" style="stroke:#606060;stroke-width:8.64"/>
	<line x1="1796.97" y1="1866.33" x2="1796.97" y2="1808.79" style="stroke:#606060;stroke-width:8.64"/>
	<line x1="1796.97" y1="1779.95" x2="1796.97" y2="1722.41" style="stroke:#606060;stroke-width:8.64"/>
	<line x1="1796.97" y1="1693.57" x2="1796.97" y2="1636.03" style="stroke:#606060;stroke-width:8.64"/>
	<line x1="1796.97" y1="1607.19" x2="1796.97" y2="1549.65" style="stroke:#606060;stroke-width:8.64"/>
	<line x1="1796.97" y1="1520.81" x2="1796.97" y2="1463.27" style="stroke:#606060;stroke-width:8.64"/>
	<line x1="1796.97" y1="1434.43" x2="1796.97" y2="1376.89" style="stroke:#606060;stroke-width:8.64"/>
	<line x1="1796.97" y1="1348.05" x2="1796.97" y2="1290.51" style="stroke:#606060;stroke-width:8.64"/>
	<line x1="1796.97" y1="1261.67" x2="1796.97" y2="1204.13" style="stroke:#606060;stroke-width:8.64"/>
	<line x1="1796.97" y1="1175.29" x2="1796.97" y2="1159.45" style="stroke:#606060;stroke-width:8.64"/>
	<line x1="1774.95" y1="1159.45" x2="1819.00" y2="1159.45" style="stroke:#606060;stroke-width:8.64"/>
	<line x1="1774.95" y1="2125.60" x2="1819.00" y2="2125.60" style="stroke:#606060;stroke-width:8.64"/>
	<line x1="1949.68" y1="2183.27" x2="1949.68" y2="2125.72" style="stroke:#606060;stroke-width:8.64"/>
	<line x1="1949.68" y1="2096.89" x2="1949.68" y2="2039.34" style="stroke:#606060;stroke-width:8.64"/>
	<line x1="1949.68" y1="2010.51" x2="1949.68" y2="1952.96" style="stroke:#606060;stroke-width:8.64"/>
	<line x1="1949.68" y1="1924.13" x2="1949.68" y2="1866.46" style="stroke:#606060;stroke-width:8.64"/>
	<line x1="1949.68" y1="1837.74" x2="1949.68" y2="1780.08" style="stroke:#606060;stroke-width:8.64"/>
	<line x1="1949.68" y1="1751.36" x2="1949.68" y2="1693.70" style="stroke:#606060;stroke-width:8.64"/>
	<line x1="1949.68" y1="1664.86" x2="1949.68" y2="1607.32" style="stroke:#606060;stroke-width:8.64"/>
	<line x1="1949.68" y1="1578.48" x2="1949.68" y2="1520.94" style="stroke:#606060;stroke-width:8.64"/>
	<line x1="1949.68" y1="1492.10" x2="1949.68" y2="1434.55" style="stroke:#606060;stroke-width:8.64"/>
	<line x1="1949.68" y1="1405.72" x2="1949.68" y2="1348.17" style="stroke:#606060;stroke-width:8.64"/>
	<line x1="1949.68" y1="1319.34" x2="1949.68" y2="1261.79" style="stroke:#606060;stroke-width:8.64"/>
	<line x1="1949.68" y1="1232.96" x2="1949.68" y2="1198.80" style="stroke:#606060;stroke-width:8.64"/>
	<line x1="1927.65" y1="1198.80" x2="1971.71" y2="1198.80" style="stroke:#606060;stroke-width:8.64"/>
	<line x1="1927.65" y1="2183.27" x2="1971.71" y2="2183.27" style="stroke:#606060;stroke-width:8.64"/>
	<line x1="2102.39" y1="1906.80" x2="2102.39" y2="1849.25" style="stroke:#606060;stroke-width:8.64"/>
	<line x1="2102.39" y1="1820.42" x2="2102.39" y2="1762.87" style="stroke:#606060;stroke-width:8.64"/>
	<line x1="2102.39" y1="1734.04" x2="2102.39" y2="1676.37" style="stroke:#606060;stroke-width:8.64"/>
	<line x1="2102.39" y1="1647.66" x2="2102.39" y2="1589.99" style="stroke:#606060;stroke-width:8.64"/>
	<line x1="2102.39" y1="1561.28" x2="2102.39" y2="1503.61" style="stroke:#606060;stroke-width:8.64"/>
	<line x1="2102.39" y1="1474.77" x2="2102.39" y2="1417.23" style="stroke:#606060;stroke-width:8.64"/>
	<line x1="2102.39" y1="1388.39" x2="2102.39" y2="1330.85" style="stroke:#606060;stroke-width:8.64"/>
	<line x1="2102.39" y1="1302.01" x2="2102.39" y2="1244.47" style="stroke:#606060;stroke-width:8.64"/>
	<line x1="2102.39" y1="1215.63" x2="2102.39" y2="1158.09" style="stroke:#606060;stroke-width:8.64"/>
	<line x1="2102.39" y1="1129.25" x2="2102.39" y2="1071.71" style="stroke:#606060;stroke-width:8.64"/>
	<line x1="2102.39" y1="1042.87" x2="2102.39" y2="985.33" style="stroke:#606060;stroke-width:8.64"/>
	<line x1="2102.39" y1="956.49" x2="2102.39" y2="898.95" style="stroke:#606060;stroke-width:8.64"/>
	<line x1="2080.36" y1="874.94" x2="2124.42" y2="874.94" style="stroke:#606060;stroke-width:8.64"/>
	<line x1="2080.36" y1="1906.80" x2="2124.42" y2="1906.80" style="stroke:#606060;stroke-width:8.64"/>
	<line x1="2255.22" y1="1697.28" x2="2255.22" y2="1639.74" style="stroke:#606060;stroke-width:8.64"/>
	<line x1="2255.22" y1="1610.90" x2="2255.22" y2="1553.36" style="stroke:#606060;stroke-width:8.64"/>
	<line x1="2255.22" y1="1524.52" x2="2255.22" y2="1466.85" style="stroke:#606060;stroke-width:8.64"/>
	<line x1="2255.22" y1="1438.14" x2="2255.22" y2="1380.47" style="stroke:#606060;stroke-width:8.64"/>
	<line x1="2255.22" y1="1351.64" x2="2255.22" y2="1294.09" style="stroke:#606060;stroke-width:8.64"/>
	<line x1="2255.22" y1="1265.26" x2="2255.22" y2="1207.71" style="stroke:#606060;stroke-width:8.64"/>
	<line x1="2255.22" y1="1178.88" x2="2255.22" y2="1121.33" style="stroke:#606060;stroke-width:8.64"/>
	<line x1="2255.22" y1="1092.50" x2="2255.22" y2="1034.95" style="stroke:#606060;stroke-width:8.64"/>
	<line x1="2255.22" y1="1006.12" x2="2255.22" y2="948.57" style="stroke:#606060;stroke-width:8.64"/>
	<line x1="2255.22" y1="919.74" x2="2255.22" y2="862.19" style="stroke:#606060;stroke-width:8.64"/>
	<line x1="2255.22" y1="833.36" x2="2255.22" y2="775.81" style="stroke:#606060;stroke-width:8.64"/>
	<line x1="2255.22" y1="746.98" x2="2255.22" y2="711.58" style="stroke:#606060;stroke-width:8.64"/>
	<line x1="2233.19" y1="711.58" x2="2277.25" y2="711.58" style="stroke:#606060;stroke-width:8.64"/>
	<line x1="2233.19" y1="1697.28" x2="2277.25" y2="1697.28" style="stroke:#606060;stroke-width:8.64"/>
	<line x1="2407.93" y1="1563.38" x2="2407.93" y2="1505.84" style="stroke:#606060;stroke-width:8.64"/>
	<line x1="2407.93" y1="1477.00" x2="2407.93" y2="1419.46" style="stroke:#606060;stroke-width:8.64"/>
	<line x1="2407.93" y1="1390.62" x2="2407.93" y2="1333.08" style="stroke:#606060;stroke-width:8.64"/>
	<line x1="2407.93" y1="1304.24" x2="2407.93" y2="1246.70" style="stroke:#606060;stroke-width:8.64"/>
	<line x1="2407.93" y1="1217.86" x2="2407.93" y2="1160.32" style="stroke:#606060;stroke-width:8.64"/>
	<line x1="2407.93" y1="1131.48" x2="2407.93" y2="1073.94" style="stroke:#606060;stroke-width:8.64"/>
	<line x1="2407.93" y1="1045.10" x2="2407.93" y2="987.43" style="stroke:#606060;stroke-width:8.64"/>
	<line x1="2407.93" y1="958.72" x2="2407.93" y2="901.05" style="stroke:#606060;stroke-width:8.64"/>
	<line x1="2407.93" y1="872.22" x2="2407.93" y2="814.67" style="stroke:#606060;stroke-width:8.64"/>
	<line x1="2407.93" y1="785.84" x2="2407.93" y2="728.29" style="stroke:#606060;stroke-width:8.64"/>
	<line x1="2407.93" y1="699.46" x2="2407.93" y2="641.91" style="stroke:#606060;stroke-width:8.64"/>
	<line x1="2407.93" y1="613.08" x2="2407.93" y2="555.53" style="stroke:#606060;stroke-width:8.64"/>
	<line x1="2385.90" y1="554.17" x2="2429.96" y2="554.17" style="stroke:#606060;stroke-width:8.64"/>
	<line x1="2385.90" y1="1563.38" x2="2429.96" y2="1563.38" style="stroke:#606060;stroke-width:8.64"/>
	<line x1="2560.64" y1="1545.56" x2="2560.64" y2="1488.02" style="stroke:#606060;stroke-width:8.64"/>
	<line x1="2560.64" y1="1459.18" x2="2560.64" y2="1401.64" style="stroke:#606060;stroke-width:8.64"/>
	<line x1="2560.64" y1="1372.80" x2="2560.64" y2="1315.26" style="stroke:#606060;stroke-width:8.64"/>
	<line x1="2560.64" y1="1286.42" x2="2560.64" y2="1228.75" style="stroke:#606060;stroke-width:8.64"/>
	<line x1="2560.64" y1="1200.04" x2="2560.64" y2="1142.37" style="stroke:#606060;stroke-width:8.64"/>
	<line x1="2560.64" y1="1113.66" x2="2560.64" y2="1055.99" style="stroke:#606060;stroke-width:8.64"/>
	<line x1="2560.64" y1="1027.16" x2="2560.64" y2="969.61" style="stroke:#606060;stroke-width:8.64"/>
	<line x1="2560.64" y1="940.78" x2="2560.64" y2="883.23" style="stroke:#606060;stroke-width:8.64"/>
	<line x1="2560.64" y1="854.40" x2="2560.64" y2="796.85" style="stroke:#606060;stroke-width:8.64"/>
	<line x1="2560.64" y1="768.02" x2="2560.64" y2="710.47" style="stroke:#606060;stroke-width:8.64"/>
	<line x1="2560.64" y1="681.64" x2="2560.64" y2="624.09" style="stroke:#606060;stroke-width:8.64"/>
	<line x1="2560.64" y1="595.26" x2="2560.64" y2="548.48" style="stroke:#606060;stroke-width:8.64"/>
	<line x1="2538.61" y1="548.48" x2="2582.66" y2="548.48" style="stroke:#606060;stroke-width:8.64"/>
	<line x1="2538.61" y1="1545.56" x2="2582.66" y2="1545.56" style="stroke:#606060;stroke-width:8.64"/>
	<line x1="2713.47" y1="1817.33" x2="2713.47" y2="1759.78" style="stroke:#606060;stroke-width:8.64"/>
	<line x1="2713.47" y1="1730.95" x2="2713.47" y2="1673.40" style="stroke:#606060;stroke-width:8.64"/>
	<line x1="2713.47" y1="1644.57" x2="2713.47" y2="1587.02" style="stroke:#606060;stroke-width:8.64"/>
	<line x1="2713.47" y1="1558.18" x2="2713.47" y2="1500.64" style="stroke:#606060;stroke-width:8.64"/>
	<line x1="2713.47" y1="1471.80" x2="2713.47" y2="1414.26" style="stroke:#606060;stroke-width:8.64"/>
	<line x1="2713.47" y1="1385.42" x2="2713.47" y2="1327.76" style="stroke:#606060;stroke-width:8.64"/>
	<line x1="2713.47" y1="1299.04" x2="2713.47" y2="1241.38" style="stroke:#606060;stroke-width:8.64"/>
	<line x1="2713.47" y1="1212.66" x2="2713.47" y2="1154.99" style="stroke:#606060;stroke-width:8.64"/>
	<line x1="2713.47" y1="1126.16" x2="2713.47" y2="1068.61" style="stroke:#606060;stroke-width:8.64"/>
	<line x1="2713.47" y1="1039.78" x2="2713.47" y2="982.23" style="stroke:#606060;stroke-width:8.64"/>
	<line x1="2713.47" y1="953.40" x2="2713.47" y2="895.85" style="stroke:#606060;stroke-width:8.64"/>
	<line x1="2713.47" y1="867.02" x2="2713.47" y2="809.47" style="stroke:#606060;stroke-width:8.64"/>
	<line x1="2691.44" y1="782.87" x2="2735.49" y2="782.87" style="stroke:#606060;stroke-width:8.64"/>
	<line x1="2691.44" y1="1817.33" x2="2735.49" y2="1817.33" style="stroke:#606060;stroke-width:8.64"/>
	<line x1="2866.17" y1="1635.65" x2="2866.17" y2="1578.11" style="stroke:#606060;stroke-width:8.64"/>
	<line x1="2866.17" y1="1549.27" x2="2866.17" y2="1491.73" style="stroke:#606060;stroke-width:8.64"/>
	<line x1="2866.17" y1="1462.89" x2="2866.17" y2="1405.35" style="stroke:#606060;stroke-width:8.64"/>
	<line x1="2866.17" y1="1376.51" x2="2866.17" y2="1318.97" style="stroke:#606060;stroke-width:8.64"/>
	<line x1="2866.17" y1="1290.13" x2="2866.17" y2="1232.59" style="stroke:#606060;stroke-width:8.64"/>
	<line x1="2866.17" y1="1203.75" x2="2866.17" y2="1146.08" style="stroke:#606060;stroke-width:8.64"/>
	<line x1="2866.17" y1="1117.37" x2="2866.17" y2="1059.70" style="stroke:#606060;stroke-width:8.64"/>
	<line x1="2866.17" y1="1030.87" x2="2866.17" y2="973.32" style="stroke:#606060;stroke-width:8.64"/>
	<line x1="2866.17" y1="944.49" x2="2866.17" y2="886.94" style="stroke:#606060;stroke-width:8.64"/>
	<line x1="2866.17" y1="858.11" x2="2866.17" y2="800.56" style="stroke:#606060;stroke-width:8.64"/>
	<line x1="2866.17" y1="771.73" x2="2866.17" y2="714.18" style="stroke:#606060;stroke-width:8.64"/>
	<line x1="2866.17" y1="685.35" x2="2866.17" y2="627.80" style="stroke:#606060;stroke-width:8.64"/>
	<line x1="2844.15" y1="620.87" x2="2888.20" y2="620.87" style="stroke:#606060;stroke-width:8.64"/>
	<line x1="2844.15" y1="1635.65" x2="2888.20" y2="1635.65" style="stroke:#606060;stroke-width:8.64"/>
	<line x1="3018.88" y1="1660.16" x2="3018.88" y2="1602.61" style="stroke:#606060;stroke-width:8.64"/>
	<line x1="3018.88" y1="1573.78" x2="3018.88" y2="1516.23" style="stroke:#606060;stroke-width:8.64"/>
	<line x1="3018.88" y1="1487.40" x2="3018.88" y2="1429.85" style="stroke:#606060;stroke-width:8.64"/>
	<line x1="3018.88" y1="1401.02" x2="3018.88" y2="1343.47" style="stroke:#606060;stroke-width:8.64"/>
	<line x1="3018.88" y1="1314.64" x2="3018.88" y2="1256.97" style="stroke:#606060;stroke-width:8.64"/>
	<line x1="3018.88" y1="1228.26" x2="3018.88" y2="1170.59" style="stroke:#606060;stroke-width:8.64"/>
	<line x1="3018.88" y1="1141.75" x2="3018.88" y2="1084.21" style="stroke:#606060;stroke-width:8.64"/>
	<line x1="3018.88" y1="1055.37" x2="3018.88" y2="997.83" style="stroke:#606060;stroke-width:8.64"/>
	<line x1="3018.88" y1="968.99" x2="3018.88" y2="911.45" style="stroke:#606060;stroke-width:8.64"/>
	<line x1="3018.88" y1="882.61" x2="3018.88" y2="825.07" style="stroke:#606060;stroke-width:8.64"/>
	<line x1="3018.88" y1="796.23" x2="3018.88" y2="738.69" style="stroke:#606060;stroke-width:8.64"/>
	<line x1="3018.88" y1="709.85" x2="3018.88" y2="652.31" style="stroke:#606060;stroke-width:8.64"/>
	<line x1="3018.88" y1="623.47" x2="3018.88" y2="594.51" style="stroke:#606060;stroke-width:8.64"/>
	<line x1="2996.85" y1="594.51" x2="3040.91" y2="594.51" style="stroke:#606060;stroke-width:8.64"/>
	<line x1="2996.85" y1="1660.16" x2="3040.91" y2="1660.16" style="stroke:#606060;stroke-width:8.64"/>
	<line x1="3171.71" y1="1589.25" x2="3171.71" y2="1531.70" style="stroke:#606060;stroke-width:8.64"/>
	<line x1="3171.71" y1="1502.87" x2="3171.71" y2="1445.32" style="stroke:#606060;stroke-width:8.64"/>
	<line x1="3171.71" y1="1416.49" x2="3171.71" y2="1358.94" style="stroke:#606060;stroke-width:8.64"/>
	<line x1="3171.71" y1="1330.11" x2="3171.71" y2="1272.44" style="stroke:#606060;stroke-width:8.64"/>
	<line x1="3171.71" y1="1243.73" x2="3171.71" y2="1186.06" style="stroke:#606060;stroke-width:8.64"/>
	<line x1="3171.71" y1="1157.35" x2="3171.71" y2="1099.68" style="stroke:#606060;stroke-width:8.64"/>
	<line x1="3171.71" y1="1070.84" x2="3171.71" y2="1013.30" style="stroke:#606060;stroke-width:8.64"/>
	<line x1="3171.71" y1="984.46" x2="3171.71" y2="926.92" style="stroke:#606060;stroke-width:8.64"/>
	<line x1="3171.71" y1="898.08" x2="3171.71" y2="840.54" style="stroke:#606060;stroke-width:8.64"/>
	<line x1="3171.71" y1="811.70" x2="3171.71" y2="754.16" style="stroke:#606060;stroke-width:8.64"/>
	<line x1="3171.71" y1="725.32" x2="3171.71" y2="667.78" style="stroke:#606060;stroke-width:8.64"/>
	<line x1="3171.71" y1="638.94" x2="3171.71" y2="581.40" style="stroke:#606060;stroke-width:8.64"/>
	<line x1="3171.71" y1="552.56" x2="3171.71" y2="540.19" style="stroke:#606060;stroke-width:8.64"/>
	<line x1="3149.69" y1="540.19" x2="3193.74" y2="540.19" style="stroke:#606060;stroke-width:8.64"/>
	<line x1="3149.69" y1="1589.25" x2="3193.74" y2="1589.25" style="stroke:#606060;stroke-width:8.64"/>
	<line x1="3324.42" y1="1271.20" x2="3324.42" y2="1213.65" style="stroke:#606060;stroke-width:8.64"/>
	<line x1="3324.42" y1="1184.82" x2="3324.42" y2="1127.27" style="stroke:#606060;stroke-width:8.64"/>
	<line x1="3324.42" y1="1098.44" x2="3324.42" y2="1040.89" style="stroke:#606060;stroke-width:8.64"/>
	<line x1="3324.42" y1="1012.06" x2="3324.42" y2="954.51" style="stroke:#606060;stroke-width:8.64"/>
	<line x1="3324.42" y1="925.68" x2="3324.42" y2="868.13" style="stroke:#606060;stroke-width:8.64"/>
	<line x1="3324.42" y1="839.30" x2="3324.42" y2="781.63" style="stroke:#606060;stroke-width:8.64"/>
	<line x1="3324.42" y1="752.92" x2="3324.42" y2="695.25" style="stroke:#606060;stroke-width:8.64"/>
	<line x1="3324.42" y1="666.41" x2="3324.42" y2="608.87" style="stroke:#606060;stroke-width:8.64"/>
	<line x1="3324.42" y1="580.03" x2="3324.42" y2="522.49" style="stroke:#606060;stroke-width:8.64"/>
	<line x1="3324.42" y1="493.65" x2="3324.42" y2="436.11" style="stroke:#606060;stroke-width:8.64"/>
	<line x1="3324.42" y1="407.27" x2="3324.42" y2="349.73" style="stroke:#606060;stroke-width:8.64"/>
	<line x1="3324.42" y1="320.89" x2="3324.42" y2="263.35" style="stroke:#606060;stroke-width:8.64"/>
	<line x1="3324.42" y1="234.51" x2="3324.42" y2="218.92" style="stroke:#606060;stroke-width:8.64"/>
	<line x1="3302.39" y1="218.92" x2="3346.45" y2="218.92" style="stroke:#606060;stroke-width:8.64"/>
	<line x1="3302.39" y1="1271.20" x2="3346.45" y2="1271.20" style="stroke:#606060;stroke-width:8.64"/>
	<line x1="3477.25" y1="1425.40" x2="3477.25" y2="1367.85" style="stroke:#606060;stroke-width:8.64"/>
	<line x1="3477.25" y1="1339.02" x2="3477.25" y2="1281.47" style="stroke:#606060;stroke-width:8.64"/>
	<line x1="3477.25" y1="1252.64" x2="3477.25" y2="1195.09" style="stroke:#606060;stroke-width:8.64"/>
	<line x1="3477.25" y1="1166.26" x2="3477.25" y2="1108.71" style="stroke:#606060;stroke-width:8.64"/>
	<line x1="3477.25" y1="1079.88" x2="3477.25" y2="1022.33" style="stroke:#606060;stroke-width:8.64"/>
	<line x1="3477.25" y1="993.50" x2="3477.25" y2="935.83" style="stroke:#606060;stroke-width:8.64"/>
	<line x1="3477.25" y1="907.12" x2="3477.25" y2="849.45" style="stroke:#606060;stroke-width:8.64"/>
	<line x1="3477.25" y1="820.74" x2="3477.25" y2="763.07" style="stroke:#606060;stroke-width:8.64"/>
	<line x1="3477.25" y1="734.23" x2="3477.25" y2="676.69" style="stroke:#606060;stroke-width:8.64"/>
	<line x1="3477.25" y1="647.85" x2="3477.25" y2="590.31" style="stroke:#606060;stroke-width:8.64"/>
	<line x1="3477.25" y1="561.47" x2="3477.25" y2="503.93" style="stroke:#606060;stroke-width:8.64"/>
	<line x1="3477.25" y1="475.09" x2="3477.25" y2="417.55" style="stroke:#606060;stroke-width:8.64"/>
	<line x1="3477.25" y1="388.71" x2="3477.25" y2="331.17" style="stroke:#606060;stroke-width:8.64"/>
	<line x1="3477.25" y1="302.33" x2="3477.25" y2="296.76" style="stroke:#606060;stroke-width:8.64"/>
	<line x1="3455.22" y1="296.76" x2="3499.28" y2="296.76" style="stroke:#606060;stroke-width:8.64"/>
	<line x1="3455.22" y1="1425.40" x2="3499.28" y2="1425.40" style="stroke:#606060;stroke-width:8.64"/>
	<line x1="3629.96" y1="1471.06" x2="3629.96" y2="1413.52" style="stroke:#606060;stroke-width:8.64"/>
	<line x1="3629.96" y1="1384.68" x2="3629.96" y2="1327.14" style="stroke:#606060;stroke-width:8.64"/>
	<line x1="3629.96" y1="1298.30" x2="3629.96" y2="1240.63" style="stroke:#606060;stroke-width:8.64"/>
	<line x1="3629.96" y1="1211.92" x2="3629.96" y2="1154.25" style="stroke:#606060;stroke-width:8.64"/>
	<line x1="3629.96" y1="1125.54" x2="3629.96" y2="1067.87" style="stroke:#606060;stroke-width:8.64"/>
	<line x1="3629.96" y1="1039.04" x2="3629.96" y2="981.49" style="stroke:#606060;stroke-width:8.64"/>
	<line x1="3629.96" y1="952.66" x2="3629.96" y2="895.11" style="stroke:#606060;stroke-width:8.64"/>
	<line x1="3629.96" y1="866.28" x2="3629.96" y2="808.73" style="stroke:#606060;stroke-width:8.64"/>
	<line x1="3629.96" y1="779.90" x2="3629.96" y2="722.35" style="stroke:#606060;stroke-width:8.64"/>
	<line x1="3629.96" y1="693.52" x2="3629.96" y2="635.97" style="stroke:#606060;stroke-width:8.64"/>
	<line x1="3629.96" y1="607.14" x2="3629.96" y2="549.59" style="stroke:#606060;stroke-width:8.64"/>
	<line x1="3629.96" y1="520.76" x2="3629.96" y2="463.21" style="stroke:#606060;stroke-width:8.64"/>
	<line x1="3629.96" y1="434.38" x2="3629.96" y2="389.21" style="stroke:#606060;stroke-width:8.64"/>
	<line x1="3607.93" y1="389.21" x2="3651.99" y2="389.21" style="stroke:#606060;stroke-width:8.64"/>
	<line x1="3607.93" y1="1471.06" x2="3651.99" y2="1471.06" style="stroke:#606060;stroke-width:8.64"/>
	<line x1="3782.67" y1="1465.00" x2="3782.67" y2="1407.45" style="stroke:#606060;stroke-width:8.64"/>
	<line x1="3782.67" y1="1378.62" x2="3782.67" y2="1321.07" style="stroke:#606060;stroke-width:8.64"/>
	<line x1="3782.67" y1="1292.24" x2="3782.67" y2="1234.69" style="stroke:#606060;stroke-width:8.64"/>
	<line x1="3782.67" y1="1205.86" x2="3782.67" y2="1148.31" style="stroke:#606060;stroke-width:8.64"/>
	<line x1="3782.67" y1="1119.48" x2="3782.67" y2="1061.93" style="stroke:#606060;stroke-width:8.64"/>
	<line x1="3782.67" y1="1033.10" x2="3782.67" y2="975.43" style="stroke:#606060;stroke-width:8.64"/>
	<line x1="3782.67" y1="946.72" x2="3782.67" y2="889.05" style="stroke:#606060;stroke-width:8.64"/>
	<line x1="3782.67" y1="860.34" x2="3782.67" y2="802.67" style="stroke:#606060;stroke-width:8.64"/>
	<line x1="3782.67" y1="773.83" x2="3782.67" y2="716.29" style="stroke:#606060;stroke-width:8.64"/>
	<line x1="3782.67" y1="687.45" x2="3782.67" y2="629.91" style="stroke:#606060;stroke-width:8.64"/>
	<line x1="3782.67" y1="601.07" x2="3782.67" y2="543.53" style="stroke:#606060;stroke-width:8.64"/>
	<line x1="3782.67" y1="514.69" x2="3782.67" y2="457.15" style="stroke:#606060;stroke-width:8.64"/>
	<line x1="3782.67" y1="428.31" x2="3782.67" y2="370.77" style="stroke:#606060;stroke-width:8.64"/>
	<line x1="3782.67" y1="341.93" x2="3782.67" y2="318.91" style="stroke:#606060;stroke-width:8.64"/>
	<line x1="3760.64" y1="318.91" x2="3804.69" y2="318.91" style="stroke:#606060;stroke-width:8.64"/>
	<line x1="3760.64" y1="1465.00" x2="3804.69" y2="1465.00" style="stroke:#606060;stroke-width:8.64"/>
	<circle cx="422.11" cy="1545.31" r="22.03" style="fill:none;stroke:#606060;stroke-width:8.64"/>
	<circle cx="574.82" cy="1539.50" r="22.03" style="fill:none;stroke:#606060;stroke-width:8.64"/>
	<circle cx="727.53" cy="1451.01" r="22.03" style="fill:none;stroke:#606060;stroke-width:8.64"/>
	<circle cx="880.36" cy="1717.46" r="22.03" style="fill:none;stroke:#606060;stroke-width:8.64"/>
	<circle cx="1033.07" cy="1680.83" r="22.03" style="fill:none;stroke:#606060;stroke-width:8.64"/>
	<circle cx="1185.90" cy="1732.93" r="22.03" style="fill:none;stroke:#606060;stroke-width:8.64"/>
	<circle cx="1338.60" cy="1572.66" r="22.03" style="fill:none;stroke:#606060;stroke-width:8.64"/>
	<circle cx="1491.31" cy="1594.20" r="22.03" style="fill:none;stroke:#606060;stroke-width:8.64"/>
	<circle cx="1644.14" cy="1869.30" r="22.03" style="fill:none;stroke:#606060;stroke-width:8.64"/>
	<circle cx="1796.85" cy="1642.59" r="22.03" style="fill:none;stroke:#606060;stroke-width:8.64"/>
	<circle cx="1949.56" cy="1691.10" r="22.03" style="fill:none;stroke:#606060;stroke-width:8.64"/>
	<circle cx="2102.39" cy="1390.87" r="22.03" style="fill:none;stroke:#606060;stroke-width:8.64"/>
	<circle cx="2255.10" cy="1204.50" r="22.03" style="fill:none;stroke:#606060;stroke-width:8.64"/>
	<circle cx="2407.80" cy="1058.84" r="22.03" style="fill:none;stroke:#606060;stroke-width:8.64"/>
	<circle cx="2560.64" cy="1047.08" r="22.03" style="fill:none;stroke:#606060;stroke-width:8.64"/>
	<circle cx="2713.34" cy="1300.16" r="22.03" style="fill:none;stroke:#606060;stroke-width:8.64"/>
	<circle cx="2866.17" cy="1128.39" r="22.03" style="fill:none;stroke:#606060;stroke-width:8.64"/>
	<circle cx="3018.88" cy="1127.40" r="22.03" style="fill:none;stroke:#606060;stroke-width:8.64"/>
	<circle cx="3171.59" cy="1064.78" r="22.03" style="fill:none;stroke:#606060;stroke-width:8.64"/>
	<circle cx="3324.42" cy="745.12" r="22.03" style="fill:none;stroke:#606060;stroke-width:8.64"/>
	<circle cx="3477.13" cy="861.20" r="22.03" style="fill:none;stroke:#606060;stroke-width:8.64"/>
	<circle cx="3629.84" cy="930.13" r="22.03" style="fill:none;stroke:#606060;stroke-width:8.64"/>
	<circle cx="3782.67" cy="892.02" r="22.03" style="fill:none;stroke:#606060;stroke-width:8.64"/>
	<path d=" M422.11 1545.31 L574.82 1539.50 L727.53 1451.01 L880.36 1717.46 L1033.07 1680.83 L1185.90 1732.93 L1338.60 1572.66 L1491.31 1594.20 L1644.14 1869.30 L1796.85 1642.59 L1949.56 1691.10 L2102.39 1390.87 L2255.10 1204.50 L2407.80 1058.84 L2560.64 1047.08 L2713.34 1300.16 L2866.17 1128.39 L3018.88 1127.40 L3171.59 1064.78 L3324.42 745.12 L3477.13 861.20 L3629.84 930.13 L3782.67 892.02" stroke-linejoin="round" style="fill:none;stroke:#808080;stroke-width:8.64"/>
	<line x1="345.76" y1="2534.23" x2="345.76" y2="100.86" style="stroke:#000000;stroke-width:5.76"/>
	<line x1="345.76" y1="2470.87" x2="305.79" y2="2470.87" style="stroke:#000000;stroke-width:5.76"/>
	<text x="263.18" y="2470.87" style="font-family:'Helvetica';font-size:74.99px;fill:#000000" transform="rotate(-90 263.18,2470.87)" text-anchor="middle">-.5</text>
	<line x1="345.76" y1="1701.99" x2="305.79" y2="1701.99" style="stroke:#000000;stroke-width:5.76"/>
	<text x="263.18" y="1701.99" style="font-family:'Helvetica';font-size:74.99px;fill:#000000" transform="rotate(-90 263.18,1701.99)" text-anchor="middle">0</text>
	<line x1="345.76" y1="933.10" x2="305.79" y2="933.10" style="stroke:#000000;stroke-width:5.76"/>
	<text x="263.18" y="933.10" style="font-family:'Helvetica';font-size:74.99px;fill:#000000" transform="rotate(-90 263.18,933.10)" text-anchor="middle">.5</text>
	<line x1="345.76" y1="164.22" x2="305.79" y2="164.22" style="stroke:#000000;stroke-width:5.76"/>
	<text x="263.18" y="164.22" style="font-family:'Helvetica';font-size:74.99px;fill:#000000" transform="rotate(-90 263.18,164.22)" text-anchor="middle">1</text>
	<text x="176.68" y="1317.48" style="font-family:'Helvetica';font-size:79.94px;fill:#000000" transform="rotate(-90 176.68,1317.48)" text-anchor="middle">Policy Dynamic Effects</text>
	<line x1="345.76" y1="2534.23" x2="3859.02" y2="2534.23" style="stroke:#000000;stroke-width:5.76"/>
	<line x1="422.11" y1="2534.23" x2="422.11" y2="2574.20" style="stroke:#000000;stroke-width:5.76"/>
	<text x="422.11" y="2646.69" style="font-family:'Helvetica';font-size:74.99px;fill:#000000" text-anchor="middle">pre_11</text>
	<line x1="574.94" y1="2534.23" x2="574.94" y2="2574.20" style="stroke:#000000;stroke-width:5.76"/>
	<text x="574.94" y="2646.69" style="font-family:'Helvetica';font-size:74.99px;fill:#000000" text-anchor="middle">pre_10</text>
	<line x1="727.65" y1="2534.23" x2="727.65" y2="2574.20" style="stroke:#000000;stroke-width:5.76"/>
	<text x="727.65" y="2646.69" style="font-family:'Helvetica';font-size:74.99px;fill:#000000" text-anchor="middle">pre_9</text>
	<line x1="880.36" y1="2534.23" x2="880.36" y2="2574.20" style="stroke:#000000;stroke-width:5.76"/>
	<text x="880.36" y="2646.69" style="font-family:'Helvetica';font-size:74.99px;fill:#000000" text-anchor="middle">pre_8</text>
	<line x1="1033.19" y1="2534.23" x2="1033.19" y2="2574.20" style="stroke:#000000;stroke-width:5.76"/>
	<text x="1033.19" y="2646.69" style="font-family:'Helvetica';font-size:74.99px;fill:#000000" text-anchor="middle">pre_7</text>
	<line x1="1185.90" y1="2534.23" x2="1185.90" y2="2574.20" style="stroke:#000000;stroke-width:5.76"/>
	<text x="1185.90" y="2646.69" style="font-family:'Helvetica';font-size:74.99px;fill:#000000" text-anchor="middle">pre_6</text>
	<line x1="1338.60" y1="2534.23" x2="1338.60" y2="2574.20" style="stroke:#000000;stroke-width:5.76"/>
	<text x="1338.60" y="2646.69" style="font-family:'Helvetica';font-size:74.99px;fill:#000000" text-anchor="middle">pre_5</text>
	<line x1="1491.44" y1="2534.23" x2="1491.44" y2="2574.20" style="stroke:#000000;stroke-width:5.76"/>
	<text x="1491.44" y="2646.69" style="font-family:'Helvetica';font-size:74.99px;fill:#000000" text-anchor="middle">pre_4</text>
	<line x1="1644.14" y1="2534.23" x2="1644.14" y2="2574.20" style="stroke:#000000;stroke-width:5.76"/>
	<text x="1644.14" y="2646.69" style="font-family:'Helvetica';font-size:74.99px;fill:#000000" text-anchor="middle">pre_3</text>
	<line x1="1796.97" y1="2534.23" x2="1796.97" y2="2574.20" style="stroke:#000000;stroke-width:5.76"/>
	<text x="1796.97" y="2646.69" style="font-family:'Helvetica';font-size:74.99px;fill:#000000" text-anchor="middle">pre_2</text>
	<line x1="1949.68" y1="2534.23" x2="1949.68" y2="2574.20" style="stroke:#000000;stroke-width:5.76"/>
	<text x="1949.68" y="2646.69" style="font-family:'Helvetica';font-size:74.99px;fill:#000000" text-anchor="middle">current</text>
	<line x1="2102.39" y1="2534.23" x2="2102.39" y2="2574.20" style="stroke:#000000;stroke-width:5.76"/>
	<text x="2102.39" y="2646.69" style="font-family:'Helvetica';font-size:74.99px;fill:#000000" text-anchor="middle">post_1</text>
	<line x1="2255.22" y1="2534.23" x2="2255.22" y2="2574.20" style="stroke:#000000;stroke-width:5.76"/>
	<text x="2255.22" y="2646.69" style="font-family:'Helvetica';font-size:74.99px;fill:#000000" text-anchor="middle">post_2</text>
	<line x1="2407.93" y1="2534.23" x2="2407.93" y2="2574.20" style="stroke:#000000;stroke-width:5.76"/>
	<text x="2407.93" y="2646.69" style="font-family:'Helvetica';font-size:74.99px;fill:#000000" text-anchor="middle">post_3</text>
	<line x1="2560.64" y1="2534.23" x2="2560.64" y2="2574.20" style="stroke:#000000;stroke-width:5.76"/>
	<text x="2560.64" y="2646.69" style="font-family:'Helvetica';font-size:74.99px;fill:#000000" text-anchor="middle">post_4</text>
	<line x1="2713.47" y1="2534.23" x2="2713.47" y2="2574.20" style="stroke:#000000;stroke-width:5.76"/>
	<text x="2713.47" y="2646.69" style="font-family:'Helvetica';font-size:74.99px;fill:#000000" text-anchor="middle">post_5</text>
	<line x1="2866.17" y1="2534.23" x2="2866.17" y2="2574.20" style="stroke:#000000;stroke-width:5.76"/>
	<text x="2866.17" y="2646.69" style="font-family:'Helvetica';font-size:74.99px;fill:#000000" text-anchor="middle">post_6</text>
	<line x1="3018.88" y1="2534.23" x2="3018.88" y2="2574.20" style="stroke:#000000;stroke-width:5.76"/>
	<text x="3018.88" y="2646.69" style="font-family:'Helvetica';font-size:74.99px;fill:#000000" text-anchor="middle">post_7</text>
	<line x1="3171.71" y1="2534.23" x2="3171.71" y2="2574.20" style="stroke:#000000;stroke-width:5.76"/>
	<text x="3171.71" y="2646.69" style="font-family:'Helvetica';font-size:74.99px;fill:#000000" text-anchor="middle">post_8</text>
	<line x1="3324.42" y1="2534.23" x2="3324.42" y2="2574.20" style="stroke:#000000;stroke-width:5.76"/>
	<text x="3324.42" y="2646.69" style="font-family:'Helvetica';font-size:74.99px;fill:#000000" text-anchor="middle">post_9</text>
	<line x1="3477.25" y1="2534.23" x2="3477.25" y2="2574.20" style="stroke:#000000;stroke-width:5.76"/>
	<text x="3477.25" y="2646.69" style="font-family:'Helvetica';font-size:74.99px;fill:#000000" text-anchor="middle">post_10</text>
	<line x1="3629.96" y1="2534.23" x2="3629.96" y2="2574.20" style="stroke:#000000;stroke-width:5.76"/>
	<text x="3629.96" y="2646.69" style="font-family:'Helvetica';font-size:74.99px;fill:#000000" text-anchor="middle">post_11</text>
	<line x1="3782.67" y1="2534.23" x2="3782.67" y2="2574.20" style="stroke:#000000;stroke-width:5.76"/>
	<text x="3782.67" y="2646.69" style="font-family:'Helvetica';font-size:74.99px;fill:#000000" text-anchor="middle">post_12</text>
	<text x="2102.39" y="2735.17" style="font-family:'Helvetica';font-size:79.94px;fill:#000000" text-anchor="middle">Readability</text>
</svg>
