<?xml version="1.0" encoding="UTF-8" standalone="no"?>
<!-- This is a Stata 18.0 generated SVG file (http://www.stata.com) -->

<svg version="1.1" width="5.500in" height="4.000in" viewBox="0 0 3960 2880" xmlns="http://www.w3.org/2000/svg" xmlns:xlink="http://www.w3.org/1999/xlink">
	<desc>Stata Graph - Graph</desc>
	<rect x="0" y="0" width="3960" height="2880" style="fill:#FFFFFF;stroke:none"/>
	<rect x="0.00" y="0.00" width="3959.88" height="2880.00" style="fill:#FFFFFF"/>
	<rect x="2.88" y="2.88" width="3954.12" height="2874.24" style="fill:none;stroke:#FFFFFF;stroke-width:5.76"/>
	<rect x="348.64" y="103.74" width="3507.50" height="2427.61" style="fill:none;stroke:#000000;stroke-width:5.76"/>
	<line x1="880.36" y1="2534.23" x2="880.36" y2="2476.69" style="stroke:#6E8E84;stroke-width:4.32"/>
	<line x1="880.36" y1="2447.85" x2="880.36" y2="2390.31" style="stroke:#6E8E84;stroke-width:4.32"/>
	<line x1="880.36" y1="2361.47" x2="880.36" y2="2303.93" style="stroke:#6E8E84;stroke-width:4.32"/>
	<line x1="880.36" y1="2275.09" x2="880.36" y2="2217.55" style="stroke:#6E8E84;stroke-width:4.32"/>
	<line x1="880.36" y1="2188.71" x2="880.36" y2="2131.17" style="stroke:#6E8E84;stroke-width:4.32"/>
	<line x1="880.36" y1="2102.33" x2="880.36" y2="2044.66" style="stroke:#6E8E84;stroke-width:4.32"/>
	<line x1="880.36" y1="2015.95" x2="880.36" y2="1958.28" style="stroke:#6E8E84;stroke-width:4.32"/>
	<line x1="880.36" y1="1929.57" x2="880.36" y2="1871.90" style="stroke:#6E8E84;stroke-width:4.32"/>
	<line x1="880.36" y1="1843.07" x2="880.36" y2="1785.52" style="stroke:#6E8E84;stroke-width:4.32"/>
	<line x1="880.36" y1="1756.69" x2="880.36" y2="1699.14" style="stroke:#6E8E84;stroke-width:4.32"/>
	<line x1="880.36" y1="1670.31" x2="880.36" y2="1612.76" style="stroke:#6E8E84;stroke-width:4.32"/>
	<line x1="880.36" y1="1583.93" x2="880.36" y2="1526.38" style="stroke:#6E8E84;stroke-width:4.32"/>
	<line x1="880.36" y1="1497.55" x2="880.36" y2="1440.00" style="stroke:#6E8E84;stroke-width:4.32"/>
	<line x1="880.36" y1="1411.17" x2="880.36" y2="1353.62" style="stroke:#6E8E84;stroke-width:4.32"/>
	<line x1="880.36" y1="1324.79" x2="880.36" y2="1267.24" style="stroke:#6E8E84;stroke-width:4.32"/>
	<line x1="880.36" y1="1238.40" x2="880.36" y2="1180.86" style="stroke:#6E8E84;stroke-width:4.32"/>
	<line x1="880.36" y1="1152.02" x2="880.36" y2="1094.36" style="stroke:#6E8E84;stroke-width:4.32"/>
	<line x1="880.36" y1="1065.64" x2="880.36" y2="1007.98" style="stroke:#6E8E84;stroke-width:4.32"/>
	<line x1="880.36" y1="979.14" x2="880.36" y2="921.60" style="stroke:#6E8E84;stroke-width:4.32"/>
	<line x1="880.36" y1="892.76" x2="880.36" y2="835.21" style="stroke:#6E8E84;stroke-width:4.32"/>
	<line x1="880.36" y1="806.38" x2="880.36" y2="748.83" style="stroke:#6E8E84;stroke-width:4.32"/>
	<line x1="880.36" y1="720.00" x2="880.36" y2="662.45" style="stroke:#6E8E84;stroke-width:4.32"/>
	<line x1="880.36" y1="633.62" x2="880.36" y2="576.07" style="stroke:#6E8E84;stroke-width:4.32"/>
	<line x1="880.36" y1="547.24" x2="880.36" y2="489.69" style="stroke:#6E8E84;stroke-width:4.32"/>
	<line x1="880.36" y1="460.86" x2="880.36" y2="403.31" style="stroke:#6E8E84;stroke-width:4.32"/>
	<line x1="880.36" y1="374.48" x2="880.36" y2="316.93" style="stroke:#6E8E84;stroke-width:4.32"/>
	<line x1="880.36" y1="288.10" x2="880.36" y2="230.55" style="stroke:#6E8E84;stroke-width:4.32"/>
	<line x1="880.36" y1="201.72" x2="880.36" y2="144.05" style="stroke:#6E8E84;stroke-width:4.32"/>
	<line x1="880.36" y1="115.34" x2="880.36" y2="100.86" style="stroke:#6E8E84;stroke-width:4.32"/>
	<line x1="345.76" y1="1894.18" x2="3859.02" y2="1894.18" style="stroke:#658397;stroke-width:8.64"/>
	<line x1="422.11" y1="1934.89" x2="422.11" y2="1877.35" style="stroke:#606060;stroke-width:8.64"/>
	<line x1="422.11" y1="1848.51" x2="422.11" y2="1790.97" style="stroke:#606060;stroke-width:8.64"/>
	<line x1="422.11" y1="1762.13" x2="422.11" y2="1704.46" style="stroke:#606060;stroke-width:8.64"/>
	<line x1="422.11" y1="1675.75" x2="422.11" y2="1618.08" style="stroke:#606060;stroke-width:8.64"/>
	<line x1="422.11" y1="1589.25" x2="422.11" y2="1531.70" style="stroke:#606060;stroke-width:8.64"/>
	<line x1="422.11" y1="1502.87" x2="422.11" y2="1445.32" style="stroke:#606060;stroke-width:8.64"/>
	<line x1="422.11" y1="1416.49" x2="422.11" y2="1358.94" style="stroke:#606060;stroke-width:8.64"/>
	<line x1="422.11" y1="1330.11" x2="422.11" y2="1299.66" style="stroke:#606060;stroke-width:8.64"/>
	<line x1="400.08" y1="1299.66" x2="444.14" y2="1299.66" style="stroke:#606060;stroke-width:8.64"/>
	<line x1="400.08" y1="1934.89" x2="444.14" y2="1934.89" style="stroke:#606060;stroke-width:8.64"/>
	<line x1="574.94" y1="1935.76" x2="574.94" y2="1878.21" style="stroke:#606060;stroke-width:8.64"/>
	<line x1="574.94" y1="1849.38" x2="574.94" y2="1791.83" style="stroke:#606060;stroke-width:8.64"/>
	<line x1="574.94" y1="1763.00" x2="574.94" y2="1705.45" style="stroke:#606060;stroke-width:8.64"/>
	<line x1="574.94" y1="1676.62" x2="574.94" y2="1619.07" style="stroke:#606060;stroke-width:8.64"/>
	<line x1="574.94" y1="1590.24" x2="574.94" y2="1532.69" style="stroke:#606060;stroke-width:8.64"/>
	<line x1="574.94" y1="1503.86" x2="574.94" y2="1446.31" style="stroke:#606060;stroke-width:8.64"/>
	<line x1="574.94" y1="1417.48" x2="574.94" y2="1359.81" style="stroke:#606060;stroke-width:8.64"/>
	<line x1="552.92" y1="1349.54" x2="596.97" y2="1349.54" style="stroke:#606060;stroke-width:8.64"/>
	<line x1="552.92" y1="1935.76" x2="596.97" y2="1935.76" style="stroke:#606060;stroke-width:8.64"/>
	<line x1="727.65" y1="1842.57" x2="727.65" y2="1785.03" style="stroke:#606060;stroke-width:8.64"/>
	<line x1="727.65" y1="1756.19" x2="727.65" y2="1698.65" style="stroke:#606060;stroke-width:8.64"/>
	<line x1="727.65" y1="1669.81" x2="727.65" y2="1612.27" style="stroke:#606060;stroke-width:8.64"/>
	<line x1="727.65" y1="1583.43" x2="727.65" y2="1525.76" style="stroke:#606060;stroke-width:8.64"/>
	<line x1="727.65" y1="1497.05" x2="727.65" y2="1439.38" style="stroke:#606060;stroke-width:8.64"/>
	<line x1="727.65" y1="1410.67" x2="727.65" y2="1353.00" style="stroke:#606060;stroke-width:8.64"/>
	<line x1="727.65" y1="1324.17" x2="727.65" y2="1266.62" style="stroke:#606060;stroke-width:8.64"/>
	<line x1="705.62" y1="1260.93" x2="749.68" y2="1260.93" style="stroke:#606060;stroke-width:8.64"/>
	<line x1="705.62" y1="1842.57" x2="749.68" y2="1842.57" style="stroke:#606060;stroke-width:8.64"/>
	<line x1="880.36" y1="2101.59" x2="880.36" y2="2044.04" style="stroke:#606060;stroke-width:8.64"/>
	<line x1="880.36" y1="2015.21" x2="880.36" y2="1957.54" style="stroke:#606060;stroke-width:8.64"/>
	<line x1="880.36" y1="1928.83" x2="880.36" y2="1871.16" style="stroke:#606060;stroke-width:8.64"/>
	<line x1="880.36" y1="1842.45" x2="880.36" y2="1784.78" style="stroke:#606060;stroke-width:8.64"/>
	<line x1="880.36" y1="1755.94" x2="880.36" y2="1698.40" style="stroke:#606060;stroke-width:8.64"/>
	<line x1="880.36" y1="1669.56" x2="880.36" y2="1612.02" style="stroke:#606060;stroke-width:8.64"/>
	<line x1="880.36" y1="1583.18" x2="880.36" y2="1543.33" style="stroke:#606060;stroke-width:8.64"/>
	<line x1="858.33" y1="1543.33" x2="902.39" y2="1543.33" style="stroke:#606060;stroke-width:8.64"/>
	<line x1="858.33" y1="2101.59" x2="902.39" y2="2101.59" style="stroke:#606060;stroke-width:8.64"/>
	<line x1="1033.19" y1="1892.57" x2="1033.19" y2="1835.02" style="stroke:#606060;stroke-width:8.64"/>
	<line x1="1033.19" y1="1806.19" x2="1033.19" y2="1748.64" style="stroke:#606060;stroke-width:8.64"/>
	<line x1="1033.19" y1="1719.81" x2="1033.19" y2="1662.26" style="stroke:#606060;stroke-width:8.64"/>
	<line x1="1033.19" y1="1633.43" x2="1033.19" y2="1575.88" style="stroke:#606060;stroke-width:8.64"/>
	<line x1="1033.19" y1="1547.05" x2="1033.19" y2="1489.50" style="stroke:#606060;stroke-width:8.64"/>
	<line x1="1033.19" y1="1460.67" x2="1033.19" y2="1403.00" style="stroke:#606060;stroke-width:8.64"/>
	<line x1="1033.19" y1="1374.29" x2="1033.19" y2="1346.07" style="stroke:#606060;stroke-width:8.64"/>
	<line x1="1011.16" y1="1346.07" x2="1055.22" y2="1346.07" style="stroke:#606060;stroke-width:8.64"/>
	<line x1="1011.16" y1="1892.57" x2="1055.22" y2="1892.57" style="stroke:#606060;stroke-width:8.64"/>
	<line x1="1185.90" y1="2012.24" x2="1185.90" y2="1954.69" style="stroke:#606060;stroke-width:8.64"/>
	<line x1="1185.90" y1="1925.86" x2="1185.90" y2="1868.31" style="stroke:#606060;stroke-width:8.64"/>
	<line x1="1185.90" y1="1839.48" x2="1185.90" y2="1781.93" style="stroke:#606060;stroke-width:8.64"/>
	<line x1="1185.90" y1="1753.10" x2="1185.90" y2="1695.55" style="stroke:#606060;stroke-width:8.64"/>
	<line x1="1185.90" y1="1666.72" x2="1185.90" y2="1609.05" style="stroke:#606060;stroke-width:8.64"/>
	<line x1="1185.90" y1="1580.34" x2="1185.90" y2="1522.67" style="stroke:#606060;stroke-width:8.64"/>
	<line x1="1185.90" y1="1493.96" x2="1185.90" y2="1465.99" style="stroke:#606060;stroke-width:8.64"/>
	<line x1="1163.87" y1="1465.99" x2="1207.92" y2="1465.99" style="stroke:#606060;stroke-width:8.64"/>
	<line x1="1163.87" y1="2012.24" x2="1207.92" y2="2012.24" style="stroke:#606060;stroke-width:8.64"/>
	<line x1="1338.60" y1="1892.32" x2="1338.60" y2="1834.77" style="stroke:#606060;stroke-width:8.64"/>
	<line x1="1338.60" y1="1805.94" x2="1338.60" y2="1748.39" style="stroke:#606060;stroke-width:8.64"/>
	<line x1="1338.60" y1="1719.56" x2="1338.60" y2="1662.01" style="stroke:#606060;stroke-width:8.64"/>
	<line x1="1338.60" y1="1633.18" x2="1338.60" y2="1575.63" style="stroke:#606060;stroke-width:8.64"/>
	<line x1="1338.60" y1="1546.80" x2="1338.60" y2="1489.25" style="stroke:#606060;stroke-width:8.64"/>
	<line x1="1338.60" y1="1460.42" x2="1338.60" y2="1402.87" style="stroke:#606060;stroke-width:8.64"/>
	<line x1="1338.60" y1="1374.04" x2="1338.60" y2="1345.58" style="stroke:#606060;stroke-width:8.64"/>
	<line x1="1316.58" y1="1345.58" x2="1360.63" y2="1345.58" style="stroke:#606060;stroke-width:8.64"/>
	<line x1="1316.58" y1="1892.32" x2="1360.63" y2="1892.32" style="stroke:#606060;stroke-width:8.64"/>
	<line x1="1491.44" y1="2189.58" x2="1491.44" y2="2132.03" style="stroke:#606060;stroke-width:8.64"/>
	<line x1="1491.44" y1="2103.20" x2="1491.44" y2="2045.65" style="stroke:#606060;stroke-width:8.64"/>
	<line x1="1491.44" y1="2016.82" x2="1491.44" y2="1959.27" style="stroke:#606060;stroke-width:8.64"/>
	<line x1="1491.44" y1="1930.44" x2="1491.44" y2="1872.89" style="stroke:#606060;stroke-width:8.64"/>
	<line x1="1491.44" y1="1844.06" x2="1491.44" y2="1786.51" style="stroke:#606060;stroke-width:8.64"/>
	<line x1="1491.44" y1="1757.68" x2="1491.44" y2="1700.01" style="stroke:#606060;stroke-width:8.64"/>
	<line x1="1491.44" y1="1671.30" x2="1491.44" y2="1644.94" style="stroke:#606060;stroke-width:8.64"/>
	<line x1="1469.41" y1="1644.94" x2="1513.46" y2="1644.94" style="stroke:#606060;stroke-width:8.64"/>
	<line x1="1469.41" y1="2189.58" x2="1513.46" y2="2189.58" style="stroke:#606060;stroke-width:8.64"/>
	<line x1="1644.14" y1="2274.84" x2="1644.14" y2="2217.30" style="stroke:#606060;stroke-width:8.64"/>
	<line x1="1644.14" y1="2188.46" x2="1644.14" y2="2130.92" style="stroke:#606060;stroke-width:8.64"/>
	<line x1="1644.14" y1="2102.08" x2="1644.14" y2="2044.41" style="stroke:#606060;stroke-width:8.64"/>
	<line x1="1644.14" y1="2015.70" x2="1644.14" y2="1958.03" style="stroke:#606060;stroke-width:8.64"/>
	<line x1="1644.14" y1="1929.32" x2="1644.14" y2="1871.65" style="stroke:#606060;stroke-width:8.64"/>
	<line x1="1644.14" y1="1842.82" x2="1644.14" y2="1785.27" style="stroke:#606060;stroke-width:8.64"/>
	<line x1="1622.12" y1="1767.95" x2="1666.17" y2="1767.95" style="stroke:#606060;stroke-width:8.64"/>
	<line x1="1622.12" y1="2274.84" x2="1666.17" y2="2274.84" style="stroke:#606060;stroke-width:8.64"/>
	<line x1="1796.97" y1="1979.44" x2="1796.97" y2="1921.90" style="stroke:#606060;stroke-width:8.64"/>
	<line x1="1796.97" y1="1893.06" x2="1796.97" y2="1835.52" style="stroke:#606060;stroke-width:8.64"/>
	<line x1="1796.97" y1="1806.68" x2="1796.97" y2="1749.14" style="stroke:#606060;stroke-width:8.64"/>
	<line x1="1796.97" y1="1720.30" x2="1796.97" y2="1662.76" style="stroke:#606060;stroke-width:8.64"/>
	<line x1="1796.97" y1="1633.92" x2="1796.97" y2="1576.38" style="stroke:#606060;stroke-width:8.64"/>
	<line x1="1796.97" y1="1547.54" x2="1796.97" y2="1508.31" style="stroke:#606060;stroke-width:8.64"/>
	<line x1="1774.95" y1="1508.31" x2="1819.00" y2="1508.31" style="stroke:#606060;stroke-width:8.64"/>
	<line x1="1774.95" y1="1979.44" x2="1819.00" y2="1979.44" style="stroke:#606060;stroke-width:8.64"/>
	<line x1="1949.68" y1="1906.18" x2="1949.68" y2="1848.64" style="stroke:#606060;stroke-width:8.64"/>
	<line x1="1949.68" y1="1819.80" x2="1949.68" y2="1762.26" style="stroke:#606060;stroke-width:8.64"/>
	<line x1="1949.68" y1="1733.42" x2="1949.68" y2="1675.87" style="stroke:#606060;stroke-width:8.64"/>
	<line x1="1949.68" y1="1647.04" x2="1949.68" y2="1589.37" style="stroke:#606060;stroke-width:8.64"/>
	<line x1="1949.68" y1="1560.66" x2="1949.68" y2="1502.99" style="stroke:#606060;stroke-width:8.64"/>
	<line x1="1949.68" y1="1474.16" x2="1949.68" y2="1433.44" style="stroke:#606060;stroke-width:8.64"/>
	<line x1="1927.65" y1="1433.44" x2="1971.71" y2="1433.44" style="stroke:#606060;stroke-width:8.64"/>
	<line x1="1927.65" y1="1906.18" x2="1971.71" y2="1906.18" style="stroke:#606060;stroke-width:8.64"/>
	<line x1="2102.39" y1="1795.79" x2="2102.39" y2="1738.25" style="stroke:#606060;stroke-width:8.64"/>
	<line x1="2102.39" y1="1709.41" x2="2102.39" y2="1651.87" style="stroke:#606060;stroke-width:8.64"/>
	<line x1="2102.39" y1="1623.03" x2="2102.39" y2="1565.36" style="stroke:#606060;stroke-width:8.64"/>
	<line x1="2102.39" y1="1536.65" x2="2102.39" y2="1478.98" style="stroke:#606060;stroke-width:8.64"/>
	<line x1="2102.39" y1="1450.27" x2="2102.39" y2="1392.60" style="stroke:#606060;stroke-width:8.64"/>
	<line x1="2102.39" y1="1363.77" x2="2102.39" y2="1306.22" style="stroke:#606060;stroke-width:8.64"/>
	<line x1="2080.36" y1="1289.52" x2="2124.42" y2="1289.52" style="stroke:#606060;stroke-width:8.64"/>
	<line x1="2080.36" y1="1795.79" x2="2124.42" y2="1795.79" style="stroke:#606060;stroke-width:8.64"/>
	<line x1="2255.22" y1="1769.06" x2="2255.22" y2="1711.52" style="stroke:#606060;stroke-width:8.64"/>
	<line x1="2255.22" y1="1682.68" x2="2255.22" y2="1625.01" style="stroke:#606060;stroke-width:8.64"/>
	<line x1="2255.22" y1="1596.30" x2="2255.22" y2="1538.63" style="stroke:#606060;stroke-width:8.64"/>
	<line x1="2255.22" y1="1509.80" x2="2255.22" y2="1452.25" style="stroke:#606060;stroke-width:8.64"/>
	<line x1="2255.22" y1="1423.42" x2="2255.22" y2="1365.87" style="stroke:#606060;stroke-width:8.64"/>
	<line x1="2255.22" y1="1337.04" x2="2255.22" y2="1279.49" style="stroke:#606060;stroke-width:8.64"/>
	<line x1="2233.19" y1="1272.56" x2="2277.25" y2="1272.56" style="stroke:#606060;stroke-width:8.64"/>
	<line x1="2233.19" y1="1769.06" x2="2277.25" y2="1769.06" style="stroke:#606060;stroke-width:8.64"/>
	<line x1="2407.93" y1="1951.85" x2="2407.93" y2="1894.30" style="stroke:#606060;stroke-width:8.64"/>
	<line x1="2407.93" y1="1865.47" x2="2407.93" y2="1807.92" style="stroke:#606060;stroke-width:8.64"/>
	<line x1="2407.93" y1="1779.09" x2="2407.93" y2="1721.54" style="stroke:#606060;stroke-width:8.64"/>
	<line x1="2407.93" y1="1692.71" x2="2407.93" y2="1635.16" style="stroke:#606060;stroke-width:8.64"/>
	<line x1="2407.93" y1="1606.33" x2="2407.93" y2="1548.78" style="stroke:#606060;stroke-width:8.64"/>
	<line x1="2407.93" y1="1519.94" x2="2407.93" y2="1462.28" style="stroke:#606060;stroke-width:8.64"/>
	<line x1="2385.90" y1="1447.67" x2="2429.96" y2="1447.67" style="stroke:#606060;stroke-width:8.64"/>
	<line x1="2385.90" y1="1951.85" x2="2429.96" y2="1951.85" style="stroke:#606060;stroke-width:8.64"/>
	<line x1="2560.64" y1="1639.74" x2="2560.64" y2="1582.19" style="stroke:#606060;stroke-width:8.64"/>
	<line x1="2560.64" y1="1553.36" x2="2560.64" y2="1495.81" style="stroke:#606060;stroke-width:8.64"/>
	<line x1="2560.64" y1="1466.98" x2="2560.64" y2="1409.43" style="stroke:#606060;stroke-width:8.64"/>
	<line x1="2560.64" y1="1380.60" x2="2560.64" y2="1323.05" style="stroke:#606060;stroke-width:8.64"/>
	<line x1="2560.64" y1="1294.22" x2="2560.64" y2="1236.55" style="stroke:#606060;stroke-width:8.64"/>
	<line x1="2560.64" y1="1207.84" x2="2560.64" y2="1150.17" style="stroke:#606060;stroke-width:8.64"/>
	<line x1="2538.61" y1="1124.18" x2="2582.66" y2="1124.18" style="stroke:#606060;stroke-width:8.64"/>
	<line x1="2538.61" y1="1639.74" x2="2582.66" y2="1639.74" style="stroke:#606060;stroke-width:8.64"/>
	<line x1="2713.47" y1="1352.26" x2="2713.47" y2="1294.71" style="stroke:#606060;stroke-width:8.64"/>
	<line x1="2713.47" y1="1265.88" x2="2713.47" y2="1208.33" style="stroke:#606060;stroke-width:8.64"/>
	<line x1="2713.47" y1="1179.50" x2="2713.47" y2="1121.83" style="stroke:#606060;stroke-width:8.64"/>
	<line x1="2713.47" y1="1093.12" x2="2713.47" y2="1035.45" style="stroke:#606060;stroke-width:8.64"/>
	<line x1="2713.47" y1="1006.74" x2="2713.47" y2="949.07" style="stroke:#606060;stroke-width:8.64"/>
	<line x1="2713.47" y1="920.23" x2="2713.47" y2="862.69" style="stroke:#606060;stroke-width:8.64"/>
	<line x1="2713.47" y1="833.85" x2="2713.47" y2="825.93" style="stroke:#606060;stroke-width:8.64"/>
	<line x1="2691.44" y1="825.93" x2="2735.49" y2="825.93" style="stroke:#606060;stroke-width:8.64"/>
	<line x1="2691.44" y1="1352.26" x2="2735.49" y2="1352.26" style="stroke:#606060;stroke-width:8.64"/>
	<line x1="2866.17" y1="1456.58" x2="2866.17" y2="1399.04" style="stroke:#606060;stroke-width:8.64"/>
	<line x1="2866.17" y1="1370.20" x2="2866.17" y2="1312.66" style="stroke:#606060;stroke-width:8.64"/>
	<line x1="2866.17" y1="1283.82" x2="2866.17" y2="1226.28" style="stroke:#606060;stroke-width:8.64"/>
	<line x1="2866.17" y1="1197.44" x2="2866.17" y2="1139.90" style="stroke:#606060;stroke-width:8.64"/>
	<line x1="2866.17" y1="1111.06" x2="2866.17" y2="1053.52" style="stroke:#606060;stroke-width:8.64"/>
	<line x1="2866.17" y1="1024.68" x2="2866.17" y2="967.14" style="stroke:#606060;stroke-width:8.64"/>
	<line x1="2866.17" y1="938.30" x2="2866.17" y2="904.15" style="stroke:#606060;stroke-width:8.64"/>
	<line x1="2844.15" y1="904.15" x2="2888.20" y2="904.15" style="stroke:#606060;stroke-width:8.64"/>
	<line x1="2844.15" y1="1456.58" x2="2888.20" y2="1456.58" style="stroke:#606060;stroke-width:8.64"/>
	<line x1="3018.88" y1="1286.67" x2="3018.88" y2="1229.12" style="stroke:#606060;stroke-width:8.64"/>
	<line x1="3018.88" y1="1200.29" x2="3018.88" y2="1142.74" style="stroke:#606060;stroke-width:8.64"/>
	<line x1="3018.88" y1="1113.91" x2="3018.88" y2="1056.36" style="stroke:#606060;stroke-width:8.64"/>
	<line x1="3018.88" y1="1027.53" x2="3018.88" y2="969.98" style="stroke:#606060;stroke-width:8.64"/>
	<line x1="3018.88" y1="941.15" x2="3018.88" y2="883.60" style="stroke:#606060;stroke-width:8.64"/>
	<line x1="3018.88" y1="854.77" x2="3018.88" y2="797.10" style="stroke:#606060;stroke-width:8.64"/>
	<line x1="3018.88" y1="768.39" x2="3018.88" y2="736.71" style="stroke:#606060;stroke-width:8.64"/>
	<line x1="2996.85" y1="736.71" x2="3040.91" y2="736.71" style="stroke:#606060;stroke-width:8.64"/>
	<line x1="2996.85" y1="1286.67" x2="3040.91" y2="1286.67" style="stroke:#606060;stroke-width:8.64"/>
	<line x1="3171.71" y1="1324.54" x2="3171.71" y2="1266.99" style="stroke:#606060;stroke-width:8.64"/>
	<line x1="3171.71" y1="1238.16" x2="3171.71" y2="1180.61" style="stroke:#606060;stroke-width:8.64"/>
	<line x1="3171.71" y1="1151.78" x2="3171.71" y2="1094.11" style="stroke:#606060;stroke-width:8.64"/>
	<line x1="3171.71" y1="1065.40" x2="3171.71" y2="1007.73" style="stroke:#606060;stroke-width:8.64"/>
	<line x1="3171.71" y1="979.02" x2="3171.71" y2="921.35" style="stroke:#606060;stroke-width:8.64"/>
	<line x1="3171.71" y1="892.51" x2="3171.71" y2="834.97" style="stroke:#606060;stroke-width:8.64"/>
	<line x1="3171.71" y1="806.13" x2="3171.71" y2="762.32" style="stroke:#606060;stroke-width:8.64"/>
	<line x1="3149.69" y1="762.32" x2="3193.74" y2="762.32" style="stroke:#606060;stroke-width:8.64"/>
	<line x1="3149.69" y1="1324.54" x2="3193.74" y2="1324.54" style="stroke:#606060;stroke-width:8.64"/>
	<line x1="3324.42" y1="1215.14" x2="3324.42" y2="1157.59" style="stroke:#606060;stroke-width:8.64"/>
	<line x1="3324.42" y1="1128.76" x2="3324.42" y2="1071.21" style="stroke:#606060;stroke-width:8.64"/>
	<line x1="3324.42" y1="1042.38" x2="3324.42" y2="984.83" style="stroke:#606060;stroke-width:8.64"/>
	<line x1="3324.42" y1="956.00" x2="3324.42" y2="898.45" style="stroke:#606060;stroke-width:8.64"/>
	<line x1="3324.42" y1="869.62" x2="3324.42" y2="812.07" style="stroke:#606060;stroke-width:8.64"/>
	<line x1="3324.42" y1="783.24" x2="3324.42" y2="725.69" style="stroke:#606060;stroke-width:8.64"/>
	<line x1="3324.42" y1="696.86" x2="3324.42" y2="659.61" style="stroke:#606060;stroke-width:8.64"/>
	<line x1="3302.39" y1="659.61" x2="3346.45" y2="659.61" style="stroke:#606060;stroke-width:8.64"/>
	<line x1="3302.39" y1="1215.14" x2="3346.45" y2="1215.14" style="stroke:#606060;stroke-width:8.64"/>
	<line x1="3477.25" y1="1372.80" x2="3477.25" y2="1315.26" style="stroke:#606060;stroke-width:8.64"/>
	<line x1="3477.25" y1="1286.42" x2="3477.25" y2="1228.75" style="stroke:#606060;stroke-width:8.64"/>
	<line x1="3477.25" y1="1200.04" x2="3477.25" y2="1142.37" style="stroke:#606060;stroke-width:8.64"/>
	<line x1="3477.25" y1="1113.66" x2="3477.25" y2="1055.99" style="stroke:#606060;stroke-width:8.64"/>
	<line x1="3477.25" y1="1027.16" x2="3477.25" y2="969.61" style="stroke:#606060;stroke-width:8.64"/>
	<line x1="3477.25" y1="940.78" x2="3477.25" y2="883.23" style="stroke:#606060;stroke-width:8.64"/>
	<line x1="3477.25" y1="854.40" x2="3477.25" y2="802.54" style="stroke:#606060;stroke-width:8.64"/>
	<line x1="3455.22" y1="802.54" x2="3499.28" y2="802.54" style="stroke:#606060;stroke-width:8.64"/>
	<line x1="3455.22" y1="1372.80" x2="3499.28" y2="1372.80" style="stroke:#606060;stroke-width:8.64"/>
	<line x1="3629.96" y1="1111.80" x2="3629.96" y2="1054.26" style="stroke:#606060;stroke-width:8.64"/>
	<line x1="3629.96" y1="1025.42" x2="3629.96" y2="967.76" style="stroke:#606060;stroke-width:8.64"/>
	<line x1="3629.96" y1="939.04" x2="3629.96" y2="881.38" style="stroke:#606060;stroke-width:8.64"/>
	<line x1="3629.96" y1="852.54" x2="3629.96" y2="794.99" style="stroke:#606060;stroke-width:8.64"/>
	<line x1="3629.96" y1="766.16" x2="3629.96" y2="708.61" style="stroke:#606060;stroke-width:8.64"/>
	<line x1="3629.96" y1="679.78" x2="3629.96" y2="622.23" style="stroke:#606060;stroke-width:8.64"/>
	<line x1="3629.96" y1="593.40" x2="3629.96" y2="546.99" style="stroke:#606060;stroke-width:8.64"/>
	<line x1="3607.93" y1="546.99" x2="3651.99" y2="546.99" style="stroke:#606060;stroke-width:8.64"/>
	<line x1="3607.93" y1="1111.80" x2="3651.99" y2="1111.80" style="stroke:#606060;stroke-width:8.64"/>
	<line x1="3782.67" y1="1250.29" x2="3782.67" y2="1192.74" style="stroke:#606060;stroke-width:8.64"/>
	<line x1="3782.67" y1="1163.91" x2="3782.67" y2="1106.24" style="stroke:#606060;stroke-width:8.64"/>
	<line x1="3782.67" y1="1077.52" x2="3782.67" y2="1019.86" style="stroke:#606060;stroke-width:8.64"/>
	<line x1="3782.67" y1="991.02" x2="3782.67" y2="933.48" style="stroke:#606060;stroke-width:8.64"/>
	<line x1="3782.67" y1="904.64" x2="3782.67" y2="847.10" style="stroke:#606060;stroke-width:8.64"/>
	<line x1="3782.67" y1="818.26" x2="3782.67" y2="760.72" style="stroke:#606060;stroke-width:8.64"/>
	<line x1="3782.67" y1="731.88" x2="3782.67" y2="694.01" style="stroke:#606060;stroke-width:8.64"/>
	<line x1="3760.64" y1="694.01" x2="3804.69" y2="694.01" style="stroke:#606060;stroke-width:8.64"/>
	<line x1="3760.64" y1="1250.29" x2="3804.69" y2="1250.29" style="stroke:#606060;stroke-width:8.64"/>
	<circle cx="422.11" cy="1617.34" r="22.03" style="fill:none;stroke:#606060;stroke-width:8.64"/>
	<circle cx="574.82" cy="1642.71" r="22.03" style="fill:none;stroke:#606060;stroke-width:8.64"/>
	<circle cx="727.53" cy="1551.87" r="22.03" style="fill:none;stroke:#606060;stroke-width:8.64"/>
	<circle cx="880.36" cy="1822.52" r="22.03" style="fill:none;stroke:#606060;stroke-width:8.64"/>
	<circle cx="1033.07" cy="1619.44" r="22.03" style="fill:none;stroke:#606060;stroke-width:8.64"/>
	<circle cx="1185.90" cy="1739.24" r="22.03" style="fill:none;stroke:#606060;stroke-width:8.64"/>
	<circle cx="1338.60" cy="1618.95" r="22.03" style="fill:none;stroke:#606060;stroke-width:8.64"/>
	<circle cx="1491.31" cy="1917.32" r="22.03" style="fill:none;stroke:#606060;stroke-width:8.64"/>
	<circle cx="1644.14" cy="2021.52" r="22.03" style="fill:none;stroke:#606060;stroke-width:8.64"/>
	<circle cx="1796.85" cy="1743.94" r="22.03" style="fill:none;stroke:#606060;stroke-width:8.64"/>
	<circle cx="1949.56" cy="1669.93" r="22.03" style="fill:none;stroke:#606060;stroke-width:8.64"/>
	<circle cx="2102.39" cy="1542.72" r="22.03" style="fill:none;stroke:#606060;stroke-width:8.64"/>
	<circle cx="2255.10" cy="1520.81" r="22.03" style="fill:none;stroke:#606060;stroke-width:8.64"/>
	<circle cx="2407.80" cy="1699.88" r="22.03" style="fill:none;stroke:#606060;stroke-width:8.64"/>
	<circle cx="2560.64" cy="1382.08" r="22.03" style="fill:none;stroke:#606060;stroke-width:8.64"/>
	<circle cx="2713.34" cy="1089.16" r="22.03" style="fill:none;stroke:#606060;stroke-width:8.64"/>
	<circle cx="2866.17" cy="1180.49" r="22.03" style="fill:none;stroke:#606060;stroke-width:8.64"/>
	<circle cx="3018.88" cy="1011.69" r="22.03" style="fill:none;stroke:#606060;stroke-width:8.64"/>
	<circle cx="3171.59" cy="1043.49" r="22.03" style="fill:none;stroke:#606060;stroke-width:8.64"/>
	<circle cx="3324.42" cy="937.44" r="22.03" style="fill:none;stroke:#606060;stroke-width:8.64"/>
	<circle cx="3477.13" cy="1087.80" r="22.03" style="fill:none;stroke:#606060;stroke-width:8.64"/>
	<circle cx="3629.84" cy="829.52" r="22.03" style="fill:none;stroke:#606060;stroke-width:8.64"/>
	<circle cx="3782.67" cy="972.21" r="22.03" style="fill:none;stroke:#606060;stroke-width:8.64"/>
	<path d=" M422.11 1617.34 L574.82 1642.71 L727.53 1551.87 L880.36 1822.52 L1033.07 1619.44 L1185.90 1739.24 L1338.60 1618.95 L1491.31 1917.32 L1644.14 2021.52 L1796.85 1743.94 L1949.56 1669.93 L2102.39 1542.72 L2255.10 1520.81 L2407.80 1699.88 L2560.64 1382.08 L2713.34 1089.16 L2866.17 1180.49 L3018.88 1011.69 L3171.59 1043.49 L3324.42 937.44 L3477.13 1087.80 L3629.84 829.52 L3782.67 972.21" stroke-linejoin="round" style="fill:none;stroke:#808080;stroke-width:8.64"/>
	<line x1="345.76" y1="2534.23" x2="345.76" y2="100.86" style="stroke:#000000;stroke-width:5.76"/>
	<line x1="345.76" y1="2470.87" x2="305.79" y2="2470.87" style="stroke:#000000;stroke-width:5.76"/>
	<text x="263.18" y="2470.87" style="font-family:'Helvetica';font-size:74.99px;fill:#000000" transform="rotate(-90 263.18,2470.87)" text-anchor="middle">-.05</text>
	<line x1="345.76" y1="1894.18" x2="305.79" y2="1894.18" style="stroke:#000000;stroke-width:5.76"/>
	<text x="263.18" y="1894.18" style="font-family:'Helvetica';font-size:74.99px;fill:#000000" transform="rotate(-90 263.18,1894.18)" text-anchor="middle">0</text>
	<line x1="345.76" y1="1317.48" x2="305.79" y2="1317.48" style="stroke:#000000;stroke-width:5.76"/>
	<text x="263.18" y="1317.48" style="font-family:'Helvetica';font-size:74.99px;fill:#000000" transform="rotate(-90 263.18,1317.48)" text-anchor="middle">.05</text>
	<line x1="345.76" y1="740.79" x2="305.79" y2="740.79" style="stroke:#000000;stroke-width:5.76"/>
	<text x="263.18" y="740.79" style="font-family:'Helvetica';font-size:74.99px;fill:#000000" transform="rotate(-90 263.18,740.79)" text-anchor="middle">.1</text>
	<line x1="345.76" y1="164.22" x2="305.79" y2="164.22" style="stroke:#000000;stroke-width:5.76"/>
	<text x="263.18" y="164.22" style="font-family:'Helvetica';font-size:74.99px;fill:#000000" transform="rotate(-90 263.18,164.22)" text-anchor="middle">.15</text>
	<text x="176.68" y="1317.48" style="font-family:'Helvetica';font-size:79.94px;fill:#000000" transform="rotate(-90 176.68,1317.48)" text-anchor="middle">Policy Dynamic Effects</text>
	<line x1="345.76" y1="2534.23" x2="3859.02" y2="2534.23" style="stroke:#000000;stroke-width:5.76"/>
	<line x1="422.11" y1="2534.23" x2="422.11" y2="2574.20" style="stroke:#000000;stroke-width:5.76"/>
	<text x="422.11" y="2646.69" style="font-family:'Helvetica';font-size:74.99px;fill:#000000" text-anchor="middle">pre_11</text>
	<line x1="574.94" y1="2534.23" x2="574.94" y2="2574.20" style="stroke:#000000;stroke-width:5.76"/>
	<text x="574.94" y="2646.69" style="font-family:'Helvetica';font-size:74.99px;fill:#000000" text-anchor="middle">pre_10</text>
	<line x1="727.65" y1="2534.23" x2="727.65" y2="2574.20" style="stroke:#000000;stroke-width:5.76"/>
	<text x="727.65" y="2646.69" style="font-family:'Helvetica';font-size:74.99px;fill:#000000" text-anchor="middle">pre_9</text>
	<line x1="880.36" y1="2534.23" x2="880.36" y2="2574.20" style="stroke:#000000;stroke-width:5.76"/>
	<text x="880.36" y="2646.69" style="font-family:'Helvetica';font-size:74.99px;fill:#000000" text-anchor="middle">pre_8</text>
	<line x1="1033.19" y1="2534.23" x2="1033.19" y2="2574.20" style="stroke:#000000;stroke-width:5.76"/>
	<text x="1033.19" y="2646.69" style="font-family:'Helvetica';font-size:74.99px;fill:#000000" text-anchor="middle">pre_7</text>
	<line x1="1185.90" y1="2534.23" x2="1185.90" y2="2574.20" style="stroke:#000000;stroke-width:5.76"/>
	<text x="1185.90" y="2646.69" style="font-family:'Helvetica';font-size:74.99px;fill:#000000" text-anchor="middle">pre_6</text>
	<line x1="1338.60" y1="2534.23" x2="1338.60" y2="2574.20" style="stroke:#000000;stroke-width:5.76"/>
	<text x="1338.60" y="2646.69" style="font-family:'Helvetica';font-size:74.99px;fill:#000000" text-anchor="middle">pre_5</text>
	<line x1="1491.44" y1="2534.23" x2="1491.44" y2="2574.20" style="stroke:#000000;stroke-width:5.76"/>
	<text x="1491.44" y="2646.69" style="font-family:'Helvetica';font-size:74.99px;fill:#000000" text-anchor="middle">pre_4</text>
	<line x1="1644.14" y1="2534.23" x2="1644.14" y2="2574.20" style="stroke:#000000;stroke-width:5.76"/>
	<text x="1644.14" y="2646.69" style="font-family:'Helvetica';font-size:74.99px;fill:#000000" text-anchor="middle">pre_3</text>
	<line x1="1796.97" y1="2534.23" x2="1796.97" y2="2574.20" style="stroke:#000000;stroke-width:5.76"/>
	<text x="1796.97" y="2646.69" style="font-family:'Helvetica';font-size:74.99px;fill:#000000" text-anchor="middle">pre_2</text>
	<line x1="1949.68" y1="2534.23" x2="1949.68" y2="2574.20" style="stroke:#000000;stroke-width:5.76"/>
	<text x="1949.68" y="2646.69" style="font-family:'Helvetica';font-size:74.99px;fill:#000000" text-anchor="middle">current</text>
	<line x1="2102.39" y1="2534.23" x2="2102.39" y2="2574.20" style="stroke:#000000;stroke-width:5.76"/>
	<text x="2102.39" y="2646.69" style="font-family:'Helvetica';font-size:74.99px;fill:#000000" text-anchor="middle">post_1</text>
	<line x1="2255.22" y1="2534.23" x2="2255.22" y2="2574.20" style="stroke:#000000;stroke-width:5.76"/>
	<text x="2255.22" y="2646.69" style="font-family:'Helvetica';font-size:74.99px;fill:#000000" text-anchor="middle">post_2</text>
	<line x1="2407.93" y1="2534.23" x2="2407.93" y2="2574.20" style="stroke:#000000;stroke-width:5.76"/>
	<text x="2407.93" y="2646.69" style="font-family:'Helvetica';font-size:74.99px;fill:#000000" text-anchor="middle">post_3</text>
	<line x1="2560.64" y1="2534.23" x2="2560.64" y2="2574.20" style="stroke:#000000;stroke-width:5.76"/>
	<text x="2560.64" y="2646.69" style="font-family:'Helvetica';font-size:74.99px;fill:#000000" text-anchor="middle">post_4</text>
	<line x1="2713.47" y1="2534.23" x2="2713.47" y2="2574.20" style="stroke:#000000;stroke-width:5.76"/>
	<text x="2713.47" y="2646.69" style="font-family:'Helvetica';font-size:74.99px;fill:#000000" text-anchor="middle">post_5</text>
	<line x1="2866.17" y1="2534.23" x2="2866.17" y2="2574.20" style="stroke:#000000;stroke-width:5.76"/>
	<text x="2866.17" y="2646.69" style="font-family:'Helvetica';font-size:74.99px;fill:#000000" text-anchor="middle">post_6</text>
	<line x1="3018.88" y1="2534.23" x2="3018.88" y2="2574.20" style="stroke:#000000;stroke-width:5.76"/>
	<text x="3018.88" y="2646.69" style="font-family:'Helvetica';font-size:74.99px;fill:#000000" text-anchor="middle">post_7</text>
	<line x1="3171.71" y1="2534.23" x2="3171.71" y2="2574.20" style="stroke:#000000;stroke-width:5.76"/>
	<text x="3171.71" y="2646.69" style="font-family:'Helvetica';font-size:74.99px;fill:#000000" text-anchor="middle">post_8</text>
	<line x1="3324.42" y1="2534.23" x2="3324.42" y2="2574.20" style="stroke:#000000;stroke-width:5.76"/>
	<text x="3324.42" y="2646.69" style="font-family:'Helvetica';font-size:74.99px;fill:#000000" text-anchor="middle">post_9</text>
	<line x1="3477.25" y1="2534.23" x2="3477.25" y2="2574.20" style="stroke:#000000;stroke-width:5.76"/>
	<text x="3477.25" y="2646.69" style="font-family:'Helvetica';font-size:74.99px;fill:#000000" text-anchor="middle">post_10</text>
	<line x1="3629.96" y1="2534.23" x2="3629.96" y2="2574.20" style="stroke:#000000;stroke-width:5.76"/>
	<text x="3629.96" y="2646.69" style="font-family:'Helvetica';font-size:74.99px;fill:#000000" text-anchor="middle">post_11</text>
	<line x1="3782.67" y1="2534.23" x2="3782.67" y2="2574.20" style="stroke:#000000;stroke-width:5.76"/>
	<text x="3782.67" y="2646.69" style="font-family:'Helvetica';font-size:74.99px;fill:#000000" text-anchor="middle">post_12</text>
	<text x="2102.39" y="2735.17" style="fill:#000000" text-anchor="middle">
		<tspan style="font-family:'Helvetica';font-size:79.94px">Avg_rating</tspan>
		<tspan dy="11.42px" style="font-family:'Helvetica';font-size:46.61px">it</tspan>
	</text>
</svg>
